<svg width="23" height="23" viewBox="0 0 23 23" fill="none" xmlns="http://www.w3.org/2000/svg">
<path fill-rule="evenodd" clip-rule="evenodd" d="M8.14583 3.83366C6.55801 3.83366 5.27083 5.12084 5.27083 6.70866C5.27083 8.29648 6.55801 9.58366 8.14583 9.58366C9.73365 9.58366 11.0208 8.29648 11.0208 6.70866C11.0208 5.12084 9.73365 3.83366 8.14583 3.83366ZM3.35417 6.70866C3.35417 4.06229 5.49947 1.91699 8.14583 1.91699C10.7922 1.91699 12.9375 4.06229 12.9375 6.70866C12.9375 9.35502 10.7922 11.5003 8.14583 11.5003C5.49947 11.5003 3.35417 9.35502 3.35417 6.70866ZM19.1667 6.70866C19.6959 6.70866 20.125 7.13772 20.125 7.66699V9.58366H22.0417C22.5709 9.58366 23 10.0127 23 10.542C23 11.0713 22.5709 11.5003 22.0417 11.5003H20.125V13.417C20.125 13.9463 19.6959 14.3753 19.1667 14.3753C18.6374 14.3753 18.2083 13.9463 18.2083 13.417V11.5003H16.2917C15.7624 11.5003 15.3333 11.0713 15.3333 10.542C15.3333 10.0127 15.7624 9.58366 16.2917 9.58366H18.2083V7.66699C18.2083 7.13772 18.6374 6.70866 19.1667 6.70866ZM1.40345 14.8204C2.30206 13.9218 3.52084 13.417 4.79167 13.417H11.5C12.7708 13.417 13.9896 13.9218 14.8882 14.8204C15.7868 15.7191 16.2917 16.9378 16.2917 18.2087V20.1253C16.2917 20.6546 15.8626 21.0837 15.3333 21.0837C14.8041 21.0837 14.375 20.6546 14.375 20.1253V18.2087C14.375 17.4462 14.0721 16.7149 13.5329 16.1757C12.9938 15.6366 12.2625 15.3337 11.5 15.3337H4.79167C4.02917 15.3337 3.2979 15.6366 2.75873 16.1757C2.21957 16.7149 1.91667 17.4462 1.91667 18.2087V20.1253C1.91667 20.6546 1.48761 21.0837 0.958333 21.0837C0.42906 21.0837 0 20.6546 0 20.1253V18.2087C0 16.9378 0.504835 15.7191 1.40345 14.8204Z" fill="white"/>
</svg>
