<svg width="124" height="23" viewBox="0 0 124 23" fill="none" xmlns="http://www.w3.org/2000/svg">
<path d="M78.9372 22.5048C77.7742 22.5048 76.9932 21.5608 76.9932 20.1528V6.15278C76.9932 4.74578 77.7742 3.80078 78.9372 3.80078C79.3872 3.80078 79.8592 3.94178 80.3412 4.21978L92.4652 11.2198C93.3182 11.7118 93.7862 12.3988 93.7862 13.1528C93.7862 13.9068 93.3172 14.5938 92.4652 15.0868L80.3412 22.0868C79.8592 22.3638 79.3872 22.5048 78.9372 22.5048ZM78.9372 4.80078C78.0612 4.80078 77.9932 5.83578 77.9932 6.15278V20.1528C77.9932 20.4688 78.0612 21.5048 78.9372 21.5048C79.2062 21.5048 79.5182 21.4058 79.8412 21.2198L91.9652 14.2198C92.4872 13.9188 92.7862 13.5308 92.7862 13.1538C92.7862 12.7768 92.4872 12.3878 91.9652 12.0868L79.8412 5.08678C79.5182 4.89978 79.2052 4.80078 78.9372 4.80078Z" fill="#0D51FF" stroke="#0D51FF" stroke-width="0.5"/>
<path d="M89.6191 16.6526C89.5443 16.6528 89.4704 16.6362 89.4029 16.604C89.3354 16.5718 89.276 16.5248 89.2291 16.4666L80.0451 5.16656C79.9614 5.06352 79.9221 4.93147 79.9358 4.79944C79.9495 4.66742 80.015 4.54624 80.1181 4.46256C80.2211 4.37888 80.3532 4.33957 80.4852 4.35326C80.6172 4.36695 80.7384 4.43252 80.8221 4.53556L90.0061 15.8366C90.065 15.9101 90.1021 15.9987 90.113 16.0922C90.124 16.1858 90.1084 16.2806 90.068 16.3657C90.0276 16.4508 89.9641 16.5229 89.8847 16.5736C89.8053 16.6243 89.7133 16.6517 89.6191 16.6526Z" fill="#0D51FF" stroke="#0D51FF" stroke-width="0.5"/>
<path d="M80.4331 21.9546C80.3386 21.9545 80.2461 21.9277 80.1663 21.8772C80.0864 21.8268 80.0225 21.7548 79.9819 21.6695C79.9413 21.5842 79.9257 21.4892 79.9369 21.3954C79.948 21.3016 79.9856 21.2129 80.0451 21.1396L89.2291 9.83855C89.3148 9.74233 89.4344 9.68287 89.5628 9.67252C89.6913 9.66217 89.8188 9.70173 89.9189 9.78299C90.0189 9.86424 90.0838 9.98094 90.1001 10.1088C90.1163 10.2367 90.0826 10.3659 90.0061 10.4696L80.8221 21.7696C80.7751 21.8275 80.7159 21.8742 80.6485 21.9062C80.5812 21.9382 80.5076 21.9547 80.4331 21.9546Z" fill="#0D51FF" stroke="#0D51FF" stroke-width="0.5"/>
<path d="M103.956 8.15234H100.391V18.1217H101.882V14.3493H103.964C105.615 14.3493 107.234 13.153 107.234 11.2548C107.234 9.35664 105.607 8.15234 103.956 8.15234ZM103.996 12.9615H101.882V9.54007H103.996C105.112 9.54007 105.742 10.4652 105.742 11.2468C105.742 12.0204 105.112 12.9615 103.996 12.9615ZM113.191 11.526C112.115 11.526 110.998 12.0045 110.535 13.0493L111.859 13.5996C112.138 13.0493 112.665 12.8658 113.215 12.8658C113.981 12.8658 114.77 13.3284 114.778 14.1499V14.2536C114.507 14.102 113.933 13.8707 113.223 13.8707C111.796 13.8707 110.352 14.6523 110.352 16.1119C110.352 17.4438 111.516 18.3051 112.824 18.3051C113.821 18.3051 114.38 17.8585 114.723 17.3321H114.77V18.1057H116.206V14.2855C116.222 12.5149 114.898 11.526 113.191 11.526ZM113.016 16.9892C112.529 16.9892 111.851 16.7419 111.851 16.1438C111.851 15.3781 112.697 15.083 113.431 15.083C114.084 15.083 114.396 15.2266 114.786 15.418C114.667 16.3352 113.877 16.9892 113.016 16.9892ZM121.454 11.7493L119.747 16.072H119.699L117.929 11.7493H116.326L118.981 17.7947L117.466 21.1523H119.021L123.113 11.7493H121.454ZM108.047 18.1217H109.538V8.15234H108.047V18.1217Z" fill="#0D51FF"/>
<path d="M24.8732 15.2947C24.9805 16.2544 25.9127 16.8845 27.1867 16.8845C28.4074 16.8845 29.2857 16.2544 29.2857 15.3891C29.2857 14.6379 28.756 14.1881 27.5018 13.8799L26.2476 13.5778C24.4706 13.1486 23.6456 12.3175 23.6456 10.9689C23.6456 9.29923 25.1007 8.15234 27.1662 8.15234C29.2118 8.15234 30.6137 9.29923 30.6609 10.9689H29.1989C29.1114 10.0032 28.313 9.42024 27.1464 9.42024C25.9797 9.42024 25.1814 10.01 25.1814 10.8685C25.1814 11.5527 25.6913 11.9553 26.9386 12.2634L28.0048 12.5252C29.9904 12.9948 30.8146 13.7924 30.8146 15.2079C30.8146 17.0184 29.3732 18.1523 27.0794 18.1523C24.9332 18.1523 23.4842 17.045 23.3906 15.2946L24.8732 15.2947Z" fill="#0D51FF"/>
<path d="M33.9417 9.2666V10.9363H35.2834V12.0832H33.9417V15.9729C33.9417 16.5771 34.2103 16.8587 34.8001 16.8587C34.9594 16.8559 35.1184 16.8447 35.2765 16.8252V17.9652C35.0114 18.0148 34.7418 18.0372 34.4721 18.0322C33.0437 18.0322 32.4866 17.4957 32.4866 16.1273V12.0832H31.4607V10.9363H32.4865V9.2666H33.9417Z" fill="#0D51FF"/>
<path d="M36.0603 14.4645C36.0603 12.2446 37.3678 10.8496 39.4066 10.8496C41.4522 10.8496 42.7536 12.2446 42.7536 14.4645C42.7536 16.6906 41.4591 18.0795 39.4066 18.0795C37.3548 18.0795 36.0603 16.6906 36.0603 14.4645ZM41.278 14.4645C41.278 12.9417 40.5801 12.0429 39.4066 12.0429C38.2331 12.0429 37.5352 12.9485 37.5352 14.4645C37.5352 15.9935 38.2331 16.8854 39.4066 16.8854C40.5801 16.8854 41.278 15.9935 41.278 14.4645H41.278Z" fill="#0D51FF"/>
<path d="M43.947 10.9354H45.3283V12.1363H45.3618C45.4553 11.7612 45.675 11.4298 45.9841 11.1976C46.2931 10.9655 46.6727 10.8468 47.0589 10.8616C47.2258 10.861 47.3923 10.8791 47.5551 10.9156V12.2703C47.3444 12.2059 47.1246 12.1763 46.9044 12.1827C46.694 12.1742 46.4843 12.2113 46.2896 12.2915C46.0949 12.3717 45.9198 12.493 45.7764 12.6472C45.6331 12.8015 45.5248 12.9849 45.459 13.1849C45.3932 13.3849 45.3715 13.5968 45.3953 13.806V17.991H43.947L43.947 10.9354Z" fill="#0D51FF"/>
<path d="M54.2332 15.9196C54.0384 17.2005 52.791 18.0795 51.1951 18.0795C49.1426 18.0795 47.8687 16.7043 47.8687 14.498C47.8687 12.2849 49.1495 10.8496 51.1343 10.8496C53.0863 10.8496 54.3139 12.1906 54.3139 14.3298V14.826H49.3306V14.9135C49.3076 15.1732 49.3401 15.4348 49.426 15.6809C49.5118 15.9271 49.6491 16.1521 49.8286 16.3411C50.0081 16.5301 50.2258 16.6788 50.4672 16.7772C50.7086 16.8757 50.9681 16.9216 51.2286 16.912C51.5709 16.9441 51.9143 16.8648 52.2079 16.686C52.5015 16.5072 52.7295 16.2384 52.858 15.9196L54.2332 15.9196ZM49.3374 13.8138H52.8649C52.8779 13.5804 52.8425 13.3467 52.7609 13.1276C52.6793 12.9084 52.5533 12.7085 52.3908 12.5404C52.2283 12.3722 52.0328 12.2395 51.8166 12.1505C51.6003 12.0615 51.368 12.0181 51.1343 12.0231C50.8984 12.0217 50.6646 12.067 50.4464 12.1565C50.2282 12.2459 50.0298 12.3776 49.8627 12.5441C49.6957 12.7106 49.5633 12.9085 49.4731 13.1264C49.3829 13.3444 49.3368 13.578 49.3374 13.8139V13.8138Z" fill="#0D51FF"/>
<path d="M14.6377 12.0329L14.6376 12.0329L14.6377 12.0433C14.6389 13.1669 14.9708 14.2653 15.592 15.2015C16.0833 15.9418 16.7383 16.5548 17.5026 16.9953C17.1838 17.8474 16.7568 18.656 16.2314 19.4009L16.2261 19.4085L16.2209 19.4163C15.751 20.1191 15.3188 20.7358 14.8376 21.1851C14.3718 21.62 13.9106 21.8502 13.3792 21.8588L13.3741 21.8589C12.8006 21.8722 12.4322 21.7153 11.9021 21.4897L11.9009 21.4892C11.3495 21.2544 10.6767 20.9737 9.6571 20.9737C8.6402 20.9737 7.9623 21.2321 7.39493 21.4691C7.36061 21.4834 7.32699 21.4975 7.29398 21.5114C6.79437 21.7209 6.43458 21.8718 5.90575 21.894C5.45707 21.9101 4.99416 21.6899 4.47467 21.2023C3.95434 20.714 3.47394 20.0493 2.98731 19.3536C2.08486 18.034 1.27027 16.1524 0.924756 14.1933C0.577979 12.2271 0.71837 10.2756 1.60446 8.74141L1.60455 8.74146L1.61037 8.731C2.01165 8.00991 2.59288 7.40506 3.29742 6.97538C4.00067 6.54649 4.80285 6.30674 5.62606 6.27936C6.19814 6.26861 6.78422 6.46279 7.42022 6.71397C7.49536 6.74365 7.57301 6.77485 7.65196 6.80656C7.885 6.90018 8.12934 6.99834 8.35384 7.0754C8.65422 7.1785 9.00507 7.27597 9.35885 7.27597C9.72392 7.27597 10.1049 7.15599 10.4197 7.04239C10.5915 6.98039 10.8046 6.89607 11.0156 6.81258C11.1733 6.75017 11.3299 6.68824 11.4671 6.63645C12.2033 6.35854 12.9222 6.1548 13.6096 6.22695L13.6369 6.22983L13.6644 6.23069C14.3665 6.25265 15.0537 6.43802 15.6716 6.77206C16.0715 6.98822 16.4351 7.26278 16.7512 7.58557C16.2115 8.03684 15.7551 8.58259 15.4056 9.19841L16.0579 9.56862L15.4056 9.19841C14.9147 10.0633 14.6505 11.0384 14.6377 12.0329Z" stroke="#0D51FF" stroke-width="1.5"/>
<path d="M12.1628 3.30987L12.1627 3.30982L12.1573 3.31659C11.8006 3.76024 11.3479 4.11717 10.8332 4.3605C10.467 4.53365 10.0762 4.64606 9.67619 4.69439C9.69603 4.29393 9.77155 3.89736 9.90122 3.51626C10.0841 2.97868 10.3712 2.48242 10.746 2.05585L10.7462 2.0557C11.3971 1.31431 12.2632 0.802532 13.2164 0.586722C13.1729 1.58023 12.8057 2.53811 12.1628 3.30987Z" stroke="#0D51FF"/>
</svg>
