<svg width="150" height="150" viewBox="0 0 150 150" fill="none" xmlns="http://www.w3.org/2000/svg">
<rect x="0.5" y="0.5" width="149" height="149" rx="7.5" fill="white" stroke="#0D51FF"/>
<g clip-path="url(#appQRCodeIconDefs)">
<path d="M53.6001 16.3649C54.3093 16.3649 54.8842 15.79 54.8842 15.0808C54.8842 14.3716 54.3093 13.7966 53.6001 13.7966C52.8909 13.7966 52.3159 14.3716 52.3159 15.0808C52.3159 15.79 52.8909 16.3649 53.6001 16.3649Z" fill="#0D51FF"/>
<path d="M62.1606 16.3649C62.8698 16.3649 63.4448 15.79 63.4448 15.0808C63.4448 14.3716 62.8698 13.7966 62.1606 13.7966C61.4514 13.7966 60.8765 14.3716 60.8765 15.0808C60.8765 15.79 61.4514 16.3649 62.1606 16.3649Z" fill="#0D51FF"/>
<path d="M70.7209 16.3649C71.4301 16.3649 72.0051 15.79 72.0051 15.0808C72.0051 14.3716 71.4301 13.7966 70.7209 13.7966C70.0117 13.7966 69.4368 14.3716 69.4368 15.0808C69.4368 15.79 70.0117 16.3649 70.7209 16.3649Z" fill="#0D51FF"/>
<path d="M75.0002 16.3649C75.7094 16.3649 76.2844 15.79 76.2844 15.0808C76.2844 14.3716 75.7094 13.7966 75.0002 13.7966C74.291 13.7966 73.7161 14.3716 73.7161 15.0808C73.7161 15.79 74.291 16.3649 75.0002 16.3649Z" fill="#0D51FF"/>
<path d="M79.2795 16.3649C79.9887 16.3649 80.5637 15.79 80.5637 15.0808C80.5637 14.3716 79.9887 13.7966 79.2795 13.7966C78.5703 13.7966 77.9954 14.3716 77.9954 15.0808C77.9954 15.79 78.5703 16.3649 79.2795 16.3649Z" fill="#0D51FF"/>
<path d="M83.5605 16.3649C84.2697 16.3649 84.8447 15.79 84.8447 15.0808C84.8447 14.3716 84.2697 13.7966 83.5605 13.7966C82.8513 13.7966 82.2764 14.3716 82.2764 15.0808C82.2764 15.79 82.8513 16.3649 83.5605 16.3649Z" fill="#0D51FF"/>
<path d="M87.8398 16.3649C88.549 16.3649 89.1239 15.79 89.1239 15.0808C89.1239 14.3716 88.549 13.7966 87.8398 13.7966C87.1306 13.7966 86.5557 14.3716 86.5557 15.0808C86.5557 15.79 87.1306 16.3649 87.8398 16.3649Z" fill="#0D51FF"/>
<path d="M92.1191 16.3649C92.8283 16.3649 93.4033 15.79 93.4033 15.0808C93.4033 14.3716 92.8283 13.7966 92.1191 13.7966C91.4099 13.7966 90.835 14.3716 90.835 15.0808C90.835 15.79 91.4099 16.3649 92.1191 16.3649Z" fill="#0D51FF"/>
<path d="M96.3984 16.3649C97.1076 16.3649 97.6826 15.79 97.6826 15.0808C97.6826 14.3716 97.1076 13.7966 96.3984 13.7966C95.6892 13.7966 95.1143 14.3716 95.1143 15.0808C95.1143 15.79 95.6892 16.3649 96.3984 16.3649Z" fill="#0D51FF"/>
<path d="M49.3208 20.6461C50.03 20.6461 50.6049 20.0711 50.6049 19.3619C50.6049 18.6527 50.03 18.0778 49.3208 18.0778C48.6116 18.0778 48.0366 18.6527 48.0366 19.3619C48.0366 20.0711 48.6116 20.6461 49.3208 20.6461Z" fill="#0D51FF"/>
<path d="M62.1606 20.6461C62.8698 20.6461 63.4448 20.0711 63.4448 19.3619C63.4448 18.6527 62.8698 18.0778 62.1606 18.0778C61.4514 18.0778 60.8765 18.6527 60.8765 19.3619C60.8765 20.0711 61.4514 20.6461 62.1606 20.6461Z" fill="#0D51FF"/>
<path d="M75.0002 20.6461C75.7094 20.6461 76.2844 20.0711 76.2844 19.3619C76.2844 18.6527 75.7094 18.0778 75.0002 18.0778C74.291 18.0778 73.7161 18.6527 73.7161 19.3619C73.7161 20.0711 74.291 20.6461 75.0002 20.6461Z" fill="#0D51FF"/>
<path d="M79.2795 20.6461C79.9887 20.6461 80.5637 20.0711 80.5637 19.3619C80.5637 18.6527 79.9887 18.0778 79.2795 18.0778C78.5703 18.0778 77.9954 18.6527 77.9954 19.3619C77.9954 20.0711 78.5703 20.6461 79.2795 20.6461Z" fill="#0D51FF"/>
<path d="M87.8398 20.6461C88.549 20.6461 89.1239 20.0711 89.1239 19.3619C89.1239 18.6527 88.549 18.0778 87.8398 18.0778C87.1306 18.0778 86.5557 18.6527 86.5557 19.3619C86.5557 20.0711 87.1306 20.6461 87.8398 20.6461Z" fill="#0D51FF"/>
<path d="M100.68 20.6461C101.389 20.6461 101.964 20.0711 101.964 19.3619C101.964 18.6527 101.389 18.0778 100.68 18.0778C99.9704 18.0778 99.3955 18.6527 99.3955 19.3619C99.3955 20.0711 99.9704 20.6461 100.68 20.6461Z" fill="#0D51FF"/>
<path d="M53.6001 24.9254C54.3093 24.9254 54.8842 24.3504 54.8842 23.6412C54.8842 22.932 54.3093 22.3571 53.6001 22.3571C52.8909 22.3571 52.3159 22.932 52.3159 23.6412C52.3159 24.3504 52.8909 24.9254 53.6001 24.9254Z" fill="#0D51FF"/>
<path d="M57.8811 24.9254C58.5903 24.9254 59.1652 24.3504 59.1652 23.6412C59.1652 22.932 58.5903 22.3571 57.8811 22.3571C57.1719 22.3571 56.5969 22.932 56.5969 23.6412C56.5969 24.3504 57.1719 24.9254 57.8811 24.9254Z" fill="#0D51FF"/>
<path d="M62.1606 24.9254C62.8698 24.9254 63.4448 24.3504 63.4448 23.6412C63.4448 22.932 62.8698 22.3571 62.1606 22.3571C61.4514 22.3571 60.8765 22.932 60.8765 23.6412C60.8765 24.3504 61.4514 24.9254 62.1606 24.9254Z" fill="#0D51FF"/>
<path d="M70.7209 24.9254C71.4301 24.9254 72.0051 24.3504 72.0051 23.6412C72.0051 22.932 71.4301 22.3571 70.7209 22.3571C70.0117 22.3571 69.4368 22.932 69.4368 23.6412C69.4368 24.3504 70.0117 24.9254 70.7209 24.9254Z" fill="#0D51FF"/>
<path d="M75.0002 24.9254C75.7094 24.9254 76.2844 24.3504 76.2844 23.6412C76.2844 22.932 75.7094 22.3571 75.0002 22.3571C74.291 22.3571 73.7161 22.932 73.7161 23.6412C73.7161 24.3504 74.291 24.9254 75.0002 24.9254Z" fill="#0D51FF"/>
<path d="M83.5605 24.9254C84.2697 24.9254 84.8447 24.3504 84.8447 23.6412C84.8447 22.932 84.2697 22.3571 83.5605 22.3571C82.8513 22.3571 82.2764 22.932 82.2764 23.6412C82.2764 24.3504 82.8513 24.9254 83.5605 24.9254Z" fill="#0D51FF"/>
<path d="M87.8398 24.9254C88.549 24.9254 89.1239 24.3504 89.1239 23.6412C89.1239 22.932 88.549 22.3571 87.8398 22.3571C87.1306 22.3571 86.5557 22.932 86.5557 23.6412C86.5557 24.3504 87.1306 24.9254 87.8398 24.9254Z" fill="#0D51FF"/>
<path d="M96.3984 24.9254C97.1076 24.9254 97.6826 24.3504 97.6826 23.6412C97.6826 22.932 97.1076 22.3571 96.3984 22.3571C95.6892 22.3571 95.1143 22.932 95.1143 23.6412C95.1143 24.3504 95.6892 24.9254 96.3984 24.9254Z" fill="#0D51FF"/>
<path d="M100.68 24.9254C101.389 24.9254 101.964 24.3504 101.964 23.6412C101.964 22.932 101.389 22.3571 100.68 22.3571C99.9704 22.3571 99.3955 22.932 99.3955 23.6412C99.3955 24.3504 99.9704 24.9254 100.68 24.9254Z" fill="#0D51FF"/>
<path d="M57.8811 29.2047C58.5903 29.2047 59.1652 28.6297 59.1652 27.9205C59.1652 27.2113 58.5903 26.6364 57.8811 26.6364C57.1719 26.6364 56.5969 27.2113 56.5969 27.9205C56.5969 28.6297 57.1719 29.2047 57.8811 29.2047Z" fill="#0D51FF"/>
<path d="M62.1606 29.2047C62.8698 29.2047 63.4448 28.6297 63.4448 27.9205C63.4448 27.2113 62.8698 26.6364 62.1606 26.6364C61.4514 26.6364 60.8765 27.2113 60.8765 27.9205C60.8765 28.6297 61.4514 29.2047 62.1606 29.2047Z" fill="#0D51FF"/>
<path d="M66.4397 29.2047C67.1489 29.2047 67.7238 28.6297 67.7238 27.9205C67.7238 27.2113 67.1489 26.6364 66.4397 26.6364C65.7305 26.6364 65.1555 27.2113 65.1555 27.9205C65.1555 28.6297 65.7305 29.2047 66.4397 29.2047Z" fill="#0D51FF"/>
<path d="M70.7209 29.2047C71.4301 29.2047 72.0051 28.6297 72.0051 27.9205C72.0051 27.2113 71.4301 26.6364 70.7209 26.6364C70.0117 26.6364 69.4368 27.2113 69.4368 27.9205C69.4368 28.6297 70.0117 29.2047 70.7209 29.2047Z" fill="#0D51FF"/>
<path d="M75.0002 29.2047C75.7094 29.2047 76.2844 28.6297 76.2844 27.9205C76.2844 27.2113 75.7094 26.6364 75.0002 26.6364C74.291 26.6364 73.7161 27.2113 73.7161 27.9205C73.7161 28.6297 74.291 29.2047 75.0002 29.2047Z" fill="#0D51FF"/>
<path d="M92.1191 29.2047C92.8283 29.2047 93.4033 28.6297 93.4033 27.9205C93.4033 27.2113 92.8283 26.6364 92.1191 26.6364C91.4099 26.6364 90.835 27.2113 90.835 27.9205C90.835 28.6297 91.4099 29.2047 92.1191 29.2047Z" fill="#0D51FF"/>
<path d="M96.3984 29.2047C97.1076 29.2047 97.6826 28.6297 97.6826 27.9205C97.6826 27.2113 97.1076 26.6364 96.3984 26.6364C95.6892 26.6364 95.1143 27.2113 95.1143 27.9205C95.1143 28.6297 95.6892 29.2047 96.3984 29.2047Z" fill="#0D51FF"/>
<path d="M53.6001 33.4858C54.3093 33.4858 54.8842 32.9109 54.8842 32.2016C54.8842 31.4924 54.3093 30.9175 53.6001 30.9175C52.8909 30.9175 52.3159 31.4924 52.3159 32.2016C52.3159 32.9109 52.8909 33.4858 53.6001 33.4858Z" fill="#0D51FF"/>
<path d="M57.8811 33.4858C58.5903 33.4858 59.1652 32.9109 59.1652 32.2016C59.1652 31.4924 58.5903 30.9175 57.8811 30.9175C57.1719 30.9175 56.5969 31.4924 56.5969 32.2016C56.5969 32.9109 57.1719 33.4858 57.8811 33.4858Z" fill="#0D51FF"/>
<path d="M62.1606 33.4858C62.8698 33.4858 63.4448 32.9109 63.4448 32.2016C63.4448 31.4924 62.8698 30.9175 62.1606 30.9175C61.4514 30.9175 60.8765 31.4924 60.8765 32.2016C60.8765 32.9109 61.4514 33.4858 62.1606 33.4858Z" fill="#0D51FF"/>
<path d="M70.7209 33.4858C71.4301 33.4858 72.0051 32.9109 72.0051 32.2016C72.0051 31.4924 71.4301 30.9175 70.7209 30.9175C70.0117 30.9175 69.4368 31.4924 69.4368 32.2016C69.4368 32.9109 70.0117 33.4858 70.7209 33.4858Z" fill="#0D51FF"/>
<path d="M75.0002 33.4858C75.7094 33.4858 76.2844 32.9109 76.2844 32.2016C76.2844 31.4924 75.7094 30.9175 75.0002 30.9175C74.291 30.9175 73.7161 31.4924 73.7161 32.2016C73.7161 32.9109 74.291 33.4858 75.0002 33.4858Z" fill="#0D51FF"/>
<path d="M79.2795 33.4858C79.9887 33.4858 80.5637 32.9109 80.5637 32.2016C80.5637 31.4924 79.9887 30.9175 79.2795 30.9175C78.5703 30.9175 77.9954 31.4924 77.9954 32.2016C77.9954 32.9109 78.5703 33.4858 79.2795 33.4858Z" fill="#0D51FF"/>
<path d="M92.1191 33.4858C92.8283 33.4858 93.4033 32.9109 93.4033 32.2016C93.4033 31.4924 92.8283 30.9175 92.1191 30.9175C91.4099 30.9175 90.835 31.4924 90.835 32.2016C90.835 32.9109 91.4099 33.4858 92.1191 33.4858Z" fill="#0D51FF"/>
<path d="M49.3208 37.7651C50.03 37.7651 50.6049 37.1901 50.6049 36.4809C50.6049 35.7717 50.03 35.1968 49.3208 35.1968C48.6116 35.1968 48.0366 35.7717 48.0366 36.4809C48.0366 37.1901 48.6116 37.7651 49.3208 37.7651Z" fill="#0D51FF"/>
<path d="M53.6001 37.7651C54.3093 37.7651 54.8842 37.1901 54.8842 36.4809C54.8842 35.7717 54.3093 35.1968 53.6001 35.1968C52.8909 35.1968 52.3159 35.7717 52.3159 36.4809C52.3159 37.1901 52.8909 37.7651 53.6001 37.7651Z" fill="#0D51FF"/>
<path d="M57.8811 37.7651C58.5903 37.7651 59.1652 37.1901 59.1652 36.4809C59.1652 35.7717 58.5903 35.1968 57.8811 35.1968C57.1719 35.1968 56.5969 35.7717 56.5969 36.4809C56.5969 37.1901 57.1719 37.7651 57.8811 37.7651Z" fill="#0D51FF"/>
<path d="M66.4397 37.7651C67.1489 37.7651 67.7238 37.1901 67.7238 36.4809C67.7238 35.7717 67.1489 35.1968 66.4397 35.1968C65.7305 35.1968 65.1555 35.7717 65.1555 36.4809C65.1555 37.1901 65.7305 37.7651 66.4397 37.7651Z" fill="#0D51FF"/>
<path d="M75.0002 37.7651C75.7094 37.7651 76.2844 37.1901 76.2844 36.4809C76.2844 35.7717 75.7094 35.1968 75.0002 35.1968C74.291 35.1968 73.7161 35.7717 73.7161 36.4809C73.7161 37.1901 74.291 37.7651 75.0002 37.7651Z" fill="#0D51FF"/>
<path d="M83.5605 37.7651C84.2697 37.7651 84.8447 37.1901 84.8447 36.4809C84.8447 35.7717 84.2697 35.1968 83.5605 35.1968C82.8513 35.1968 82.2764 35.7717 82.2764 36.4809C82.2764 37.1901 82.8513 37.7651 83.5605 37.7651Z" fill="#0D51FF"/>
<path d="M92.1191 37.7651C92.8283 37.7651 93.4033 37.1901 93.4033 36.4809C93.4033 35.7717 92.8283 35.1968 92.1191 35.1968C91.4099 35.1968 90.835 35.7717 90.835 36.4809C90.835 37.1901 91.4099 37.7651 92.1191 37.7651Z" fill="#0D51FF"/>
<path d="M96.3984 37.7651C97.1076 37.7651 97.6826 37.1901 97.6826 36.4809C97.6826 35.7717 97.1076 35.1968 96.3984 35.1968C95.6892 35.1968 95.1143 35.7717 95.1143 36.4809C95.1143 37.1901 95.6892 37.7651 96.3984 37.7651Z" fill="#0D51FF"/>
<path d="M49.3208 42.0444C50.03 42.0444 50.6049 41.4694 50.6049 40.7602C50.6049 40.051 50.03 39.4761 49.3208 39.4761C48.6116 39.4761 48.0366 40.051 48.0366 40.7602C48.0366 41.4694 48.6116 42.0444 49.3208 42.0444Z" fill="#0D51FF"/>
<path d="M57.8811 42.0444C58.5903 42.0444 59.1652 41.4694 59.1652 40.7602C59.1652 40.051 58.5903 39.4761 57.8811 39.4761C57.1719 39.4761 56.5969 40.051 56.5969 40.7602C56.5969 41.4694 57.1719 42.0444 57.8811 42.0444Z" fill="#0D51FF"/>
<path d="M66.4397 42.0444C67.1489 42.0444 67.7238 41.4694 67.7238 40.7602C67.7238 40.051 67.1489 39.4761 66.4397 39.4761C65.7305 39.4761 65.1555 40.051 65.1555 40.7602C65.1555 41.4694 65.7305 42.0444 66.4397 42.0444Z" fill="#0D51FF"/>
<path d="M75.0002 42.0444C75.7094 42.0444 76.2844 41.4694 76.2844 40.7602C76.2844 40.051 75.7094 39.4761 75.0002 39.4761C74.291 39.4761 73.7161 40.051 73.7161 40.7602C73.7161 41.4694 74.291 42.0444 75.0002 42.0444Z" fill="#0D51FF"/>
<path d="M83.5605 42.0444C84.2697 42.0444 84.8447 41.4694 84.8447 40.7602C84.8447 40.051 84.2697 39.4761 83.5605 39.4761C82.8513 39.4761 82.2764 40.051 82.2764 40.7602C82.2764 41.4694 82.8513 42.0444 83.5605 42.0444Z" fill="#0D51FF"/>
<path d="M92.1191 42.0444C92.8283 42.0444 93.4033 41.4694 93.4033 40.7602C93.4033 40.051 92.8283 39.4761 92.1191 39.4761C91.4099 39.4761 90.835 40.051 90.835 40.7602C90.835 41.4694 91.4099 42.0444 92.1191 42.0444Z" fill="#0D51FF"/>
<path d="M100.68 42.0444C101.389 42.0444 101.964 41.4694 101.964 40.7602C101.964 40.051 101.389 39.4761 100.68 39.4761C99.9704 39.4761 99.3955 40.051 99.3955 40.7602C99.3955 41.4694 99.9704 42.0444 100.68 42.0444Z" fill="#0D51FF"/>
<path d="M49.3208 46.3255C50.03 46.3255 50.6049 45.7506 50.6049 45.0414C50.6049 44.3321 50.03 43.7572 49.3208 43.7572C48.6116 43.7572 48.0366 44.3321 48.0366 45.0414C48.0366 45.7506 48.6116 46.3255 49.3208 46.3255Z" fill="#0D51FF"/>
<path d="M62.1606 46.3255C62.8698 46.3255 63.4448 45.7506 63.4448 45.0414C63.4448 44.3321 62.8698 43.7572 62.1606 43.7572C61.4514 43.7572 60.8765 44.3321 60.8765 45.0414C60.8765 45.7506 61.4514 46.3255 62.1606 46.3255Z" fill="#0D51FF"/>
<path d="M66.4397 46.3255C67.1489 46.3255 67.7238 45.7506 67.7238 45.0414C67.7238 44.3321 67.1489 43.7572 66.4397 43.7572C65.7305 43.7572 65.1555 44.3321 65.1555 45.0414C65.1555 45.7506 65.7305 46.3255 66.4397 46.3255Z" fill="#0D51FF"/>
<path d="M83.5605 46.3255C84.2697 46.3255 84.8447 45.7506 84.8447 45.0414C84.8447 44.3321 84.2697 43.7572 83.5605 43.7572C82.8513 43.7572 82.2764 44.3321 82.2764 45.0414C82.2764 45.7506 82.8513 46.3255 83.5605 46.3255Z" fill="#0D51FF"/>
<path d="M87.8398 46.3255C88.549 46.3255 89.1239 45.7506 89.1239 45.0414C89.1239 44.3321 88.549 43.7572 87.8398 43.7572C87.1306 43.7572 86.5557 44.3321 86.5557 45.0414C86.5557 45.7506 87.1306 46.3255 87.8398 46.3255Z" fill="#0D51FF"/>
<path d="M92.1191 46.3255C92.8283 46.3255 93.4033 45.7506 93.4033 45.0414C93.4033 44.3321 92.8283 43.7572 92.1191 43.7572C91.4099 43.7572 90.835 44.3321 90.835 45.0414C90.835 45.7506 91.4099 46.3255 92.1191 46.3255Z" fill="#0D51FF"/>
<path d="M32.2016 50.6048C32.9109 50.6048 33.4858 50.0299 33.4858 49.3207C33.4858 48.6114 32.9109 48.0365 32.2016 48.0365C31.4924 48.0365 30.9175 48.6114 30.9175 49.3207C30.9175 50.0299 31.4924 50.6048 32.2016 50.6048Z" fill="#0D51FF"/>
<path d="M36.4809 50.6048C37.1901 50.6048 37.7651 50.0299 37.7651 49.3207C37.7651 48.6114 37.1901 48.0365 36.4809 48.0365C35.7717 48.0365 35.1968 48.6114 35.1968 49.3207C35.1968 50.0299 35.7717 50.6048 36.4809 50.6048Z" fill="#0D51FF"/>
<path d="M40.7602 50.6048C41.4694 50.6048 42.0444 50.0299 42.0444 49.3207C42.0444 48.6114 41.4694 48.0365 40.7602 48.0365C40.051 48.0365 39.4761 48.6114 39.4761 49.3207C39.4761 50.0299 40.051 50.6048 40.7602 50.6048Z" fill="#0D51FF"/>
<path d="M45.0415 50.6048C45.7507 50.6048 46.3256 50.0299 46.3256 49.3207C46.3256 48.6114 45.7507 48.0365 45.0415 48.0365C44.3323 48.0365 43.7573 48.6114 43.7573 49.3207C43.7573 50.0299 44.3323 50.6048 45.0415 50.6048Z" fill="#0D51FF"/>
<path d="M53.6001 50.6048C54.3093 50.6048 54.8842 50.0299 54.8842 49.3207C54.8842 48.6114 54.3093 48.0365 53.6001 48.0365C52.8909 48.0365 52.3159 48.6114 52.3159 49.3207C52.3159 50.0299 52.8909 50.6048 53.6001 50.6048Z" fill="#0D51FF"/>
<path d="M57.8811 50.6048C58.5903 50.6048 59.1652 50.0299 59.1652 49.3207C59.1652 48.6114 58.5903 48.0365 57.8811 48.0365C57.1719 48.0365 56.5969 48.6114 56.5969 49.3207C56.5969 50.0299 57.1719 50.6048 57.8811 50.6048Z" fill="#0D51FF"/>
<path d="M62.1606 50.6048C62.8698 50.6048 63.4448 50.0299 63.4448 49.3207C63.4448 48.6114 62.8698 48.0365 62.1606 48.0365C61.4514 48.0365 60.8765 48.6114 60.8765 49.3207C60.8765 50.0299 61.4514 50.6048 62.1606 50.6048Z" fill="#0D51FF"/>
<path d="M70.7209 50.6048C71.4301 50.6048 72.0051 50.0299 72.0051 49.3207C72.0051 48.6114 71.4301 48.0365 70.7209 48.0365C70.0117 48.0365 69.4368 48.6114 69.4368 49.3207C69.4368 50.0299 70.0117 50.6048 70.7209 50.6048Z" fill="#0D51FF"/>
<path d="M92.1191 50.6048C92.8283 50.6048 93.4033 50.0299 93.4033 49.3207C93.4033 48.6114 92.8283 48.0365 92.1191 48.0365C91.4099 48.0365 90.835 48.6114 90.835 49.3207C90.835 50.0299 91.4099 50.6048 92.1191 50.6048Z" fill="#0D51FF"/>
<path d="M100.68 50.6048C101.389 50.6048 101.964 50.0299 101.964 49.3207C101.964 48.6114 101.389 48.0365 100.68 48.0365C99.9704 48.0365 99.3955 48.6114 99.3955 49.3207C99.3955 50.0299 99.9704 50.6048 100.68 50.6048Z" fill="#0D51FF"/>
<path d="M109.238 50.6048C109.947 50.6048 110.522 50.0299 110.522 49.3207C110.522 48.6114 109.947 48.0365 109.238 48.0365C108.529 48.0365 107.954 48.6114 107.954 49.3207C107.954 50.0299 108.529 50.6048 109.238 50.6048Z" fill="#0D51FF"/>
<path d="M113.519 50.6048C114.229 50.6048 114.803 50.0299 114.803 49.3207C114.803 48.6114 114.229 48.0365 113.519 48.0365C112.81 48.0365 112.235 48.6114 112.235 49.3207C112.235 50.0299 112.81 50.6048 113.519 50.6048Z" fill="#0D51FF"/>
<path d="M130.638 50.6048C131.348 50.6048 131.923 50.0299 131.923 49.3207C131.923 48.6114 131.348 48.0365 130.638 48.0365C129.929 48.0365 129.354 48.6114 129.354 49.3207C129.354 50.0299 129.929 50.6048 130.638 50.6048Z" fill="#0D51FF"/>
<path d="M15.0808 54.8841C15.79 54.8841 16.3649 54.3092 16.3649 53.6C16.3649 52.8907 15.79 52.3158 15.0808 52.3158C14.3716 52.3158 13.7966 52.8907 13.7966 53.6C13.7966 54.3092 14.3716 54.8841 15.0808 54.8841Z" fill="#0D51FF"/>
<path d="M27.9206 54.8841C28.6298 54.8841 29.2048 54.3092 29.2048 53.6C29.2048 52.8907 28.6298 52.3158 27.9206 52.3158C27.2114 52.3158 26.6365 52.8907 26.6365 53.6C26.6365 54.3092 27.2114 54.8841 27.9206 54.8841Z" fill="#0D51FF"/>
<path d="M32.2016 54.8841C32.9109 54.8841 33.4858 54.3092 33.4858 53.6C33.4858 52.8907 32.9109 52.3158 32.2016 52.3158C31.4924 52.3158 30.9175 52.8907 30.9175 53.6C30.9175 54.3092 31.4924 54.8841 32.2016 54.8841Z" fill="#0D51FF"/>
<path d="M45.0415 54.8841C45.7507 54.8841 46.3256 54.3092 46.3256 53.6C46.3256 52.8907 45.7507 52.3158 45.0415 52.3158C44.3323 52.3158 43.7573 52.8907 43.7573 53.6C43.7573 54.3092 44.3323 54.8841 45.0415 54.8841Z" fill="#0D51FF"/>
<path d="M49.3208 54.8841C50.03 54.8841 50.6049 54.3092 50.6049 53.6C50.6049 52.8907 50.03 52.3158 49.3208 52.3158C48.6116 52.3158 48.0366 52.8907 48.0366 53.6C48.0366 54.3092 48.6116 54.8841 49.3208 54.8841Z" fill="#0D51FF"/>
<path d="M53.6001 54.8841C54.3093 54.8841 54.8842 54.3092 54.8842 53.6C54.8842 52.8907 54.3093 52.3158 53.6001 52.3158C52.8909 52.3158 52.3159 52.8907 52.3159 53.6C52.3159 54.3092 52.8909 54.8841 53.6001 54.8841Z" fill="#0D51FF"/>
<path d="M57.8811 54.8841C58.5903 54.8841 59.1652 54.3092 59.1652 53.6C59.1652 52.8907 58.5903 52.3158 57.8811 52.3158C57.1719 52.3158 56.5969 52.8907 56.5969 53.6C56.5969 54.3092 57.1719 54.8841 57.8811 54.8841Z" fill="#0D51FF"/>
<path d="M62.1606 54.8841C62.8698 54.8841 63.4448 54.3092 63.4448 53.6C63.4448 52.8907 62.8698 52.3158 62.1606 52.3158C61.4514 52.3158 60.8765 52.8907 60.8765 53.6C60.8765 54.3092 61.4514 54.8841 62.1606 54.8841Z" fill="#0D51FF"/>
<path d="M70.7209 54.8841C71.4301 54.8841 72.0051 54.3092 72.0051 53.6C72.0051 52.8907 71.4301 52.3158 70.7209 52.3158C70.0117 52.3158 69.4368 52.8907 69.4368 53.6C69.4368 54.3092 70.0117 54.8841 70.7209 54.8841Z" fill="#0D51FF"/>
<path d="M79.2795 54.8841C79.9887 54.8841 80.5637 54.3092 80.5637 53.6C80.5637 52.8907 79.9887 52.3158 79.2795 52.3158C78.5703 52.3158 77.9954 52.8907 77.9954 53.6C77.9954 54.3092 78.5703 54.8841 79.2795 54.8841Z" fill="#0D51FF"/>
<path d="M83.5605 54.8841C84.2697 54.8841 84.8447 54.3092 84.8447 53.6C84.8447 52.8907 84.2697 52.3158 83.5605 52.3158C82.8513 52.3158 82.2764 52.8907 82.2764 53.6C82.2764 54.3092 82.8513 54.8841 83.5605 54.8841Z" fill="#0D51FF"/>
<path d="M96.3984 54.8841C97.1076 54.8841 97.6826 54.3092 97.6826 53.6C97.6826 52.8907 97.1076 52.3158 96.3984 52.3158C95.6892 52.3158 95.1143 52.8907 95.1143 53.6C95.1143 54.3092 95.6892 54.8841 96.3984 54.8841Z" fill="#0D51FF"/>
<path d="M100.68 54.8841C101.389 54.8841 101.964 54.3092 101.964 53.6C101.964 52.8907 101.389 52.3158 100.68 52.3158C99.9704 52.3158 99.3955 52.8907 99.3955 53.6C99.3955 54.3092 99.9704 54.8841 100.68 54.8841Z" fill="#0D51FF"/>
<path d="M109.238 54.8841C109.947 54.8841 110.522 54.3092 110.522 53.6C110.522 52.8907 109.947 52.3158 109.238 52.3158C108.529 52.3158 107.954 52.8907 107.954 53.6C107.954 54.3092 108.529 54.8841 109.238 54.8841Z" fill="#0D51FF"/>
<path d="M113.519 54.8841C114.229 54.8841 114.803 54.3092 114.803 53.6C114.803 52.8907 114.229 52.3158 113.519 52.3158C112.81 52.3158 112.235 52.8907 112.235 53.6C112.235 54.3092 112.81 54.8841 113.519 54.8841Z" fill="#0D51FF"/>
<path d="M117.799 54.8841C118.508 54.8841 119.083 54.3092 119.083 53.6C119.083 52.8907 118.508 52.3158 117.799 52.3158C117.089 52.3158 116.514 52.8907 116.514 53.6C116.514 54.3092 117.089 54.8841 117.799 54.8841Z" fill="#0D51FF"/>
<path d="M126.359 54.8841C127.068 54.8841 127.643 54.3092 127.643 53.6C127.643 52.8907 127.068 52.3158 126.359 52.3158C125.65 52.3158 125.075 52.8907 125.075 53.6C125.075 54.3092 125.65 54.8841 126.359 54.8841Z" fill="#0D51FF"/>
<path d="M130.638 54.8841C131.348 54.8841 131.923 54.3092 131.923 53.6C131.923 52.8907 131.348 52.3158 130.638 52.3158C129.929 52.3158 129.354 52.8907 129.354 53.6C129.354 54.3092 129.929 54.8841 130.638 54.8841Z" fill="#0D51FF"/>
<path d="M134.918 54.8841C135.627 54.8841 136.202 54.3092 136.202 53.6C136.202 52.8907 135.627 52.3158 134.918 52.3158C134.208 52.3158 133.634 52.8907 133.634 53.6C133.634 54.3092 134.208 54.8841 134.918 54.8841Z" fill="#0D51FF"/>
<path d="M15.0808 59.1652C15.79 59.1652 16.3649 58.5903 16.3649 57.8811C16.3649 57.1719 15.79 56.5969 15.0808 56.5969C14.3716 56.5969 13.7966 57.1719 13.7966 57.8811C13.7966 58.5903 14.3716 59.1652 15.0808 59.1652Z" fill="#0D51FF"/>
<path d="M19.362 59.1652C20.0713 59.1652 20.6462 58.5903 20.6462 57.8811C20.6462 57.1719 20.0713 56.5969 19.362 56.5969C18.6528 56.5969 18.0779 57.1719 18.0779 57.8811C18.0779 58.5903 18.6528 59.1652 19.362 59.1652Z" fill="#0D51FF"/>
<path d="M36.4809 59.1652C37.1901 59.1652 37.7651 58.5903 37.7651 57.8811C37.7651 57.1719 37.1901 56.5969 36.4809 56.5969C35.7717 56.5969 35.1968 57.1719 35.1968 57.8811C35.1968 58.5903 35.7717 59.1652 36.4809 59.1652Z" fill="#0D51FF"/>
<path d="M40.7602 59.1652C41.4694 59.1652 42.0444 58.5903 42.0444 57.8811C42.0444 57.1719 41.4694 56.5969 40.7602 56.5969C40.051 56.5969 39.4761 57.1719 39.4761 57.8811C39.4761 58.5903 40.051 59.1652 40.7602 59.1652Z" fill="#0D51FF"/>
<path d="M45.0415 59.1652C45.7507 59.1652 46.3256 58.5903 46.3256 57.8811C46.3256 57.1719 45.7507 56.5969 45.0415 56.5969C44.3323 56.5969 43.7573 57.1719 43.7573 57.8811C43.7573 58.5903 44.3323 59.1652 45.0415 59.1652Z" fill="#0D51FF"/>
<path d="M104.959 59.1652C105.668 59.1652 106.243 58.5903 106.243 57.8811C106.243 57.1719 105.668 56.5969 104.959 56.5969C104.25 56.5969 103.675 57.1719 103.675 57.8811C103.675 58.5903 104.25 59.1652 104.959 59.1652Z" fill="#0D51FF"/>
<path d="M122.078 59.1652C122.787 59.1652 123.362 58.5903 123.362 57.8811C123.362 57.1719 122.787 56.5969 122.078 56.5969C121.369 56.5969 120.794 57.1719 120.794 57.8811C120.794 58.5903 121.369 59.1652 122.078 59.1652Z" fill="#0D51FF"/>
<path d="M126.359 59.1652C127.068 59.1652 127.643 58.5903 127.643 57.8811C127.643 57.1719 127.068 56.5969 126.359 56.5969C125.65 56.5969 125.075 57.1719 125.075 57.8811C125.075 58.5903 125.65 59.1652 126.359 59.1652Z" fill="#0D51FF"/>
<path d="M134.918 59.1652C135.627 59.1652 136.202 58.5903 136.202 57.8811C136.202 57.1719 135.627 56.5969 134.918 56.5969C134.208 56.5969 133.634 57.1719 133.634 57.8811C133.634 58.5903 134.208 59.1652 134.918 59.1652Z" fill="#0D51FF"/>
<path d="M36.4809 63.4445C37.1901 63.4445 37.7651 62.8696 37.7651 62.1604C37.7651 61.4512 37.1901 60.8762 36.4809 60.8762C35.7717 60.8762 35.1968 61.4512 35.1968 62.1604C35.1968 62.8696 35.7717 63.4445 36.4809 63.4445Z" fill="#0D51FF"/>
<path d="M53.6001 63.4445C54.3093 63.4445 54.8842 62.8696 54.8842 62.1604C54.8842 61.4512 54.3093 60.8762 53.6001 60.8762C52.8909 60.8762 52.3159 61.4512 52.3159 62.1604C52.3159 62.8696 52.8909 63.4445 53.6001 63.4445Z" fill="#0D51FF"/>
<path d="M100.68 63.4445C101.389 63.4445 101.964 62.8696 101.964 62.1604C101.964 61.4512 101.389 60.8762 100.68 60.8762C99.9704 60.8762 99.3955 61.4512 99.3955 62.1604C99.3955 62.8696 99.9704 63.4445 100.68 63.4445Z" fill="#0D51FF"/>
<path d="M104.959 63.4445C105.668 63.4445 106.243 62.8696 106.243 62.1604C106.243 61.4512 105.668 60.8762 104.959 60.8762C104.25 60.8762 103.675 61.4512 103.675 62.1604C103.675 62.8696 104.25 63.4445 104.959 63.4445Z" fill="#0D51FF"/>
<path d="M113.519 63.4445C114.229 63.4445 114.803 62.8696 114.803 62.1604C114.803 61.4512 114.229 60.8762 113.519 60.8762C112.81 60.8762 112.235 61.4512 112.235 62.1604C112.235 62.8696 112.81 63.4445 113.519 63.4445Z" fill="#0D51FF"/>
<path d="M122.078 63.4445C122.787 63.4445 123.362 62.8696 123.362 62.1604C123.362 61.4512 122.787 60.8762 122.078 60.8762C121.369 60.8762 120.794 61.4512 120.794 62.1604C120.794 62.8696 121.369 63.4445 122.078 63.4445Z" fill="#0D51FF"/>
<path d="M130.638 63.4445C131.348 63.4445 131.923 62.8696 131.923 62.1604C131.923 61.4512 131.348 60.8762 130.638 60.8762C129.929 60.8762 129.354 61.4512 129.354 62.1604C129.354 62.8696 129.929 63.4445 130.638 63.4445Z" fill="#0D51FF"/>
<path d="M134.918 63.4445C135.627 63.4445 136.202 62.8696 136.202 62.1604C136.202 61.4512 135.627 60.8762 134.918 60.8762C134.208 60.8762 133.634 61.4512 133.634 62.1604C133.634 62.8696 134.208 63.4445 134.918 63.4445Z" fill="#0D51FF"/>
<path d="M23.6413 67.7238C24.3506 67.7238 24.9255 67.1489 24.9255 66.4397C24.9255 65.7305 24.3506 65.1555 23.6413 65.1555C22.9321 65.1555 22.3572 65.7305 22.3572 66.4397C22.3572 67.1489 22.9321 67.7238 23.6413 67.7238Z" fill="#0D51FF"/>
<path d="M27.9206 67.7238C28.6298 67.7238 29.2048 67.1489 29.2048 66.4397C29.2048 65.7305 28.6298 65.1555 27.9206 65.1555C27.2114 65.1555 26.6365 65.7305 26.6365 66.4397C26.6365 67.1489 27.2114 67.7238 27.9206 67.7238Z" fill="#0D51FF"/>
<path d="M36.4809 67.7238C37.1901 67.7238 37.7651 67.1489 37.7651 66.4397C37.7651 65.7305 37.1901 65.1555 36.4809 65.1555C35.7717 65.1555 35.1968 65.7305 35.1968 66.4397C35.1968 67.1489 35.7717 67.7238 36.4809 67.7238Z" fill="#0D51FF"/>
<path d="M40.7602 67.7238C41.4694 67.7238 42.0444 67.1489 42.0444 66.4397C42.0444 65.7305 41.4694 65.1555 40.7602 65.1555C40.051 65.1555 39.4761 65.7305 39.4761 66.4397C39.4761 67.1489 40.051 67.7238 40.7602 67.7238Z" fill="#0D51FF"/>
<path d="M45.0415 67.7238C45.7507 67.7238 46.3256 67.1489 46.3256 66.4397C46.3256 65.7305 45.7507 65.1555 45.0415 65.1555C44.3323 65.1555 43.7573 65.7305 43.7573 66.4397C43.7573 67.1489 44.3323 67.7238 45.0415 67.7238Z" fill="#0D51FF"/>
<path d="M49.3208 67.7238C50.03 67.7238 50.6049 67.1489 50.6049 66.4397C50.6049 65.7305 50.03 65.1555 49.3208 65.1555C48.6116 65.1555 48.0366 65.7305 48.0366 66.4397C48.0366 67.1489 48.6116 67.7238 49.3208 67.7238Z" fill="#0D51FF"/>
<path d="M53.6001 67.7238C54.3093 67.7238 54.8842 67.1489 54.8842 66.4397C54.8842 65.7305 54.3093 65.1555 53.6001 65.1555C52.8909 65.1555 52.3159 65.7305 52.3159 66.4397C52.3159 67.1489 52.8909 67.7238 53.6001 67.7238Z" fill="#0D51FF"/>
<path d="M96.3984 67.7238C97.1076 67.7238 97.6826 67.1489 97.6826 66.4397C97.6826 65.7305 97.1076 65.1555 96.3984 65.1555C95.6892 65.1555 95.1143 65.7305 95.1143 66.4397C95.1143 67.1489 95.6892 67.7238 96.3984 67.7238Z" fill="#0D51FF"/>
<path d="M100.68 67.7238C101.389 67.7238 101.964 67.1489 101.964 66.4397C101.964 65.7305 101.389 65.1555 100.68 65.1555C99.9704 65.1555 99.3955 65.7305 99.3955 66.4397C99.3955 67.1489 99.9704 67.7238 100.68 67.7238Z" fill="#0D51FF"/>
<path d="M113.519 67.7238C114.229 67.7238 114.803 67.1489 114.803 66.4397C114.803 65.7305 114.229 65.1555 113.519 65.1555C112.81 65.1555 112.235 65.7305 112.235 66.4397C112.235 67.1489 112.81 67.7238 113.519 67.7238Z" fill="#0D51FF"/>
<path d="M122.078 67.7238C122.787 67.7238 123.362 67.1489 123.362 66.4397C123.362 65.7305 122.787 65.1555 122.078 65.1555C121.369 65.1555 120.794 65.7305 120.794 66.4397C120.794 67.1489 121.369 67.7238 122.078 67.7238Z" fill="#0D51FF"/>
<path d="M134.918 67.7238C135.627 67.7238 136.202 67.1489 136.202 66.4397C136.202 65.7305 135.627 65.1555 134.918 65.1555C134.208 65.1555 133.634 65.7305 133.634 66.4397C133.634 67.1489 134.208 67.7238 134.918 67.7238Z" fill="#0D51FF"/>
<path d="M19.362 72.005C20.0713 72.005 20.6462 71.43 20.6462 70.7208C20.6462 70.0116 20.0713 69.4366 19.362 69.4366C18.6528 69.4366 18.0779 70.0116 18.0779 70.7208C18.0779 71.43 18.6528 72.005 19.362 72.005Z" fill="#0D51FF"/>
<path d="M27.9206 72.005C28.6298 72.005 29.2048 71.43 29.2048 70.7208C29.2048 70.0116 28.6298 69.4366 27.9206 69.4366C27.2114 69.4366 26.6365 70.0116 26.6365 70.7208C26.6365 71.43 27.2114 72.005 27.9206 72.005Z" fill="#0D51FF"/>
<path d="M36.4809 72.005C37.1901 72.005 37.7651 71.43 37.7651 70.7208C37.7651 70.0116 37.1901 69.4366 36.4809 69.4366C35.7717 69.4366 35.1968 70.0116 35.1968 70.7208C35.1968 71.43 35.7717 72.005 36.4809 72.005Z" fill="#0D51FF"/>
<path d="M45.0415 72.005C45.7507 72.005 46.3256 71.43 46.3256 70.7208C46.3256 70.0116 45.7507 69.4366 45.0415 69.4366C44.3323 69.4366 43.7573 70.0116 43.7573 70.7208C43.7573 71.43 44.3323 72.005 45.0415 72.005Z" fill="#0D51FF"/>
<path d="M49.3208 72.005C50.03 72.005 50.6049 71.43 50.6049 70.7208C50.6049 70.0116 50.03 69.4366 49.3208 69.4366C48.6116 69.4366 48.0366 70.0116 48.0366 70.7208C48.0366 71.43 48.6116 72.005 49.3208 72.005Z" fill="#0D51FF"/>
<path d="M53.6001 72.005C54.3093 72.005 54.8842 71.43 54.8842 70.7208C54.8842 70.0116 54.3093 69.4366 53.6001 69.4366C52.8909 69.4366 52.3159 70.0116 52.3159 70.7208C52.3159 71.43 52.8909 72.005 53.6001 72.005Z" fill="#0D51FF"/>
<path d="M109.238 72.005C109.947 72.005 110.522 71.43 110.522 70.7208C110.522 70.0116 109.947 69.4366 109.238 69.4366C108.529 69.4366 107.954 70.0116 107.954 70.7208C107.954 71.43 108.529 72.005 109.238 72.005Z" fill="#0D51FF"/>
<path d="M117.799 72.005C118.508 72.005 119.083 71.43 119.083 70.7208C119.083 70.0116 118.508 69.4366 117.799 69.4366C117.089 69.4366 116.514 70.0116 116.514 70.7208C116.514 71.43 117.089 72.005 117.799 72.005Z" fill="#0D51FF"/>
<path d="M126.359 72.005C127.068 72.005 127.643 71.43 127.643 70.7208C127.643 70.0116 127.068 69.4366 126.359 69.4366C125.65 69.4366 125.075 70.0116 125.075 70.7208C125.075 71.43 125.65 72.005 126.359 72.005Z" fill="#0D51FF"/>
<path d="M134.918 72.005C135.627 72.005 136.202 71.43 136.202 70.7208C136.202 70.0116 135.627 69.4366 134.918 69.4366C134.208 69.4366 133.634 70.0116 133.634 70.7208C133.634 71.43 134.208 72.005 134.918 72.005Z" fill="#0D51FF"/>
<path d="M19.362 76.2842C20.0713 76.2842 20.6462 75.7093 20.6462 75.0001C20.6462 74.2909 20.0713 73.7159 19.362 73.7159C18.6528 73.7159 18.0779 74.2909 18.0779 75.0001C18.0779 75.7093 18.6528 76.2842 19.362 76.2842Z" fill="#0D51FF"/>
<path d="M27.9206 76.2842C28.6298 76.2842 29.2048 75.7093 29.2048 75.0001C29.2048 74.2909 28.6298 73.7159 27.9206 73.7159C27.2114 73.7159 26.6365 74.2909 26.6365 75.0001C26.6365 75.7093 27.2114 76.2842 27.9206 76.2842Z" fill="#0D51FF"/>
<path d="M36.4809 76.2842C37.1901 76.2842 37.7651 75.7093 37.7651 75.0001C37.7651 74.2909 37.1901 73.7159 36.4809 73.7159C35.7717 73.7159 35.1968 74.2909 35.1968 75.0001C35.1968 75.7093 35.7717 76.2842 36.4809 76.2842Z" fill="#0D51FF"/>
<path d="M40.7602 76.2842C41.4694 76.2842 42.0444 75.7093 42.0444 75.0001C42.0444 74.2909 41.4694 73.7159 40.7602 73.7159C40.051 73.7159 39.4761 74.2909 39.4761 75.0001C39.4761 75.7093 40.051 76.2842 40.7602 76.2842Z" fill="#0D51FF"/>
<path d="M49.3208 76.2842C50.03 76.2842 50.6049 75.7093 50.6049 75.0001C50.6049 74.2909 50.03 73.7159 49.3208 73.7159C48.6116 73.7159 48.0366 74.2909 48.0366 75.0001C48.0366 75.7093 48.6116 76.2842 49.3208 76.2842Z" fill="#0D51FF"/>
<path d="M53.6001 76.2842C54.3093 76.2842 54.8842 75.7093 54.8842 75.0001C54.8842 74.2909 54.3093 73.7159 53.6001 73.7159C52.8909 73.7159 52.3159 74.2909 52.3159 75.0001C52.3159 75.7093 52.8909 76.2842 53.6001 76.2842Z" fill="#0D51FF"/>
<path d="M117.799 76.2842C118.508 76.2842 119.083 75.7093 119.083 75.0001C119.083 74.2909 118.508 73.7159 117.799 73.7159C117.089 73.7159 116.514 74.2909 116.514 75.0001C116.514 75.7093 117.089 76.2842 117.799 76.2842Z" fill="#0D51FF"/>
<path d="M134.918 76.2842C135.627 76.2842 136.202 75.7093 136.202 75.0001C136.202 74.2909 135.627 73.7159 134.918 73.7159C134.208 73.7159 133.634 74.2909 133.634 75.0001C133.634 75.7093 134.208 76.2842 134.918 76.2842Z" fill="#0D51FF"/>
<path d="M19.362 80.5635C20.0713 80.5635 20.6462 79.9886 20.6462 79.2794C20.6462 78.5702 20.0713 77.9952 19.362 77.9952C18.6528 77.9952 18.0779 78.5702 18.0779 79.2794C18.0779 79.9886 18.6528 80.5635 19.362 80.5635Z" fill="#0D51FF"/>
<path d="M27.9206 80.5635C28.6298 80.5635 29.2048 79.9886 29.2048 79.2794C29.2048 78.5702 28.6298 77.9952 27.9206 77.9952C27.2114 77.9952 26.6365 78.5702 26.6365 79.2794C26.6365 79.9886 27.2114 80.5635 27.9206 80.5635Z" fill="#0D51FF"/>
<path d="M36.4809 80.5635C37.1901 80.5635 37.7651 79.9886 37.7651 79.2794C37.7651 78.5702 37.1901 77.9952 36.4809 77.9952C35.7717 77.9952 35.1968 78.5702 35.1968 79.2794C35.1968 79.9886 35.7717 80.5635 36.4809 80.5635Z" fill="#0D51FF"/>
<path d="M49.3208 80.5635C50.03 80.5635 50.6049 79.9886 50.6049 79.2794C50.6049 78.5702 50.03 77.9952 49.3208 77.9952C48.6116 77.9952 48.0366 78.5702 48.0366 79.2794C48.0366 79.9886 48.6116 80.5635 49.3208 80.5635Z" fill="#0D51FF"/>
<path d="M53.6001 80.5635C54.3093 80.5635 54.8842 79.9886 54.8842 79.2794C54.8842 78.5702 54.3093 77.9952 53.6001 77.9952C52.8909 77.9952 52.3159 78.5702 52.3159 79.2794C52.3159 79.9886 52.8909 80.5635 53.6001 80.5635Z" fill="#0D51FF"/>
<path d="M100.68 80.5635C101.389 80.5635 101.964 79.9886 101.964 79.2794C101.964 78.5702 101.389 77.9952 100.68 77.9952C99.9704 77.9952 99.3955 78.5702 99.3955 79.2794C99.3955 79.9886 99.9704 80.5635 100.68 80.5635Z" fill="#0D51FF"/>
<path d="M104.959 80.5635C105.668 80.5635 106.243 79.9886 106.243 79.2794C106.243 78.5702 105.668 77.9952 104.959 77.9952C104.25 77.9952 103.675 78.5702 103.675 79.2794C103.675 79.9886 104.25 80.5635 104.959 80.5635Z" fill="#0D51FF"/>
<path d="M109.238 80.5635C109.947 80.5635 110.522 79.9886 110.522 79.2794C110.522 78.5702 109.947 77.9952 109.238 77.9952C108.529 77.9952 107.954 78.5702 107.954 79.2794C107.954 79.9886 108.529 80.5635 109.238 80.5635Z" fill="#0D51FF"/>
<path d="M113.519 80.5635C114.229 80.5635 114.803 79.9886 114.803 79.2794C114.803 78.5702 114.229 77.9952 113.519 77.9952C112.81 77.9952 112.235 78.5702 112.235 79.2794C112.235 79.9886 112.81 80.5635 113.519 80.5635Z" fill="#0D51FF"/>
<path d="M122.078 80.5635C122.787 80.5635 123.362 79.9886 123.362 79.2794C123.362 78.5702 122.787 77.9952 122.078 77.9952C121.369 77.9952 120.794 78.5702 120.794 79.2794C120.794 79.9886 121.369 80.5635 122.078 80.5635Z" fill="#0D51FF"/>
<path d="M130.638 80.5635C131.348 80.5635 131.923 79.9886 131.923 79.2794C131.923 78.5702 131.348 77.9952 130.638 77.9952C129.929 77.9952 129.354 78.5702 129.354 79.2794C129.354 79.9886 129.929 80.5635 130.638 80.5635Z" fill="#0D51FF"/>
<path d="M23.6413 84.8447C24.3506 84.8447 24.9255 84.2697 24.9255 83.5605C24.9255 82.8513 24.3506 82.2764 23.6413 82.2764C22.9321 82.2764 22.3572 82.8513 22.3572 83.5605C22.3572 84.2697 22.9321 84.8447 23.6413 84.8447Z" fill="#0D51FF"/>
<path d="M40.7602 84.8447C41.4694 84.8447 42.0444 84.2697 42.0444 83.5605C42.0444 82.8513 41.4694 82.2764 40.7602 82.2764C40.051 82.2764 39.4761 82.8513 39.4761 83.5605C39.4761 84.2697 40.051 84.8447 40.7602 84.8447Z" fill="#0D51FF"/>
<path d="M100.68 84.8447C101.389 84.8447 101.964 84.2697 101.964 83.5605C101.964 82.8513 101.389 82.2764 100.68 82.2764C99.9704 82.2764 99.3955 82.8513 99.3955 83.5605C99.3955 84.2697 99.9704 84.8447 100.68 84.8447Z" fill="#0D51FF"/>
<path d="M130.638 84.8447C131.348 84.8447 131.923 84.2697 131.923 83.5605C131.923 82.8513 131.348 82.2764 130.638 82.2764C129.929 82.2764 129.354 82.8513 129.354 83.5605C129.354 84.2697 129.929 84.8447 130.638 84.8447Z" fill="#0D51FF"/>
<path d="M134.918 84.8447C135.627 84.8447 136.202 84.2697 136.202 83.5605C136.202 82.8513 135.627 82.2764 134.918 82.2764C134.208 82.2764 133.634 82.8513 133.634 83.5605C133.634 84.2697 134.208 84.8447 134.918 84.8447Z" fill="#0D51FF"/>
<path d="M15.0808 89.124C15.79 89.124 16.3649 88.549 16.3649 87.8398C16.3649 87.1306 15.79 86.5557 15.0808 86.5557C14.3716 86.5557 13.7966 87.1306 13.7966 87.8398C13.7966 88.549 14.3716 89.124 15.0808 89.124Z" fill="#0D51FF"/>
<path d="M23.6413 89.124C24.3506 89.124 24.9255 88.549 24.9255 87.8398C24.9255 87.1306 24.3506 86.5557 23.6413 86.5557C22.9321 86.5557 22.3572 87.1306 22.3572 87.8398C22.3572 88.549 22.9321 89.124 23.6413 89.124Z" fill="#0D51FF"/>
<path d="M27.9206 89.124C28.6298 89.124 29.2048 88.549 29.2048 87.8398C29.2048 87.1306 28.6298 86.5557 27.9206 86.5557C27.2114 86.5557 26.6365 87.1306 26.6365 87.8398C26.6365 88.549 27.2114 89.124 27.9206 89.124Z" fill="#0D51FF"/>
<path d="M49.3208 89.124C50.03 89.124 50.6049 88.549 50.6049 87.8398C50.6049 87.1306 50.03 86.5557 49.3208 86.5557C48.6116 86.5557 48.0366 87.1306 48.0366 87.8398C48.0366 88.549 48.6116 89.124 49.3208 89.124Z" fill="#0D51FF"/>
<path d="M109.238 89.124C109.947 89.124 110.522 88.549 110.522 87.8398C110.522 87.1306 109.947 86.5557 109.238 86.5557C108.529 86.5557 107.954 87.1306 107.954 87.8398C107.954 88.549 108.529 89.124 109.238 89.124Z" fill="#0D51FF"/>
<path d="M113.519 89.124C114.229 89.124 114.803 88.549 114.803 87.8398C114.803 87.1306 114.229 86.5557 113.519 86.5557C112.81 86.5557 112.235 87.1306 112.235 87.8398C112.235 88.549 112.81 89.124 113.519 89.124Z" fill="#0D51FF"/>
<path d="M117.799 89.124C118.508 89.124 119.083 88.549 119.083 87.8398C119.083 87.1306 118.508 86.5557 117.799 86.5557C117.089 86.5557 116.514 87.1306 116.514 87.8398C116.514 88.549 117.089 89.124 117.799 89.124Z" fill="#0D51FF"/>
<path d="M134.918 89.124C135.627 89.124 136.202 88.549 136.202 87.8398C136.202 87.1306 135.627 86.5557 134.918 86.5557C134.208 86.5557 133.634 87.1306 133.634 87.8398C133.634 88.549 134.208 89.124 134.918 89.124Z" fill="#0D51FF"/>
<path d="M23.6413 93.4033C24.3506 93.4033 24.9255 92.8283 24.9255 92.1191C24.9255 91.4099 24.3506 90.835 23.6413 90.835C22.9321 90.835 22.3572 91.4099 22.3572 92.1191C22.3572 92.8283 22.9321 93.4033 23.6413 93.4033Z" fill="#0D51FF"/>
<path d="M36.4809 93.4033C37.1901 93.4033 37.7651 92.8283 37.7651 92.1191C37.7651 91.4099 37.1901 90.835 36.4809 90.835C35.7717 90.835 35.1968 91.4099 35.1968 92.1191C35.1968 92.8283 35.7717 93.4033 36.4809 93.4033Z" fill="#0D51FF"/>
<path d="M40.7602 93.4033C41.4694 93.4033 42.0444 92.8283 42.0444 92.1191C42.0444 91.4099 41.4694 90.835 40.7602 90.835C40.051 90.835 39.4761 91.4099 39.4761 92.1191C39.4761 92.8283 40.051 93.4033 40.7602 93.4033Z" fill="#0D51FF"/>
<path d="M45.0415 93.4033C45.7507 93.4033 46.3256 92.8283 46.3256 92.1191C46.3256 91.4099 45.7507 90.835 45.0415 90.835C44.3323 90.835 43.7573 91.4099 43.7573 92.1191C43.7573 92.8283 44.3323 93.4033 45.0415 93.4033Z" fill="#0D51FF"/>
<path d="M53.6001 93.4033C54.3093 93.4033 54.8842 92.8283 54.8842 92.1191C54.8842 91.4099 54.3093 90.835 53.6001 90.835C52.8909 90.835 52.3159 91.4099 52.3159 92.1191C52.3159 92.8283 52.8909 93.4033 53.6001 93.4033Z" fill="#0D51FF"/>
<path d="M100.68 93.4033C101.389 93.4033 101.964 92.8283 101.964 92.1191C101.964 91.4099 101.389 90.835 100.68 90.835C99.9704 90.835 99.3955 91.4099 99.3955 92.1191C99.3955 92.8283 99.9704 93.4033 100.68 93.4033Z" fill="#0D51FF"/>
<path d="M113.519 93.4033C114.229 93.4033 114.803 92.8283 114.803 92.1191C114.803 91.4099 114.229 90.835 113.519 90.835C112.81 90.835 112.235 91.4099 112.235 92.1191C112.235 92.8283 112.81 93.4033 113.519 93.4033Z" fill="#0D51FF"/>
<path d="M117.799 93.4033C118.508 93.4033 119.083 92.8283 119.083 92.1191C119.083 91.4099 118.508 90.835 117.799 90.835C117.089 90.835 116.514 91.4099 116.514 92.1191C116.514 92.8283 117.089 93.4033 117.799 93.4033Z" fill="#0D51FF"/>
<path d="M134.918 93.4033C135.627 93.4033 136.202 92.8283 136.202 92.1191C136.202 91.4099 135.627 90.835 134.918 90.835C134.208 90.835 133.634 91.4099 133.634 92.1191C133.634 92.8283 134.208 93.4033 134.918 93.4033Z" fill="#0D51FF"/>
<path d="M23.6413 97.6826C24.3506 97.6826 24.9255 97.1076 24.9255 96.3984C24.9255 95.6892 24.3506 95.1143 23.6413 95.1143C22.9321 95.1143 22.3572 95.6892 22.3572 96.3984C22.3572 97.1076 22.9321 97.6826 23.6413 97.6826Z" fill="#0D51FF"/>
<path d="M32.2016 97.6826C32.9109 97.6826 33.4858 97.1076 33.4858 96.3984C33.4858 95.6892 32.9109 95.1143 32.2016 95.1143C31.4924 95.1143 30.9175 95.6892 30.9175 96.3984C30.9175 97.1076 31.4924 97.6826 32.2016 97.6826Z" fill="#0D51FF"/>
<path d="M49.3208 97.6826C50.03 97.6826 50.6049 97.1076 50.6049 96.3984C50.6049 95.6892 50.03 95.1143 49.3208 95.1143C48.6116 95.1143 48.0366 95.6892 48.0366 96.3984C48.0366 97.1076 48.6116 97.6826 49.3208 97.6826Z" fill="#0D51FF"/>
<path d="M53.6001 97.6826C54.3093 97.6826 54.8842 97.1076 54.8842 96.3984C54.8842 95.6892 54.3093 95.1143 53.6001 95.1143C52.8909 95.1143 52.3159 95.6892 52.3159 96.3984C52.3159 97.1076 52.8909 97.6826 53.6001 97.6826Z" fill="#0D51FF"/>
<path d="M57.8811 97.6826C58.5903 97.6826 59.1652 97.1076 59.1652 96.3984C59.1652 95.6892 58.5903 95.1143 57.8811 95.1143C57.1719 95.1143 56.5969 95.6892 56.5969 96.3984C56.5969 97.1076 57.1719 97.6826 57.8811 97.6826Z" fill="#0D51FF"/>
<path d="M66.4397 97.6826C67.1489 97.6826 67.7238 97.1076 67.7238 96.3984C67.7238 95.6892 67.1489 95.1143 66.4397 95.1143C65.7305 95.1143 65.1555 95.6892 65.1555 96.3984C65.1555 97.1076 65.7305 97.6826 66.4397 97.6826Z" fill="#0D51FF"/>
<path d="M75.0002 97.6826C75.7094 97.6826 76.2844 97.1076 76.2844 96.3984C76.2844 95.6892 75.7094 95.1143 75.0002 95.1143C74.291 95.1143 73.7161 95.6892 73.7161 96.3984C73.7161 97.1076 74.291 97.6826 75.0002 97.6826Z" fill="#0D51FF"/>
<path d="M79.2795 97.6826C79.9887 97.6826 80.5637 97.1076 80.5637 96.3984C80.5637 95.6892 79.9887 95.1143 79.2795 95.1143C78.5703 95.1143 77.9954 95.6892 77.9954 96.3984C77.9954 97.1076 78.5703 97.6826 79.2795 97.6826Z" fill="#0D51FF"/>
<path d="M83.5605 97.6826C84.2697 97.6826 84.8447 97.1076 84.8447 96.3984C84.8447 95.6892 84.2697 95.1143 83.5605 95.1143C82.8513 95.1143 82.2764 95.6892 82.2764 96.3984C82.2764 97.1076 82.8513 97.6826 83.5605 97.6826Z" fill="#0D51FF"/>
<path d="M87.8398 97.6826C88.549 97.6826 89.1239 97.1076 89.1239 96.3984C89.1239 95.6892 88.549 95.1143 87.8398 95.1143C87.1306 95.1143 86.5557 95.6892 86.5557 96.3984C86.5557 97.1076 87.1306 97.6826 87.8398 97.6826Z" fill="#0D51FF"/>
<path d="M113.519 97.6826C114.229 97.6826 114.803 97.1076 114.803 96.3984C114.803 95.6892 114.229 95.1143 113.519 95.1143C112.81 95.1143 112.235 95.6892 112.235 96.3984C112.235 97.1076 112.81 97.6826 113.519 97.6826Z" fill="#0D51FF"/>
<path d="M122.078 97.6826C122.787 97.6826 123.362 97.1076 123.362 96.3984C123.362 95.6892 122.787 95.1143 122.078 95.1143C121.369 95.1143 120.794 95.6892 120.794 96.3984C120.794 97.1076 121.369 97.6826 122.078 97.6826Z" fill="#0D51FF"/>
<path d="M130.638 97.6826C131.348 97.6826 131.923 97.1076 131.923 96.3984C131.923 95.6892 131.348 95.1143 130.638 95.1143C129.929 95.1143 129.354 95.6892 129.354 96.3984C129.354 97.1076 129.929 97.6826 130.638 97.6826Z" fill="#0D51FF"/>
<path d="M15.0808 101.964C15.79 101.964 16.3649 101.389 16.3649 100.68C16.3649 99.9703 15.79 99.3954 15.0808 99.3954C14.3716 99.3954 13.7966 99.9703 13.7966 100.68C13.7966 101.389 14.3716 101.964 15.0808 101.964Z" fill="#0D51FF"/>
<path d="M19.362 101.964C20.0713 101.964 20.6462 101.389 20.6462 100.68C20.6462 99.9703 20.0713 99.3954 19.362 99.3954C18.6528 99.3954 18.0779 99.9703 18.0779 100.68C18.0779 101.389 18.6528 101.964 19.362 101.964Z" fill="#0D51FF"/>
<path d="M32.2016 101.964C32.9109 101.964 33.4858 101.389 33.4858 100.68C33.4858 99.9703 32.9109 99.3954 32.2016 99.3954C31.4924 99.3954 30.9175 99.9703 30.9175 100.68C30.9175 101.389 31.4924 101.964 32.2016 101.964Z" fill="#0D51FF"/>
<path d="M40.7602 101.964C41.4694 101.964 42.0444 101.389 42.0444 100.68C42.0444 99.9703 41.4694 99.3954 40.7602 99.3954C40.051 99.3954 39.4761 99.9703 39.4761 100.68C39.4761 101.389 40.051 101.964 40.7602 101.964Z" fill="#0D51FF"/>
<path d="M57.8811 101.964C58.5903 101.964 59.1652 101.389 59.1652 100.68C59.1652 99.9703 58.5903 99.3954 57.8811 99.3954C57.1719 99.3954 56.5969 99.9703 56.5969 100.68C56.5969 101.389 57.1719 101.964 57.8811 101.964Z" fill="#0D51FF"/>
<path d="M66.4397 101.964C67.1489 101.964 67.7238 101.389 67.7238 100.68C67.7238 99.9703 67.1489 99.3954 66.4397 99.3954C65.7305 99.3954 65.1555 99.9703 65.1555 100.68C65.1555 101.389 65.7305 101.964 66.4397 101.964Z" fill="#0D51FF"/>
<path d="M75.0002 101.964C75.7094 101.964 76.2844 101.389 76.2844 100.68C76.2844 99.9703 75.7094 99.3954 75.0002 99.3954C74.291 99.3954 73.7161 99.9703 73.7161 100.68C73.7161 101.389 74.291 101.964 75.0002 101.964Z" fill="#0D51FF"/>
<path d="M79.2795 101.964C79.9887 101.964 80.5637 101.389 80.5637 100.68C80.5637 99.9703 79.9887 99.3954 79.2795 99.3954C78.5703 99.3954 77.9954 99.9703 77.9954 100.68C77.9954 101.389 78.5703 101.964 79.2795 101.964Z" fill="#0D51FF"/>
<path d="M83.5605 101.964C84.2697 101.964 84.8447 101.389 84.8447 100.68C84.8447 99.9703 84.2697 99.3954 83.5605 99.3954C82.8513 99.3954 82.2764 99.9703 82.2764 100.68C82.2764 101.389 82.8513 101.964 83.5605 101.964Z" fill="#0D51FF"/>
<path d="M92.1191 101.964C92.8283 101.964 93.4033 101.389 93.4033 100.68C93.4033 99.9703 92.8283 99.3954 92.1191 99.3954C91.4099 99.3954 90.835 99.9703 90.835 100.68C90.835 101.389 91.4099 101.964 92.1191 101.964Z" fill="#0D51FF"/>
<path d="M100.68 101.964C101.389 101.964 101.964 101.389 101.964 100.68C101.964 99.9703 101.389 99.3954 100.68 99.3954C99.9704 99.3954 99.3955 99.9703 99.3955 100.68C99.3955 101.389 99.9704 101.964 100.68 101.964Z" fill="#0D51FF"/>
<path d="M104.959 101.964C105.668 101.964 106.243 101.389 106.243 100.68C106.243 99.9703 105.668 99.3954 104.959 99.3954C104.25 99.3954 103.675 99.9703 103.675 100.68C103.675 101.389 104.25 101.964 104.959 101.964Z" fill="#0D51FF"/>
<path d="M109.238 101.964C109.947 101.964 110.522 101.389 110.522 100.68C110.522 99.9703 109.947 99.3954 109.238 99.3954C108.529 99.3954 107.954 99.9703 107.954 100.68C107.954 101.389 108.529 101.964 109.238 101.964Z" fill="#0D51FF"/>
<path d="M113.519 101.964C114.229 101.964 114.803 101.389 114.803 100.68C114.803 99.9703 114.229 99.3954 113.519 99.3954C112.81 99.3954 112.235 99.9703 112.235 100.68C112.235 101.389 112.81 101.964 113.519 101.964Z" fill="#0D51FF"/>
<path d="M117.799 101.964C118.508 101.964 119.083 101.389 119.083 100.68C119.083 99.9703 118.508 99.3954 117.799 99.3954C117.089 99.3954 116.514 99.9703 116.514 100.68C116.514 101.389 117.089 101.964 117.799 101.964Z" fill="#0D51FF"/>
<path d="M122.078 101.964C122.787 101.964 123.362 101.389 123.362 100.68C123.362 99.9703 122.787 99.3954 122.078 99.3954C121.369 99.3954 120.794 99.9703 120.794 100.68C120.794 101.389 121.369 101.964 122.078 101.964Z" fill="#0D51FF"/>
<path d="M130.638 101.964C131.348 101.964 131.923 101.389 131.923 100.68C131.923 99.9703 131.348 99.3954 130.638 99.3954C129.929 99.3954 129.354 99.9703 129.354 100.68C129.354 101.389 129.929 101.964 130.638 101.964Z" fill="#0D51FF"/>
<path d="M49.3208 106.243C50.03 106.243 50.6049 105.668 50.6049 104.959C50.6049 104.25 50.03 103.675 49.3208 103.675C48.6116 103.675 48.0366 104.25 48.0366 104.959C48.0366 105.668 48.6116 106.243 49.3208 106.243Z" fill="#0D51FF"/>
<path d="M53.6001 106.243C54.3093 106.243 54.8842 105.668 54.8842 104.959C54.8842 104.25 54.3093 103.675 53.6001 103.675C52.8909 103.675 52.3159 104.25 52.3159 104.959C52.3159 105.668 52.8909 106.243 53.6001 106.243Z" fill="#0D51FF"/>
<path d="M57.8811 106.243C58.5903 106.243 59.1652 105.668 59.1652 104.959C59.1652 104.25 58.5903 103.675 57.8811 103.675C57.1719 103.675 56.5969 104.25 56.5969 104.959C56.5969 105.668 57.1719 106.243 57.8811 106.243Z" fill="#0D51FF"/>
<path d="M62.1606 106.243C62.8698 106.243 63.4448 105.668 63.4448 104.959C63.4448 104.25 62.8698 103.675 62.1606 103.675C61.4514 103.675 60.8765 104.25 60.8765 104.959C60.8765 105.668 61.4514 106.243 62.1606 106.243Z" fill="#0D51FF"/>
<path d="M66.4397 106.243C67.1489 106.243 67.7238 105.668 67.7238 104.959C67.7238 104.25 67.1489 103.675 66.4397 103.675C65.7305 103.675 65.1555 104.25 65.1555 104.959C65.1555 105.668 65.7305 106.243 66.4397 106.243Z" fill="#0D51FF"/>
<path d="M75.0002 106.243C75.7094 106.243 76.2844 105.668 76.2844 104.959C76.2844 104.25 75.7094 103.675 75.0002 103.675C74.291 103.675 73.7161 104.25 73.7161 104.959C73.7161 105.668 74.291 106.243 75.0002 106.243Z" fill="#0D51FF"/>
<path d="M79.2795 106.243C79.9887 106.243 80.5637 105.668 80.5637 104.959C80.5637 104.25 79.9887 103.675 79.2795 103.675C78.5703 103.675 77.9954 104.25 77.9954 104.959C77.9954 105.668 78.5703 106.243 79.2795 106.243Z" fill="#0D51FF"/>
<path d="M87.8398 106.243C88.549 106.243 89.1239 105.668 89.1239 104.959C89.1239 104.25 88.549 103.675 87.8398 103.675C87.1306 103.675 86.5557 104.25 86.5557 104.959C86.5557 105.668 87.1306 106.243 87.8398 106.243Z" fill="#0D51FF"/>
<path d="M96.3984 106.243C97.1076 106.243 97.6826 105.668 97.6826 104.959C97.6826 104.25 97.1076 103.675 96.3984 103.675C95.6892 103.675 95.1143 104.25 95.1143 104.959C95.1143 105.668 95.6892 106.243 96.3984 106.243Z" fill="#0D51FF"/>
<path d="M100.68 106.243C101.389 106.243 101.964 105.668 101.964 104.959C101.964 104.25 101.389 103.675 100.68 103.675C99.9704 103.675 99.3955 104.25 99.3955 104.959C99.3955 105.668 99.9704 106.243 100.68 106.243Z" fill="#0D51FF"/>
<path d="M117.799 106.243C118.508 106.243 119.083 105.668 119.083 104.959C119.083 104.25 118.508 103.675 117.799 103.675C117.089 103.675 116.514 104.25 116.514 104.959C116.514 105.668 117.089 106.243 117.799 106.243Z" fill="#0D51FF"/>
<path d="M126.359 106.243C127.068 106.243 127.643 105.668 127.643 104.959C127.643 104.25 127.068 103.675 126.359 103.675C125.65 103.675 125.075 104.25 125.075 104.959C125.075 105.668 125.65 106.243 126.359 106.243Z" fill="#0D51FF"/>
<path d="M134.918 106.243C135.627 106.243 136.202 105.668 136.202 104.959C136.202 104.25 135.627 103.675 134.918 103.675C134.208 103.675 133.634 104.25 133.634 104.959C133.634 105.668 134.208 106.243 134.918 106.243Z" fill="#0D51FF"/>
<path d="M49.3208 110.522C50.03 110.522 50.6049 109.947 50.6049 109.238C50.6049 108.529 50.03 107.954 49.3208 107.954C48.6116 107.954 48.0366 108.529 48.0366 109.238C48.0366 109.947 48.6116 110.522 49.3208 110.522Z" fill="#0D51FF"/>
<path d="M57.8811 110.522C58.5903 110.522 59.1652 109.947 59.1652 109.238C59.1652 108.529 58.5903 107.954 57.8811 107.954C57.1719 107.954 56.5969 108.529 56.5969 109.238C56.5969 109.947 57.1719 110.522 57.8811 110.522Z" fill="#0D51FF"/>
<path d="M75.0002 110.522C75.7094 110.522 76.2844 109.947 76.2844 109.238C76.2844 108.529 75.7094 107.954 75.0002 107.954C74.291 107.954 73.7161 108.529 73.7161 109.238C73.7161 109.947 74.291 110.522 75.0002 110.522Z" fill="#0D51FF"/>
<path d="M87.8398 110.522C88.549 110.522 89.1239 109.947 89.1239 109.238C89.1239 108.529 88.549 107.954 87.8398 107.954C87.1306 107.954 86.5557 108.529 86.5557 109.238C86.5557 109.947 87.1306 110.522 87.8398 110.522Z" fill="#0D51FF"/>
<path d="M96.3984 110.522C97.1076 110.522 97.6826 109.947 97.6826 109.238C97.6826 108.529 97.1076 107.954 96.3984 107.954C95.6892 107.954 95.1143 108.529 95.1143 109.238C95.1143 109.947 95.6892 110.522 96.3984 110.522Z" fill="#0D51FF"/>
<path d="M100.68 110.522C101.389 110.522 101.964 109.947 101.964 109.238C101.964 108.529 101.389 107.954 100.68 107.954C99.9704 107.954 99.3955 108.529 99.3955 109.238C99.3955 109.947 99.9704 110.522 100.68 110.522Z" fill="#0D51FF"/>
<path d="M109.238 110.522C109.947 110.522 110.522 109.947 110.522 109.238C110.522 108.529 109.947 107.954 109.238 107.954C108.529 107.954 107.954 108.529 107.954 109.238C107.954 109.947 108.529 110.522 109.238 110.522Z" fill="#0D51FF"/>
<path d="M117.799 110.522C118.508 110.522 119.083 109.947 119.083 109.238C119.083 108.529 118.508 107.954 117.799 107.954C117.089 107.954 116.514 108.529 116.514 109.238C116.514 109.947 117.089 110.522 117.799 110.522Z" fill="#0D51FF"/>
<path d="M130.638 110.522C131.348 110.522 131.923 109.947 131.923 109.238C131.923 108.529 131.348 107.954 130.638 107.954C129.929 107.954 129.354 108.529 129.354 109.238C129.354 109.947 129.929 110.522 130.638 110.522Z" fill="#0D51FF"/>
<path d="M134.918 110.522C135.627 110.522 136.202 109.947 136.202 109.238C136.202 108.529 135.627 107.954 134.918 107.954C134.208 107.954 133.634 108.529 133.634 109.238C133.634 109.947 134.208 110.522 134.918 110.522Z" fill="#0D51FF"/>
<path d="M49.3208 114.803C50.03 114.803 50.6049 114.228 50.6049 113.519C50.6049 112.81 50.03 112.235 49.3208 112.235C48.6116 112.235 48.0366 112.81 48.0366 113.519C48.0366 114.228 48.6116 114.803 49.3208 114.803Z" fill="#0D51FF"/>
<path d="M79.2795 114.803C79.9887 114.803 80.5637 114.228 80.5637 113.519C80.5637 112.81 79.9887 112.235 79.2795 112.235C78.5703 112.235 77.9954 112.81 77.9954 113.519C77.9954 114.228 78.5703 114.803 79.2795 114.803Z" fill="#0D51FF"/>
<path d="M87.8398 114.803C88.549 114.803 89.1239 114.228 89.1239 113.519C89.1239 112.81 88.549 112.235 87.8398 112.235C87.1306 112.235 86.5557 112.81 86.5557 113.519C86.5557 114.228 87.1306 114.803 87.8398 114.803Z" fill="#0D51FF"/>
<path d="M92.1191 114.803C92.8283 114.803 93.4033 114.228 93.4033 113.519C93.4033 112.81 92.8283 112.235 92.1191 112.235C91.4099 112.235 90.835 112.81 90.835 113.519C90.835 114.228 91.4099 114.803 92.1191 114.803Z" fill="#0D51FF"/>
<path d="M96.3984 114.803C97.1076 114.803 97.6826 114.228 97.6826 113.519C97.6826 112.81 97.1076 112.235 96.3984 112.235C95.6892 112.235 95.1143 112.81 95.1143 113.519C95.1143 114.228 95.6892 114.803 96.3984 114.803Z" fill="#0D51FF"/>
<path d="M100.68 114.803C101.389 114.803 101.964 114.228 101.964 113.519C101.964 112.81 101.389 112.235 100.68 112.235C99.9704 112.235 99.3955 112.81 99.3955 113.519C99.3955 114.228 99.9704 114.803 100.68 114.803Z" fill="#0D51FF"/>
<path d="M117.799 114.803C118.508 114.803 119.083 114.228 119.083 113.519C119.083 112.81 118.508 112.235 117.799 112.235C117.089 112.235 116.514 112.81 116.514 113.519C116.514 114.228 117.089 114.803 117.799 114.803Z" fill="#0D51FF"/>
<path d="M122.078 114.803C122.787 114.803 123.362 114.228 123.362 113.519C123.362 112.81 122.787 112.235 122.078 112.235C121.369 112.235 120.794 112.81 120.794 113.519C120.794 114.228 121.369 114.803 122.078 114.803Z" fill="#0D51FF"/>
<path d="M49.3208 119.083C50.03 119.083 50.6049 118.508 50.6049 117.799C50.6049 117.089 50.03 116.514 49.3208 116.514C48.6116 116.514 48.0366 117.089 48.0366 117.799C48.0366 118.508 48.6116 119.083 49.3208 119.083Z" fill="#0D51FF"/>
<path d="M62.1606 119.083C62.8698 119.083 63.4448 118.508 63.4448 117.799C63.4448 117.089 62.8698 116.514 62.1606 116.514C61.4514 116.514 60.8765 117.089 60.8765 117.799C60.8765 118.508 61.4514 119.083 62.1606 119.083Z" fill="#0D51FF"/>
<path d="M66.4397 119.083C67.1489 119.083 67.7238 118.508 67.7238 117.799C67.7238 117.089 67.1489 116.514 66.4397 116.514C65.7305 116.514 65.1555 117.089 65.1555 117.799C65.1555 118.508 65.7305 119.083 66.4397 119.083Z" fill="#0D51FF"/>
<path d="M70.7209 119.083C71.4301 119.083 72.0051 118.508 72.0051 117.799C72.0051 117.089 71.4301 116.514 70.7209 116.514C70.0117 116.514 69.4368 117.089 69.4368 117.799C69.4368 118.508 70.0117 119.083 70.7209 119.083Z" fill="#0D51FF"/>
<path d="M75.0002 119.083C75.7094 119.083 76.2844 118.508 76.2844 117.799C76.2844 117.089 75.7094 116.514 75.0002 116.514C74.291 116.514 73.7161 117.089 73.7161 117.799C73.7161 118.508 74.291 119.083 75.0002 119.083Z" fill="#0D51FF"/>
<path d="M79.2795 119.083C79.9887 119.083 80.5637 118.508 80.5637 117.799C80.5637 117.089 79.9887 116.514 79.2795 116.514C78.5703 116.514 77.9954 117.089 77.9954 117.799C77.9954 118.508 78.5703 119.083 79.2795 119.083Z" fill="#0D51FF"/>
<path d="M83.5605 119.083C84.2697 119.083 84.8447 118.508 84.8447 117.799C84.8447 117.089 84.2697 116.514 83.5605 116.514C82.8513 116.514 82.2764 117.089 82.2764 117.799C82.2764 118.508 82.8513 119.083 83.5605 119.083Z" fill="#0D51FF"/>
<path d="M96.3984 119.083C97.1076 119.083 97.6826 118.508 97.6826 117.799C97.6826 117.089 97.1076 116.514 96.3984 116.514C95.6892 116.514 95.1143 117.089 95.1143 117.799C95.1143 118.508 95.6892 119.083 96.3984 119.083Z" fill="#0D51FF"/>
<path d="M100.68 119.083C101.389 119.083 101.964 118.508 101.964 117.799C101.964 117.089 101.389 116.514 100.68 116.514C99.9704 116.514 99.3955 117.089 99.3955 117.799C99.3955 118.508 99.9704 119.083 100.68 119.083Z" fill="#0D51FF"/>
<path d="M104.959 119.083C105.668 119.083 106.243 118.508 106.243 117.799C106.243 117.089 105.668 116.514 104.959 116.514C104.25 116.514 103.675 117.089 103.675 117.799C103.675 118.508 104.25 119.083 104.959 119.083Z" fill="#0D51FF"/>
<path d="M109.238 119.083C109.947 119.083 110.522 118.508 110.522 117.799C110.522 117.089 109.947 116.514 109.238 116.514C108.529 116.514 107.954 117.089 107.954 117.799C107.954 118.508 108.529 119.083 109.238 119.083Z" fill="#0D51FF"/>
<path d="M113.519 119.083C114.229 119.083 114.803 118.508 114.803 117.799C114.803 117.089 114.229 116.514 113.519 116.514C112.81 116.514 112.235 117.089 112.235 117.799C112.235 118.508 112.81 119.083 113.519 119.083Z" fill="#0D51FF"/>
<path d="M117.799 119.083C118.508 119.083 119.083 118.508 119.083 117.799C119.083 117.089 118.508 116.514 117.799 116.514C117.089 116.514 116.514 117.089 116.514 117.799C116.514 118.508 117.089 119.083 117.799 119.083Z" fill="#0D51FF"/>
<path d="M134.918 119.083C135.627 119.083 136.202 118.508 136.202 117.799C136.202 117.089 135.627 116.514 134.918 116.514C134.208 116.514 133.634 117.089 133.634 117.799C133.634 118.508 134.208 119.083 134.918 119.083Z" fill="#0D51FF"/>
<path d="M70.7209 123.362C71.4301 123.362 72.0051 122.787 72.0051 122.078C72.0051 121.369 71.4301 120.794 70.7209 120.794C70.0117 120.794 69.4368 121.369 69.4368 122.078C69.4368 122.787 70.0117 123.362 70.7209 123.362Z" fill="#0D51FF"/>
<path d="M79.2795 123.362C79.9887 123.362 80.5637 122.787 80.5637 122.078C80.5637 121.369 79.9887 120.794 79.2795 120.794C78.5703 120.794 77.9954 121.369 77.9954 122.078C77.9954 122.787 78.5703 123.362 79.2795 123.362Z" fill="#0D51FF"/>
<path d="M83.5605 123.362C84.2697 123.362 84.8447 122.787 84.8447 122.078C84.8447 121.369 84.2697 120.794 83.5605 120.794C82.8513 120.794 82.2764 121.369 82.2764 122.078C82.2764 122.787 82.8513 123.362 83.5605 123.362Z" fill="#0D51FF"/>
<path d="M92.1191 123.362C92.8283 123.362 93.4033 122.787 93.4033 122.078C93.4033 121.369 92.8283 120.794 92.1191 120.794C91.4099 120.794 90.835 121.369 90.835 122.078C90.835 122.787 91.4099 123.362 92.1191 123.362Z" fill="#0D51FF"/>
<path d="M113.519 123.362C114.229 123.362 114.803 122.787 114.803 122.078C114.803 121.369 114.229 120.794 113.519 120.794C112.81 120.794 112.235 121.369 112.235 122.078C112.235 122.787 112.81 123.362 113.519 123.362Z" fill="#0D51FF"/>
<path d="M130.638 123.362C131.348 123.362 131.923 122.787 131.923 122.078C131.923 121.369 131.348 120.794 130.638 120.794C129.929 120.794 129.354 121.369 129.354 122.078C129.354 122.787 129.929 123.362 130.638 123.362Z" fill="#0D51FF"/>
<path d="M53.6001 127.643C54.3093 127.643 54.8842 127.068 54.8842 126.359C54.8842 125.65 54.3093 125.075 53.6001 125.075C52.8909 125.075 52.3159 125.65 52.3159 126.359C52.3159 127.068 52.8909 127.643 53.6001 127.643Z" fill="#0D51FF"/>
<path d="M57.8811 127.643C58.5903 127.643 59.1652 127.068 59.1652 126.359C59.1652 125.65 58.5903 125.075 57.8811 125.075C57.1719 125.075 56.5969 125.65 56.5969 126.359C56.5969 127.068 57.1719 127.643 57.8811 127.643Z" fill="#0D51FF"/>
<path d="M62.1606 127.643C62.8698 127.643 63.4448 127.068 63.4448 126.359C63.4448 125.65 62.8698 125.075 62.1606 125.075C61.4514 125.075 60.8765 125.65 60.8765 126.359C60.8765 127.068 61.4514 127.643 62.1606 127.643Z" fill="#0D51FF"/>
<path d="M66.4397 127.643C67.1489 127.643 67.7238 127.068 67.7238 126.359C67.7238 125.65 67.1489 125.075 66.4397 125.075C65.7305 125.075 65.1555 125.65 65.1555 126.359C65.1555 127.068 65.7305 127.643 66.4397 127.643Z" fill="#0D51FF"/>
<path d="M75.0002 127.643C75.7094 127.643 76.2844 127.068 76.2844 126.359C76.2844 125.65 75.7094 125.075 75.0002 125.075C74.291 125.075 73.7161 125.65 73.7161 126.359C73.7161 127.068 74.291 127.643 75.0002 127.643Z" fill="#0D51FF"/>
<path d="M79.2795 127.643C79.9887 127.643 80.5637 127.068 80.5637 126.359C80.5637 125.65 79.9887 125.075 79.2795 125.075C78.5703 125.075 77.9954 125.65 77.9954 126.359C77.9954 127.068 78.5703 127.643 79.2795 127.643Z" fill="#0D51FF"/>
<path d="M87.8398 127.643C88.549 127.643 89.1239 127.068 89.1239 126.359C89.1239 125.65 88.549 125.075 87.8398 125.075C87.1306 125.075 86.5557 125.65 86.5557 126.359C86.5557 127.068 87.1306 127.643 87.8398 127.643Z" fill="#0D51FF"/>
<path d="M92.1191 127.643C92.8283 127.643 93.4033 127.068 93.4033 126.359C93.4033 125.65 92.8283 125.075 92.1191 125.075C91.4099 125.075 90.835 125.65 90.835 126.359C90.835 127.068 91.4099 127.643 92.1191 127.643Z" fill="#0D51FF"/>
<path d="M96.3984 127.643C97.1076 127.643 97.6826 127.068 97.6826 126.359C97.6826 125.65 97.1076 125.075 96.3984 125.075C95.6892 125.075 95.1143 125.65 95.1143 126.359C95.1143 127.068 95.6892 127.643 96.3984 127.643Z" fill="#0D51FF"/>
<path d="M100.68 127.643C101.389 127.643 101.964 127.068 101.964 126.359C101.964 125.65 101.389 125.075 100.68 125.075C99.9704 125.075 99.3955 125.65 99.3955 126.359C99.3955 127.068 99.9704 127.643 100.68 127.643Z" fill="#0D51FF"/>
<path d="M104.959 127.643C105.668 127.643 106.243 127.068 106.243 126.359C106.243 125.65 105.668 125.075 104.959 125.075C104.25 125.075 103.675 125.65 103.675 126.359C103.675 127.068 104.25 127.643 104.959 127.643Z" fill="#0D51FF"/>
<path d="M122.078 127.643C122.787 127.643 123.362 127.068 123.362 126.359C123.362 125.65 122.787 125.075 122.078 125.075C121.369 125.075 120.794 125.65 120.794 126.359C120.794 127.068 121.369 127.643 122.078 127.643Z" fill="#0D51FF"/>
<path d="M126.359 127.643C127.068 127.643 127.643 127.068 127.643 126.359C127.643 125.65 127.068 125.075 126.359 125.075C125.65 125.075 125.075 125.65 125.075 126.359C125.075 127.068 125.65 127.643 126.359 127.643Z" fill="#0D51FF"/>
<path d="M130.638 127.643C131.348 127.643 131.923 127.068 131.923 126.359C131.923 125.65 131.348 125.075 130.638 125.075C129.929 125.075 129.354 125.65 129.354 126.359C129.354 127.068 129.929 127.643 130.638 127.643Z" fill="#0D51FF"/>
<path d="M134.918 127.643C135.627 127.643 136.202 127.068 136.202 126.359C136.202 125.65 135.627 125.075 134.918 125.075C134.208 125.075 133.634 125.65 133.634 126.359C133.634 127.068 134.208 127.643 134.918 127.643Z" fill="#0D51FF"/>
<path d="M53.6001 131.922C54.3093 131.922 54.8842 131.347 54.8842 130.638C54.8842 129.929 54.3093 129.354 53.6001 129.354C52.8909 129.354 52.3159 129.929 52.3159 130.638C52.3159 131.347 52.8909 131.922 53.6001 131.922Z" fill="#0D51FF"/>
<path d="M57.8811 131.922C58.5903 131.922 59.1652 131.347 59.1652 130.638C59.1652 129.929 58.5903 129.354 57.8811 129.354C57.1719 129.354 56.5969 129.929 56.5969 130.638C56.5969 131.347 57.1719 131.922 57.8811 131.922Z" fill="#0D51FF"/>
<path d="M66.4397 131.922C67.1489 131.922 67.7238 131.347 67.7238 130.638C67.7238 129.929 67.1489 129.354 66.4397 129.354C65.7305 129.354 65.1555 129.929 65.1555 130.638C65.1555 131.347 65.7305 131.922 66.4397 131.922Z" fill="#0D51FF"/>
<path d="M75.0002 131.922C75.7094 131.922 76.2844 131.347 76.2844 130.638C76.2844 129.929 75.7094 129.354 75.0002 129.354C74.291 129.354 73.7161 129.929 73.7161 130.638C73.7161 131.347 74.291 131.922 75.0002 131.922Z" fill="#0D51FF"/>
<path d="M79.2795 131.922C79.9887 131.922 80.5637 131.347 80.5637 130.638C80.5637 129.929 79.9887 129.354 79.2795 129.354C78.5703 129.354 77.9954 129.929 77.9954 130.638C77.9954 131.347 78.5703 131.922 79.2795 131.922Z" fill="#0D51FF"/>
<path d="M83.5605 131.922C84.2697 131.922 84.8447 131.347 84.8447 130.638C84.8447 129.929 84.2697 129.354 83.5605 129.354C82.8513 129.354 82.2764 129.929 82.2764 130.638C82.2764 131.347 82.8513 131.922 83.5605 131.922Z" fill="#0D51FF"/>
<path d="M100.68 131.922C101.389 131.922 101.964 131.347 101.964 130.638C101.964 129.929 101.389 129.354 100.68 129.354C99.9704 129.354 99.3955 129.929 99.3955 130.638C99.3955 131.347 99.9704 131.922 100.68 131.922Z" fill="#0D51FF"/>
<path d="M113.519 131.922C114.229 131.922 114.803 131.347 114.803 130.638C114.803 129.929 114.229 129.354 113.519 129.354C112.81 129.354 112.235 129.929 112.235 130.638C112.235 131.347 112.81 131.922 113.519 131.922Z" fill="#0D51FF"/>
<path d="M122.078 131.922C122.787 131.922 123.362 131.347 123.362 130.638C123.362 129.929 122.787 129.354 122.078 129.354C121.369 129.354 120.794 129.929 120.794 130.638C120.794 131.347 121.369 131.922 122.078 131.922Z" fill="#0D51FF"/>
<path d="M130.638 131.922C131.348 131.922 131.923 131.347 131.923 130.638C131.923 129.929 131.348 129.354 130.638 129.354C129.929 129.354 129.354 129.929 129.354 130.638C129.354 131.347 129.929 131.922 130.638 131.922Z" fill="#0D51FF"/>
<path d="M134.918 131.922C135.627 131.922 136.202 131.347 136.202 130.638C136.202 129.929 135.627 129.354 134.918 129.354C134.208 129.354 133.634 129.929 133.634 130.638C133.634 131.347 134.208 131.922 134.918 131.922Z" fill="#0D51FF"/>
<path d="M57.8811 136.202C58.5903 136.202 59.1652 135.627 59.1652 134.918C59.1652 134.208 58.5903 133.633 57.8811 133.633C57.1719 133.633 56.5969 134.208 56.5969 134.918C56.5969 135.627 57.1719 136.202 57.8811 136.202Z" fill="#0D51FF"/>
<path d="M62.1606 136.202C62.8698 136.202 63.4448 135.627 63.4448 134.918C63.4448 134.208 62.8698 133.633 62.1606 133.633C61.4514 133.633 60.8765 134.208 60.8765 134.918C60.8765 135.627 61.4514 136.202 62.1606 136.202Z" fill="#0D51FF"/>
<path d="M70.7209 136.202C71.4301 136.202 72.0051 135.627 72.0051 134.918C72.0051 134.208 71.4301 133.633 70.7209 133.633C70.0117 133.633 69.4368 134.208 69.4368 134.918C69.4368 135.627 70.0117 136.202 70.7209 136.202Z" fill="#0D51FF"/>
<path d="M79.2795 136.202C79.9887 136.202 80.5637 135.627 80.5637 134.918C80.5637 134.208 79.9887 133.633 79.2795 133.633C78.5703 133.633 77.9954 134.208 77.9954 134.918C77.9954 135.627 78.5703 136.202 79.2795 136.202Z" fill="#0D51FF"/>
<path d="M87.8398 136.202C88.549 136.202 89.1239 135.627 89.1239 134.918C89.1239 134.208 88.549 133.633 87.8398 133.633C87.1306 133.633 86.5557 134.208 86.5557 134.918C86.5557 135.627 87.1306 136.202 87.8398 136.202Z" fill="#0D51FF"/>
<path d="M100.68 136.202C101.389 136.202 101.964 135.627 101.964 134.918C101.964 134.208 101.389 133.633 100.68 133.633C99.9704 133.633 99.3955 134.208 99.3955 134.918C99.3955 135.627 99.9704 136.202 100.68 136.202Z" fill="#0D51FF"/>
<path d="M109.238 136.202C109.947 136.202 110.522 135.627 110.522 134.918C110.522 134.208 109.947 133.633 109.238 133.633C108.529 133.633 107.954 134.208 107.954 134.918C107.954 135.627 108.529 136.202 109.238 136.202Z" fill="#0D51FF"/>
<path d="M117.799 136.202C118.508 136.202 119.083 135.627 119.083 134.918C119.083 134.208 118.508 133.633 117.799 133.633C117.089 133.633 116.514 134.208 116.514 134.918C116.514 135.627 117.089 136.202 117.799 136.202Z" fill="#0D51FF"/>
<path d="M122.078 136.202C122.787 136.202 123.362 135.627 123.362 134.918C123.362 134.208 122.787 133.633 122.078 133.633C121.369 133.633 120.794 134.208 120.794 134.918C120.794 135.627 121.369 136.202 122.078 136.202Z" fill="#0D51FF"/>
<path d="M130.638 136.202C131.348 136.202 131.923 135.627 131.923 134.918C131.923 134.208 131.348 133.633 130.638 133.633C129.929 133.633 129.354 134.208 129.354 134.918C129.354 135.627 129.929 136.202 130.638 136.202Z" fill="#0D51FF"/>
<path d="M27.9186 13.2354C25.0138 13.2354 22.1741 14.0968 19.7588 15.7107C17.3435 17.3246 15.4611 19.6185 14.3495 22.3023C13.2379 24.9861 12.9472 27.9392 13.514 30.7882C14.0809 33.6373 15.4799 36.2542 17.534 38.3082C19.5882 40.3621 22.2054 41.7608 25.0545 42.3272C27.9036 42.8937 30.8567 42.6026 33.5403 41.4907C36.224 40.3788 38.5177 38.4961 40.1313 36.0806C41.7449 33.6651 42.6059 30.8254 42.6056 27.9205C42.6056 25.9918 42.2257 24.0821 41.4876 22.3003C40.7495 20.5185 39.6676 18.8995 38.3038 17.5359C36.9399 16.1722 35.3208 15.0906 33.539 14.3527C31.7571 13.6148 29.8473 13.2351 27.9186 13.2354ZM27.9186 38.201C25.8853 38.201 23.8977 37.598 22.2071 36.4684C20.5165 35.3388 19.1988 33.7332 18.4207 31.8547C17.6426 29.9761 17.439 27.9091 17.8357 25.9149C18.2324 23.9206 19.2115 22.0888 20.6492 20.6511C22.087 19.2133 23.9188 18.2342 25.913 17.8375C27.9072 17.4408 29.9743 17.6444 31.8528 18.4225C33.7313 19.2006 35.3369 20.5183 36.4666 22.2089C37.5962 23.8996 38.1991 25.8872 38.1991 27.9205C38.1963 30.6461 37.1122 33.2594 35.1849 35.1867C33.2575 37.114 30.6443 38.1981 27.9186 38.201Z" fill="#0D51FF"/>
<path d="M122.078 13.2354C119.173 13.2354 116.334 14.0968 113.918 15.7107C111.503 17.3246 109.62 19.6185 108.509 22.3023C107.397 24.9861 107.107 27.9392 107.673 30.7882C108.24 33.6373 109.639 36.2542 111.693 38.3082C113.748 40.3621 116.365 41.7608 119.214 42.3272C122.063 42.8937 125.016 42.6026 127.7 41.4907C130.383 40.3788 132.677 38.4961 134.291 36.0806C135.904 33.6651 136.765 30.8254 136.765 27.9205C136.765 25.9918 136.385 24.0821 135.647 22.3003C134.909 20.5185 133.827 18.8995 132.463 17.5359C131.099 16.1722 129.48 15.0906 127.698 14.3527C125.916 13.6148 124.007 13.2351 122.078 13.2354ZM122.078 38.201C120.045 38.201 118.057 37.598 116.367 36.4684C114.676 35.3388 113.358 33.7332 112.58 31.8547C111.802 29.9761 111.598 27.9091 111.995 25.9149C112.392 23.9206 113.371 22.0888 114.809 20.6511C116.246 19.2133 118.078 18.2342 120.072 17.8375C122.067 17.4408 124.134 17.6444 126.012 18.4225C127.891 19.2006 129.496 20.5183 130.626 22.2089C131.756 23.8996 132.359 25.8872 132.359 27.9205C132.356 30.6461 131.272 33.2594 129.344 35.1867C127.417 37.114 124.804 38.1981 122.078 38.201Z" fill="#0D51FF"/>
<path d="M27.9186 107.393C25.0138 107.393 22.1741 108.254 19.7588 109.868C17.3435 111.482 15.4611 113.776 14.3495 116.46C13.2379 119.143 12.9472 122.097 13.514 124.946C14.0809 127.795 15.4799 130.412 17.534 132.466C19.5882 134.519 22.2054 135.918 25.0545 136.485C27.9036 137.051 30.8567 136.76 33.5403 135.648C36.224 134.536 38.5177 132.653 40.1313 130.238C41.7449 127.822 42.6059 124.983 42.6056 122.078C42.6056 120.149 42.2257 118.239 41.4876 116.458C40.7495 114.676 39.6676 113.057 38.3038 111.693C36.9399 110.33 35.3208 109.248 33.539 108.51C31.7571 107.772 29.8473 107.392 27.9186 107.393ZM27.9186 132.358C25.8853 132.358 23.8977 131.755 22.2071 130.626C20.5165 129.496 19.1988 127.891 18.4207 126.012C17.6426 124.134 17.439 122.066 17.8357 120.072C18.2324 118.078 19.2115 116.246 20.6492 114.808C22.087 113.371 23.9188 112.392 25.913 111.995C27.9072 111.598 29.9743 111.802 31.8528 112.58C33.7313 113.358 35.3369 114.676 36.4666 116.366C37.5962 118.057 38.1991 120.045 38.1991 122.078C38.1963 124.804 37.1122 127.417 35.1849 129.344C33.2575 131.271 30.6443 132.355 27.9186 132.358Z" fill="#0D51FF"/>
<path d="M27.7951 34.0887C31.271 34.0887 34.0887 31.271 34.0887 27.7951C34.0887 24.3192 31.271 21.5015 27.7951 21.5015C24.3192 21.5015 21.5015 24.3192 21.5015 27.7951C21.5015 31.271 24.3192 34.0887 27.7951 34.0887Z" fill="#0D51FF"/>
<path d="M121.953 34.0887C125.428 34.0887 128.246 31.271 128.246 27.7951C128.246 24.3192 125.428 21.5015 121.953 21.5015C118.477 21.5015 115.659 24.3192 115.659 27.7951C115.659 31.271 118.477 34.0887 121.953 34.0887Z" fill="#0D51FF"/>
<path d="M27.7951 128.246C31.271 128.246 34.0887 125.428 34.0887 121.953C34.0887 118.477 31.271 115.659 27.7951 115.659C24.3192 115.659 21.5015 118.477 21.5015 121.953C21.5015 125.428 24.3192 128.246 27.7951 128.246Z" fill="#0D51FF"/>
<path fill-rule="evenodd" clip-rule="evenodd" d="M82.8813 67.0372C83.9456 68.0783 84.7913 69.3216 85.3686 70.694C85.9459 72.0664 86.2433 73.5402 86.2433 75.0291H90.43C90.4292 72.9983 90.0226 70.9881 89.2341 69.1166C88.4456 67.2452 87.291 65.5501 85.8383 64.1311C82.8796 61.226 78.8959 59.6032 74.7495 59.6138V63.7297C77.7895 63.7203 80.7109 64.9086 82.8813 67.0372Z" fill="#0D51FF"/>
<path fill-rule="evenodd" clip-rule="evenodd" d="M61.1867 82.7613L64.8194 80.698C64.0597 79.4169 63.5655 77.9962 63.3661 76.5202C63.1667 75.0443 63.2662 73.5433 63.6588 72.1066C64.052 70.6682 64.7261 69.3219 65.6424 68.1453C66.5586 66.9688 67.6987 65.9854 68.997 65.2518L66.8991 61.6881C65.1261 62.6883 63.569 64.03 62.3175 65.6355C61.0661 67.2411 60.1453 69.0787 59.6083 71.0423C59.0724 73.0017 58.936 75.0489 59.2071 77.0621C59.4783 79.0753 60.1515 81.0135 61.1867 82.7613Z" fill="#0D51FF"/>
<path fill-rule="evenodd" clip-rule="evenodd" d="M67.1064 88.4954C70.6781 90.4596 74.8688 90.9734 78.8091 89.9303C82.8027 88.8925 86.2223 86.3147 88.3195 82.7612L84.6959 80.6979C83.1608 83.3062 80.6549 85.2002 77.7266 85.9653C74.8375 86.7286 71.7654 86.3501 69.148 84.9082L67.1064 88.4954Z" fill="#0D51FF"/>
</g>
<defs>
<clipPath id="appQRCodeIconDefs">
<rect x="13.2354" y="13.2354" width="123.529" height="123.529" fill="white"/>
</clipPath>
</defs>
</svg>
