<svg width="14" height="14" viewBox="0 0 14 14" fill="none" xmlns="http://www.w3.org/2000/svg">
    <path d="M1.11069 7.85581C0.650456 7.85757 0.275936 7.4859 0.274176 7.02567C0.272416 6.56544 0.644083 6.19092 1.10432 6.18916L12.8893 6.1441C13.3496 6.14234 13.7241 6.51401 13.7259 6.97424C13.7276 7.43447 13.356 7.80899 12.8957 7.81075L1.11069 7.85581Z" fill="white"/>
    <path d="M11.714 6.98193L6.39049 1.69895C6.06381 1.37476 6.06179 0.847123 6.38598 0.520444C6.71017 0.193765 7.23781 0.191748 7.56449 0.515938L13.4795 6.38592C13.8062 6.71011 13.8082 7.23775 13.484 7.56442L7.61405 13.4795C7.28986 13.8061 6.76223 13.8082 6.43555 13.484C6.10887 13.1598 6.10685 12.6321 6.43104 12.3055L11.714 6.98193Z" fill="white"/>
</svg>
