<svg width="18" height="18" viewBox="0 0 18 18" fill="none" xmlns="http://www.w3.org/2000/svg">
<path d="M16.0675 7.973C16.6197 7.97089 17.0692 8.41689 17.0713 8.96917C17.0734 9.52145 16.6274 9.97087 16.0751 9.97299L1.93308 10.0271C1.3808 10.0292 0.931376 9.58317 0.929265 9.03089C0.927153 8.47861 1.37315 8.02918 1.92543 8.02707L16.0675 7.973Z" fill="#1C1C1C"/>
<path d="M3.34346 9.02166L9.73171 15.3612C10.1237 15.7503 10.1261 16.3834 9.73711 16.7754C9.34808 17.1675 8.71492 17.1699 8.32291 16.7808L1.22486 9.73687C0.832844 9.34784 0.830424 8.71468 1.21945 8.32266L8.26343 1.22461C8.65246 0.832599 9.28562 0.830179 9.67764 1.21921C10.0697 1.60824 10.0721 2.2414 9.68304 2.63341L3.34346 9.02166Z" fill="#1C1C1C"/>
</svg>
