<svg width="24" height="24" viewBox="0 0 24 24" fill="none" xmlns="http://www.w3.org/2000/svg">
  <path d="M19.0672 10.973C19.6195 10.9709 20.0689 11.4169 20.071 11.9692C20.0731 12.5215 19.6271 12.9709 19.0749 12.973L4.93284 13.0271C4.38056 13.0292 3.93113 12.5832 3.92902 12.0309C3.92691 11.4786 4.37291 11.0292 4.92519 11.0271L19.0672 10.973Z" fill="#2D2E30"/>
  <path d="M6.34322 12.0217L12.7315 18.3612C13.1235 18.7503 13.1259 19.3834 12.7369 19.7754C12.3478 20.1675 11.7147 20.1699 11.3227 19.7808L4.22461 12.7369C3.8326 12.3478 3.83018 11.7147 4.21921 11.3227L11.2632 4.22461C11.6522 3.8326 12.2854 3.83018 12.6774 4.21921C13.0694 4.60824 13.0718 5.2414 12.6828 5.63341L6.34322 12.0217Z" fill="#2D2E30"/>
</svg>
