<svg
   width="40"
   height="40"
   viewBox="0 0 40 40"
   fill="none"
   version="1.1"
   xmlns="http://www.w3.org/2000/svg">
  <path
     d="M39.5 20C39.5 30.7696 30.7696 39.5 20 39.5C9.23045 39.5 0.5 30.7696 0.5 20C0.5 9.23045 9.23045 0.5 20 0.5C30.7696 0.5 39.5 9.23045 39.5 20Z"
     stroke="#EFEFEF"
     />
  <path
     style="clip-rule:evenodd;fill:#2d2e30;fill-rule:evenodd"
     d="m 30.9802,14.356236 c 0.3192,0.16426 0.5198,0.49314 0.5198,0.85212 v 9.58329 c 0,0.359 -0.2006,0.6879 -0.5198,0.8522 -0.3192,0.1642 -0.7034,0.1363 -0.9956,-0.0723 l -6.7083,-4.7917 c -0.2518,-0.17989 -0.4013,-0.47033 -0.4013,-0.77983 0,-0.30949 0.1495,-0.59993 0.4013,-0.77982 l 6.7083,-4.79167 c 0.2922,-0.20865 0.6764,-0.23655 0.9956,-0.07229 z m -5.4981,5.64378 4.1012,2.92943 v -5.85887 z"
     />
  <path
     style="clip-rule:evenodd;fill:#2d2e30;fill-rule:evenodd"
     d="m 8.5,15.208356 c 0,-1.58782 1.28718,-2.875002 2.875,-2.875002 h 10.5417 c 1.5878,0 2.875,1.287182 2.875,2.875002 v 9.58329 c 0,1.5879 -1.2872,2.875 -2.875,2.875 H 11.375 c -1.58782,0 -2.875,-1.2871 -2.875,-2.875 z m 2.875,-0.95834 c -0.52927,0 -0.95833,0.42906 -0.95833,0.95834 v 9.58329 c 0,0.5293 0.42906,0.9584 0.95833,0.9584 h 10.5417 c 0.5292,0 0.9583,-0.4291 0.9583,-0.9584 v -9.58329 c 0,-0.52928 -0.4291,-0.95834 -0.9583,-0.95834 z"
     />
</svg>
