<svg width="24" height="24" viewBox="0 0 24 24" fill="none" xmlns="http://www.w3.org/2000/svg">
<path d="M11.3 15.7L5.3 9.7C5.1 9.5 5 9.3 5 9C5 8.7 5.1 8.5 5.3 8.3C5.7 7.9 6.3 7.9 6.7 8.3L12 13.6L17.3 8.3C17.7 7.9 18.3 7.9 18.7 8.3C19.1 8.7 19.1 9.3 18.7 9.7L12.7 15.7C12.3 16.1 11.7 16.1 11.3 15.7Z" fill="black"/>
<mask id="mask0" mask-type="alpha" maskUnits="userSpaceOnUse" x="5" y="8" width="14" height="8">
<path d="M11.3 15.7L5.3 9.7C5.1 9.5 5 9.3 5 9C5 8.7 5.1 8.5 5.3 8.3C5.7 7.9 6.3 7.9 6.7 8.3L12 13.6L17.3 8.3C17.7 7.9 18.3 7.9 18.7 8.3C19.1 8.7 19.1 9.3 18.7 9.7L12.7 15.7C12.3 16.1 11.7 16.1 11.3 15.7Z" fill="white"/>
</mask>
<g mask="url(#mask0)">
<rect x="24" width="24" height="24" transform="rotate(90 24 0)" fill="#1C1C1C"/>
</g>
</svg>

