<svg width="11" height="18" viewBox="0 0 11 18" fill="none" xmlns="http://www.w3.org/2000/svg">
<path d="M2.46489 1.03411L2.46483 1.03405C2.07252 0.655317 1.44019 0.655317 1.04788 1.03405L1.04779 1.03413C0.650736 1.4178 0.650736 2.04333 1.04779 2.427L1.04782 2.42703L7.85231 9L1.04782 15.573L1.04779 15.573C0.650736 15.9567 0.650736 16.5822 1.04779 16.9659L1.04788 16.966C1.44017 17.3447 2.07262 17.3447 2.46486 16.9659L2.46489 16.9659L9.95208 9.73317C9.9521 9.73315 9.95212 9.73313 9.95214 9.73311C10.1596 9.5328 10.2597 9.26475 10.2493 8.99907C10.2592 8.73385 10.1591 8.46667 9.95208 8.26683L2.46489 1.03411Z" fill="#7E7E80" stroke="#7E7E80" stroke-width="0.5"/>
</svg>
