<svg width="32" height="32" viewBox="0 0 32 32" fill="none" xmlns="http://www.w3.org/2000/svg">
    <path d="M24.9333 23.067C25.4666 23.6003 25.4666 24.4003 24.9333 24.9337C24.6666 25.2003 24.4 25.3337 24 25.3337C23.6 25.3337 23.3333 25.2003 23.0666 24.9337L16 17.867L8.93329 24.9337C8.66663 25.2003 8.39996 25.3337 7.99996 25.3337C7.59996 25.3337 7.33329 25.2003 7.06663 24.9337C6.53329 24.4003 6.53329 23.6003 7.06663 23.067L14.1333 16.0003L7.06663 8.93366C6.53329 8.40033 6.53329 7.60033 7.06663 7.06699C7.59996 6.53366 8.39996 6.53366 8.93329 7.06699L16 14.1337L23.0666 7.06699C23.6 6.53366 24.4 6.53366 24.9333 7.06699C25.4666 7.60033 25.4666 8.40033 24.9333 8.93366L17.8666 16.0003L24.9333 23.067Z"
          fill="white"/>
</svg>
