<svg width="16" height="16" viewBox="0 0 16 16" fill="none" xmlns="http://www.w3.org/2000/svg">
<path d="M15.0494 15.0494C15.5139 14.585 15.5139 13.8825 15.0494 13.4181L9.63134 8.00002L15.0494 2.58192C15.5139 2.11752 15.5139 1.41499 15.0494 0.950595C14.585 0.486195 13.8825 0.486195 13.4181 0.950595L8.00002 6.3687L2.58192 0.950595C2.11752 0.486195 1.41499 0.486195 0.950595 0.950595C0.486195 1.41499 0.486195 2.11752 0.950595 2.58192L6.3687 8.00002L0.950595 13.4181C0.486195 13.8825 0.486195 14.585 0.950595 15.0494C1.06187 15.1607 1.17811 15.2492 1.31289 15.3091C1.44821 15.3692 1.59583 15.3977 1.76626 15.3977C1.93669 15.3977 2.0843 15.3692 2.21962 15.3091C2.3544 15.2492 2.47064 15.1607 2.58192 15.0494L8.00002 9.63134L13.4181 15.0494C13.5294 15.1607 13.6456 15.2492 13.7804 15.3091C13.9157 15.3692 14.0634 15.3977 14.2338 15.3977C14.4042 15.3977 14.5518 15.3692 14.6872 15.3091C14.8219 15.2492 14.9382 15.1607 15.0494 15.0494Z" fill="#7E7E80" stroke="#7E7E80" stroke-width="0.25"/>
</svg>
