<svg width="22" height="22" viewBox="0 0 22 22" fill="none" xmlns="http://www.w3.org/2000/svg">
<path fill-rule="evenodd" clip-rule="evenodd" d="M4.77778 14.5555C5.31112 14.5555 5.66667 14.1999 5.66667 13.6666C5.66667 13.1333 5.31112 12.7777 4.77778 12.7777H3.8889C3.35556 12.7777 3.00001 12.4222 3.00001 11.8888V3.88883C3.00001 3.3555 3.35556 2.99995 3.8889 2.99995H11.8889C12.4222 2.99995 12.7778 3.3555 12.7778 3.88883V4.77772C12.7778 5.31106 13.1333 5.66661 13.6667 5.66661C14.2 5.66661 14.5556 5.31106 14.5556 4.77772V3.88883C14.5556 2.37772 13.4 1.22217 11.8889 1.22217H3.8889C2.37778 1.22217 1.22223 2.37772 1.22223 3.88883V11.8888C1.22223 13.3999 2.37778 14.5555 3.8889 14.5555H4.77778ZM18.1111 7.44439H10.1111C8.60001 7.44439 7.44445 8.59995 7.44445 10.1111V18.1111C7.44445 19.6222 8.60001 20.7777 10.1111 20.7777H18.1111C19.6222 20.7777 20.7778 19.6222 20.7778 18.1111V10.1111C20.7778 8.59995 19.6222 7.44439 18.1111 7.44439ZM19 18.1111C19 18.6444 18.6445 18.9999 18.1111 18.9999H10.1111C9.57778 18.9999 9.22223 18.6444 9.22223 18.1111V10.1111C9.22223 9.57772 9.57778 9.22217 10.1111 9.22217H18.1111C18.6445 9.22217 19 9.57772 19 10.1111V18.1111Z" fill="#0D51FF"/>
</svg>
