<svg width="16" height="16" viewBox="0 0 16 16" fill="none" xmlns="http://www.w3.org/2000/svg">
<g clip-path="url(#deleteLinkSvgIcon)">
<path d="M12.5526 10.2081C12.3664 10.2081 12.1803 10.1369 12.0385 9.99504C11.754 9.71074 11.754 9.25105 12.0385 8.96675L13.5075 7.49768C14.1773 6.83438 14.5453 5.94857 14.5453 5.00097C14.5453 3.05264 12.9598 1.46652 11.0108 1.46652C10.0639 1.46652 9.17808 1.83445 8.51639 2.50214L7.04505 3.97334C6.76075 4.25778 6.30106 4.25778 6.01676 3.97334C5.73245 3.68904 5.73245 3.22935 6.01676 2.94505L7.48583 1.47531C8.42104 0.53277 9.67346 0.0119629 11.0108 0.0119629C13.762 0.0119629 15.9998 2.24979 15.9998 5.00097C15.9998 6.33981 15.479 7.59142 14.5329 8.5289L13.0661 9.99504C12.9243 10.1369 12.7388 10.2081 12.5526 10.2081Z" fill="#0D51FF"/>
<path d="M4.98913 16.0117C2.23795 16.0117 0.00012207 13.7739 0.00012207 11.0227C0.00012207 9.68389 0.520929 8.43228 1.46706 7.4948L2.93387 6.02866C3.21831 5.74435 3.67786 5.74435 3.9623 6.02866C4.24661 6.31297 4.24661 6.77265 3.9623 7.05696L2.49323 8.52603C1.82261 9.18932 1.45468 10.0751 1.45468 11.0227C1.45468 12.9711 3.04014 14.5572 4.98913 14.5572C5.93607 14.5572 6.82188 14.1893 7.48357 13.5216L8.95491 12.0504C9.23921 11.7659 9.6989 11.7659 9.9832 12.0504C10.2675 12.3347 10.2675 12.7944 9.9832 13.0787L8.51413 14.5485C7.57892 15.4909 6.32664 16.0117 4.98913 16.0117Z" fill="#0D51FF"/>
<path d="M9.54171 7.19713C9.35554 7.19713 9.16938 7.12589 9.02756 6.98407C8.74325 6.69977 8.74325 6.24008 9.02756 5.95577L10.3948 4.58857C10.6792 4.30413 11.1387 4.30413 11.4232 4.58857C11.7075 4.87288 11.7075 5.33256 11.4232 5.61687L10.0559 6.98407C9.91404 7.12589 9.72787 7.19713 9.54171 7.19713Z" fill="#0D51FF"/>
<path d="M5.091 11.6481C4.90484 11.6481 4.71854 11.5768 4.57685 11.435C4.29242 11.1506 4.29242 10.691 4.57685 10.4066L5.94405 9.0394C6.22835 8.7551 6.68804 8.7551 6.97234 9.0394C7.25678 9.32371 7.25678 9.78339 6.97234 10.0677L5.60515 11.435C5.46333 11.5768 5.27716 11.6481 5.091 11.6481Z" fill="#0D51FF"/>
<path d="M15.2725 16.0145C15.0863 16.0145 14.9002 15.9433 14.7583 15.8014L0.213329 1.25628C-0.0711098 0.971969 -0.0711098 0.512285 0.213329 0.227978C0.497635 -0.0564615 0.957186 -0.0564615 1.24162 0.227978L15.7868 14.773C16.0711 15.0575 16.0711 15.517 15.7868 15.8014C15.6449 15.9433 15.4587 16.0145 15.2725 16.0145Z" fill="#0D51FF"/>
</g>
<defs>
<clipPath id="deleteLinkSvgIcon">
<rect width="16" height="16" fill="white"/>
</clipPath>
</defs>
</svg>
