<svg
    width="24"
    height="24"
    viewBox="0 0 24 24"
    fill="none"
    xmlns="http://www.w3.org/2000/svg"
  >
    <path
      d="M12 20.0001C7.58808 20.0001 4 16.663 4 12.5619C4 9.69503 5.72255 7.13182 8.49702 5.87144C8.84426 5.7147 9.25957 5.85511 9.42298 6.18816C9.58638 6.52122 9.44 6.91958 9.09277 7.07631C6.80851 8.11465 5.39234 10.2142 5.39234 12.5619C5.39234 15.9284 8.35745 18.6679 12 18.6679C15.6426 18.6679 18.6077 15.9284 18.6077 12.5619C18.6077 10.1979 17.1098 8.02649 14.7881 7.02733C14.4374 6.87713 14.2809 6.48203 14.4374 6.14572C14.594 5.8094 15.006 5.65919 15.3566 5.81266C18.1787 7.02406 20 9.67544 20 12.5619C20 16.663 16.4119 20.0001 12 20.0001Z"
      fill="white"
    />
    <path
      d="M12.0001 13.0414C11.6155 13.0414 11.3057 12.7443 11.3057 12.3753V4.66611C11.3057 4.29714 11.6189 4 12.0001 4C12.3848 4 12.6946 4.29714 12.6946 4.66611V12.3753C12.6946 12.7443 12.3848 13.0414 12.0001 13.0414Z"
      fill="white"
    />
  </svg>