<svg width="28" height="28" viewBox="0 0 28 28" fill="none" xmlns="http://www.w3.org/2000/svg">
    <g filter="url(#eyeIconDefs)">
        <path fill-rule="evenodd" clip-rule="evenodd" d="M14 22C19.5228 22 24 17.5228 24 12C24 6.47715 19.5228 2 14 2C8.47715 2 4 6.47715 4 12C4 17.5228 8.47715 22 14 22Z" fill="white"/>
    </g>
    <path d="M7.81712 11.737C7.7234 11.9077 7.72812 12.1175 7.82943 12.2837C8.41468 13.2435 9.00856 14.0484 9.82721 14.8249C11.0665 16.0004 12.4576 16.6872 14 16.6872C14.3947 16.6872 14.7828 16.6412 15.1635 16.5518C15.4439 16.4859 15.6192 16.199 15.5551 15.911C15.491 15.623 15.2117 15.4428 14.9313 15.5087C14.6259 15.5804 14.3157 15.6172 14 15.6172C12.7521 15.6172 11.5964 15.0467 10.5339 14.0388C9.87371 13.4126 9.36785 12.7549 8.88101 11.9872C9.01576 11.7585 9.1598 11.534 9.3125 11.316C9.39064 11.0442 9.35137 10.907 9.05208 10.6976C8.62131 10.6234 8.45255 10.6796 8.28404 10.958C8.11815 11.2118 7.96237 11.4723 7.81712 11.737Z" fill="#1C1C1C"/>
    <path d="M14.0043 14.083C12.8561 14.083 11.9167 13.1455 11.9167 11.9997C11.9167 11.4096 12.1658 10.8748 12.5643 10.4948L13.4367 11.1267C13.1506 11.313 12.9605 11.6352 12.9605 11.9997C12.9605 12.5726 13.4302 13.0413 14.0043 13.0413C14.4799 13.0413 14.8839 12.7197 15.0085 12.2837L15.8229 13.0413C15.4819 13.7318 14.8242 14.083 14.0043 14.083Z" fill="#1C1C1C"/>
    <path d="M19.9782 12.7832C20.0719 12.6124 20.0672 12.4027 19.9659 12.2365C19.3806 11.2766 18.7867 10.4718 17.9681 9.69528C16.7288 8.51973 15.3377 7.83301 13.7953 7.83301C13.4006 7.83301 13.0125 7.87898 12.6318 7.96839C12.3514 8.03425 12.176 8.32114 12.2402 8.60918C12.3043 8.89723 12.5836 9.07734 12.864 9.01149C13.1693 8.93977 13.4796 8.90302 13.7953 8.90302C15.0432 8.90302 16.1989 9.47352 17.2614 10.4814C17.9216 11.1076 18.4274 11.7653 18.9143 12.5329C18.7795 12.7617 18.6355 12.9862 18.4828 13.2042C18.4046 13.4759 18.4439 13.6132 18.7432 13.8226C19.174 13.8968 19.3427 13.8406 19.5112 13.5622C19.6771 13.3083 19.8329 13.0479 19.9782 12.7832Z" fill="#1C1C1C"/>
    <path d="M19.0143 16.0354C18.8236 16.283 18.4902 16.2891 18.1807 16.0507L8.89724 8.8991C8.58779 8.66071 8.50863 8.33675 8.69933 8.08919C8.89004 7.84163 9.22348 7.83551 9.53293 8.0739L18.8164 15.2255C19.1259 15.4639 19.2051 15.7879 19.0143 16.0354Z" fill="#1C1C1C"/>
    <defs>
        <filter id="eyeIconDefs" x="0" y="0" width="28" height="28" filterUnits="userSpaceOnUse" color-interpolation-filters="sRGB">
            <feFlood flood-opacity="0" result="BackgroundImageFix"/>
            <feColorMatrix in="SourceAlpha" type="matrix" values="0 0 0 0 0 0 0 0 0 0 0 0 0 0 0 0 0 0 127 0"/>
            <feOffset dy="2"/>
            <feGaussianBlur stdDeviation="2"/>
            <feColorMatrix type="matrix" values="0 0 0 0 0 0 0 0 0 0 0 0 0 0 0 0 0 0 0.0995138 0"/>
            <feBlend mode="normal" in2="BackgroundImageFix" result="effect1_dropShadow"/>
            <feBlend mode="normal" in="SourceGraphic" in2="effect1_dropShadow" result="shape"/>
        </filter>
    </defs>
</svg>
