<svg width="150" height="44" viewBox="0 0 187 56" fill="none" xmlns="http://www.w3.org/2000/svg">
  <path d="M147.088 24.4C147.085 24.4156 147.148 24.4 147.084 24.4V39.0833H152.184V24.4C152.059 24.4 152.184 24.4 152.169 24.4C151.223 24.4 150.55 24.4 149.584 24.4C148.657 24.4 147.957 24.4 147.088 24.4Z" fill="black"/>
  <path d="M152.368 19.7748C152.368 21.3073 151.13 22.5496 149.603 22.5496C148.076 22.5496 146.838 21.3073 146.838 19.7748C146.838 18.2423 148.076 17 149.603 17C151.13 17 152.368 18.2423 152.368 19.7748Z" fill="black"/>
  <path fill-rule="evenodd" clip-rule="evenodd" d="M161.15 34.6486C161.15 34.7208 161.209 34.7793 161.281 34.7793C162.339 34.7793 164.654 34.68 166.308 33.2894C167.499 32.2961 168.929 30.4089 168.929 27.9588C168.929 25.5753 167.499 24.0523 166.639 23.1914C164.986 21.5359 162.835 21.3042 161.281 21.3042C161.209 21.3042 161.15 21.3627 161.15 21.4349V34.6486ZM161.81 17C164.721 17 167.797 17.4304 170.509 20.0461C172.461 21.9333 173.684 24.5158 173.684 27.9588C173.684 31.4353 172.494 33.9516 170.675 35.7727C167.631 38.8515 163.828 39.0832 161.975 39.0832H156.056V17H161.81Z" fill="black"/>
  <path fill-rule="evenodd" clip-rule="evenodd" d="M161.353 0.0926259C157.209 -0.24271 153.041 0.335004 149.147 1.78457L148.609 1.98496L150.354 6.61192C150.851 7.92948 152.3 8.54566 153.599 8.19328C155.919 7.56428 158.337 7.33964 160.743 7.53437C163.786 7.78056 166.737 8.69103 169.384 10.2007C172.032 11.7103 174.311 13.7819 176.059 16.2674C177.349 18.1008 178.326 20.1261 178.957 22.2619C179.411 23.7964 180.917 24.9163 182.581 24.6325L187 23.8787L186.902 23.315C186.199 19.2432 184.598 15.376 182.217 11.9896C179.835 8.60316 176.729 5.78103 173.123 3.72456C169.516 1.66809 165.498 0.427962 161.353 0.0926259ZM144.533 9.4516L141.685 6.03097L141.243 6.39351C138.039 9.02671 135.46 12.3303 133.689 16.0684C131.918 19.8065 131 23.887 131 28.0184C131 32.1499 131.918 36.2304 133.689 39.9685C135.46 43.7066 138.039 47.0102 141.243 49.6434L141.685 50.0059L144.533 46.5853C145.614 45.2878 145.388 43.4223 144.273 42.2654C142.724 40.659 141.444 38.8102 140.486 36.7883C139.186 34.0448 138.513 31.0503 138.513 28.0184C138.513 24.9866 139.186 21.992 140.486 19.2486C141.444 17.2267 142.724 15.3779 144.273 13.7715C145.388 12.6146 145.614 10.7491 144.533 9.4516ZM182.581 31.3675C180.917 31.0837 179.411 32.2036 178.958 33.7381C178.326 35.8739 177.349 37.8992 176.059 39.7326C174.311 42.2181 172.032 44.2897 169.384 45.7993C166.737 47.309 163.786 48.2194 160.744 48.4656C158.496 48.6475 156.24 48.4636 154.062 47.9263C152.504 47.542 150.775 48.273 150.182 49.8457L148.609 54.015L149.147 54.2154C153.041 55.665 157.209 56.2427 161.353 55.9074C165.498 55.572 169.517 54.3319 173.123 52.2754C176.73 50.219 179.835 47.3968 182.217 44.0104C184.599 40.624 186.199 36.7568 186.903 32.685L187 32.1213L182.581 31.3675Z" fill="#0D51FF"/>
  <path fill-rule="evenodd" clip-rule="evenodd" d="M11.3036 27.0371H21.9325V27.2581C21.9325 29.8148 21.0009 33.6972 18.6245 36.1273C16.2486 38.5577 13.519 39 10.9821 39C8.41348 39 5.6518 38.5893 3.14703 36.0642C1.895 34.8016 0 32.2452 0 28.0472C0 24.607 1.28487 21.8606 3.08317 20.0617C5.71566 17.3788 8.95939 17 11.4959 17C13.2621 17 15.51 17.2841 17.5006 18.5782C18.946 19.5251 20.1984 21.0087 20.9687 22.3344L16.5058 24.7013C16.088 23.8807 15.4461 23.0288 14.6108 22.4287C13.6478 21.7347 12.556 21.4187 11.3357 21.4187C9.37685 21.4187 7.93179 22.0503 6.90383 23.1231C5.71566 24.3545 5.07378 26.1533 5.07378 28.1103C5.07378 30.5092 5.97329 32.0558 6.87171 32.9396C8.12447 34.2022 9.56953 34.581 11.2073 34.581C13.3263 34.581 14.4503 33.855 14.932 33.4447C15.0925 33.3184 16.0559 32.4977 16.4734 30.9511H11.3036V27.0371Z" fill="black"/>
  <path fill-rule="evenodd" clip-rule="evenodd" d="M31.1193 17V34.7124H38V39H26V17H31.1193Z" fill="black"/>
  <path fill-rule="evenodd" clip-rule="evenodd" d="M47.5559 23.3416C46.6246 24.2254 45.6613 25.7721 45.6613 28.1078C45.6613 30.0332 46.3032 31.5795 47.6201 32.8421C49.001 34.1363 50.5424 34.5782 52.2119 34.5782C54.3955 34.5782 55.9373 33.789 56.9645 32.7793C57.7994 31.9899 58.827 30.5067 58.827 28.0763C58.827 25.8983 57.9279 24.2885 56.9645 23.3416C55.9052 22.3315 54.2032 21.5424 52.2443 21.5424C50.3815 21.5424 48.712 22.2053 47.5559 23.3416ZM60.5611 20.1221C62.5842 22.0475 63.9004 24.8251 63.9004 28.0763C63.9004 30.8855 62.8732 33.7579 60.5611 35.967C58.5701 37.8609 55.8727 39.0603 52.2764 39.0603C48.2624 39.0603 45.5328 37.4821 43.9272 35.967C41.8724 34.0731 40.5875 31.2327 40.5875 28.1394C40.5875 25.1092 41.9683 22.0475 43.8951 20.1536C45.3405 18.7332 48.0051 17.0607 52.2764 17.0607C55.6158 17.0607 58.4096 18.0707 60.5611 20.1221Z" fill="black"/>
  <path fill-rule="evenodd" clip-rule="evenodd" d="M73.1006 35.0419H74.3422C75.651 35.0419 77.2278 35.0089 78.1677 34.1513C78.6375 33.7225 78.906 33.0958 78.906 32.3042C78.906 31.4137 78.5369 30.8199 78.2013 30.5231C77.2952 29.6985 75.5503 29.6985 74.51 29.6985H73.1006V35.0419ZM73.1006 25.9383H73.9396C74.6443 25.9383 75.8187 25.8397 76.5566 25.312C77.0268 24.9822 77.463 24.3225 77.463 23.3659C77.463 22.4094 76.9932 21.8157 76.5902 21.5188C75.8523 20.9581 74.8456 20.9581 73.906 20.9581H73.1006V25.9383ZM74.8456 17C76.0533 17 78.8053 17.0663 80.5503 18.6822C81.9928 20.0345 82.1606 21.8816 82.1606 22.8382C82.1606 23.6958 82.0264 24.6853 81.4224 25.6415C80.8519 26.5654 80.0805 27.0272 79.5436 27.2577C80.6174 27.4226 81.8254 27.9507 82.6304 28.742C83.3687 29.4676 84.0734 30.721 84.0734 32.6671C84.0734 34.877 83.2009 36.2623 82.3284 37.1199C80.4828 38.8681 77.7982 39 76.4228 39H68V17H74.8456Z" fill="black"/>
  <path fill-rule="evenodd" clip-rule="evenodd" d="M100.5 31.024L97.7342 23.5979L94.9346 31.024H100.5ZM101.917 34.9358H93.4172L91.6965 39.1133H86.3001L95.3731 17.0002H100.129L109 39.1133H103.604L101.917 34.9358Z" fill="black"/>
  <path fill-rule="evenodd" clip-rule="evenodd" d="M117.546 17V34.7124H125V39H112V17H117.546Z" fill="black"/>
</svg>
