<svg width="40" height="40" viewBox="0 0 40 40" fill="none" xmlns="http://www.w3.org/2000/svg">
<path d="M11.8484 17.4283C11.8465 17.4394 11.8915 17.4283 11.8455 17.4283V27.9163H15.4884V17.4283C15.3994 17.4283 15.4884 17.4283 15.478 17.4283C14.8019 17.4283 14.3214 17.4283 13.6313 17.4283C12.9693 17.4283 12.4694 17.4283 11.8484 17.4283Z" fill="black"/>
<path d="M15.6201 14.1246C15.6201 15.2192 14.7358 16.1066 13.645 16.1066C12.5542 16.1066 11.6699 15.2192 11.6699 14.1246C11.6699 13.03 12.5542 12.1426 13.645 12.1426C14.7358 12.1426 15.6201 13.03 15.6201 14.1246Z" fill="black"/>
<path fill-rule="evenodd" clip-rule="evenodd" d="M21.8932 24.7487C21.8932 24.8003 21.9349 24.8421 21.9863 24.8421C22.7424 24.8421 24.396 24.7711 25.5774 23.7779C26.4279 23.0684 27.4489 21.7204 27.4489 19.9703C27.4489 18.2678 26.4279 17.1799 25.8136 16.565C24.6325 15.3825 23.0965 15.217 21.9863 15.217C21.9349 15.217 21.8932 15.2588 21.8932 15.3104V24.7487ZM22.3643 12.1426C24.4432 12.1426 26.6406 12.45 28.578 14.3183C29.972 15.6664 30.846 17.511 30.846 19.9703C30.846 22.4535 29.9954 24.2509 28.6961 25.5516C26.5224 27.7508 23.8055 27.9163 22.4824 27.9163H18.2546V12.1426H22.3643Z" fill="black"/>
<path fill-rule="evenodd" clip-rule="evenodd" d="M21.6808 0.0661613C18.7205 -0.173364 15.7434 0.239289 12.9621 1.27469L12.5776 1.41783L13.8243 4.7228C14.1794 5.66391 15.2141 6.10404 16.1424 5.85234C17.7996 5.40305 19.5263 5.2426 21.2453 5.38169C23.4187 5.55754 25.5262 6.20787 27.4173 7.28619C29.3083 8.36451 30.9363 9.8442 32.1851 11.6195C33.1062 12.9291 33.8043 14.3758 34.2552 15.9014C34.5792 16.9974 35.6551 17.7973 36.8432 17.5947L39.9999 17.0562L39.9303 16.6536C39.4275 13.7451 38.2846 10.9828 36.5832 8.56398C34.8818 6.14511 32.6639 4.1293 30.0878 2.6604C27.5118 1.19149 24.6411 0.305687 21.6808 0.0661613ZM9.6666 6.75114L7.63186 4.30783L7.31675 4.56679C5.02804 6.44765 3.18548 8.80732 1.92066 11.4774C0.655845 14.1475 1.22089e-07 17.0621 0 20.0132C-1.46507e-07 22.9642 0.655845 25.8788 1.92066 28.5489C3.18548 31.219 5.02804 33.5787 7.31675 35.4595L7.63186 35.7185L9.6666 33.2752C10.4384 32.3484 10.2773 31.0159 9.48058 30.1896C8.37435 29.0421 7.45986 27.7216 6.77573 26.2773C5.84747 24.3177 5.36619 22.1788 5.36619 20.0132C5.36619 17.8475 5.84748 15.7086 6.77573 13.749C7.45986 12.3048 8.37435 10.9842 9.48058 9.83676C10.2773 9.0104 10.4384 7.67793 9.6666 6.75114ZM36.8433 22.4053C35.6552 22.2027 34.5793 23.0026 34.2554 24.0986C33.8044 25.6242 33.1063 27.0709 32.1852 28.3804C30.9364 30.1558 29.3084 31.6355 27.4174 32.7138C25.5263 33.7921 23.4188 34.4424 21.2454 34.6183C19.6402 34.7482 18.0283 34.6169 16.4726 34.2331C15.3598 33.9586 14.1249 34.4807 13.7011 35.604L12.5777 38.5821L12.9622 38.7253C15.7435 39.7607 18.7206 40.1733 21.6809 39.9338C24.6412 39.6943 27.5119 38.8085 30.0879 37.3396C32.664 35.8707 34.8819 33.8549 36.5833 31.436C38.2847 29.0171 39.4276 26.2549 39.9304 23.3464L40 22.9438L36.8433 22.4053Z" fill="#0D51FF"/>
</svg>
