<svg width="40" height="40" viewBox="0 0 40 40" fill="none" xmlns="http://www.w3.org/2000/svg">
<path d="M11.4275 17.4283C11.4256 17.4394 11.4704 17.4283 11.4246 17.4283V27.9163H15.048V17.4283C14.9595 17.4283 15.048 17.4283 15.0376 17.4283C14.3652 17.4283 13.8873 17.4283 13.2009 17.4283C12.5424 17.4283 12.0452 17.4283 11.4275 17.4283Z" fill="white"/>
<path d="M15.179 14.1246C15.179 15.2192 14.2995 16.1066 13.2145 16.1066C12.1295 16.1066 11.25 15.2192 11.25 14.1246C11.25 13.03 12.1295 12.1426 13.2145 12.1426C14.2995 12.1426 15.179 13.03 15.179 14.1246Z" fill="white"/>
<path fill-rule="evenodd" clip-rule="evenodd" d="M21.4185 24.7487C21.4185 24.8003 21.46 24.8421 21.5111 24.8421C22.2631 24.8421 23.9079 24.7711 25.0829 23.7779C25.929 23.0684 26.9445 21.7203 26.9445 19.9703C26.9445 18.2678 25.929 17.1799 25.3179 16.565C24.1432 15.3825 22.6154 15.217 21.5111 15.217C21.46 15.217 21.4185 15.2588 21.4185 15.3104V24.7487ZM21.8871 12.1426C23.9549 12.1426 26.1404 12.45 28.0675 14.3183C29.454 15.6664 30.3233 17.511 30.3233 19.9703C30.3233 22.4535 29.4773 24.2509 28.185 25.5516C26.0229 27.7508 23.3206 27.9163 22.0046 27.9163H17.7994V12.1426H21.8871Z" fill="white"/>
<path d="M7.53682 35.1446C5.30663 33.302 3.51125 30.9903 2.27886 28.3747C1.04647 25.759 0.407469 22.9039 0.407469 20.0132C0.407469 17.1224 1.04648 14.2673 2.27886 11.6516C3.51125 9.03597 5.30663 6.72431 7.53682 4.88166L9.30123 7.01177C9.91835 7.75679 9.80543 8.85584 9.13593 9.55401C8.00514 10.7332 7.07031 12.0904 6.37095 13.5748C5.42201 15.5888 4.92997 17.7873 4.92997 20.0132C4.92997 22.239 5.42201 24.4375 6.37095 26.4515C7.07031 27.9359 8.00514 29.2931 9.13593 30.4723C9.80542 31.1705 9.91835 32.2695 9.30123 33.0145L7.53682 35.1446Z" fill="white"/>
<path d="M13.0352 1.65704C15.7456 0.642613 18.6468 0.238308 21.5317 0.472985C24.4165 0.707663 27.214 1.57554 29.7242 3.01465C32.2345 4.45376 34.3957 6.42861 36.0535 8.79822C37.7114 11.1678 38.825 13.8738 39.3148 16.7228L36.5771 17.1924C35.6271 17.3553 34.7349 16.7122 34.4626 15.7861C34.0016 14.218 33.288 12.7312 32.3464 11.3853C31.0698 9.5607 29.4057 8.04006 27.4728 6.93194C25.5399 5.82383 23.3859 5.15557 21.1645 4.97486C19.4076 4.83194 17.6427 4.99681 15.949 5.45849C15.2055 5.66114 14.4028 5.30166 14.1317 4.5792L13.0352 1.65704Z" fill="white"/>
<path d="M13.0353 38.3429C15.7457 39.3574 18.6469 39.7617 21.5318 39.527C24.4166 39.2923 27.2141 38.4244 29.7243 36.9853C32.2346 35.5462 34.3958 33.5714 36.0536 31.2018C37.7115 28.8321 38.8251 26.1262 39.3149 23.2771L36.5772 22.8076C35.6272 22.6447 34.735 23.2878 34.4627 24.2139C34.0017 25.7819 33.2881 27.2688 32.3465 28.6147C31.0699 30.4393 29.4058 31.9599 27.4729 33.068C25.54 34.1762 23.386 34.8444 21.1646 35.0251C19.524 35.1586 17.8765 35.0236 16.2864 34.6293C15.3516 34.3974 14.348 34.8445 14.0092 35.7476L13.0353 38.3429Z" fill="white"/>
<path fill-rule="evenodd" clip-rule="evenodd" d="M13.5618 1.9003L14.5131 4.43559C14.7022 4.93941 15.2785 5.21825 15.842 5.06465C17.5812 4.59058 19.3934 4.42128 21.1975 4.56804C23.4784 4.75359 25.6903 5.43978 27.6752 6.57769C29.6601 7.71561 31.369 9.27719 32.68 11.151C33.6471 12.5333 34.38 14.0603 34.8535 15.6708C35.0758 16.4269 35.7901 16.9132 36.5083 16.79L38.8397 16.3902C38.3274 13.7481 37.2651 11.2411 35.7198 9.03247C34.0965 6.71211 31.9801 4.77821 29.5218 3.3689C27.0635 1.95958 24.324 1.10964 21.4987 0.879809C18.8092 0.661025 16.1052 1.00932 13.5618 1.9003ZM12.8926 1.27469C15.659 0.239289 18.6202 -0.173364 21.5646 0.0661613C24.5091 0.305687 27.3644 1.19149 29.9266 2.6604C32.4889 4.1293 34.6949 6.14511 36.3872 8.56398C38.0795 10.9828 39.2163 13.7451 39.7164 16.6536L39.7856 17.0562L36.6458 17.5947C35.4641 17.7973 34.394 16.9974 34.0717 15.9014C33.6232 14.3758 32.9289 12.9291 32.0127 11.6195C30.7706 9.8442 29.1513 8.36451 27.2704 7.28619C25.3895 6.20787 23.2933 5.55754 21.1315 5.38169C19.4217 5.2426 17.7043 5.40305 16.056 5.85234C15.1326 6.10404 14.1034 5.66391 13.7503 4.7228L12.5102 1.41783L12.8926 1.27469ZM7.59097 4.30783L9.61481 6.75114C10.3825 7.67793 10.2222 9.0104 9.42979 9.83676C8.32948 10.9842 7.4199 12.3048 6.73944 13.749C5.81615 15.7086 5.33744 17.8475 5.33744 20.0132C5.33744 22.1788 5.81615 24.3177 6.73944 26.2773C7.4199 27.7216 8.32948 29.0421 9.42979 30.1895C10.2222 31.0159 10.3825 32.3484 9.61481 33.2752L7.59097 35.7185L7.27755 35.4595C5.00111 33.5787 3.16841 31.219 1.91037 28.5489C0.652331 25.8788 -1.45722e-07 22.9642 0 20.0132C1.21435e-07 17.0621 0.652332 14.1475 1.91037 11.4774C3.16841 8.80732 5.00111 6.44765 7.27755 4.56679L7.59097 4.30783ZM7.48541 5.4588C5.4451 7.21837 3.79633 9.38722 2.64735 11.8258C1.44062 14.387 0.814938 17.1827 0.814938 20.0132C0.814938 22.8437 1.44062 25.6393 2.64735 28.2005C3.79632 30.6391 5.4451 32.8079 7.48541 34.5675L8.98765 32.7539C9.45421 32.1907 9.38863 31.325 8.84207 30.7551C7.6808 29.5441 6.72073 28.1502 6.00246 26.6258C5.02786 24.5573 4.5225 22.2993 4.5225 20.0132C4.5225 17.727 5.02786 15.4691 6.00246 13.4006C6.72073 11.8761 7.6808 10.4822 8.84207 9.27126C9.38863 8.70129 9.45421 7.83566 8.98765 7.2724L7.48541 5.4588ZM34.0718 24.0986C34.3941 23.0026 35.4642 22.2026 36.6459 22.4053L39.7857 22.9438L39.7165 23.3464C39.2164 26.2549 38.0796 29.0171 36.3873 31.436C34.695 33.8549 32.489 35.8707 29.9267 37.3396C27.3645 38.8085 24.5092 39.6943 21.5647 39.9338C18.6203 40.1733 15.6591 39.7607 12.8927 38.7253L12.5103 38.5821L13.6277 35.604C14.0492 34.4807 15.2775 33.9586 16.3844 34.2331C17.9318 34.6169 19.535 34.7482 21.1316 34.6183C23.2934 34.4424 25.3896 33.7921 27.2705 32.7138C29.1514 31.6355 30.7707 30.1558 32.0128 28.3804C32.929 27.0709 33.6233 25.6242 34.0718 24.0986ZM36.5084 23.2099C35.7902 23.0868 35.0759 23.5731 34.8536 24.3292C34.3801 25.9397 33.6472 27.4667 32.6801 28.8489C31.3691 30.7228 29.6602 32.2844 27.6753 33.4223C25.6904 34.5602 23.4785 35.2464 21.1976 35.4319C19.5129 35.569 17.8213 35.4304 16.1885 35.0255C15.4256 34.8363 14.6468 35.2084 14.3906 35.8912L13.5619 38.0997C16.1053 38.9907 18.8093 39.339 21.4988 39.1202C24.3241 38.8903 27.0636 38.0404 29.5219 36.6311C31.9802 35.2218 34.0966 33.2879 35.7199 30.9675C37.2652 28.7589 38.3275 26.2519 38.8398 23.6098L36.5084 23.2099Z" fill="white"/>
</svg>
