<svg width="134" height="40" viewBox="0 0 134 40" fill="none" xmlns="http://www.w3.org/2000/svg">
<path d="M105.355 17.4283C105.353 17.4394 105.398 17.4283 105.352 17.4283V27.9161H108.976V17.4283C108.887 17.4283 108.976 17.4283 108.965 17.4283C108.293 17.4283 107.815 17.4283 107.129 17.4283C106.47 17.4283 105.973 17.4283 105.355 17.4283Z" fill="white"/>
<path d="M109.107 14.1246C109.107 15.2192 108.227 16.1065 107.142 16.1065C106.057 16.1065 105.178 15.2192 105.178 14.1246C105.178 13.0299 106.057 12.1426 107.142 12.1426C108.227 12.1426 109.107 13.0299 109.107 14.1246Z" fill="white"/>
<path fill-rule="evenodd" clip-rule="evenodd" d="M115.346 24.7486C115.346 24.8001 115.388 24.842 115.439 24.842C116.191 24.842 117.835 24.771 119.011 23.7777C119.857 23.0683 120.872 21.7202 120.872 19.9702C120.872 18.2677 119.857 17.1798 119.246 16.565C118.071 15.3825 116.543 15.217 115.439 15.217C115.388 15.217 115.346 15.2588 115.346 15.3103V24.7486ZM115.815 12.1426C117.882 12.1426 120.068 12.45 121.995 14.3183C123.382 15.6663 124.251 17.511 124.251 19.9702C124.251 22.4534 123.405 24.2508 122.113 25.5515C119.951 27.7506 117.248 27.9161 115.932 27.9161H111.727V12.1426H115.815Z" fill="white"/>
<path d="M101.107 35.1443C98.8769 33.3016 97.0815 30.99 95.8492 28.3744C94.6168 25.7588 93.9778 22.9037 93.9778 20.0129C93.9778 17.1222 94.6168 14.2671 95.8492 11.6515C97.0815 9.03587 98.8769 6.72424 101.107 4.88161L102.871 7.01169C103.489 7.75671 103.376 8.85575 102.706 9.55391C101.575 10.7331 100.641 12.0903 99.9412 13.5746C98.9923 15.5887 98.5002 17.7871 98.5002 20.0129C98.5002 22.2388 98.9923 24.4372 99.9412 26.4513C100.641 27.9356 101.575 29.2928 102.706 30.472C103.376 31.1701 103.489 32.2692 102.871 33.0142L101.107 35.1443Z" fill="white"/>
<path d="M106.605 1.65702C109.316 0.642606 112.217 0.238305 115.102 0.47298C117.987 0.707655 120.784 1.57552 123.294 3.01461C125.804 4.45371 127.966 6.42854 129.623 8.79813C131.281 11.1677 132.395 13.8736 132.885 16.7227L130.147 17.1922C129.197 17.3551 128.305 16.712 128.033 15.7859C127.572 14.2179 126.858 12.7311 125.916 11.3852C124.64 9.56059 122.976 8.03997 121.043 6.93187C119.11 5.82377 116.956 5.15551 114.735 4.97481C112.978 4.83189 111.213 4.99676 109.519 5.45844C108.776 5.66108 107.973 5.3016 107.702 4.57915L106.605 1.65702Z" fill="white"/>
<path d="M106.606 38.3425C109.316 39.3569 112.217 39.7612 115.102 39.5266C117.987 39.2919 120.784 38.424 123.294 36.9849C125.805 35.5458 127.966 33.571 129.624 31.2014C131.281 28.8318 132.395 26.1259 132.885 23.2769L130.147 22.8074C129.197 22.6445 128.305 23.2876 128.033 24.2137C127.572 25.7817 126.858 27.2685 125.916 28.6144C124.64 30.439 122.976 31.9596 121.043 33.0677C119.11 34.1758 116.956 34.844 114.735 35.0247C113.094 35.1582 111.447 35.0233 109.857 34.6289C108.922 34.397 107.918 34.8442 107.579 35.7472L106.606 38.3425Z" fill="white"/>
<path fill-rule="evenodd" clip-rule="evenodd" d="M107.132 1.90027L108.083 4.43554C108.272 4.93935 108.849 5.2182 109.412 5.0646C111.151 4.59053 112.963 4.42123 114.768 4.56799C117.049 4.75354 119.26 5.43972 121.245 6.57762C123.23 7.71552 124.939 9.27709 126.25 11.1509C127.217 12.5332 127.95 14.0602 128.423 15.6706C128.646 16.4267 129.36 16.913 130.078 16.7899L132.41 16.39C131.897 13.7479 130.835 11.241 129.29 9.03238C127.666 6.71204 125.55 4.77816 123.092 3.36886C120.634 1.95956 117.894 1.10963 115.069 0.8798C112.379 0.661018 109.675 1.00931 107.132 1.90027ZM106.463 1.27468C109.229 0.239286 112.19 -0.173363 115.135 0.0661606C118.079 0.305684 120.934 1.19148 123.497 2.66037C126.059 4.12926 128.265 6.14504 129.957 8.56388C131.649 10.9827 132.786 13.745 133.286 16.6534L133.355 17.056L130.216 17.5945C129.034 17.7971 127.964 16.9972 127.642 15.9012C127.193 14.3756 126.499 12.929 125.583 11.6194C124.341 9.84409 122.721 8.36442 120.84 7.28611C118.96 6.20781 116.863 5.55748 114.702 5.38163C112.992 5.24254 111.274 5.40299 109.626 5.85227C108.703 6.10397 107.674 5.66385 107.32 4.72275L106.08 1.41781L106.463 1.27468ZM101.161 4.30779L103.185 6.75106C103.953 7.67784 103.792 9.0103 103 9.83666C101.9 10.9841 100.99 12.3046 100.31 13.7488C99.3864 15.7084 98.9077 17.8473 98.9077 20.0129C98.9077 22.1785 99.3864 24.3175 100.31 26.2771C100.99 27.7213 101.9 29.0418 103 30.1892C103.792 31.0156 103.953 32.348 103.185 33.2748L101.161 35.7181L100.848 35.4591C98.5714 33.5783 96.7387 31.2187 95.4807 28.5486C94.2226 25.8785 93.5703 22.964 93.5703 20.0129C93.5703 17.0619 94.2226 14.1473 95.4807 11.4773C96.7387 8.80722 98.5714 6.44758 100.848 4.56674L101.161 4.30779ZM101.056 5.45875C99.0154 7.21829 97.3666 9.38712 96.2176 11.8257C95.0109 14.3869 94.3852 17.1825 94.3852 20.0129C94.3852 22.8434 95.0109 25.639 96.2176 28.2002C97.3666 30.6388 99.0154 32.8076 101.056 34.5671L102.558 32.7536C103.024 32.1903 102.959 31.3247 102.412 30.7547C101.251 29.5437 100.291 28.1499 99.5727 26.6255C98.5981 24.557 98.0928 22.2991 98.0928 20.0129C98.0928 17.7268 98.5981 15.4689 99.5727 13.4004C100.291 11.876 101.251 10.4821 102.412 9.27116C102.959 8.7012 103.024 7.83557 102.558 7.27232L101.056 5.45875ZM127.642 24.0983C127.964 23.0023 129.034 22.2024 130.216 22.4051L133.356 22.9435L133.286 23.3462C132.786 26.2546 131.65 29.0168 129.957 31.4357C128.265 33.8545 126.059 35.8703 123.497 37.3392C120.935 38.8081 118.079 39.6939 115.135 39.9334C112.19 40.1729 109.229 39.7603 106.463 38.7249L106.08 38.5817L107.198 35.6036C107.619 34.4803 108.848 33.9582 109.955 34.2327C111.502 34.6165 113.105 34.7478 114.702 34.6179C116.863 34.4421 118.96 33.7917 120.841 32.7134C122.721 31.6351 124.341 30.1555 125.583 28.3801C126.499 27.0706 127.193 25.6239 127.642 24.0983ZM130.078 23.2097C129.36 23.0865 128.646 23.5728 128.424 24.329C127.95 25.9394 127.217 27.4664 126.25 28.8486C124.939 30.7225 123.23 32.284 121.245 33.4219C119.26 34.5598 117.049 35.246 114.768 35.4316C113.083 35.5686 111.391 35.43 109.759 35.0251C108.996 34.8359 108.217 35.208 107.961 35.8908L107.132 38.0993C109.675 38.9902 112.379 39.3385 115.069 39.1197C117.894 38.8899 120.634 38.04 123.092 36.6307C125.55 35.2214 127.667 33.2875 129.29 30.9672C130.835 28.7585 131.897 26.2516 132.41 23.6095L130.078 23.2097Z" fill="white"/>
<path fill-rule="evenodd" clip-rule="evenodd" d="M8.07392 19.3119H15.6659V19.4697C15.6659 21.2959 15.0005 24.069 13.3031 25.8048C11.606 27.5408 9.65633 27.8567 7.84429 27.8567C6.00956 27.8567 4.03696 27.5633 2.24785 25.7597C1.35356 24.8579 0 23.0319 0 20.0333C0 17.5761 0.917751 15.6144 2.20224 14.3295C4.08257 12.4131 6.3995 12.1426 8.21128 12.1426C9.47283 12.1426 11.0784 12.3455 12.5003 13.2699C13.5327 13.9462 14.4273 15.0059 14.9775 15.9528L11.7898 17.6435C11.4913 17.0573 11.0328 16.4488 10.4362 16.0202C9.74834 15.5244 8.96847 15.2987 8.09686 15.2987C6.69768 15.2987 5.6655 15.7499 4.93125 16.5162C4.08257 17.3957 3.62409 18.6806 3.62409 20.0784C3.62409 21.7919 4.26659 22.8966 4.90831 23.5279C5.80313 24.4297 6.83531 24.7003 8.00511 24.7003C9.51871 24.7003 10.3215 24.1817 10.6656 23.8886C10.7803 23.7985 11.4684 23.2123 11.7666 22.1075H8.07392V19.3119Z" fill="white"/>
<path fill-rule="evenodd" clip-rule="evenodd" d="M22.2278 12.1426V24.7941H27.1426V27.8567H18.5712V12.1426H22.2278Z" fill="white"/>
<path fill-rule="evenodd" clip-rule="evenodd" d="M33.9682 16.6722C33.303 17.3035 32.6148 18.4083 32.6148 20.0767C32.6148 21.4519 33.0733 22.5564 34.014 23.4583C35.0003 24.3826 36.1013 24.6983 37.2938 24.6983C38.8535 24.6983 39.9548 24.1346 40.6885 23.4134C41.2849 22.8495 42.0189 21.7901 42.0189 20.0541C42.0189 18.4985 41.3766 17.3486 40.6885 16.6722C39.9318 15.9508 38.7162 15.3871 37.317 15.3871C35.9864 15.3871 34.7939 15.8606 33.9682 16.6722ZM43.2575 14.3726C44.7025 15.7479 45.6427 17.7319 45.6427 20.0541C45.6427 22.0607 44.909 24.1123 43.2575 25.6903C41.8354 27.043 39.9086 27.8998 37.3399 27.8998C34.4728 27.8998 32.5231 26.7725 31.3762 25.6903C29.9085 24.3375 28.9908 22.3087 28.9908 20.0992C28.9908 17.9348 29.9771 15.7479 31.3533 14.3951C32.3857 13.3806 34.289 12.1859 37.3399 12.1859C39.7251 12.1859 41.7207 12.9074 43.2575 14.3726Z" fill="white"/>
<path fill-rule="evenodd" clip-rule="evenodd" d="M52.2142 25.0295H53.101C54.0358 25.0295 55.1621 25.006 55.8335 24.3934C56.1691 24.0871 56.3608 23.6395 56.3608 23.074C56.3608 22.4379 56.0972 22.0139 55.8575 21.8018C55.2103 21.2128 53.9639 21.2128 53.2209 21.2128H52.2142V25.0295ZM52.2142 18.527H52.8134C53.3168 18.527 54.1557 18.4566 54.6827 18.0797C55.0186 17.8441 55.3302 17.3729 55.3302 16.6896C55.3302 16.0064 54.9946 15.5823 54.7067 15.3703C54.1796 14.9698 53.4606 14.9698 52.7894 14.9698H52.2142V18.527ZM53.4606 12.1426C54.3232 12.1426 56.2889 12.19 57.5353 13.3441C58.5657 14.3101 58.6855 15.6294 58.6855 16.3127C58.6855 16.9252 58.5897 17.632 58.1582 18.315C57.7507 18.9749 57.1997 19.3048 56.8162 19.4694C57.5832 19.5872 58.4461 19.9644 59.0211 20.5296C59.5484 21.0479 60.0518 21.9432 60.0518 23.3332C60.0518 24.9117 59.4286 25.9012 58.8054 26.5138C57.4871 27.7625 55.5696 27.8567 54.5871 27.8567H48.5709V12.1426H53.4606Z" fill="white"/>
<path fill-rule="evenodd" clip-rule="evenodd" d="M71.7853 22.1596L69.8094 16.8553L67.8097 22.1596H71.7853ZM72.7969 24.9538H66.7258L65.4968 27.9376H61.6423L68.1229 12.1427H71.52L77.8563 27.9376H74.0018L72.7969 24.9538Z" fill="white"/>
<path fill-rule="evenodd" clip-rule="evenodd" d="M83.9603 12.1426V24.7941H89.2848V27.8567H79.9991V12.1426H83.9603Z" fill="white"/>
</svg>
