<svg width="136" height="27" viewBox="0 0 136 27" fill="none" xmlns="http://www.w3.org/2000/svg">
<path fill-rule="evenodd" clip-rule="evenodd" d="M105.754 6.33074C107.716 8.21065 108.697 10.6799 108.697 13.1493H112.361C112.361 9.78419 111.021 6.41906 108.342 3.85143L108.341 3.85121C105.662 1.28359 102.15 0 98.6387 0V3.51087C101.215 3.51087 103.792 4.45082 105.754 6.33074Z" fill="#0D51FF"/>
<path fill-rule="evenodd" clip-rule="evenodd" d="M86.7645 19.7372L89.935 17.978C88.6421 15.8378 88.2003 13.2252 88.9196 10.6532C89.6365 8.08931 91.3735 6.04328 93.6002 4.8079L91.7644 1.76953C88.73 3.45308 86.3643 6.2438 85.385 9.74569C84.4027 13.2585 85.0021 16.8202 86.7645 19.7372Z" fill="#0D51FF"/>
<path fill-rule="evenodd" clip-rule="evenodd" d="M91.9512 24.6272C94.96 26.2378 98.5996 26.7732 102.192 25.8508C105.846 24.9124 108.758 22.6454 110.515 19.7377L107.344 17.9785C106.055 20.1122 103.92 21.7767 101.245 22.4637C98.6147 23.139 95.945 22.7445 93.7373 21.5626L91.9512 24.6272Z" fill="#0D51FF"/>
<path fill-rule="evenodd" clip-rule="evenodd" d="M7.08429 12.7342H13.7457V12.8692C13.7457 14.4313 13.1618 16.8035 11.6725 18.2882C10.1834 19.7732 8.47275 20.0434 6.88281 20.0434C5.27297 20.0434 3.54215 19.7925 1.97233 18.2497C1.18765 17.4782 0 15.9163 0 13.3513C0 11.2494 0.805262 9.57133 1.93231 8.47227C3.58217 6.83299 5.61511 6.60156 7.20482 6.60156C8.31174 6.60156 9.72055 6.77513 10.9681 7.56585C11.874 8.14442 12.6589 9.05084 13.1417 9.86084L10.3447 11.307C10.0828 10.8056 9.68053 10.2851 9.15703 9.91848C8.55348 9.49441 7.8692 9.30134 7.10442 9.30134C5.87674 9.30134 4.97108 9.68727 4.32683 10.3428C3.58217 11.0951 3.17988 12.1942 3.17988 13.3899C3.17988 14.8556 3.74363 15.8006 4.3067 16.3406C5.09184 17.112 5.9975 17.3435 7.02392 17.3435C8.35199 17.3435 9.0564 16.8999 9.35828 16.6492C9.45891 16.572 10.0627 16.0706 10.3243 15.1256H7.08429V12.7342Z" fill="#1C1C1C"/>
<path fill-rule="evenodd" clip-rule="evenodd" d="M20.4119 6.89062V17.2468H24.5777V19.7537H17.3125V6.89062H20.4119Z" fill="#1C1C1C"/>
<path fill-rule="evenodd" clip-rule="evenodd" d="M31.0584 10.4388C30.4748 10.9788 29.871 11.9238 29.871 13.3509C29.871 14.5273 30.2733 15.4721 31.0987 16.2435C31.9641 17.0342 32.9301 17.3042 33.9764 17.3042C35.345 17.3042 36.3113 16.8221 36.9551 16.2052C37.4783 15.7228 38.1224 14.8166 38.1224 13.3316C38.1224 12.0009 37.5588 11.0173 36.9551 10.4388C36.2911 9.82163 35.2245 9.33949 33.9968 9.33949C32.8293 9.33949 31.783 9.74449 31.0584 10.4388ZM39.2094 8.47205C40.4774 9.64848 41.3023 11.3456 41.3023 13.332C41.3023 15.0485 40.6585 16.8035 39.2094 18.1532C37.9616 19.3104 36.2711 20.0432 34.0172 20.0432C31.5015 20.0432 29.7908 19.0789 28.7845 18.1532C27.4967 16.9961 26.6914 15.2606 26.6914 13.3706C26.6914 11.5192 27.5568 9.64848 28.7644 8.49134C29.6703 7.62348 31.3402 6.60156 34.0172 6.60156C36.1101 6.60156 37.861 7.2187 39.2094 8.47205Z" fill="#1C1C1C"/>
<path fill-rule="evenodd" clip-rule="evenodd" d="M48.0196 17.4394H48.7643C49.5492 17.4394 50.4948 17.4201 51.0586 16.9187C51.3404 16.668 51.5014 16.3015 51.5014 15.8387C51.5014 15.318 51.28 14.9708 51.0787 14.7972C50.5353 14.3151 49.4888 14.3151 48.8649 14.3151H48.0196V17.4394ZM48.0196 12.1166H48.5227C48.9454 12.1166 49.6498 12.059 50.0923 11.7504C50.3743 11.5576 50.636 11.1719 50.636 10.6126C50.636 10.0533 50.3542 9.70615 50.1125 9.53258C49.6699 9.20473 49.0661 9.20473 48.5026 9.20473H48.0196V12.1166ZM49.0666 6.89062C49.7909 6.89062 51.4415 6.92942 52.488 7.87419C53.3532 8.66491 53.4538 9.7449 53.4538 10.3042C53.4538 10.8056 53.3733 11.3842 53.011 11.9432C52.6689 12.4835 52.2062 12.7535 51.8842 12.8882C52.5283 12.9847 53.2528 13.2935 53.7356 13.7561C54.1783 14.1804 54.601 14.9132 54.601 16.0511C54.601 17.3432 54.0777 18.1532 53.5544 18.6547C52.4475 19.6768 50.8375 19.7539 50.0125 19.7539H44.9609V6.89062H49.0666Z" fill="#1C1C1C"/>
<path fill-rule="evenodd" clip-rule="evenodd" d="M65.0661 15.0478L63.4155 10.728L61.7451 15.0478H65.0661ZM65.9118 17.3237H60.8403L59.8137 19.7537H56.5938L62.0074 6.89062H64.8451L70.1382 19.7537H66.9183L65.9118 17.3237Z" fill="#1C1C1C"/>
<path fill-rule="evenodd" clip-rule="evenodd" d="M76.0974 6.89062V17.2468H80.2635V19.7537H72.998V6.89062H76.0974Z" fill="#1C1C1C"/>
<path fill-rule="evenodd" clip-rule="evenodd" d="M117.066 19.7537H120.166V6.89062H117.066V19.7537Z" fill="#1C1C1C"/>
<path fill-rule="evenodd" clip-rule="evenodd" d="M127.628 17.2468H128.454C129.098 17.2468 130.506 17.1889 131.512 16.3789C132.237 15.8003 132.821 14.7011 132.821 13.2739C132.821 11.8856 132.237 10.9984 131.714 10.497C130.708 9.53273 129.399 9.39773 128.454 9.39773H127.628V17.2468ZM128.776 6.89062C130.547 6.89062 132.418 7.14134 134.069 8.66491C135.256 9.76419 136.001 11.2685 136.001 13.274C136.001 15.299 135.276 16.7647 134.169 17.8254C132.318 19.6187 130.004 19.7537 128.876 19.7537H124.529V6.89062H128.776Z" fill="#1C1C1C"/>
</svg>
