<svg width="107" height="32" viewBox="0 0 107 32" fill="none" xmlns="http://www.w3.org/2000/svg">
<path d="M84.2846 13.9428C84.2831 13.9516 84.3189 13.9428 84.2823 13.9428V22.3332H87.181V13.9428C87.1102 13.9428 87.181 13.9428 87.1727 13.9428C86.6348 13.9428 86.2524 13.9428 85.7033 13.9428C85.1765 13.9428 84.7787 13.9428 84.2846 13.9428Z" fill="black"/>
<path d="M87.2858 11.2998C87.2858 12.1755 86.5822 12.8854 85.7142 12.8854C84.8462 12.8854 84.1426 12.1755 84.1426 11.2998C84.1426 10.4241 84.8462 9.71417 85.7142 9.71417C86.5822 9.71417 87.2858 10.4241 87.2858 11.2998Z" fill="black"/>
<path fill-rule="evenodd" clip-rule="evenodd" d="M92.2774 19.7991C92.2774 19.8403 92.3105 19.8738 92.3514 19.8738C92.9531 19.8738 94.2689 19.817 95.2089 19.0224C95.8857 18.4548 96.6982 17.3764 96.6982 15.9763C96.6982 14.6143 95.8857 13.744 95.3969 13.2521C94.4571 12.3061 93.2349 12.1737 92.3514 12.1737C92.3105 12.1737 92.2774 12.2072 92.2774 12.2484V19.7991ZM92.6522 9.71417C94.3065 9.71417 96.0549 9.96013 97.5966 11.4548C98.7058 12.5332 99.4012 14.0089 99.4012 15.9764C99.4012 17.9629 98.7244 19.4008 97.6906 20.4414C95.9609 22.2007 93.7991 22.3331 92.7462 22.3331H89.3821V9.71417H92.6522Z" fill="black"/>
<path d="M80.8864 28.1157C79.1022 26.6416 77.6659 24.7923 76.68 22.6998C75.6941 20.6072 75.1829 18.3231 75.1829 16.0105C75.1829 13.6979 75.6941 11.4138 76.68 9.32129C77.6659 7.22878 79.1022 5.37945 80.8864 3.90533L82.2979 5.60941C82.7916 6.20543 82.7013 7.08467 82.1657 7.64321C81.261 8.58657 80.5132 9.67234 79.9537 10.8598C79.1945 12.4711 78.8009 14.2298 78.8009 16.0105C78.8009 17.7912 79.1945 19.55 79.9537 21.1612C80.5132 22.3487 81.261 23.4345 82.1657 24.3778C82.7013 24.9364 82.7916 25.8156 82.2979 26.4116L80.8864 28.1157Z" fill="#0D51FF"/>
<path d="M85.2851 1.32563C87.4534 0.51409 89.7744 0.190646 92.0823 0.378388C94.3902 0.56613 96.6281 1.26043 98.6363 2.41172C100.645 3.563 102.373 5.14289 103.7 7.03858C105.026 8.93427 105.917 11.099 106.309 13.3783L104.119 13.7539C103.359 13.8842 102.645 13.3697 102.427 12.6288C102.058 11.3744 101.487 10.185 100.734 9.10824C99.7128 7.64856 98.3815 6.43205 96.8352 5.54555C95.2888 4.65906 93.5656 4.12445 91.7885 3.97989C90.383 3.86555 88.9711 3.99745 87.6161 4.36679C87.0213 4.52892 86.3792 4.24133 86.1623 3.66336L85.2851 1.32563Z" fill="#0D51FF"/>
<path d="M85.2852 30.6744C87.4535 31.4859 89.7744 31.8093 92.0823 31.6216C94.3902 31.4339 96.6282 30.7395 98.6364 29.5883C100.645 28.437 102.374 26.8571 103.7 24.9614C105.026 23.0657 105.917 20.901 106.309 18.6217L104.119 18.2461C103.359 18.1158 102.645 18.6303 102.427 19.3711C102.058 20.6256 101.487 21.815 100.734 22.8917C99.7129 24.3514 98.3816 25.5679 96.8352 26.4544C95.2889 27.3409 93.5657 27.8755 91.7886 28.0201C90.4761 28.1269 89.1581 28.0189 87.8861 27.7034C87.1382 27.5179 86.3353 27.8756 86.0643 28.5981L85.2852 30.6744Z" fill="#0D51FF"/>
<path fill-rule="evenodd" clip-rule="evenodd" d="M85.7064 1.52024L86.4674 3.54847C86.6187 3.95152 87.0797 4.1746 87.5305 4.05172C88.9219 3.67246 90.3716 3.53702 91.8149 3.65443C93.6397 3.80287 95.4092 4.35183 96.9971 5.26215C98.585 6.17248 99.9522 7.42175 101.001 8.92084C101.775 10.0266 102.361 11.2482 102.74 12.5366C102.918 13.1415 103.489 13.5306 104.064 13.432L105.929 13.1122C105.519 10.9985 104.669 8.9929 103.433 7.22598C102.134 5.36969 100.441 3.82257 98.4744 2.69512C96.5078 1.56766 94.3161 0.887711 92.0559 0.703848C89.9043 0.52882 87.7411 0.807459 85.7064 1.52024ZM85.171 1.01975C87.3842 0.191431 89.7531 -0.138691 92.1086 0.0529291C94.4642 0.24455 96.7484 0.953193 98.7982 2.12832C100.848 3.30344 102.613 4.91609 103.967 6.85118C105.321 8.78628 106.23 10.9961 106.63 13.3229L106.685 13.645L104.174 14.0757C103.228 14.2379 102.372 13.5979 102.114 12.7211C101.755 11.5006 101.2 10.3433 100.467 9.29564C99.4734 7.87536 98.178 6.69161 96.6732 5.82895C95.1685 4.9663 93.4916 4.44603 91.7622 4.30535C90.3943 4.19408 89.0203 4.32244 87.7017 4.68187C86.963 4.88323 86.1397 4.53113 85.8572 3.77824L84.8651 1.13426L85.171 1.01975ZM80.9297 3.44627L82.5488 5.40091C83.1629 6.14234 83.0347 7.20832 82.4008 7.86941C81.5205 8.78734 80.7929 9.84381 80.2485 10.9992C79.5099 12.5669 79.1269 14.278 79.1269 16.0105C79.1269 17.743 79.5099 19.4542 80.2485 21.0219C80.7929 22.1772 81.5205 23.2337 82.4008 24.1516C83.0347 24.8127 83.1629 25.8787 82.5488 26.6201L80.9297 28.5748L80.679 28.3676C78.8578 26.8629 77.3917 24.9752 76.3852 22.8391C75.3788 20.703 74.8569 18.3714 74.8569 16.0105C74.8569 13.6497 75.3788 11.318 76.3852 9.18193C77.3917 7.04585 78.8578 5.15812 80.679 3.65343L80.9297 3.44627ZM80.8453 4.36704C79.213 5.7747 77.894 7.50978 76.9748 9.46066C76.0094 11.5096 75.5089 13.7461 75.5089 16.0105C75.5089 18.2749 76.0094 20.5114 76.9748 22.5604C77.894 24.5113 79.213 26.2463 80.8453 27.654L82.0471 26.2031C82.4203 25.7525 82.3678 25.06 81.9306 24.604C81.0016 23.6353 80.2335 22.5202 79.6589 21.3006C78.8792 19.6458 78.4749 17.8395 78.4749 16.0105C78.4749 14.1816 78.8792 12.3752 79.6589 10.7204C80.2335 9.50087 81.0016 8.3858 81.9306 7.41701C82.3678 6.96103 82.4203 6.26853 82.0471 5.81792L80.8453 4.36704ZM102.114 19.2789C102.372 18.402 103.228 17.7621 104.174 17.9243L106.685 18.355L106.63 18.6771C106.23 21.0039 105.321 23.2137 103.967 25.1488C102.613 27.0839 100.848 28.6965 98.7983 29.8717C96.7485 31.0468 94.4643 31.7554 92.1087 31.9471C89.7531 32.1387 87.3842 31.8085 85.1711 30.9802L84.8652 30.8657L85.7591 28.4832C86.0963 27.5845 87.079 27.1669 87.9644 27.3865C89.2023 27.6935 90.485 27.7985 91.7622 27.6946C93.4916 27.5539 95.1686 27.0337 96.6733 26.171C98.1781 25.3084 99.4735 24.1246 100.467 22.7043C101.2 21.6567 101.756 20.4994 102.114 19.2789ZM104.064 18.5679C103.489 18.4694 102.918 18.8585 102.74 19.4634C102.361 20.7517 101.775 21.9733 101.001 23.0791C99.9522 24.5782 98.5851 25.8275 96.9972 26.7378C95.4093 27.6482 93.6398 28.1971 91.815 28.3456C90.4673 28.4552 89.1139 28.3443 87.8077 28.0204C87.1974 27.869 86.5744 28.1667 86.3694 28.713L85.7065 30.4797C87.7412 31.1925 89.9044 31.4712 92.056 31.2961C94.3162 31.1123 96.5078 30.4323 98.4745 29.3049C100.441 28.1774 102.134 26.6303 103.433 24.774C104.669 23.0071 105.519 21.0015 105.929 18.8878L104.064 18.5679Z" fill="#0D51FF"/>
<path fill-rule="evenodd" clip-rule="evenodd" d="M6.4592 15.4497H12.5328V15.5759C12.5328 17.0369 12.0005 19.2554 10.6426 20.644C9.2849 22.0329 7.72515 22.2856 6.2755 22.2856C4.8077 22.2856 3.2296 22.0509 1.7983 20.608C1.08286 19.8865 0 18.4257 0 16.0268C0 14.061 0.734209 12.4916 1.76181 11.4637C3.26609 9.93061 5.11965 9.71417 6.5691 9.71417C7.57835 9.71417 8.86285 9.8765 10.0003 10.616C10.8263 11.1571 11.5419 12.0048 11.9821 12.7624L9.43191 14.1149C9.19315 13.646 8.82635 13.1592 8.34905 12.8163C7.79875 12.4197 7.17485 12.2391 6.47755 12.2391C5.3582 12.2391 4.53245 12.6001 3.94504 13.2131C3.26609 13.9167 2.8993 14.9446 2.8993 16.0629C2.8993 17.4337 3.41331 18.3175 3.92669 18.8225C4.64255 19.544 5.4683 19.7605 6.40415 19.7605C7.61505 19.7605 8.2573 19.3456 8.53255 19.1111C8.6243 19.039 9.1748 18.57 9.41335 17.6862H6.4592V15.4497Z" fill="black"/>
<path fill-rule="evenodd" clip-rule="evenodd" d="M17.7824 9.71417V19.8355H21.7143V22.2856H14.8571V9.71417H17.7824Z" fill="black"/>
<path fill-rule="evenodd" clip-rule="evenodd" d="M27.1748 13.3379C26.6427 13.843 26.0922 14.7268 26.0922 16.0615C26.0922 17.1617 26.459 18.0453 27.2115 18.7668C28.0006 19.5063 28.8814 19.7588 29.8354 19.7588C31.0832 19.7588 31.9642 19.3079 32.5512 18.7309C33.0283 18.2798 33.6155 17.4323 33.6155 16.0435C33.6155 14.7989 33.1017 13.879 32.5512 13.3379C31.9458 12.7608 30.9733 12.3098 29.8539 12.3098C28.7894 12.3098 27.8354 12.6886 27.1748 13.3379ZM34.6063 11.4982C35.7624 12.5984 36.5145 14.1857 36.5145 16.0435C36.5145 17.6487 35.9276 19.2901 34.6063 20.5525C33.4687 21.6347 31.9272 22.3201 29.8723 22.3201C27.5785 22.3201 26.0188 21.4182 25.1013 20.5525C23.9271 19.4703 23.1929 17.8471 23.1929 16.0795C23.1929 14.348 23.9819 12.5984 25.0829 11.5162C25.9089 10.7046 27.4315 9.74884 29.8723 9.74884C31.7804 9.74884 33.3769 10.326 34.6063 11.4982Z" fill="black"/>
<path fill-rule="evenodd" clip-rule="evenodd" d="M41.7718 20.0238H42.4813C43.2291 20.0238 44.1301 20.005 44.6673 19.5149C44.9357 19.2699 45.0891 18.9118 45.0891 18.4594C45.0891 17.9505 44.8782 17.6113 44.6865 17.4416C44.1687 16.9704 43.1716 16.9704 42.5772 16.9704H41.7718V20.0238ZM41.7718 14.8218H42.2512C42.6539 14.8218 43.325 14.7655 43.7466 14.4639C44.0153 14.2754 44.2646 13.8984 44.2646 13.3519C44.2646 12.8053 43.9961 12.466 43.7658 12.2964C43.3442 11.9759 42.7689 11.9759 42.232 11.9759H41.7718V14.8218ZM42.7689 9.71417C43.459 9.71417 45.0316 9.75208 46.0287 10.6754C46.8531 11.4482 46.9489 12.5037 46.9489 13.0503C46.9489 13.5403 46.8722 14.1058 46.5271 14.6521C46.2011 15.1801 45.7603 15.444 45.4535 15.5757C46.0671 15.6699 46.7574 15.9717 47.2174 16.4239C47.6392 16.8385 48.0419 17.5547 48.0419 18.6668C48.0419 19.9296 47.5434 20.7212 47.0448 21.2113C45.9902 22.2102 44.4561 22.2856 43.6702 22.2856H38.8571V9.71417H42.7689Z" fill="black"/>
<path fill-rule="evenodd" clip-rule="evenodd" d="M57.4288 17.7279L55.8481 13.4844L54.2484 17.7279H57.4288ZM58.2381 19.9632H53.3812L52.398 22.3503H49.3144L54.4989 9.71428H57.2166L62.2857 22.3503H59.2021L58.2381 19.9632Z" fill="black"/>
<path fill-rule="evenodd" clip-rule="evenodd" d="M67.169 9.71417V19.8355H71.4286V22.2856H64V9.71417H67.169Z" fill="black"/>
</svg>
