<svg width="48" height="20" viewBox="0 0 48 20" fill="none" xmlns="http://www.w3.org/2000/svg">
    <path d="M2.93619 19.5048C1.77319 19.5048 0.992188 18.5608 0.992188 17.1528V3.15278C0.992188 1.74578 1.77319 0.800781 2.93619 0.800781C3.38619 0.800781 3.85819 0.941781 4.34019 1.21978L16.4642 8.21978C17.3172 8.71178 17.7852 9.39878 17.7852 10.1528C17.7852 10.9068 17.3162 11.5938 16.4642 12.0868L4.34019 19.0868C3.85819 19.3638 3.38619 19.5048 2.93619 19.5048ZM2.93619 1.80078C2.06019 1.80078 1.99219 2.83578 1.99219 3.15278V17.1528C1.99219 17.4688 2.06019 18.5048 2.93619 18.5048C3.20519 18.5048 3.51719 18.4058 3.84019 18.2198L15.9642 11.2198C16.4862 10.9188 16.7852 10.5308 16.7852 10.1538C16.7852 9.77678 16.4862 9.38778 15.9642 9.08678L3.84019 2.08678C3.51719 1.89978 3.20419 1.80078 2.93619 1.80078Z" fill="#0D51FF" stroke="#0D51FF" stroke-width="0.5"/>
    <path d="M13.6196 13.6528C13.5448 13.653 13.4709 13.6364 13.4034 13.6042C13.3359 13.572 13.2765 13.5251 13.2296 13.4668L4.04557 2.1668C3.96189 2.06377 3.92257 1.93171 3.93626 1.79968C3.94995 1.66766 4.01553 1.54648 4.11857 1.4628C4.2216 1.37913 4.35366 1.33981 4.48569 1.3535C4.61771 1.36719 4.73889 1.43277 4.82257 1.5358L14.0066 12.8368C14.0655 12.9103 14.1026 12.9989 14.1135 13.0925C14.1245 13.1861 14.1089 13.2808 14.0685 13.3659C14.0281 13.4511 13.9646 13.5231 13.8852 13.5738C13.8058 13.6246 13.7138 13.6519 13.6196 13.6528Z" fill="#0D51FF" stroke="#0D51FF" stroke-width="0.5"/>
    <path d="M4.4333 18.9548C4.33885 18.9547 4.24635 18.9279 4.16651 18.8775C4.08666 18.827 4.02274 18.755 3.98214 18.6697C3.94155 18.5844 3.92593 18.4894 3.93711 18.3956C3.94828 18.3018 3.98579 18.2131 4.0453 18.1398L13.2293 6.8388C13.3151 6.74258 13.4346 6.68311 13.5631 6.67276C13.6916 6.66241 13.8191 6.70198 13.9191 6.78323C14.0192 6.86449 14.0841 6.98118 14.1003 7.10905C14.1165 7.23692 14.0829 7.36612 14.0063 7.4698L4.8223 18.7698C4.77539 18.8277 4.7161 18.8744 4.64879 18.9064C4.58147 18.9384 4.50784 18.955 4.4333 18.9548Z" fill="#0D51FF" stroke="#0D51FF" stroke-width="0.5"/>
    <path d="M27.9557 5.15234H24.3906V15.1217H25.882V11.3493H27.9636C29.6145 11.3493 31.2336 10.153 31.2336 8.2548C31.2336 6.35664 29.6066 5.15234 27.9557 5.15234ZM27.9955 9.96155H25.882V6.54007H27.9955C29.1121 6.54007 29.7422 7.46523 29.7422 8.24682C29.7422 9.02044 29.1121 9.96155 27.9955 9.96155ZM37.1912 8.52596C36.1146 8.52596 34.998 9.00449 34.5354 10.0493L35.8593 10.5996C36.1385 10.0493 36.6649 9.86584 37.2152 9.86584C37.9808 9.86584 38.7704 10.3284 38.7784 11.1499V11.2536C38.5072 11.102 37.933 10.8707 37.2231 10.8707C35.7955 10.8707 34.352 11.6523 34.352 13.1119C34.352 14.4438 35.5164 15.3051 36.8244 15.3051C37.8213 15.3051 38.3796 14.8585 38.7225 14.3321H38.7704V15.1057H40.206V11.2855C40.2219 9.51492 38.898 8.52596 37.1912 8.52596ZM37.0158 13.9892C36.5293 13.9892 35.8514 13.7419 35.8514 13.1438C35.8514 12.3781 36.6968 12.083 37.4305 12.083C38.0845 12.083 38.3955 12.2266 38.7863 12.418C38.6667 13.3352 37.8771 13.9892 37.0158 13.9892ZM45.4538 8.74928L43.7471 13.072H43.6992L41.9287 8.74928H40.3256L42.9814 14.7947L41.4661 18.1523H43.0213L47.1127 8.74928H45.4538ZM32.0471 15.1217H33.5385V5.15234H32.0471V15.1217Z" fill="#0D51FF"/>
</svg>
