<svg width="292" height="315" viewBox="0 0 292 315" fill="none" xmlns="http://www.w3.org/2000/svg">
    <ellipse cx="152.331" cy="174.956" rx="139.669" ry="140.044" fill="#F4F7FF"/>
    <path d="M193.199 119.018C190.65 119.018 188.205 120.034 186.403 121.841C184.6 123.649 183.588 126.101 183.588 128.658H202.809C202.809 126.101 201.797 123.649 199.994 121.841C198.192 120.034 195.747 119.018 193.199 119.018V119.018Z" fill="white"/>
    <path d="M174.648 135.68C175.635 135.68 176.582 136.073 177.28 136.774C177.978 137.474 178.37 138.423 178.37 139.413H170.926C170.926 138.423 171.318 137.474 172.016 136.774C172.714 136.073 173.661 135.68 174.648 135.68Z" fill="white"/>
    <rect x="101.497" y="137.932" width="95.4841" height="95.7402" rx="0.268153" transform="rotate(-180 101.497 137.932)" fill="#E8F1F9"/>
    <path d="M62.905 119.196H70.4483V125.274H79.634V113.207L90.2423 102.57H101.497V137.664C101.496 137.812 101.377 137.932 101.229 137.932H48.1658V111.509H62.905V119.196Z" fill="#D7E8F7"/>
    <path d="M12.6866 82.7271L24.2755 94.347V122.592H33.19V115.62H39.4302V102.928H53.7552V137.932H6.28062C6.1331 137.932 6.01361 137.812 6.01318 137.664V89.4184L12.6866 82.7271Z" fill="#D7E8F7"/>
    <rect x="101.497" y="137.932" width="95.4841" height="95.7402" rx="0.268153" transform="rotate(-180 101.497 137.932)" stroke="#95B5E8" stroke-width="0.792356"/>
    <path d="M53.7551 36.1636V143.961" stroke="#95B5E8" stroke-width="0.792356"/>
    <path d="M0 90.0628H107.509" stroke="#95B5E8" stroke-width="0.792356"/>
    <path d="M65.2516 57.8833C63.8736 57.8833 62.552 58.4322 61.5775 59.4093C60.6031 60.3863 60.0557 61.7115 60.0557 63.0932H70.4476C70.4476 61.7115 69.9002 60.3863 68.9258 59.4093C67.9513 58.4322 66.6297 57.8833 65.2516 57.8833Z" fill="white"/>
    <path d="M81.6116 59.3115C80.6113 59.3115 79.652 59.71 78.9446 60.4192C78.2373 61.1284 77.84 62.0903 77.84 63.0933H85.3832C85.3832 62.0903 84.9858 61.1284 84.2785 60.4192C83.5712 59.71 82.6119 59.3115 81.6116 59.3115Z" fill="white"/>
    <path d="M72.4485 53.5244C69.9175 53.5244 67.4902 54.5325 65.7006 56.327C63.9109 58.1214 62.9055 60.5553 62.9055 63.093H81.9915C81.9915 60.5553 80.9861 58.1214 79.1964 56.327C77.4067 54.5325 74.9794 53.5244 72.4485 53.5244Z" fill="white"/>
    <path d="M57.6052 63.0936H87.4615" stroke="#95B5E8" stroke-width="0.792356"/>
    <path d="M33.2611 73.6421C31.9934 73.6421 30.9658 74.6725 30.9658 75.9435H35.5563C35.5563 74.6725 34.5287 73.6421 33.2611 73.6421Z" fill="white"/>
    <path d="M40.4877 74.2725C39.5676 74.2725 38.8217 75.0204 38.8217 75.943H42.1537C42.1537 75.0204 41.4078 74.2725 40.4877 74.2725Z" fill="white"/>
    <path d="M36.4415 71.7163C34.1134 71.7163 32.2261 73.6087 32.2261 75.943H40.6569C40.6569 74.822 40.2128 73.747 39.4222 72.9543C38.6317 72.1616 37.5595 71.7163 36.4415 71.7163V71.7163Z" fill="white"/>
    <path d="M29.8827 75.9432H43.0712" stroke="#95B5E8" stroke-width="0.792356"/>
    <path d="M286.335 298.605H135.416" stroke="#95B5E8" stroke-width="0.792356"/>
    <path d="M271.191 160.134H151.842C151.724 160.135 151.629 160.23 151.628 160.348V298.391C151.629 298.509 151.724 298.605 151.842 298.605H162.413L166.685 287.18H256.348L260.621 298.605H271.191C271.309 298.605 271.405 298.509 271.405 298.391V160.348C271.405 160.23 271.309 160.135 271.191 160.134Z" fill="#D7E8F7"/>
    <path d="M271.192 160.134H151.843" stroke="#95B5E8" stroke-width="0.792356"/>
    <path d="M166.686 287.18H256.349" stroke="#95B5E8" stroke-width="0.792356"/>
    <rect x="162.895" y="174.642" width="46.6611" height="46.7862" fill="#E8F1F9"/>
    <path d="M209.556 174.642V221.428H162.895" stroke="#95B5E8" stroke-width="0.792356"/>
    <path d="M186.225 200.318C187.483 200.318 188.502 199.296 188.502 198.035C188.502 196.774 187.483 195.751 186.225 195.751C184.968 195.751 183.948 196.774 183.948 198.035C183.948 199.296 184.968 200.318 186.225 200.318Z" fill="#95B5E8"/>
    <rect x="213.48" y="174.642" width="46.6611" height="46.7862" fill="#E8F1F9"/>
    <path d="M260.141 174.642V221.428H213.48" stroke="#95B5E8" stroke-width="0.792356"/>
    <path d="M236.808 200.318C238.066 200.318 239.085 199.296 239.085 198.035C239.085 196.774 238.066 195.751 236.808 195.751C235.551 195.751 234.531 196.774 234.531 198.035C234.531 199.296 235.551 200.318 236.808 200.318Z" fill="#95B5E8"/>
    <rect x="213.48" y="225.361" width="46.6611" height="46.7862" fill="#E8F1F9"/>
    <path d="M260.141 225.361V272.147H213.48" stroke="#95B5E8" stroke-width="0.792356"/>
    <path d="M236.808 251.037C238.066 251.037 239.085 250.015 239.085 248.754C239.085 247.493 238.066 246.471 236.808 246.471C235.551 246.471 234.531 247.493 234.531 248.754C234.531 250.015 235.551 251.037 236.808 251.037Z" fill="#95B5E8"/>
    <rect x="162.895" y="225.361" width="46.6611" height="46.7862" fill="#E8F1F9"/>
    <path d="M209.556 225.361V272.147H162.895" stroke="#95B5E8" stroke-width="0.792356"/>
    <path d="M186.225 251.037C187.483 251.037 188.502 250.015 188.502 248.754C188.502 247.493 187.483 246.471 186.225 246.471C184.968 246.471 183.948 247.493 183.948 248.754C183.948 250.015 184.968 251.037 186.225 251.037Z" fill="#95B5E8"/>
    <path d="M113.139 100.287L120.046 119.654L138.995 99.133C138.995 99.133 141.12 92.8998 144.386 96.5975C144.386 96.5975 154.607 92.7942 154.712 94.9071C154.784 96.3568 150.343 99.8453 147.548 101.893C146.134 102.927 145.114 104.414 144.656 106.108C142.303 114.812 133.977 141.945 121.971 140.441C107.682 138.652 98.8501 124.665 98.8501 124.665" fill="#F2C0C0"/>
    <path d="M99.559 175.78C99.559 175.78 109.638 236.793 34.2537 264.365L28.8191 271.006L17.4493 249.94L64.4816 206.254C64.4816 206.254 63.7871 163.419 76.6512 153.912" fill="#FFD6D2"/>
    <path d="M34.2537 264.365L28.8189 271.006L17.4493 249.94" fill="#0D51FF"/>
    <path d="M111.877 189.144C113.142 191.68 112.555 292.277 112.555 292.277L116.045 298.605H93.8128L80.5729 186.292" fill="#FFD6D2"/>
    <path d="M99.5572 175.779C99.5572 175.779 109.637 236.792 34.2518 264.365" stroke="#0D2460" stroke-width="0.396178"/>
    <path d="M112.554 292.277L116.043 298.605H93.8108" fill="#0D2460"/>
    <path d="M90.7026 75.7387C90.7026 75.7387 80.4559 75.0454 80.0608 84.1575C79.8742 88.4604 79.0709 91.5619 78.2749 93.637C78.0131 94.3029 78.1441 95.0595 78.6142 95.598C79.0843 96.1365 79.8149 96.3668 80.5077 96.1949C87.1837 94.5172 99.3282 89.7741 93.6849 78.1454" fill="#0D2460"/>
    <path d="M90.7025 75.7387C90.7025 75.7387 80.4558 75.0454 80.0607 84.1575" stroke="#0D2460" stroke-width="0.396178"/>
    <path d="M93.1597 79.1655C94.9818 79.1655 96.459 77.6844 96.459 75.8574C96.459 74.0304 94.9818 72.5493 93.1597 72.5493C91.3376 72.5493 89.8605 74.0304 89.8605 75.8574C89.8605 77.6844 91.3376 79.1655 93.1597 79.1655Z" fill="#0D2460"/>
    <path d="M92.1804 74.1362H105.52V89.0979C105.52 90.8716 104.817 92.5726 103.566 93.8268C102.316 95.081 100.619 95.7856 98.8502 95.7856C97.0813 95.7856 95.3848 95.081 94.134 93.8268C92.8831 92.5726 92.1804 90.8716 92.1804 89.0979V74.1362Z" fill="#FFD6D2"/>
    <path d="M94.0232 74.9569C94.0232 81.4742 98.4368 86.7574 103.881 86.7574C104.432 86.7566 104.981 86.7012 105.521 86.592V72.7285H94.2011C94.083 73.4654 94.0235 74.2105 94.0232 74.9569H94.0232Z" fill="#5A3C2A"/>
    <path d="M110.411 74.8716C109.696 74.8716 109.117 74.2907 109.117 73.5742V72.3379C109.117 71.4774 109.812 70.7798 110.67 70.7798C111.529 70.7798 112.224 71.4774 112.224 72.3379V73.0529C112.224 74.0573 111.412 74.8716 110.411 74.8716L110.411 74.8716Z" fill="#F2C0C0"/>
    <path d="M108.931 62.067C110.279 64.3293 110.861 66.9677 110.592 69.5889C110.473 71.0655 110.451 72.5485 110.528 74.028C110.644 77.721 108.629 81.1512 105.352 82.8412C103.792 83.5382 102.046 83.7027 100.383 83.3093C97.2515 82.3737 92.5868 79.5501 92.4797 73.393C92.45 71.6905 91.8954 70.1711 91.45 68.5279C91.0631 67.1006 90.9519 65.0266 92.0747 62.4634C94.5512 56.8098 104.326 54.5873 108.931 62.067Z" fill="#FFD6D2"/>
    <path d="M93.0195 71.7701C93.0195 71.7701 104.19 71.2946 107.008 65.1671C107.008 65.1671 110.711 66.0877 110.519 70.7117C110.519 70.7117 113.871 66.3744 111.393 61.3638C108.915 56.3531 102.307 53.8341 97.6002 54.6782C91.1202 55.8404 81.1709 65.9066 92.1791 76.6298" fill="#0D2460"/>
    <path d="M93.02 71.7705C93.02 71.7705 104.191 71.295 107.008 65.1675" stroke="#0D51FF" stroke-width="0.396178"/>
    <path d="M92.4818 70.7119C93.34 70.7119 94.0357 71.4095 94.0357 72.2699V73.5063C94.0357 74.2228 93.4564 74.8037 92.7418 74.8037C91.74 74.8037 90.928 73.9894 90.928 72.985V72.27C90.928 71.4095 91.6237 70.7119 92.4818 70.7119Z" fill="#FFD6D2"/>
    <path d="M96.832 68.5024C97.9202 67.4113 99.6844 67.4113 100.772 68.5024" stroke="white" stroke-width="0.539547"/>
    <path d="M105.522 68.5024C106.61 67.4113 108.374 67.4113 109.462 68.5024" stroke="white" stroke-width="0.539547"/>
    <path d="M98.8015 74.0277C99.0673 74.0277 99.2827 73.7434 99.2827 73.3928C99.2827 73.0421 99.0673 72.7578 98.8015 72.7578C98.5357 72.7578 98.3202 73.0421 98.3202 73.3928C98.3202 73.7434 98.5357 74.0277 98.8015 74.0277Z" fill="#0D51FF"/>
    <path d="M107.491 74.0277C107.757 74.0277 107.972 73.7434 107.972 73.3928C107.972 73.0421 107.757 72.7578 107.491 72.7578C107.225 72.7578 107.01 73.0421 107.01 73.3928C107.01 73.7434 107.225 74.0277 107.491 74.0277Z" fill="#0D51FF"/>
    <path d="M103.882 69.8623V76.0043C103.882 76.2031 103.721 76.3642 103.523 76.3642H102.97" stroke="#0D2460" stroke-width="0.539547"/>
    <path d="M103.88 69.8623V74.2306" stroke="#0D2460" stroke-width="0.539547"/>
    <path d="M105.118 77.7363C104.03 78.8274 102.266 78.8274 101.178 77.7363" stroke="#0D2460" stroke-width="0.539547"/>
    <path d="M107.864 64.2139C107.883 64.2117 107.903 64.2113 107.922 64.2094C107.892 64.1939 107.872 64.1833 107.872 64.1833C107.869 64.1937 107.866 64.2035 107.864 64.2139Z" fill="#5A3C2A"/>
    <path d="M89.9613 91.6596L88.1681 84.9604L109.479 86.3494L108.906 91.1012C108.906 91.1012 119.853 96.5972 113.14 127.024L116.406 205.414L56.8748 189.144L85.7447 123.749C85.7447 123.749 79.899 96.8694 89.9613 91.6596Z" fill="#0D2460"/>
    <path d="M112.806 127.729C98.9219 129.541 88.7249 135.557 88.7249 142.7C88.7249 150.056 99.5399 156.218 114.06 157.822L112.806 127.729Z" fill="#0D51FF"/>
    <path d="M84.96 99.3442C84.96 99.3442 67.206 122.692 84.117 136.321C101.028 149.949 127.061 136.644 134.165 130.722C134.165 130.722 142.463 126.885 142.147 125.512C141.831 124.138 132.269 125.439 132.269 125.439C132.269 125.439 130.53 123.409 128.686 125.122C124.366 129.137 98.9735 125.334 98.9735 125.334L100.449 116.951" fill="#FFD6D2"/>
    <path d="M128.688 125.122C124.368 129.137 98.9747 125.333 98.9747 125.333" stroke="white" stroke-width="0.396178"/>
    <path d="M142.147 125.512C141.83 124.138 132.268 125.439 132.268 125.439C132.268 125.439 130.529 123.409 128.686 125.122" stroke="white" stroke-width="0.396178"/>
    <path d="M84.1161 136.321C101.027 149.95 127.06 136.644 134.164 130.722" stroke="#0D2460" stroke-width="0.396178"/>
    <path d="M87.8054 84.9604L109.117 86.3494" stroke="white" stroke-width="0.396178"/>
    <path d="M116.044 205.414L56.5125 189.144" stroke="#5A3C2A" stroke-width="0.396178"/>
    <path d="M111.876 189.144C113.14 191.68 112.554 292.277 112.554 292.277" stroke="#0D2460" stroke-width="0.396178"/>
    <path d="M94.6953 91.5199L94.6953 91.5199C101.479 93.2139 105.609 100.101 103.92 106.904L99.9922 122.717L75.4251 116.583L79.3527 100.769C81.0422 93.9669 87.9113 89.8259 94.6953 91.5199V91.5199Z" fill="#0D2460"/>
    <path d="M103.919 106.904L99.9918 122.718L75.4246 116.583" stroke="white" stroke-width="0.396178"/>
    <path fill-rule="evenodd" clip-rule="evenodd" d="M157.237 23.3169C143.372 44.1234 146.096 71.8531 163.743 89.5476C173.532 99.4166 186.852 104.949 200.733 104.911C225.69 104.911 247.172 87.234 252.04 62.691C256.909 38.148 243.809 13.5743 220.752 3.9981C197.695 -5.57809 171.103 2.51037 157.237 23.3169ZM186.918 85.9021C173.427 80.2991 164.631 67.0994 164.631 52.458C164.653 32.4748 180.804 16.2808 200.734 16.2583C215.336 16.2583 228.5 25.0781 234.088 38.605C239.676 52.1318 236.588 67.702 226.262 78.055C215.937 88.408 200.408 91.5051 186.918 85.9021Z" fill="#D7E8F7"/>
    <rect width="48.0844" height="16.231" transform="matrix(0.706159 -0.708053 0.706159 0.708053 128.569 113.323)" fill="#D7E8F7"/>
    <rect width="20.0403" height="16.231" transform="matrix(0.706159 -0.708053 0.706159 0.708053 125.667 116.236)" fill="#95B5E8"/>
    <path d="M139.818 102.047L125.667 116.236L137.128 127.729" stroke="#95B5E8" stroke-width="0.792356"/>
    <path d="M200.733 88.6576C220.672 88.6576 236.836 72.4505 236.836 52.458C236.836 32.4654 220.672 16.2583 200.733 16.2583C180.794 16.2583 164.631 32.4654 164.631 52.458C164.631 72.4505 180.794 88.6576 200.733 88.6576Z" fill="#E8F1F9"/>
    <rect x="243.318" y="87.8237" width="31.0184" height="43.8176" fill="#E8F1F9"/>
    <path d="M274.336 131.641H243.318" stroke="#95B5E8" stroke-width="0.792356"/>
    <path d="M262.904 140.743V140.662H254.749V140.743C254.739 142.371 254.064 143.924 252.883 145.04C248.787 149.176 248.62 155.796 252.501 160.135H265.151C269.033 155.796 268.865 149.176 264.77 145.04C263.588 143.924 262.914 142.371 262.904 140.743Z" fill="#D7E8F7"/>
    <path d="M258.826 140.662V131.642" stroke="#95B5E8" stroke-width="0.792356"/>
    <path d="M274.336 160.134H243.318" stroke="#95B5E8" stroke-width="0.792356"/>
    <path d="M269.323 131.642V138.433" stroke="#95B5E8" stroke-width="0.792356"/>
    <path d="M269.323 138.326C270.078 138.326 270.69 138.94 270.69 139.697C270.69 140.455 270.078 141.069 269.323 141.069C268.567 141.069 267.955 140.455 267.955 139.697" stroke="#95B5E8" stroke-width="0.792356"/>
    <path d="M200.734 65.0501C212.75 65.0501 222.491 59.4123 222.491 52.4577C222.491 45.5031 212.75 39.8652 200.734 39.8652C188.718 39.8652 178.977 45.5031 178.977 52.4577C178.977 59.4123 188.718 65.0501 200.734 65.0501Z" fill="#95B5E8"/>
    <path d="M200.735 58.2498C203.925 58.2498 206.511 55.657 206.511 52.4587C206.511 49.2603 203.925 46.6675 200.735 46.6675C197.545 46.6675 194.959 49.2603 194.959 52.4587C194.959 55.657 197.545 58.2498 200.735 58.2498Z" fill="white"/>
</svg>
