<svg width="24" height="24" viewBox="0 0 24 24" fill="none" xmlns="http://www.w3.org/2000/svg">
    <path d="M23.125 16.5C22.642 16.5 22.25 16.108 22.25 15.625V15.0417C22.25 14.2379 21.5955 13.5834 20.7917 13.5834H17.875C17.392 13.5834 17 13.1914 17 12.7084C17 12.2254 17.392 11.8334 17.875 11.8334H20.7917C22.5615 11.8334 24 13.2719 24 15.0417V15.625C24 16.108 23.608 16.5 23.125 16.5Z" fill="#0D51FF"/>
    <g clip-path="url(#clip_group_icon_id)">
        <path fill-rule="evenodd" clip-rule="evenodd" d="M21.1 19V21C21.1 21.6 20.7 22 20.1 22C19.5 22 19.1 21.6 19.1 21V19C19.1 17.3 17.8 16 16.1 16H8C6.3 16 5 17.3 5 19V21C5 21.6 4.6 22 4 22C3.4 22 3 21.6 3 21V19C3 16.2 5.2 14 8 14H16C18.9 14 21.1 16.2 21.1 19Z" fill="#2D2E30"/>
        <path fill-rule="evenodd" clip-rule="evenodd" d="M12 2C9.2 2 7 4.2 7 7C7 9.8 9.2 12 12 12C14.8 12 17 9.8 17 7C17 4.2 14.8 2 12 2ZM12 10C10.3 10 9 8.7 9 7C9 5.3 10.3 4 12 4C13.7 4 15 5.3 15 7C15 8.7 13.7 10 12 10Z" fill="#2D2E30"/>
    </g>
    <path d="M20.5 10C19.1217 10 18 8.87833 18 7.5C18 6.12167 19.1217 5 20.5 5C21.8783 5 23 6.12167 23 7.5C23 8.87833 21.8783 10 20.5 10ZM20.5 6.25C19.8108 6.25 19.25 6.81083 19.25 7.5C19.25 8.18917 19.8108 8.75 20.5 8.75C21.1892 8.75 21.75 8.18917 21.75 7.5C21.75 6.81083 21.1892 6.25 20.5 6.25Z" fill="#0D51FF"/>
    <path d="M0.875 16.5C1.358 16.5 1.75 16.108 1.75 15.625V15.0417C1.75 14.2379 2.4045 13.5834 3.20833 13.5834H6.125C6.608 13.5834 7 13.1914 7 12.7084C7 12.2254 6.608 11.8334 6.125 11.8334H3.20833C1.4385 11.8334 0 13.2719 0 15.0417V15.625C0 16.108 0.392 16.5 0.875 16.5Z" fill="#0D51FF"/>
    <path d="M3.5 10C4.87833 10 6 8.87833 6 7.5C6 6.12167 4.87833 5 3.5 5C2.12166 5 0.999991 6.12167 0.999991 7.5C0.999991 8.87833 2.12166 10 3.5 10ZM3.5 6.25C4.18916 6.25 4.75 6.81083 4.75 7.5C4.75 8.18917 4.18916 8.75 3.5 8.75C2.81083 8.75 2.24999 8.18917 2.24999 7.5C2.24999 6.81083 2.81083 6.25 3.5 6.25Z" fill="#0D51FF"/>
    <defs>
        <clipPath id="clip_group_icon_id">
            <rect width="18.1" height="20" fill="white" transform="translate(3 2)"/>
        </clipPath>
    </defs>
</svg>
