<svg width="353" height="376" viewBox="0 0 353 376" fill="none" xmlns="http://www.w3.org/2000/svg">
<circle cx="176.5" cy="199.5" r="176.5" fill="#F4F7FF"/>
<path d="M250.038 118.727L214.806 94.2805C214.806 94.2805 210.494 86.8875 207.61 91.9589C207.61 91.9589 195.413 90.169 194.087 92.5555C192.761 94.942 207.08 102.731 207.08 102.731C207.08 102.731 229.181 155.592 262.546 140.564L250.038 118.727Z" fill="#F2C0C0"/>
<path d="M287.552 100.261L287.552 100.261C293.476 106.765 293.007 116.839 286.503 122.764L271.384 136.536L249.93 112.984L265.05 99.2119C271.553 93.2877 281.628 93.7574 287.552 100.261Z" fill="#0D51FF"/>
<path d="M297.007 142.501L266.885 151.869C266.885 151.869 251.832 238.277 270.818 344.472L262.34 355.324H300.287L313.072 210.206L297.007 142.501Z" fill="#0D2460"/>
<path d="M272.577 259.793C272.577 285.301 285.235 307.345 303.594 317.787L313.072 210.206L310.319 198.603C288.397 207.089 272.577 231.276 272.577 259.793Z" fill="#0D51FF"/>
<path d="M270.818 344.472L262.34 355.323H300.288" fill="#0D2460"/>
<path d="M272.878 59.9996C272.878 59.9996 264.224 76.2951 282.388 90.7468C300.552 105.199 317.059 89.3161 315.998 76.7503C314.938 64.1844 298.744 52.9837 298.744 52.9837" fill="#0D2460"/>
<path d="M272.878 59.9998C272.878 59.9998 264.224 76.2952 282.388 90.747" stroke="#0D2460" stroke-width="0.497194"/>
<path d="M278.348 73.6203H295.134V92.3969C295.134 97.0322 291.376 100.79 286.741 100.79C282.106 100.79 278.348 97.0322 278.348 92.3969V73.6203H278.348Z" fill="#FFD6D2"/>
<path d="M280.666 74.6506C280.666 82.8296 286.22 89.4599 293.071 89.4599C293.764 89.4589 294.455 89.3894 295.134 89.2523V71.854H280.89C280.741 72.7788 280.666 73.7139 280.666 74.6506Z" fill="#5A3C2A"/>
<path d="M301.287 74.5433C300.388 74.5433 299.659 73.8144 299.659 72.9151V71.3636C299.659 70.2837 300.534 69.4083 301.614 69.4083C302.694 69.4083 303.57 70.2837 303.57 71.3636V72.2609C303.57 73.5215 302.548 74.5433 301.287 74.5433L301.287 74.5433Z" fill="#F2C0C0"/>
<path d="M299.428 58.4737C301.124 61.3128 301.857 64.6238 301.518 67.9134C301.368 69.7665 301.341 71.6276 301.437 73.4843C301.583 78.119 299.048 82.4238 294.925 84.5447C292.961 85.4194 290.764 85.6258 288.672 85.1322C284.731 83.958 278.862 80.4145 278.727 72.6875C278.689 70.5508 277.991 68.6441 277.431 66.5819C276.944 64.7907 276.804 62.1878 278.217 58.971C281.333 51.8759 293.633 49.0867 299.428 58.4737Z" fill="#FFD6D2"/>
<path d="M279.405 70.6514C279.405 70.6514 293.462 70.0548 297.007 62.3649C297.007 62.3649 301.668 63.5202 301.425 69.3232C301.425 69.3232 305.643 63.8801 302.525 57.5918C299.408 51.3036 291.092 48.1423 285.169 49.2016C277.015 50.6601 264.496 63.293 278.348 76.7504" fill="#0D2460"/>
<path d="M279.405 70.6515C279.405 70.6515 293.462 70.0549 297.007 62.365" stroke="#0D2460" stroke-width="0.497194"/>
<path d="M278.727 69.3231C279.807 69.3231 280.682 70.1985 280.682 71.2784V72.83C280.682 73.7292 279.953 74.4582 279.054 74.4582C278.449 74.4582 277.868 74.2177 277.44 73.7897C277.012 73.3616 276.772 72.7811 276.772 72.1758V71.2784C276.772 70.1985 277.647 69.3231 278.727 69.3231L278.727 69.3231Z" fill="#FFD6D2"/>
<path d="M284.201 66.5498C285.57 65.1805 287.79 65.1805 289.159 66.5498" stroke="#0D2460" stroke-width="0.7"/>
<path d="M295.133 66.5498C296.502 65.1805 298.722 65.1805 300.091 66.5498" stroke="#0D2460" stroke-width="0.7"/>
<path d="M286.68 73.4844C287.014 73.4844 287.285 73.1276 287.285 72.6875C287.285 72.2474 287.014 71.8907 286.68 71.8907C286.345 71.8907 286.074 72.2474 286.074 72.6875C286.074 73.1276 286.345 73.4844 286.68 73.4844Z" fill="#0D51FF"/>
<path d="M297.613 73.4844C297.947 73.4844 298.219 73.1276 298.219 72.6875C298.219 72.2474 297.947 71.8907 297.613 71.8907C297.279 71.8907 297.007 72.2474 297.007 72.6875C297.007 73.1276 297.279 73.4844 297.613 73.4844Z" fill="#0D51FF"/>
<path d="M293.071 68.2571V75.9651C293.071 76.2146 292.869 76.4168 292.619 76.4168H291.923" stroke="#0D2460" stroke-width="0.7"/>
<path d="M293.07 68.2571V73.7391" stroke="#0D2460" stroke-width="0.7"/>
<path d="M294.625 78.1384C293.256 79.5076 291.036 79.5076 289.667 78.1384" stroke="#0D2460" stroke-width="0.7"/>
<path d="M298.081 61.1688C298.105 61.1661 298.13 61.1656 298.154 61.1632C298.117 61.1437 298.091 61.1304 298.091 61.1304C298.088 61.1435 298.084 61.1558 298.081 61.1688Z" fill="#5A3C2A"/>
<path d="M298.744 94.5918L300.092 89.4598C299.492 89.4209 273.24 90.7468 273.24 90.7468V96.4907C273.24 96.4907 254.247 90.7467 266.885 151.869H311.434C311.434 151.869 329.419 98.9671 298.744 94.5918Z" fill="#0D51FF"/>
<path d="M263.057 106.058C261.638 113.949 262.041 127.796 266.885 151.869" stroke="#0D2460" stroke-width="0.497194"/>
<path d="M294.732 144.635C305.451 138.173 311.459 128.487 308.151 123C304.843 117.512 293.472 118.302 282.753 124.763C272.034 131.225 266.026 140.911 269.334 146.398C272.641 151.886 284.012 151.096 294.732 144.635Z" fill="#0D2460"/>
<path d="M298.081 130.986C298.696 130.986 284.377 153.46 257.926 146.3C231.476 139.14 227.299 93.1996 227.299 93.1996C227.299 93.1996 217.952 88.4266 218.35 86.2389C218.747 84.0513 230.879 85.3999 230.879 85.3999C230.879 85.3999 233.266 83.1419 235.453 84.9887C237.641 86.8355 264.682 121.798 264.682 121.798L280.682 109.905" fill="#FFD6D2"/>
<path d="M298.082 130.986C298.697 130.986 284.377 153.46 257.927 146.3" stroke="#0D2460" stroke-width="0.497194"/>
<path d="M300.092 89.4598C299.492 89.4209 273.24 90.7468 273.24 90.7468" stroke="#0D2460" stroke-width="0.497194"/>
<path d="M278.347 151.869C278.347 151.869 272.842 225.453 300.287 347.962L297.105 355.324H334.892L325.346 221.078C325.346 221.078 330.079 173.446 311.433 151.869" fill="#0D2460"/>
<path d="M300.288 347.962L297.106 355.323H334.893" fill="#0D51FF"/>
<path d="M280.052 218.401C282.704 251.094 288.41 294.947 300.287 347.962L297.105 355.324" stroke="#0D51FF" stroke-width="0.497194"/>
<path d="M312.454 100.261L312.454 100.261C318.378 106.765 317.909 116.839 311.405 122.764L296.286 136.536L274.832 112.984L289.951 99.2119C296.455 93.2877 306.53 93.7574 312.454 100.261Z" fill="#0D51FF"/>
<path d="M311.405 122.764L296.285 136.536L274.832 112.984" stroke="#0D2460" stroke-width="0.497194"/>
<path d="M40.9844 123.823C40.9844 123.823 77.3775 161.611 92.1642 144.907C106.951 128.204 118.863 101.532 118.863 101.532C118.863 101.532 123.38 98.9073 122.559 91.9233C122.559 91.9233 131.048 84.4231 128.309 83.5859C125.571 82.7487 99.2837 95.0709 87.7829 112.048C76.2822 129.025 72.0178 114.149 72.0178 114.149" fill="#F2C0C0"/>
<path d="M64.433 170.373C64.433 170.373 92.7116 229.817 82.8539 349.194L87.7828 355.499H56.0189L39.3154 238.282L46.9826 166.54" fill="#0D2460"/>
<path d="M65.3684 266.076C65.3684 237.371 56.155 212.812 43.1121 202.757L39.3154 238.282L51.0756 320.809C59.7493 308.382 65.3684 288.493 65.3684 266.076Z" fill="#0D51FF"/>
<path d="M82.8547 349.194L87.7836 355.499H56.0195" fill="#0D2460"/>
<path d="M54.1134 168.32C54.1134 168.32 70.5303 275.88 34.6779 349.194L39.3155 355.499H2L17.402 233.609C17.402 233.609 8.3702 196.334 8.77687 167.915" fill="#0D2460"/>
<path d="M34.678 349.194L39.3157 355.499H2" fill="#0D51FF"/>
<path d="M49.9319 93.5625C44.9906 93.5625 40.9848 89.5568 40.9848 84.6155V64.5992H58.8789V84.6155C58.8789 86.9884 57.9363 89.2641 56.2584 90.942C54.5805 92.6199 52.3048 93.5625 49.9319 93.5625Z" fill="#FFD6D2"/>
<path d="M21.6539 95.1394C21.6539 95.1394 28.0719 85.1127 40.9844 84.6153C53.897 84.1179 60.0581 81.2427 63.5493 88.0199C67.0406 94.7971 64.4332 170.373 64.4332 170.373L8.77701 167.915C8.77701 167.915 5.19849 120.872 21.6539 95.1394Z" fill="#0D51FF"/>
<path d="M78.7471 101.532C79.1578 101.78 97.5618 112.854 97.5618 112.854C97.5618 112.854 138.989 88.4991 149.942 92.3327C160.895 96.1663 161.056 97.1741 159.314 97.7548C157.572 98.3356 152.539 97.9484 152.539 97.9484C152.539 97.9484 150.797 106.083 142.473 104.339C142.473 104.339 110.005 172.09 58.1494 122.92" fill="#FFD6D2"/>
<path d="M142.473 104.339C142.473 104.339 110.005 172.09 58.1494 122.92" stroke="#0D2460" stroke-width="0.513425"/>
<path d="M41.4378 70.1526C41.2857 70.1526 41.1352 70.1566 40.9844 70.1596V84.6151C40.9847 85.3228 41.0687 86.028 41.2349 86.716C41.3026 86.7166 41.3697 86.7192 41.4378 86.7192C48.8481 86.7192 54.8553 83.0105 54.8553 78.4358C54.8553 73.8611 48.8481 70.1526 41.4378 70.1526Z" fill="#5A3C2A"/>
<path d="M40.9844 81.1256C48.5041 80.0409 54.1135 75.8226 54.1135 70.7804C54.1135 68.4737 52.9361 66.3405 50.9427 64.5991H40.9844L40.9844 81.1256Z" fill="#5A3C2A"/>
<path d="M34.8521 60.2493C35.9673 60.2493 36.8713 61.1533 36.8713 62.2684V63.8706C36.8713 64.7992 36.1185 65.552 35.1899 65.552C33.8882 65.552 32.833 64.4967 32.833 63.1951V62.2684C32.833 61.7329 33.0457 61.2193 33.4244 60.8407C33.8031 60.462 34.3166 60.2493 34.8521 60.2493Z" fill="#F2C0C0"/>
<path d="M33.9246 51.3101C33.9246 51.3101 33.1801 55.4692 33.8989 58.0233C34.3084 59.3753 34.5583 60.7706 34.6433 62.1807L35.7472 62.4257L35.9783 57.5895L36.9794 53.3124" fill="#0D2460"/>
<path d="M37.1098 48.958C35.3586 51.8898 34.6017 55.3089 34.9516 58.7059C35.1063 60.6195 35.1341 62.5413 35.0349 64.4587C34.8186 69.3253 36.8474 73.8718 40.9844 76.0485C42.6486 76.9241 46.2374 77.3935 48.9307 76.5668C53.8179 75.0668 58.7652 71.8298 58.9045 63.8505C58.9399 61.6476 59.249 59.4576 59.8248 57.3309C60.3275 55.4812 60.4721 52.7933 59.0131 49.4716C55.7951 42.1449 43.0939 39.2646 37.1098 48.958Z" fill="#FFD6D2"/>
<path d="M55.6938 60.9113C55.6938 60.9113 55.397 55.777 54.1134 54.7502C52.8299 53.7233 44.8597 52.6451 44.8597 52.6451L46.1465 56.7782C46.1465 56.7782 39.4275 54.7047 39.6098 50.232C39.6098 50.232 38.7508 53.5996 40.137 55.4841C40.137 55.4841 34.2231 56.0508 32.8331 51.0535C31.443 46.0562 36.5013 38.7998 49.6487 40.1689C60.9236 41.343 62.6603 54.5187 59.8183 60.6203C59.3463 61.6337 58.08 61.493 57.4223 62.0921L56.4675 66.0455" fill="#0D2460"/>
<path d="M49.6484 40.1687C60.9233 41.3428 62.66 54.5185 59.818 60.6201" stroke="#0D51FF" stroke-width="0.513425"/>
<path d="M38.857 67.7305C39.6989 66.8413 41.7053 65.3293 44.2675 67.4868C44.2675 67.4868 47.428 64.8822 50.6625 67.5175C53.8971 70.1528 55.4887 70.7756 55.6941 66.6649C55.8381 64.7497 55.8381 62.8263 55.6941 60.9111L56.4922 61.8831C56.4922 61.8831 63.7549 84.2767 44.6296 84.272C30.891 84.2685 35.2598 66.4796 34.6437 62.1808H35.0893C35.0893 62.1808 35.2598 68.2531 36.261 69.2286C37.0953 70.0415 38.0424 68.8222 38.3349 68.3931C38.491 68.1587 38.6656 67.9371 38.857 67.7305Z" fill="#0D2460"/>
<path d="M50.2738 64.4587C50.6192 64.4587 50.8992 64.0903 50.8992 63.6358C50.8992 63.1814 50.6192 62.813 50.2738 62.813C49.9284 62.813 49.6484 63.1814 49.6484 63.6358C49.6484 64.0903 49.9284 64.4587 50.2738 64.4587Z" fill="#0D51FF"/>
<path d="M38.9848 64.4587C39.3301 64.4587 39.6101 64.0903 39.6101 63.6358C39.6101 63.1814 39.3301 62.813 38.9848 62.813C38.6394 62.813 38.3594 63.1814 38.3594 63.6358C38.3594 64.0903 38.6394 64.4587 38.9848 64.4587Z" fill="#0D51FF"/>
<path d="M44.8597 66.6649H44.1413C43.8837 66.6649 43.6748 66.4561 43.6748 66.1984V59.0608" stroke="#0D2460" stroke-width="0.7"/>
<path d="M42.0693 68.511C43.4833 69.9249 45.7757 69.9249 47.1896 68.511" stroke="white" stroke-width="0.513425"/>
<path d="M52.8342 58.1198C51.4202 56.7058 49.1278 56.7058 47.7139 58.1198" stroke="#0D2460" stroke-width="1.02685"/>
<path d="M41.5451 58.1198C40.1312 56.7058 37.8387 56.7058 36.4248 58.1198" stroke="#0D2460" stroke-width="1.02685"/>
<path d="M38.5013 51.7409C38.4766 51.7381 38.451 51.7376 38.4262 51.7351C38.4645 51.7149 38.4915 51.7012 38.4915 51.7012C38.4943 51.7147 38.4984 51.7275 38.5013 51.7409Z" fill="#5A3C2A"/>
<path d="M58.7252 65.4644C57.7966 65.4644 57.0438 64.7116 57.0438 63.783L57.0438 62.1808C57.0438 61.0657 57.9478 60.1617 59.0629 60.1617C60.178 60.1617 61.082 61.0657 61.082 62.1808L61.082 63.1075C61.082 64.4091 60.0268 65.4644 58.7251 65.4644L58.7252 65.4644Z" fill="#FFD6D2"/>
<path d="M82.8633 101.052L61.1722 126.287L44.9723 112.363C38.0038 106.373 37.2105 95.8681 43.2003 88.8997L43.2003 88.8996C46.0767 85.5533 50.1647 83.4866 54.5648 83.1543C58.965 82.822 63.317 84.2513 66.6634 87.1277L82.8633 101.052L82.8633 101.052Z" fill="#0D51FF"/>
<path d="M44.9727 112.842L61.1722 126.767L82.8634 101.531" stroke="white" stroke-width="0.513425"/>
<rect x="109.437" y="148.844" width="120.43" height="74.2708" rx="6.2303" fill="#E8F1F9"/>
<rect x="160.021" y="223.115" width="19.2609" height="9.35063" fill="#D7E8F7"/>
<path d="M109.437 212.424V216.884C109.437 218.537 110.094 220.121 111.262 221.29C112.43 222.458 114.015 223.115 115.667 223.115H223.637C225.289 223.115 226.874 222.458 228.042 221.29C229.211 220.121 229.867 218.537 229.867 216.884V212.424H109.437Z" fill="#D7E8F7"/>
<path d="M115.667 223.115H223.636" stroke="#95B5E8" stroke-width="0.34706"/>
<path d="M154.686 232.465H184.618C187.062 232.465 189.043 234.446 189.043 236.89H150.261C150.261 234.446 152.242 232.465 154.686 232.465V232.465Z" fill="#D7E8F7"/>
<path d="M154.685 232.465H184.618" stroke="#95B5E8" stroke-width="0.34706"/>
<path d="M248.303 236.89H91" stroke="#95B5E8" stroke-width="0.34706"/>
<path d="M215.969 68.9386C229.207 68.9386 239.939 58.2072 239.939 44.9693C239.939 31.7314 229.207 21 215.969 21C202.731 21 192 31.7314 192 44.9693C192 58.2072 202.731 68.9386 215.969 68.9386Z" fill="#E8F1F9"/>
<path d="M239.938 44.9693C239.938 58.2072 229.207 68.9386 215.969 68.9386" stroke="#95B5E8"/>
<path d="M215.969 45.0083C218.911 45.0083 221.295 42.6238 221.295 39.6824C221.295 36.7411 218.911 34.3566 215.969 34.3566C213.028 34.3566 210.643 36.7411 210.643 39.6824C210.643 42.6238 213.028 45.0083 215.969 45.0083Z" fill="#95B5E8"/>
<path d="M215.969 44.8419C210.625 44.8419 206.293 49.1739 206.293 54.5177H225.645C225.645 49.1739 221.313 44.8419 215.969 44.8419V44.8419Z" fill="#95B5E8"/>
<path d="M206.293 54.5177H225.645" stroke="white"/>
<path d="M136.969 68.9386C150.207 68.9386 160.939 58.2072 160.939 44.9693C160.939 31.7314 150.207 21 136.969 21C123.731 21 113 31.7314 113 44.9693C113 58.2072 123.731 68.9386 136.969 68.9386Z" fill="#E8F1F9"/>
<path d="M160.938 44.9693C160.938 58.2072 150.207 68.9386 136.969 68.9386" stroke="#95B5E8"/>
<path d="M136.969 45.0083C139.911 45.0083 142.295 42.6238 142.295 39.6824C142.295 36.7411 139.911 34.3566 136.969 34.3566C134.028 34.3566 131.643 36.7411 131.643 39.6824C131.643 42.6238 134.028 45.0083 136.969 45.0083Z" fill="#95B5E8"/>
<path d="M136.969 44.8419C131.625 44.8419 127.293 49.1739 127.293 54.5177H146.645C146.645 49.1739 142.313 44.8419 136.969 44.8419V44.8419Z" fill="#95B5E8"/>
<path d="M127.293 54.5177H146.645" stroke="white" stroke-width="0.7"/>
<path d="M175.964 55.9283C191.408 55.9283 203.928 43.4083 203.928 27.9642C203.928 12.52 191.408 0 175.964 0C160.52 0 148 12.52 148 27.9642C148 43.4083 160.52 55.9283 175.964 55.9283Z" fill="#E8F1F9"/>
<path d="M203.928 27.9641C203.928 43.4083 191.408 55.9283 175.964 55.9283" stroke="#95B5E8"/>
<path d="M175.964 28.0096C179.396 28.0096 182.178 25.2278 182.178 21.7962C182.178 18.3646 179.396 15.5827 175.964 15.5827C172.532 15.5827 169.751 18.3646 169.751 21.7962C169.751 25.2278 172.532 28.0096 175.964 28.0096Z" fill="#95B5E8"/>
<path d="M175.964 27.8155C169.73 27.8155 164.676 32.8695 164.676 39.1039H187.252C187.252 32.8695 182.198 27.8155 175.964 27.8155V27.8155Z" fill="#95B5E8"/>
<path d="M164.676 39.104H187.252" stroke="white"/>
<path d="M325.407 256.674H120.807L129.239 242.06H333.839L325.407 256.674Z" fill="#95B5E8"/>
<path d="M236.6 256.676H32L40.4319 242.061H245.032L236.6 256.676Z" fill="#D7E8F7"/>
<path d="M315.376 355.246H50.4648" stroke="#95B5E8" stroke-width="0.749465"/>
<path d="M325.407 256.675H120.807" stroke="#95B5E8" stroke-width="0.749465"/>
<path d="M245.032 242.061L236.6 256.676H32" stroke="#95B5E8" stroke-width="0.749465"/>
<path d="M91.4848 256.675L72.9365 355.246" stroke="#95B5E8" stroke-width="0.749465"/>
<path d="M132.428 256.675L113.88 355.246" stroke="#95B5E8" stroke-width="0.749465"/>
<path d="M260.355 256.675L278.904 355.246" stroke="#95B5E8" stroke-width="0.749465"/>
<path d="M219.413 256.675L237.961 355.246" stroke="#95B5E8" stroke-width="0.749465"/>
<path d="M181.145 107C177.924 107 174.835 108.28 172.557 110.558C170.28 112.837 169 115.927 169 119.149H193.291C193.291 115.927 192.011 112.837 189.733 110.558C187.456 108.28 184.366 107 181.145 107V107Z" fill="white"/>
<path d="M158.703 127C159.951 127 161.147 127.496 162.029 128.378C162.911 129.26 163.406 130.457 163.406 131.705H154C154 130.457 154.496 129.26 155.378 128.378C156.26 127.496 157.456 127 158.703 127Z" fill="white"/>
</svg>
