<svg width="24" height="24" viewBox="0 0 24 24" fill="none" xmlns="http://www.w3.org/2000/svg">
<path fill-rule="evenodd" clip-rule="evenodd" d="M12 3C7.02944 3 3 7.02944 3 12C3 16.9706 7.02944 21 12 21C16.9706 21 21 16.9706 21 12C21 7.02944 16.9706 3 12 3ZM1 12C1 5.92487 5.92487 1 12 1C18.0751 1 23 5.92487 23 12C23 18.0751 18.0751 23 12 23C5.92487 23 1 18.0751 1 12ZM12.2581 8.02428C11.7926 7.94443 11.3138 8.03191 10.9066 8.27123C10.4994 8.51054 10.1901 8.88625 10.0333 9.33181C9.85006 9.85279 9.27914 10.1266 8.75815 9.9433C8.23716 9.76002 7.96339 9.18911 8.14666 8.66812C8.46013 7.77701 9.07886 7.02559 9.89327 6.54696C10.7077 6.06833 11.6652 5.89337 12.5962 6.05307C13.5273 6.21277 14.3717 6.69682 14.9801 7.41949C15.5883 8.14201 15.9213 9.05644 15.92 10.0009C15.9195 11.5312 14.7849 12.5419 13.9747 13.082C13.5391 13.3724 13.1105 13.586 12.7949 13.7263C12.6356 13.7971 12.5015 13.8508 12.4049 13.8876C12.3565 13.906 12.3173 13.9203 12.2887 13.9305L12.254 13.9426L12.2429 13.9464L12.239 13.9477L12.2375 13.9482C12.2372 13.9483 12.2362 13.9486 11.92 13L12.2362 13.9486C11.7123 14.1233 11.146 13.8401 10.9713 13.3162C10.7968 12.7926 11.0794 12.2267 11.6027 12.0516L11.6187 12.046C11.6341 12.0406 11.6593 12.0314 11.6929 12.0186C11.7603 11.9929 11.8606 11.9529 11.9826 11.8986C12.2294 11.7889 12.5509 11.6275 12.8653 11.4179C13.5549 10.9582 13.92 10.4691 13.92 9.99996L13.92 9.99847C13.9207 9.52615 13.7542 9.06883 13.45 8.70749C13.1459 8.34615 12.7236 8.10413 12.2581 8.02428ZM12 18C12.5523 18 13 17.5523 13 17C13 16.4477 12.5523 16 12 16C11.4477 16 11 16.4477 11 17C11 17.5523 11.4477 18 12 18Z" fill="#303031"/>
</svg>
