<svg width="55" height="23" viewBox="0 0 55 23" fill="none" xmlns="http://www.w3.org/2000/svg">
    <path d="M24.8732 15.2947C24.9805 16.2544 25.9127 16.8845 27.1867 16.8845C28.4074 16.8845 29.2857 16.2544 29.2857 15.3891C29.2857 14.6379 28.756 14.1881 27.5018 13.8799L26.2476 13.5778C24.4706 13.1486 23.6456 12.3175 23.6456 10.9689C23.6456 9.29923 25.1007 8.15234 27.1662 8.15234C29.2118 8.15234 30.6137 9.29923 30.6609 10.9689H29.1989C29.1114 10.0032 28.313 9.42024 27.1464 9.42024C25.9797 9.42024 25.1814 10.01 25.1814 10.8685C25.1814 11.5527 25.6913 11.9553 26.9386 12.2634L28.0048 12.5252C29.9904 12.9948 30.8146 13.7924 30.8146 15.2079C30.8146 17.0184 29.3732 18.1523 27.0794 18.1523C24.9332 18.1523 23.4842 17.045 23.3906 15.2946L24.8732 15.2947Z" fill="#0D51FF"/>
    <path d="M33.9419 9.2666V10.9363H35.2836V12.0832H33.9419V15.9729C33.9419 16.5771 34.2106 16.8587 34.8004 16.8587C34.9596 16.8559 35.1187 16.8447 35.2768 16.8252V17.9652C35.0116 18.0148 34.7421 18.0372 34.4724 18.0322C33.0439 18.0322 32.4868 17.4957 32.4868 16.1273V12.0832H31.4609V10.9363H32.4868V9.2666H33.9419Z" fill="#0D51FF"/>
    <path d="M36.0586 14.4643C36.0586 12.2443 37.366 10.8494 39.4049 10.8494C41.4505 10.8494 42.7519 12.2443 42.7519 14.4643C42.7519 16.6903 41.4574 18.0792 39.4049 18.0792C37.3531 18.0792 36.0586 16.6903 36.0586 14.4643ZM41.2763 14.4643C41.2763 12.9415 40.5784 12.0427 39.4049 12.0427C38.2313 12.0427 37.5335 12.9483 37.5335 14.4643C37.5335 15.9932 38.2313 16.8852 39.4049 16.8852C40.5784 16.8852 41.2763 15.9932 41.2763 14.4643H41.2763Z" fill="#0D51FF"/>
    <path d="M43.9453 10.9352H45.3266V12.1361H45.3601C45.4536 11.761 45.6733 11.4295 45.9824 11.1974C46.2914 10.9653 46.671 10.8466 47.0572 10.8613C47.2241 10.8608 47.3906 10.8789 47.5534 10.9154V12.27C47.3427 12.2056 47.1229 12.1761 46.9027 12.1825C46.6923 12.174 46.4826 12.2111 46.2879 12.2912C46.0932 12.3714 45.9181 12.4928 45.7747 12.647C45.6314 12.8012 45.5231 12.9846 45.4573 13.1847C45.3915 13.3847 45.3697 13.5966 45.3936 13.8058V17.9907H43.9453L43.9453 10.9352Z" fill="#0D51FF"/>
    <path d="M54.2317 15.9194C54.0369 17.2002 52.7896 18.0792 51.1937 18.0792C49.1412 18.0792 47.8672 16.704 47.8672 14.4978C47.8672 12.2847 49.148 10.8494 51.1328 10.8494C53.0849 10.8494 54.3124 12.1903 54.3124 14.3296V14.8258H49.3291V14.9133C49.3061 15.173 49.3387 15.4345 49.4245 15.6807C49.5104 15.9268 49.6476 16.1519 49.8271 16.3409C50.0067 16.5299 50.2243 16.6786 50.4657 16.777C50.7071 16.8754 50.9667 16.9214 51.2272 16.9118C51.5694 16.9438 51.9129 16.8646 52.2064 16.6858C52.5 16.507 52.728 16.2382 52.8566 15.9194L54.2317 15.9194ZM49.336 13.8136H52.8634C52.8764 13.5801 52.841 13.3465 52.7594 13.1273C52.6778 12.9082 52.5519 12.7083 52.3894 12.5401C52.2269 12.372 52.0313 12.2392 51.8151 12.1502C51.5989 12.0612 51.3666 12.0179 51.1328 12.0229C50.897 12.0215 50.6632 12.0668 50.4449 12.1562C50.2267 12.2456 50.0283 12.3774 49.8613 12.5439C49.6942 12.7104 49.5618 12.9083 49.4716 13.1262C49.3815 13.3441 49.3354 13.5778 49.336 13.8136V13.8136Z" fill="#0D51FF"/>
    <path d="M14.6377 12.0329L14.6376 12.0329L14.6377 12.0433C14.6389 13.1669 14.9708 14.2653 15.592 15.2015C16.0833 15.9418 16.7383 16.5548 17.5026 16.9953C17.1838 17.8474 16.7568 18.656 16.2314 19.4009L16.2261 19.4085L16.2209 19.4163C15.751 20.1191 15.3188 20.7358 14.8376 21.1851C14.3718 21.62 13.9106 21.8502 13.3792 21.8588L13.3741 21.8589C12.8006 21.8722 12.4322 21.7153 11.9021 21.4897L11.9009 21.4892C11.3495 21.2544 10.6767 20.9737 9.6571 20.9737C8.6402 20.9737 7.9623 21.2321 7.39493 21.4691C7.36061 21.4834 7.32699 21.4975 7.29398 21.5114C6.79437 21.7209 6.43458 21.8718 5.90575 21.894C5.45707 21.9101 4.99416 21.6899 4.47467 21.2023C3.95434 20.714 3.47394 20.0493 2.98731 19.3536C2.08486 18.034 1.27027 16.1524 0.924756 14.1933C0.577979 12.2271 0.71837 10.2756 1.60446 8.74141L1.60455 8.74146L1.61037 8.731C2.01165 8.00991 2.59288 7.40506 3.29742 6.97538C4.00067 6.54649 4.80285 6.30674 5.62606 6.27936C6.19814 6.26861 6.78422 6.46279 7.42022 6.71397C7.49536 6.74365 7.57301 6.77485 7.65196 6.80656C7.885 6.90018 8.12934 6.99834 8.35384 7.0754C8.65422 7.1785 9.00507 7.27597 9.35885 7.27597C9.72392 7.27597 10.1049 7.15599 10.4197 7.04239C10.5915 6.98039 10.8046 6.89607 11.0156 6.81258C11.1733 6.75017 11.3299 6.68824 11.4671 6.63645C12.2033 6.35854 12.9222 6.1548 13.6096 6.22695L13.6369 6.22983L13.6644 6.23069C14.3665 6.25265 15.0537 6.43802 15.6716 6.77206C16.0715 6.98822 16.4351 7.26278 16.7512 7.58557C16.2115 8.03684 15.7551 8.58259 15.4056 9.19841L16.0579 9.56862L15.4056 9.19841C14.9147 10.0633 14.6505 11.0384 14.6377 12.0329Z" stroke="#0D51FF" stroke-width="1.5"/>
    <path d="M12.1638 3.30987L12.1637 3.30982L12.1583 3.31659C11.8016 3.76024 11.3489 4.11717 10.8342 4.3605C10.468 4.53365 10.0772 4.64606 9.67717 4.69439C9.69701 4.29393 9.77253 3.89736 9.9022 3.51626C10.0851 2.97868 10.3722 2.48242 10.747 2.05585L10.7471 2.0557C11.398 1.31431 12.2642 0.802532 13.2174 0.586722C13.1739 1.58023 12.8067 2.53811 12.1638 3.30987Z" stroke="#0D51FF"/>
</svg>
