<svg width="56" height="56" viewBox="0 0 56 56" fill="none" xmlns="http://www.w3.org/2000/svg">
<path fill-rule="evenodd" clip-rule="evenodd" d="M40 19C40 17.3442 38.6558 16 37 16H19C17.3442 16 16 17.3442 16 19V37C16 38.6558 17.3442 40 19 40H37C38.6558 40 40 38.6558 40 37V19Z" fill="#AFB0B3"/>
<path fill-rule="evenodd" clip-rule="evenodd" d="M40 19C40 17.3442 38.6558 16 37 16H19C17.3442 16 16 17.3442 16 19V37C16 38.6558 17.3442 40 19 40H37C38.6558 40 40 38.6558 40 37V19Z" fill="#AFB0B3"/>
<path d="M22.8794 24.3906H18.8594V36.4826H22.8794V24.3906Z" fill="white"/>
<path d="M20.899 18.5547C19.5236 18.5547 18.625 19.4589 18.625 20.644C18.625 21.8043 19.4963 22.7335 20.8458 22.7335H20.8718C22.2735 22.7335 23.146 21.8043 23.146 20.644C23.1199 19.4589 22.2736 18.5547 20.899 18.5547Z" fill="white"/>
<path d="M32.7585 24.1094C30.6261 24.1094 29.671 25.282 29.1362 26.1057V24.3937H25.1172C25.1705 25.528 25.1172 36.4856 25.1172 36.4856H29.1361V29.7326C29.1361 29.3712 29.1621 29.0098 29.2686 28.7515C29.5587 28.0296 30.2204 27.2819 31.3308 27.2819C32.7845 27.2819 33.3669 28.3911 33.3669 30.016V36.4856H37.386V29.5514C37.386 25.8372 35.4029 24.1094 32.7585 24.1094Z" fill="white"/>
</svg>
