<svg width="293" height="281" viewBox="0 0 293 281" fill="none" xmlns="http://www.w3.org/2000/svg">
<path opacity="0.303664" d="M115.286 164.665C115.526 164.665 115.743 164.638 115.929 164.579C116.116 164.521 116.274 164.436 116.406 164.327C116.538 164.219 116.643 164.079 116.728 163.916C116.813 163.754 116.875 163.567 116.914 163.366C116.953 163.164 116.972 162.939 116.972 162.687V158.973H116.007V162.68C116.007 163.397 115.751 163.754 115.247 163.754C115.084 163.754 114.917 163.707 114.751 163.61C114.584 163.513 114.444 163.397 114.332 163.257L113.793 163.951C113.968 164.184 114.189 164.358 114.46 164.482C114.731 164.607 115.007 164.665 115.286 164.665ZM120.911 164.676C121.314 164.676 121.69 164.607 122.039 164.467C122.388 164.327 122.69 164.13 122.942 163.881C123.194 163.633 123.392 163.331 123.536 162.97C123.679 162.61 123.753 162.218 123.753 161.792C123.753 161.369 123.679 160.977 123.536 160.617C123.392 160.26 123.194 159.954 122.942 159.706C122.69 159.458 122.388 159.26 122.039 159.12C121.69 158.981 121.314 158.911 120.911 158.911C120.492 158.911 120.108 158.985 119.751 159.132C119.395 159.279 119.092 159.477 118.844 159.733C118.596 159.989 118.406 160.291 118.267 160.648C118.127 161.005 118.057 161.385 118.057 161.792C118.057 162.203 118.127 162.587 118.267 162.943C118.406 163.3 118.596 163.602 118.844 163.858C119.092 164.114 119.395 164.312 119.751 164.459C120.108 164.607 120.492 164.676 120.911 164.676ZM120.911 163.781C120.639 163.781 120.391 163.73 120.159 163.626C119.926 163.525 119.728 163.381 119.569 163.203C119.406 163.025 119.282 162.815 119.189 162.571C119.096 162.327 119.054 162.067 119.054 161.792C119.054 161.52 119.096 161.261 119.189 161.016C119.282 160.776 119.406 160.563 119.569 160.384C119.728 160.206 119.926 160.066 120.159 159.962C120.391 159.861 120.639 159.807 120.911 159.807C121.167 159.807 121.411 159.857 121.64 159.958C121.865 160.059 122.062 160.194 122.225 160.365C122.388 160.539 122.516 160.749 122.613 160.997C122.706 161.245 122.756 161.509 122.756 161.792C122.756 162.079 122.706 162.342 122.613 162.59C122.516 162.839 122.388 163.048 122.225 163.222C122.062 163.397 121.865 163.533 121.64 163.633C121.411 163.734 121.167 163.781 120.911 163.781ZM124.965 164.614H125.927V158.973H124.965V164.614ZM131.114 158.973V163.021H131.094L128.342 158.973H127.392V164.614H128.349V160.625H128.365L131.094 164.614H132.072V158.973H131.114ZM133.505 164.614H137.22V163.754H134.463V162.249H136.557V161.388H134.463V159.834H137.053V158.973H133.505V164.614ZM138.378 164.614H140.196C140.638 164.614 141.046 164.548 141.41 164.409C141.774 164.273 142.081 164.083 142.329 163.835C142.573 163.587 142.763 163.292 142.899 162.943C143.031 162.598 143.1 162.218 143.1 161.803C143.1 161.392 143.031 161.009 142.891 160.66C142.752 160.311 142.558 160.012 142.31 159.764C142.058 159.516 141.747 159.322 141.383 159.182C141.015 159.043 140.611 158.973 140.173 158.973H138.378V164.614ZM139.336 163.754V159.834H140.193C140.561 159.834 140.891 159.919 141.185 160.086C141.48 160.256 141.705 160.489 141.868 160.788C142.03 161.09 142.112 161.427 142.112 161.803C142.112 162.082 142.061 162.338 141.968 162.579C141.875 162.819 141.743 163.029 141.573 163.199C141.402 163.374 141.197 163.509 140.949 163.606C140.701 163.707 140.429 163.754 140.138 163.754H139.336ZM147.496 164.665C147.736 164.665 147.953 164.638 148.139 164.579C148.325 164.521 148.484 164.436 148.616 164.327C148.748 164.219 148.853 164.079 148.938 163.916C149.023 163.754 149.085 163.567 149.124 163.366C149.163 163.164 149.182 162.939 149.182 162.687V158.973H148.217V162.68C148.217 163.397 147.961 163.754 147.457 163.754C147.294 163.754 147.127 163.707 146.961 163.61C146.794 163.513 146.654 163.397 146.542 163.257L146.003 163.951C146.177 164.184 146.398 164.358 146.67 164.482C146.941 164.607 147.216 164.665 147.496 164.665ZM153.997 164.614H155.001L152.884 158.973H151.95L149.844 164.614H150.845L151.267 163.401H153.57L153.997 164.614ZM151.558 162.571L152.415 160.128H152.423L153.28 162.571H151.558ZM159.645 158.973V163.021H159.626L156.873 158.973H155.923V164.614H156.881V160.625H156.896L159.626 164.614H160.603V158.973H159.645ZM165.087 164.614H166.01V159.163H165.262L163.66 160.318L164.102 161.001L165.087 160.264V164.614ZM168.308 164.614H169.231V159.163H168.483L166.881 160.318L167.323 161.001L168.308 160.264V164.614ZM173.851 163.773V163.757L175.01 162.552C175.181 162.373 175.324 162.207 175.441 162.048C175.557 161.892 175.65 161.737 175.72 161.586C175.79 161.439 175.836 161.292 175.867 161.152C175.898 161.012 175.914 160.865 175.914 160.71C175.914 160.47 175.867 160.245 175.774 160.039C175.681 159.834 175.553 159.663 175.398 159.527C175.239 159.396 175.057 159.291 174.855 159.217C174.65 159.144 174.436 159.105 174.212 159.105C173.789 159.105 173.432 159.198 173.138 159.384C172.843 159.57 172.61 159.822 172.444 160.136L173.107 160.605C173.355 160.175 173.7 159.958 174.146 159.958C174.305 159.958 174.448 159.997 174.576 160.07C174.704 160.148 174.805 160.249 174.875 160.377C174.944 160.508 174.983 160.652 174.983 160.807C174.983 161.024 174.917 161.233 174.789 161.439C174.657 161.648 174.464 161.885 174.208 162.156L172.455 164.002L172.467 164.614H175.976V163.773H173.851ZM178.921 164.676C179.352 164.676 179.728 164.56 180.046 164.323C180.364 164.091 180.608 163.761 180.771 163.343C180.934 162.924 181.019 162.439 181.019 161.889C181.019 161.454 180.965 161.059 180.864 160.706C180.759 160.357 180.616 160.062 180.43 159.83C180.244 159.597 180.023 159.415 179.767 159.291C179.511 159.167 179.228 159.101 178.921 159.101C178.491 159.101 178.119 159.221 177.801 159.454C177.483 159.69 177.239 160.02 177.076 160.439C176.909 160.857 176.828 161.342 176.828 161.889C176.828 162.323 176.878 162.718 176.983 163.071C177.084 163.424 177.227 163.719 177.413 163.951C177.599 164.184 177.82 164.366 178.076 164.49C178.332 164.614 178.611 164.676 178.921 164.676ZM178.925 163.823C178.569 163.823 178.286 163.653 178.076 163.308C177.867 162.963 177.762 162.49 177.762 161.889C177.762 161.284 177.863 160.807 178.072 160.466C178.278 160.125 178.561 159.954 178.925 159.954C179.282 159.954 179.561 160.125 179.771 160.466C179.98 160.807 180.085 161.284 180.085 161.889C180.085 162.497 179.98 162.97 179.778 163.312C179.573 163.653 179.29 163.823 178.925 163.823ZM182.976 164.614H183.899V159.163H183.151L181.549 160.318L181.991 161.001L182.976 160.264V164.614ZM186.922 159.101C186.558 159.101 186.232 159.178 185.938 159.33C185.643 159.481 185.41 159.694 185.24 159.966C185.069 160.241 184.984 160.551 184.984 160.892C184.984 161.164 185.026 161.412 185.112 161.633C185.197 161.854 185.317 162.036 185.472 162.183C185.624 162.331 185.802 162.447 186.007 162.524C186.213 162.606 186.434 162.645 186.674 162.645C187.085 162.645 187.454 162.548 187.775 162.354L187.783 162.362C187.698 162.587 187.589 162.788 187.454 162.966C187.318 163.145 187.159 163.304 186.981 163.436C186.802 163.571 186.608 163.688 186.399 163.785C186.19 163.881 185.957 163.963 185.705 164.033L185.996 164.804C186.399 164.731 186.775 164.591 187.124 164.386C187.473 164.184 187.779 163.932 188.039 163.629C188.295 163.327 188.5 162.974 188.648 162.563C188.795 162.152 188.873 161.718 188.873 161.257C188.873 161.005 188.838 160.764 188.776 160.539C188.71 160.314 188.617 160.113 188.5 159.938C188.38 159.768 188.241 159.617 188.082 159.489C187.919 159.365 187.74 159.268 187.543 159.202C187.345 159.136 187.139 159.101 186.922 159.101ZM185.91 160.9C185.91 160.64 186.003 160.419 186.197 160.233C186.387 160.047 186.635 159.954 186.938 159.954C187.24 159.954 187.492 160.07 187.686 160.295C187.88 160.524 187.977 160.822 187.977 161.187V161.261C187.845 161.419 187.686 161.551 187.5 161.652C187.314 161.757 187.112 161.807 186.903 161.807C186.601 161.807 186.356 161.726 186.178 161.555C186 161.388 185.91 161.171 185.91 160.9Z" fill="white"/>
<ellipse cx="146.5" cy="140.5" rx="140.148" ry="140.5" fill="#F4F7FF"/>
<path d="M130.812 110.461L86.5786 128.072L130.812 145.684L175.045 128.072L130.812 110.461Z" fill="#E8F1F9"/>
<path d="M86.5786 128.073L130.812 145.684L175.045 128.073" stroke="#95B5E8" stroke-width="0.249821"/>
<path d="M130.812 92.8496L86.5786 110.461L130.812 128.072L175.045 110.461L130.812 92.8496Z" fill="#D7E8F7"/>
<path d="M86.5786 110.461L130.812 128.072L175.045 110.461" stroke="#95B5E8" stroke-width="0.249821"/>
<path d="M130.811 75.2378L86.5784 92.8493L130.811 110.461L175.045 92.8493L130.811 75.2378Z" fill="#0D51FF"/>
<path d="M86.5786 92.8496L130.812 110.461L175.045 92.8496" stroke="#95B5E8" stroke-width="0.249821"/>
<path d="M227.539 265.005H204.11L207.41 259.744" fill="#95B5E8"/>
<path d="M208.161 101.475C208.161 101.475 179.028 124.326 180.991 127.173C182.955 130.02 187.537 124.771 187.537 124.771C187.537 124.771 203.204 132.544 223.818 118.537" fill="#FFD6D2"/>
<path d="M234.996 55.8258C234.996 55.8258 286.271 104.099 232.378 114.817C178.485 125.536 223.153 87.0377 223.153 87.0377V52.6958" fill="#FFD6D2"/>
<path d="M212.949 49.7226C218.126 44.5322 226.521 44.5322 231.698 49.7226L243.734 61.7889L224.985 80.585L212.949 68.5187C207.772 63.3283 207.772 54.913 212.949 49.7226Z" fill="#0D2460"/>
<path d="M217.271 55.7646C213.334 55.7646 210.142 52.5648 210.142 48.6176V32.6282H224.401V48.6176C224.401 52.5648 221.209 55.7646 217.271 55.7646Z" fill="#FFD6D2"/>
<path d="M210.143 45.8296C216.135 44.9632 220.604 41.5935 220.604 37.5657C220.604 35.723 219.666 34.019 218.078 32.6279H210.143V45.8296Z" fill="#5A3C2A"/>
<path d="M205.256 29.1533C206.144 29.1533 206.864 29.8754 206.864 30.7662V32.0461C206.864 32.7879 206.265 33.3892 205.525 33.3892C204.488 33.3892 203.647 32.5463 203.647 31.5065V30.7662C203.647 29.8754 204.367 29.1533 205.256 29.1533Z" fill="#F2C0C0"/>
<path d="M203.646 22.6879C203.646 22.6879 202.573 28.7815 205.682 31.4365C208.791 34.0916 207.011 22.3252 207.011 22.3252" fill="#0D2460"/>
<path d="M207.054 20.1337C205.659 22.4757 205.055 25.2069 205.334 27.9205C205.458 29.4492 205.48 30.9844 205.401 32.516C205.228 36.4036 206.845 40.0353 210.141 41.7741C211.467 42.4736 214.327 42.8485 216.473 42.1882C220.367 40.9899 224.309 38.4042 224.42 32.0302C224.449 30.2704 224.695 28.521 225.154 26.8222C225.554 25.3446 225.67 23.1975 224.507 20.544C221.943 14.6912 211.822 12.3904 207.054 20.1337Z" fill="#FFD6D2"/>
<path d="M219.584 24.1235C219.584 24.1235 201.939 29.7013 202.512 19.53C202.512 19.53 203.886 18.7097 207.617 15.5927C211.349 12.4757 221.967 10.9172 224.758 19.612C224.758 19.612 228.448 22.3461 224.758 30.6965L222.479 31.9763C222.479 31.9763 223.485 23.1736 219.584 24.1235Z" fill="#0D2460"/>
<path d="M219.584 24.1238C219.584 24.1238 201.939 29.7016 202.512 19.5303" stroke="white" stroke-width="0.327286"/>
<path d="M217.543 32.5163C217.819 32.5163 218.042 32.222 218.042 31.859C218.042 31.496 217.819 31.2017 217.543 31.2017C217.268 31.2017 217.045 31.496 217.045 31.859C217.045 32.222 217.268 32.5163 217.543 32.5163Z" fill="#0D51FF"/>
<path d="M208.547 32.5163C208.823 32.5163 209.046 32.222 209.046 31.859C209.046 31.496 208.823 31.2017 208.547 31.2017C208.272 31.2017 208.049 31.496 208.049 31.859C208.049 32.222 208.272 32.5163 208.547 32.5163Z" fill="#0D51FF"/>
<path d="M213.232 34.2784H212.659C212.454 34.2784 212.287 34.1116 212.287 33.9058V28.2041" stroke="#0D2460" stroke-width="0.555828"/>
<path d="M211.008 35.7529C212.135 36.8824 213.961 36.8824 215.088 35.7529" stroke="#0D2460" stroke-width="0.555828"/>
<path d="M219.584 27.4521C218.457 26.3226 216.631 26.3226 215.504 27.4521" stroke="#0D2460" stroke-width="0.654571"/>
<path d="M210.588 27.4521C209.461 26.3226 207.635 26.3226 206.508 27.4521" stroke="#0D2460" stroke-width="0.654571"/>
<path d="M208.164 22.3562C208.145 22.354 208.124 22.3536 208.105 22.3516C208.135 22.3355 208.157 22.3246 208.157 22.3246C208.159 22.3353 208.162 22.3455 208.164 22.3562Z" fill="#5A3C2A"/>
<path d="M223.82 33.3193C223.08 33.3193 222.48 32.718 222.48 31.9762V30.6964C222.48 29.8056 223.2 29.0835 224.089 29.0835C224.977 29.0835 225.698 29.8056 225.698 30.6964V31.4366C225.698 32.4764 224.857 33.3193 223.82 33.3193Z" fill="#FFD6D2"/>
<path d="M223.819 33.3197C224.856 33.3197 225.697 32.4768 225.697 31.437" stroke="#0D2460" stroke-width="0.327286"/>
<path d="M206.307 108.912L244.433 104.529C254.414 143.472 226.967 180.693 226.967 180.693L227.54 265.004H204.11L207.41 259.744C181.346 169.631 206.307 108.912 206.307 108.912Z" fill="#0D2460"/>
<path d="M226.965 180.693C226.965 180.693 236.971 167.119 242.703 147.791C240.59 147.104 238.382 146.754 236.16 146.752C220.13 146.752 207.135 164.968 207.135 187.439C207.135 205.564 215.591 220.918 227.274 226.18L226.965 180.693Z" fill="#0D51FF"/>
<path d="M228.941 46.681L227.959 42.5322L206.509 45.3771L208.152 49.6743C193.346 56.182 206.307 108.912 206.307 108.912L244.433 104.529C239.033 74.7728 228.941 46.681 228.941 46.681Z" fill="#0D51FF"/>
<path d="M224.401 74.5185C224.401 70.0304 222.019 65.9108 218.046 62.6831C211.216 57.134 201.007 62.0428 201.059 70.8559C201.102 78.072 202.041 85.9677 203.114 92.6876C215.353 90.6145 224.401 83.2661 224.401 74.5185Z" fill="#0D2460"/>
<path d="M209.047 55.7646L185.139 67.1328C185.139 67.1328 158.849 25.5725 156.667 22.5898C154.485 19.607 155.903 28.2041 155.903 28.2041C155.903 28.2041 155.794 27.0235 154.048 29.1536C152.303 31.2837 155.958 38.4781 155.958 38.4781C155.958 38.4781 152.225 67.4172 173.465 84.4131C191.303 98.6858 215.086 79.4915 215.086 79.4915L209.047 55.7646Z" fill="#FFD6D2"/>
<path d="M230.895 56.0327L230.895 56.0327C234.556 62.3896 232.383 70.5182 226.042 74.1883L211.301 82.7205L198.043 59.7001L212.784 51.1679C219.125 47.4977 227.234 49.6758 230.895 56.0327Z" fill="#0D51FF"/>
<path d="M226.04 74.1884L211.299 82.7205L198.041 59.7002" stroke="#0D2460" stroke-width="0.327286"/>
<path d="M283.105 166.44L246.617 180.548C246.617 180.548 250.583 119.512 244.431 104.529L210.141 137.894C210.141 137.894 197.356 183.501 224.521 207.781C251.685 232.061 287.772 178.773 287.772 178.773L292.981 179.869L283.105 166.44Z" fill="#0D2460"/>
<path d="M287.773 178.774L292.982 179.87L283.106 166.44" fill="#0D51FF"/>
<path d="M210.141 137.895C210.141 137.895 197.356 183.501 224.521 207.781C251.685 232.061 287.772 178.774 287.772 178.774" stroke="#0D51FF" stroke-width="0.327286"/>
<path d="M75.7212 170.163H172.56V165.663H74.1995L75.7212 170.163Z" fill="#E8F1F9"/>
<path d="M172.56 165.662H74.1995" stroke="#95B5E8" stroke-width="0.272593"/>
<path d="M75.7197 170.162H138.143L122.606 127.804H60.1819L75.7197 170.162Z" fill="#D7E8F7"/>
<path d="M95.8306 151.516H98.5998C98.9204 151.516 99.2207 151.359 99.4042 151.095C99.5876 150.831 99.631 150.495 99.5204 150.193L99.0322 148.862C98.8903 148.475 98.5228 148.218 98.1117 148.218H95.3424C95.0218 148.218 94.7215 148.375 94.538 148.639C94.3546 148.902 94.3112 149.239 94.4219 149.541L94.91 150.872C95.0519 151.259 95.4194 151.516 95.8306 151.516Z" fill="white"/>
<path d="M60.1819 127.805L75.7197 170.163" stroke="#95B5E8" stroke-width="0.272593"/>
<path d="M178.145 170.162H54.594" stroke="#95B5E8" stroke-width="0.272593"/>
<path d="M232.976 186.012H70.5159L77.2111 174.378H239.672L232.976 186.012Z" fill="#95B5E8"/>
<path d="M162.461 186.014H0L6.69524 174.38H169.156L162.461 186.014Z" fill="#D7E8F7"/>
<path d="M225.012 264.479H14.6621" stroke="#95B5E8" stroke-width="0.595106"/>
<path d="M232.976 186.012H70.5159" stroke="#95B5E8" stroke-width="0.595106"/>
<path d="M169.156 174.38L162.461 186.014H0" stroke="#95B5E8" stroke-width="0.595106"/>
<path d="M47.232 186.012L32.5039 264.478" stroke="#95B5E8" stroke-width="0.595106"/>
<path d="M79.7421 186.012L65.0139 264.478" stroke="#95B5E8" stroke-width="0.595106"/>
<path d="M181.325 186.012L196.053 264.478" stroke="#95B5E8" stroke-width="0.595106"/>
<path d="M148.815 186.012L163.543 264.478" stroke="#95B5E8" stroke-width="0.595106"/>
<rect x="38.5293" y="25.0933" width="43.8686" height="59.3219" fill="#D7E8F7"/>
<rect x="38.5293" y="25.0933" width="43.8686" height="59.3219" fill="#E8F1F9"/>
<path d="M82.3979 64.2393C76.7618 54.7758 70.2662 60.6497 66.7746 62.9833C62.942 65.5448 62.5161 56.5796 56.3414 51.4566C50.4515 46.5699 39.5249 61.493 38.5293 62.8803V84.4155H82.3979V64.2393Z" fill="#95B5E8"/>
<path d="M40.5429 77.1233C40.5429 77.1233 40.0555 66.5695 42.1025 66.6672C44.1495 66.7649 46.099 72.335 45.1243 74.9734C45.1243 74.9734 47.2687 68.2307 48.8284 69.5988C50.388 70.9669 47.5612 77.1233 47.5612 77.1233C47.5612 77.1233 49.7057 73.8985 51.3627 74.6803C53.0198 75.462 50.7779 77.7248 50.7779 77.7248C50.7779 77.7248 54.5795 75.0712 56.1391 76.8301C57.6987 78.5891 56.8214 79.2732 56.8214 79.2732L60.4626 81.6898L43.4672 81.0321" fill="white"/>
<path fill-rule="evenodd" clip-rule="evenodd" d="M85.8082 70.1805C84.836 71.2996 84.1974 73.1849 84.1974 75.3225C84.1974 78.1133 85.2856 80.4746 86.7841 81.2612V88.813H82.5448C81.8633 87.3414 79.9162 86.2787 77.6191 86.2787C75.8361 86.2787 74.2636 86.9189 73.3302 87.8936C72.3968 86.9189 70.8243 86.2787 69.0412 86.2787C67.2582 86.2787 65.6857 86.9189 64.7523 87.8936C63.8189 86.9189 62.2464 86.2787 60.4633 86.2787C58.6803 86.2787 57.1078 86.9189 56.1744 87.8936C55.241 86.9189 53.6685 86.2787 51.8854 86.2787C50.1024 86.2787 48.5299 86.9189 47.5965 87.8936C46.6631 86.9189 45.0906 86.2787 43.3076 86.2787C41.0104 86.2787 39.0634 87.3414 38.3819 88.813H34.1426V81.2612C35.6411 80.4746 36.7293 78.1133 36.7293 75.3225C36.7293 73.1849 36.0907 71.2996 35.1185 70.1805C36.0907 69.0615 36.7293 67.1762 36.7293 65.0385C36.7293 62.9009 36.0907 61.0157 35.1185 59.8966C36.0907 58.7775 36.7293 56.8922 36.7293 54.7547C36.7293 52.617 36.0907 50.7318 35.1185 49.6127C36.0907 48.4936 36.7293 46.6084 36.7293 44.4707C36.7293 42.3331 36.0907 40.4478 35.1185 39.3288C36.0907 38.2097 36.7293 36.3244 36.7293 34.1868C36.7293 31.396 35.6411 29.0347 34.1426 28.2481V20.6963H38.3819C39.0634 22.1679 41.0104 23.2306 43.3076 23.2306C45.0906 23.2306 46.6631 22.5904 47.5965 21.6157C48.5299 22.5904 50.1024 23.2306 51.8854 23.2306C53.6684 23.2306 55.241 22.5904 56.1744 21.6157C57.1078 22.5904 58.6803 23.2306 60.4633 23.2306C62.2464 23.2306 63.8189 22.5904 64.7523 21.6157C65.6857 22.5904 67.2582 23.2306 69.0412 23.2306C70.8243 23.2306 72.3968 22.5904 73.3302 21.6157C74.2636 22.5904 75.8361 23.2306 77.6191 23.2306C79.9162 23.2306 81.8633 22.1679 82.5448 20.6963H86.7841V28.2481C85.2856 29.0347 84.1974 31.396 84.1974 34.1868C84.1974 36.3244 84.836 38.2097 85.8082 39.3288C84.836 40.4478 84.1974 42.3331 84.1974 44.4707C84.1974 46.6084 84.836 48.4936 85.8082 49.6127C84.836 50.7318 84.1974 52.617 84.1974 54.7547C84.1974 56.8923 84.836 58.7775 85.8082 59.8966C84.836 61.0157 84.1974 62.9009 84.1974 65.0385C84.1974 67.1762 84.836 69.0615 85.8082 70.1805ZM42.9142 80.0181H78.01V29.4911H42.9142V80.0181Z" fill="#D7E8F7"/>
<path d="M68.5675 55.234C70.6402 55.234 72.3204 53.5496 72.3204 51.4717C72.3204 49.3939 70.6402 47.7095 68.5675 47.7095C66.4949 47.7095 64.8147 49.3939 64.8147 51.4717C64.8147 53.5496 66.4949 55.234 68.5675 55.234Z" fill="white"/>
<path d="M56.4467 36.7725C53.4387 36.7725 51.0002 39.2171 51.0002 42.2326H61.8932C61.8932 39.2171 59.4547 36.7725 56.4467 36.7725Z" fill="white"/>
<path d="M50.6161 39.5024C49.1121 39.5024 47.8928 40.7247 47.8928 42.2325H53.3393C53.3393 41.5085 53.0524 40.814 52.5417 40.3021C52.031 39.7901 51.3383 39.5024 50.6161 39.5024Z" fill="white"/>
<path d="M65.9224 40.8672C65.1704 40.8672 64.5608 41.4783 64.5608 42.2322H67.284C67.284 41.4783 66.6744 40.8672 65.9224 40.8672Z" fill="white"/>
<path d="M62.6134 38.7783C61.6997 38.7783 60.8234 39.1422 60.1773 39.7899C59.5312 40.4376 59.1682 41.3161 59.1682 42.2321H66.0586C66.0586 41.3161 65.6956 40.4376 65.0495 39.7899C64.4034 39.1422 63.5271 38.7783 62.6134 38.7783V38.7783Z" fill="white"/>
<path d="M46.9788 42.2323H68.0343" stroke="#95B5E8" stroke-width="0.292428"/>
<path d="M42.9141 29.4906H78.0099" stroke="#95B5E8" stroke-width="0.292428"/>
<path d="M125.574 35.8208C123.016 35.8208 120.563 36.8397 118.754 38.6534C116.946 40.467 115.93 42.9269 115.93 45.4918H135.217C135.217 42.9269 134.201 40.467 132.393 38.6534C130.584 36.8397 128.131 35.8208 125.574 35.8208V35.8208Z" fill="white"/>
<path d="M106.961 52.5376C107.952 52.5376 108.901 52.9322 109.602 53.6345C110.302 54.3368 110.696 55.2894 110.696 56.2826H103.227C103.227 55.2894 103.62 54.3368 104.32 53.6345C105.021 52.9322 105.971 52.5376 106.961 52.5376Z" fill="white"/>
<path d="M37.8736 154.385C37.8736 154.385 41.3184 142.884 37.8736 137.427C34.4287 131.97 29.3874 138.518 30.3589 141.541C31.3303 144.563 36.3548 151.111 36.3548 151.111" fill="#E8F1F9"/>
<path d="M37.8736 137.427C34.4287 131.97 29.3874 138.518 30.3589 141.541C31.3303 144.563 36.3548 151.111 36.3548 151.111" stroke="#95B5E8" stroke-width="0.502444"/>
<path d="M37.8752 157.911C37.8752 157.911 35.8539 141.205 42.8882 138.435C49.9224 135.664 47.2427 144.899 44.3117 149.012C42.566 151.445 41.2098 154.136 40.2922 156.988" fill="#E8F1F9"/>
<path d="M37.8752 157.911C37.8752 157.911 35.8539 141.205 42.8882 138.435" stroke="#95B5E8" stroke-width="0.502444"/>
<path d="M37.4454 156.987C37.4454 156.987 39.9576 148.257 32.8397 144.227C25.7217 140.197 21.1138 146.494 23.7527 147.837C26.3917 149.18 36.943 151.699 35.9381 156.987" fill="#E8F1F9"/>
<path d="M23.7524 147.837C26.3914 149.18 36.9427 151.699 35.9378 156.988" stroke="#95B5E8" stroke-width="0.502444"/>
<path d="M39.8408 159.17C39.8408 159.17 37.3286 150.439 44.4465 146.41C51.5645 142.38 56.1725 148.676 53.5335 150.019C50.8946 151.363 40.3432 153.881 41.3481 159.17" fill="#E8F1F9"/>
<path d="M39.8408 159.171C39.8408 159.171 37.3286 150.44 44.4465 146.41" stroke="#95B5E8" stroke-width="0.502444"/>
<path d="M29.8567 170.262H47.9594C51.9566 167.053 54.5676 161.779 54.5676 155.812H23.2485C23.2485 161.779 25.8595 167.053 29.8567 170.262Z" fill="#D7E8F7"/>
<path d="M47.0745 167.733C46.3209 166.306 47.263 163.913 44.646 164.627C41.627 165.45 39.5379 168.321 38.3655 163.833C37.1932 159.346 32.6712 158.582 30.1589 162.192C29.0763 163.724 27.4663 164.8 25.6392 165.213C26.7062 167.154 28.1388 168.869 29.8574 170.262H47.9601C49.0503 169.383 50.0258 168.369 50.8635 167.245L50.8634 167.245C50.3771 167.926 47.8282 169.16 47.0745 167.733Z" fill="#E8F1F9"/>
<path d="M16.6763 170.262H53.2021" stroke="#95B5E8" stroke-width="0.221775"/>
<path d="M23.2485 155.812C23.2485 161.779 25.8595 167.053 29.8567 170.262" stroke="#95B5E8" stroke-width="0.502444"/>
<path d="M47.9595 170.262C51.9567 167.053 54.5677 161.779 54.5677 155.812" stroke="#95B5E8" stroke-width="0.502444"/>
</svg>
