<svg width="40" height="40" viewBox="0 0 40 40" fill="none" xmlns="http://www.w3.org/2000/svg">
  <path opacity="0.4" d="M39.25 20C39.25 30.6315 30.6315 39.25 20 39.25C9.36852 39.25 0.75 30.6315 0.75 20C0.75 9.36852 9.36852 0.75 20 0.75C30.6315 0.75 39.25 9.36852 39.25 20Z" stroke="#EFEFEF" stroke-width="1.5"/>
  <path d="M19.0859 28.6777C19.6037 28.6777 20.0234 28.258 20.0234 27.7402C20.0234 27.2225 19.6037 26.8027 19.0859 26.8027H17.2109C16.6932 26.8027 16.2734 27.2225 16.2734 27.7402C16.2734 28.258 16.6932 28.6777 17.2109 28.6777H19.0859Z" fill="white"/>
  <path d="M19.247 15.2996C19.9357 15.2996 20.494 14.7413 20.494 14.0527C20.494 13.364 19.9357 12.8057 19.247 12.8057C18.5583 12.8057 18 13.364 18 14.0527C18 14.7413 18.5583 15.2996 19.247 15.2996Z" fill="#17C3C1"/>
  <path d="M22.4999 15.2996C23.1886 15.2996 23.7469 14.7413 23.7469 14.0527C23.7469 13.364 23.1886 12.8057 22.4999 12.8057C21.8112 12.8057 21.2529 13.364 21.2529 14.0527C21.2529 14.7413 21.8112 15.2996 22.4999 15.2996Z" fill="#17C3C1"/>
  <path d="M25.7528 15.2996C26.4415 15.2996 26.9998 14.7413 26.9998 14.0527C26.9998 13.364 26.4415 12.8057 25.7528 12.8057C25.0642 12.8057 24.5059 13.364 24.5059 14.0527C24.5059 14.7413 25.0642 15.2996 25.7528 15.2996Z" fill="#17C3C1"/>
  <path d="M25.5078 22.8651C24.99 22.8651 24.5703 23.2848 24.5703 23.8026V28.25C24.5703 29.2839 23.7292 30.125 22.6953 30.125H13.6016C12.5677 30.125 11.7266 29.2839 11.7266 28.25V11.75C11.7266 10.7161 12.5677 9.875 13.6016 9.875H14.2109C14.7287 9.875 15.1484 9.45528 15.1484 8.9375C15.1484 8.41972 14.7287 8 14.2109 8H13.6016C11.5338 8 9.85156 9.68225 9.85156 11.75V28.25C9.85156 30.3177 11.5338 32 13.6016 32H22.6953C24.7631 32 26.4453 30.3177 26.4453 28.25V23.8026C26.4453 23.2848 26.0256 22.8651 25.5078 22.8651Z" fill="white"/>
  <path d="M23.5391 8.00586H21.6641C18.0197 8.00586 15.0547 10.7552 15.0547 14.1345C15.0547 15.3375 15.4208 16.4807 16.1188 17.4725L15.1231 19.9357C14.98 20.2895 15.0657 20.6946 15.3397 20.9602C15.5183 21.1333 15.7535 21.2247 15.9925 21.2247C16.1201 21.2246 16.2488 21.1986 16.3704 21.145L19.2917 19.8572C20.0093 20.1162 20.7508 20.2558 21.5028 20.2733C21.5552 20.2824 21.6091 20.2871 21.6641 20.2871H23.5391C27.1835 20.2871 30.1485 17.5324 30.1485 14.1465V14.1345C30.1485 10.7552 27.1835 8.00586 23.5391 8.00586ZM28.2735 14.1465C28.2735 16.4986 26.1496 18.4121 23.5391 18.4121H21.8142C21.7653 18.4042 21.7152 18.4002 21.6641 18.4002C20.9741 18.4002 20.2927 18.2586 19.6386 17.9796C19.4 17.8778 19.13 17.8794 18.8926 17.984L17.7267 18.498L18.0588 17.6763C18.1898 17.3525 18.1298 16.9827 17.9032 16.7168C17.2663 15.9696 16.9297 15.0767 16.9297 14.1345C16.9297 11.789 19.0536 9.88086 21.6641 9.88086H23.5391C26.1496 9.88086 28.2735 11.789 28.2735 14.1345V14.1465Z" fill="white"/>
</svg>
