<svg width="32" height="32" viewBox="0 0 32 32" fill="none" xmlns="http://www.w3.org/2000/svg">
<path fill-rule="evenodd" clip-rule="evenodd" d="M30.6665 5.33398C31.4029 5.33398 31.9998 5.93094 31.9998 6.66732V21.334C31.9998 23.5431 30.209 25.334 27.9998 25.334H26.6665V29.334C26.6665 29.8257 26.3959 30.2775 25.9623 30.5096C25.5288 30.7416 25.0027 30.7161 24.5936 30.4434L16.9295 25.334H15.9998C15.2635 25.334 14.6665 24.737 14.6665 24.0007C14.6665 23.2643 15.2635 22.6673 15.9998 22.6673H17.3332C17.5964 22.6673 17.8537 22.7452 18.0728 22.8913L23.9998 26.8426V24.0007C23.9998 23.2643 24.5968 22.6673 25.3332 22.6673H27.9998C28.7362 22.6673 29.3332 22.0704 29.3332 21.334V6.66732C29.3332 5.93094 29.9301 5.33398 30.6665 5.33398Z" fill="#0D51FF"/>
<path fill-rule="evenodd" clip-rule="evenodd" d="M0 5.33398C0 3.12485 1.79086 1.33398 4 1.33398H22.6667C24.8758 1.33398 26.6667 3.12485 26.6667 5.33398V16.0007C26.6667 18.2098 24.8758 20.0007 22.6667 20.0007H16.4273L7.44165 26.419C7.03523 26.7093 6.50065 26.7481 6.05656 26.5195C5.61246 26.291 5.33333 25.8334 5.33333 25.334V20.0007H4C1.79086 20.0007 0 18.2098 0 16.0007V5.33398ZM4 4.00065C3.26362 4.00065 2.66667 4.5976 2.66667 5.33398V16.0007C2.66667 16.737 3.26362 17.334 4 17.334H6.66667C7.40305 17.334 8 17.9309 8 18.6673V22.7431L15.225 17.5823C15.4511 17.4208 15.7221 17.334 16 17.334H22.6667C23.403 17.334 24 16.737 24 16.0007V5.33398C24 4.5976 23.403 4.00065 22.6667 4.00065H4Z" fill="#0D51FF"/>
</svg>
