<svg width="32" height="32" viewBox="0 0 32 32" fill="none" xmlns="http://www.w3.org/2000/svg">
    <g filter="url(#mutualContactIconDefs)">
        <path fill-rule="evenodd" clip-rule="evenodd" d="M16 26C22.6274 26 28 20.6274 28 14C28 7.37258 22.6274 2 16 2C9.37258 2 4 7.37258 4 14C4 20.6274 9.37258 26 16 26Z" fill="white"/>
    </g>
    <path fill-rule="evenodd" clip-rule="evenodd" d="M13 11.5C13 10.6716 13.6716 10 14.5 10C15.3284 10 16 10.6716 16 11.5C16 12.3284 15.3284 13 14.5 13C13.6716 13 13 12.3284 13 11.5ZM14.5 9C13.1193 9 12 10.1193 12 11.5C12 12.8807 13.1193 14 14.5 14C15.8807 14 17 12.8807 17 11.5C17 10.1193 15.8807 9 14.5 9ZM12.5 15C11.837 15 11.2011 15.2634 10.7322 15.7322C10.2634 16.2011 10 16.837 10 17.5V18.5C10 18.7761 10.2239 19 10.5 19C10.7761 19 11 18.7761 11 18.5V17.5C11 17.1022 11.158 16.7206 11.4393 16.4393C11.7206 16.158 12.1022 16 12.5 16H16.5C16.8978 16 17.2794 16.158 17.5607 16.4393C17.842 16.7206 18 17.1022 18 17.5V18.5C18 18.7761 18.2239 19 18.5 19C18.7761 19 19 18.7761 19 18.5V17.5C19 16.837 18.7366 16.2011 18.2678 15.7322C17.7989 15.2634 17.163 15 16.5 15H12.5ZM19.516 15.44C19.585 15.1726 19.8577 15.0118 20.1251 15.0809C20.6615 15.2194 21.1366 15.532 21.476 15.9698C21.8153 16.4076 21.9997 16.9457 22.0001 17.4996V18.5C22.0001 18.7761 21.7763 19 21.5001 19C21.224 19 21.0001 18.7761 21.0001 18.5L21.0001 17.5004C20.9998 17.1681 20.8892 16.8451 20.6856 16.5825C20.482 16.3198 20.1969 16.1322 19.8751 16.0491C19.6077 15.9801 19.447 15.7074 19.516 15.44ZM18.1241 9.08063C17.8566 9.01213 17.5842 9.17347 17.5157 9.44098C17.4473 9.70849 17.6086 9.98088 17.8761 10.0494C18.1988 10.132 18.4847 10.3196 18.689 10.5827C18.8932 10.8458 19.004 11.1694 19.004 11.5025C19.004 11.8356 18.8932 12.1592 18.689 12.4223C18.4847 12.6854 18.1988 12.873 17.8761 12.9556C17.6086 13.0241 17.4473 13.2965 17.5157 13.564C17.5842 13.8315 17.8566 13.9929 18.1241 13.9244C18.6619 13.7867 19.1385 13.4739 19.4789 13.0354C19.8193 12.5969 20.004 12.0576 20.004 11.5025C20.004 10.9474 19.8193 10.4081 19.4789 9.96957C19.1385 9.53106 18.6619 9.21831 18.1241 9.08063Z" fill="#1C1C1C"/>
    <defs>
        <filter id="mutualContactIconDefs" x="0" y="0" width="32" height="32" filterUnits="userSpaceOnUse" color-interpolation-filters="sRGB">
            <feFlood flood-opacity="0" result="BackgroundImageFix"/>
            <feColorMatrix in="SourceAlpha" type="matrix" values="0 0 0 0 0 0 0 0 0 0 0 0 0 0 0 0 0 0 127 0"/>
            <feOffset dy="2"/>
            <feGaussianBlur stdDeviation="2"/>
            <feColorMatrix type="matrix" values="0 0 0 0 0 0 0 0 0 0 0 0 0 0 0 0 0 0 0.0995138 0"/>
            <feBlend mode="normal" in2="BackgroundImageFix" result="effect1_dropShadow"/>
            <feBlend mode="normal" in="SourceGraphic" in2="effect1_dropShadow" result="shape"/>
        </filter>
    </defs>
</svg>
