<svg width="361" height="389" viewBox="0 0 361 389" fill="none" xmlns="http://www.w3.org/2000/svg">
<circle cx="184.5" cy="212.5" r="176.5" fill="#F4F7FF"/>
<path d="M218.5 187C215.98 187 213.564 188.001 211.782 189.783C210.001 191.565 209 193.983 209 196.503H228C228 193.983 226.999 191.565 225.218 189.783C223.436 188.001 221.02 187 218.5 187V187Z" fill="white"/>
<path d="M192.703 178C193.951 178 195.147 178.496 196.029 179.378C196.911 180.26 197.406 181.457 197.406 182.705H188C188 181.457 188.496 180.26 189.378 179.378C190.26 178.496 191.456 178 192.703 178Z" fill="white"/>
<path d="M115.628 368.506C115.652 368.503 115.678 368.502 115.703 368.5C115.665 368.48 115.638 368.466 115.638 368.466C115.635 368.479 115.631 368.492 115.628 368.506Z" fill="#5A3C2A"/>
<path d="M175.145 138C171.924 138 168.835 139.28 166.557 141.558C164.28 143.837 163 146.927 163 150.149H187.291C187.291 146.927 186.011 143.837 183.733 141.558C181.456 139.28 178.366 138 175.145 138V138Z" fill="white"/>
<path d="M151.703 159C152.951 159 154.147 159.496 155.029 160.378C155.911 161.26 156.406 162.457 156.406 163.705H147C147 162.457 147.496 161.26 148.378 160.378C149.26 159.496 150.456 159 151.703 159Z" fill="white"/>
<path d="M45.9693 132.939C59.2072 132.939 69.9386 122.207 69.9386 108.969C69.9386 95.7314 59.2072 85 45.9693 85C32.7314 85 22 95.7314 22 108.969C22 122.207 32.7314 132.939 45.9693 132.939Z" fill="#E8F1F9"/>
<path d="M69.9385 108.97C69.9385 122.208 59.2071 132.939 45.9692 132.939" stroke="#95B5E8"/>
<path d="M45.9691 109.008C48.9105 109.008 51.295 106.624 51.295 103.682C51.295 100.741 48.9105 98.3564 45.9691 98.3564C43.0278 98.3564 40.6433 100.741 40.6433 103.682C40.6433 106.624 43.0278 109.008 45.9691 109.008Z" fill="#95B5E8"/>
<path d="M45.9692 108.842C40.6255 108.842 36.2935 113.174 36.2935 118.518H55.645C55.645 113.174 51.313 108.842 45.9692 108.842V108.842Z" fill="#95B5E8"/>
<path d="M36.2935 118.517H55.6451" stroke="white"/>
<path d="M95.9693 170.939C109.207 170.939 119.939 160.207 119.939 146.969C119.939 133.731 109.207 123 95.9693 123C82.7314 123 72 133.731 72 146.969C72 160.207 82.7314 170.939 95.9693 170.939Z" fill="#E8F1F9"/>
<path d="M119.939 146.97C119.939 160.208 109.207 170.939 95.9692 170.939" stroke="#95B5E8"/>
<path d="M95.9691 147.008C98.9105 147.008 101.295 144.624 101.295 141.682C101.295 138.741 98.9105 136.356 95.9691 136.356C93.0278 136.356 90.6433 138.741 90.6433 141.682C90.6433 144.624 93.0278 147.008 95.9691 147.008Z" fill="#95B5E8"/>
<path d="M95.9692 146.842C90.6255 146.842 86.2935 151.174 86.2935 156.518H105.645C105.645 151.174 101.313 146.842 95.9692 146.842V146.842Z" fill="#95B5E8"/>
<path d="M86.2935 156.517H105.645" stroke="white" stroke-width="0.7"/>
<path d="M125 112C155.928 112 181 86.9278 181 55.9999C181 25.072 155.928 0 125 0C94.072 0 69 25.072 69 55.9999C69 86.9278 94.072 112 125 112Z" fill="#E8F1F9"/>
<path d="M181 56C181 86.9279 155.928 112 125 112" stroke="#95B5E8" stroke-width="0.85512"/>
<path d="M125 56.0908C131.872 56.0908 137.443 50.5199 137.443 43.6479C137.443 36.7759 131.872 31.2051 125 31.2051C118.128 31.2051 112.557 36.7759 112.557 43.6479C112.557 50.5199 118.128 56.0908 125 56.0908Z" fill="#95B5E8"/>
<path d="M125.001 55.7021C112.516 55.7022 102.395 65.8231 102.395 78.3079H147.607C147.607 65.8231 137.486 55.7022 125.001 55.7021V55.7021Z" fill="#95B5E8"/>
<path d="M258.468 111.524L241.997 122.419C241.997 122.419 219.327 82.6689 204.122 79.5798C188.916 76.4909 186.981 82.8493 193.616 83.1259C200.251 83.4023 198.285 84.2987 198.285 84.2987C198.285 84.2987 199.145 95.7505 208.476 96.004C208.476 96.004 206.97 141.525 234.117 148.151C261.265 154.778 271.954 133.748 271.954 133.748L258.468 111.524Z" fill="#FFD6D2"/>
<path d="M234.117 148.151C261.265 154.777 271.954 133.747 271.954 133.747" stroke="#0D2460" stroke-width="0.41469"/>
<path d="M292.941 101.878L292.941 101.879C298.989 108.914 298.188 119.52 291.152 125.567L274.797 139.626L252.897 114.148L269.253 100.089C276.288 94.042 286.894 94.843 292.941 101.878Z" fill="#0D51FF"/>
<path d="M275.501 170.261C275.501 170.261 231.973 249.322 201.564 360.382L191.58 367.877H236.533L280.647 282.279L306.481 235.405L301.202 197.361" fill="#0D2460"/>
<path d="M306.481 235.405L303.341 212.777C277.548 213.71 256.856 241.438 256.856 275.508C256.856 288.936 260.072 301.376 265.545 311.582L280.647 282.279L306.481 235.405Z" fill="#0D51FF"/>
<path d="M201.564 360.382L191.58 367.877H236.534" fill="#0D2460"/>
<path d="M288.585 105.892C283.596 105.892 279.552 101.847 279.552 96.8585V76.6497H297.618V96.8585C297.618 101.847 293.574 105.892 288.585 105.892V105.892Z" fill="#FFD6D2"/>
<path d="M279.552 93.3349C287.144 92.2397 292.808 87.9809 292.808 82.8901C292.808 80.5612 291.619 78.4076 289.606 76.6494H279.552V93.3349Z" fill="#5A3C2A"/>
<path d="M273.361 72.2578C274.487 72.2578 275.4 73.1705 275.4 74.2964V75.9139C275.4 76.8515 274.64 77.6115 273.702 77.6115C272.388 77.6115 271.323 76.5461 271.323 75.2319V74.2964C271.323 73.1705 272.235 72.2578 273.361 72.2578V72.2578Z" fill="#F2C0C0"/>
<path d="M271.098 65.4581C271.098 65.4581 270.092 69.5727 274.135 74.8463C277.888 79.741 280.648 63.6679 280.648 63.6679L276.353 58.1416" fill="#0D2460"/>
<path d="M275.64 60.8571C273.872 63.8171 273.108 67.2691 273.461 70.6987C273.617 72.6308 273.645 74.5711 273.545 76.5069C273.327 81.4203 275.375 86.0105 279.552 88.2081C281.232 89.0922 284.856 89.5661 287.575 88.7315C292.509 87.217 297.504 83.9489 297.644 75.8929C297.68 73.6688 297.992 71.4577 298.574 69.3106C299.081 67.4431 299.227 64.7294 297.754 61.3757C294.505 53.9785 281.682 51.0705 275.64 60.8571Z" fill="#FFD6D2"/>
<path d="M293.417 64.5701C293.417 64.5701 276.519 68.0938 269.158 65.4501L270.402 62.1844C270.402 62.1844 267.966 60.8885 266.203 57.571L270.242 55.4701L266.566 53.7869C266.566 53.7869 299.292 46.9014 300.882 60.1628C302.471 73.4242 297.617 78.3919 297.617 78.3919L296.881 72.5171C296.881 72.5171 292.807 69.5722 293.417 64.5701Z" fill="#0D2460"/>
<path d="M293.419 64.5703C293.419 64.5703 276.52 68.094 269.159 65.4503" stroke="#0D51FF" stroke-width="0.41469"/>
<path d="M288.932 76.5073C289.281 76.5073 289.564 76.1353 289.564 75.6765C289.564 75.2177 289.281 74.8457 288.932 74.8457C288.583 74.8457 288.301 75.2177 288.301 75.6765C288.301 76.1353 288.583 76.5073 288.932 76.5073Z" fill="#0D51FF"/>
<path d="M277.533 76.5073C277.882 76.5073 278.165 76.1353 278.165 75.6765C278.165 75.2177 277.882 74.8457 277.533 74.8457C277.185 74.8457 276.902 75.2177 276.902 75.6765C276.902 76.1353 277.185 76.5073 277.533 76.5073Z" fill="#0D51FF"/>
<path d="M283.465 78.7349H282.74C282.479 78.7349 282.269 78.524 282.269 78.2639V71.0576" stroke="#0D2460" stroke-width="0.68"/>
<path d="M280.647 80.5986C282.075 82.0262 284.389 82.0262 285.817 80.5986" stroke="#0D2460" stroke-width="0.68"/>
<path d="M291.515 70.1078C290.088 68.6802 287.773 68.6802 286.346 70.1078" stroke="#0D2460" stroke-width="0.829381"/>
<path d="M280.119 70.1078C278.691 68.6802 276.377 68.6802 274.949 70.1078" stroke="#0D2460" stroke-width="0.829381"/>
<path d="M277.044 63.6678C277.019 63.665 276.993 63.6644 276.968 63.6619C277.007 63.6416 277.034 63.6278 277.034 63.6278C277.037 63.6413 277.041 63.6542 277.044 63.6678Z" fill="#5A3C2A"/>
<path d="M296.882 77.5225C295.944 77.5225 295.184 76.7624 295.184 75.8249V74.2073C295.184 73.0815 296.097 72.1688 297.223 72.1688C298.349 72.1688 299.261 73.0815 299.261 74.2073V75.1429C299.261 76.4571 298.196 77.5225 296.882 77.5225Z" fill="#FFD6D2"/>
<path d="M296.882 77.5231C298.196 77.5231 299.261 76.4577 299.261 75.1436" stroke="#5A3C2A" stroke-width="0.41469"/>
<path d="M300.012 93.334L299.482 89.166L277.522 93.6585L276.762 99.8788C276.762 99.8788 255.995 121.694 275.501 170.26L322.654 165.753C322.654 165.753 327.216 102.098 300.012 93.334Z" fill="#0D51FF"/>
<path d="M276.762 99.8799C276.762 99.8799 255.995 121.695 275.501 170.261" stroke="white" stroke-width="0.41469"/>
<path d="M345.6 367.876L319.952 247.199C319.952 247.199 330.533 206.393 322.653 165.753L275.501 170.26C275.501 170.26 246.074 260.302 314.083 359.828L306.481 367.876L345.6 367.876Z" fill="#0D2460"/>
<path d="M317.803 104.794C317.803 104.794 379.327 145.354 348.911 178.609L331.494 198.929C331.494 198.929 331.217 204.043 327.209 205.287C327.209 205.287 332.047 209.849 330.25 209.711C328.453 209.572 316.796 213.86 319.065 196.856C321.334 179.853 331.827 154.649 331.827 154.649L304.124 130.297" fill="#FFD6D2"/>
<path d="M319.066 196.856C321.335 179.852 331.828 154.648 331.828 154.648" stroke="#0D2460" stroke-width="0.41469"/>
<path d="M269.205 224.369C269.836 259.609 278.98 308.456 314.085 359.829" stroke="#0D2460" stroke-width="0.41469"/>
<path d="M314.084 359.828L306.481 367.876H345.6" fill="#0D51FF"/>
<path d="M330.74 111.453L308.841 136.931L292.485 122.872C285.449 116.825 284.648 106.219 290.696 99.1835L290.696 99.1834C296.743 92.148 307.349 91.347 314.385 97.3944L330.74 111.453L330.74 111.453Z" fill="#0D51FF"/>
<path d="M292.485 122.872L308.84 136.931L330.74 111.453" stroke="white" stroke-width="0.41469"/>
<path d="M293.407 269.675H88.8074L97.2392 255.061H301.839L293.407 269.675Z" fill="#95B5E8"/>
<path d="M204.6 269.676H0L8.43186 255.062H213.032L204.6 269.676Z" fill="#D7E8F7"/>
<path d="M283.376 368.247H18.4648" stroke="#95B5E8" stroke-width="0.749465"/>
<path d="M293.407 269.676H88.8074" stroke="#95B5E8" stroke-width="0.749465"/>
<path d="M213.032 255.062L204.6 269.676H0" stroke="#95B5E8" stroke-width="0.749465"/>
<path d="M59.4849 269.676L40.9365 368.247" stroke="#95B5E8" stroke-width="0.749465"/>
<path d="M100.428 269.676L81.8796 368.247" stroke="#95B5E8" stroke-width="0.749465"/>
<path d="M228.355 269.676L246.904 368.247" stroke="#95B5E8" stroke-width="0.749465"/>
<path d="M187.413 269.676L205.961 368.247" stroke="#95B5E8" stroke-width="0.749465"/>
<path d="M97.3584 249.762H219.315V244.109H95.4419L97.3584 249.762Z" fill="#E8F1F9"/>
<path d="M219.315 244.109H95.4419" stroke="#95B5E8" stroke-width="0.343298"/>
<path d="M97.3575 249.762H175.973L156.405 196.551H77.7896L97.3575 249.762Z" fill="#D7E8F7"/>
<path d="M122.686 226.338H126.173C126.577 226.338 126.955 226.14 127.186 225.809C127.417 225.478 127.472 225.055 127.333 224.676L126.718 223.004C126.539 222.518 126.076 222.195 125.558 222.195H122.071C121.667 222.195 121.289 222.393 121.058 222.724C120.827 223.055 120.772 223.478 120.912 223.857L121.526 225.529C121.705 226.015 122.168 226.338 122.686 226.338Z" fill="white"/>
<path d="M77.7896 196.551L97.3575 249.762" stroke="#95B5E8" stroke-width="0.343298"/>
<path d="M226.352 249.763H70.7534" stroke="#95B5E8" stroke-width="0.343298"/>
</svg>
