<svg width="353" height="382" viewBox="0 0 353 382" fill="none" xmlns="http://www.w3.org/2000/svg">
<circle cx="176.5" cy="205.5" r="176.5" fill="#F4F7FF"/>
<path d="M66.1453 154C62.9241 154 59.8349 155.28 57.5573 157.558C55.2796 159.837 54 162.927 54 166.149H78.2905C78.2905 162.927 77.0109 159.837 74.7333 157.558C72.4556 155.28 69.3664 154 66.1453 154V154Z" fill="white"/>
<path d="M42.7032 175C43.9505 175 45.1468 175.496 46.0288 176.378C46.9108 177.26 47.4063 178.457 47.4063 179.705H38C38 178.457 38.4955 177.26 39.3775 176.378C40.2595 175.496 41.4558 175 42.7032 175Z" fill="white"/>
<path d="M296.566 142C294.825 142 293.155 142.692 291.923 143.923C290.692 145.155 290 146.825 290 148.566H303.132C303.132 146.825 302.441 145.155 301.209 143.923C299.978 142.692 298.308 142 296.566 142Z" fill="white"/>
<path d="M120.307 65.9301C120.331 65.9273 120.356 65.9268 120.38 65.9244C120.343 65.9048 120.316 65.8915 120.316 65.8915C120.314 65.9046 120.31 65.917 120.307 65.9301Z" fill="#5A3C2A"/>
<path d="M104 138C142.108 138 173 107.108 173 68.9999C173 30.8923 142.108 0 104 0C65.8923 0 35 30.8923 35 68.9999C35 107.108 65.8923 138 104 138Z" fill="#E8F1F9"/>
<path d="M173 69C173 107.108 142.108 138 104 138" stroke="#95B5E8" stroke-width="0.636568"/>
<path d="M257.034 65.5486C257.058 65.5459 257.083 65.5454 257.107 65.543C257.07 65.5233 257.043 65.51 257.043 65.51C257.041 65.5231 257.037 65.5355 257.034 65.5486Z" fill="#5A3C2A"/>
<path d="M236.155 140.862V235.393" stroke="#95B5E8" stroke-width="1.01102"/>
<path d="M313.627 348.457C312.86 348.457 312.237 347.835 312.237 347.067C312.237 346.299 312.86 345.677 313.627 345.677C314.395 345.677 315.018 346.299 315.018 347.067C315.018 347.835 314.395 348.457 313.627 348.457Z" fill="white"/>
<path d="M321.506 348.457C320.739 348.457 320.116 347.835 320.116 347.067C320.116 346.299 320.739 345.677 321.506 345.677C322.274 345.677 322.896 346.299 322.896 347.067C322.896 347.835 322.274 348.457 321.506 348.457Z" fill="white"/>
<path d="M179.054 122.289L176.223 124.446L174.566 128.863C174.566 128.863 163.282 91.2842 161.125 86.2291C158.968 81.174 152.363 72.3666 151.958 75.1527C151.554 77.9387 153.845 82.7916 153.845 82.7916C153.845 82.7916 144.679 90.8798 154.654 97.4851C154.654 97.4851 146.195 148.072 170.46 151.509C194.724 154.947 201.273 140.757 201.273 140.757L193.637 124.58" fill="#F2C0C0"/>
<path d="M174.566 127.014L206.669 131.324L209.436 110.715C210.627 101.85 204.405 93.6988 195.54 92.5085L195.54 92.5085C186.675 91.3183 178.524 97.5399 177.333 106.405L174.566 127.014H174.566Z" fill="#0D51FF"/>
<path d="M206.67 131.325L174.567 127.015L177.334 106.406" stroke="white" stroke-width="0.50551"/>
<path d="M290.504 265.443L330.607 350.621L307.857 361.447L308.669 356.306C308.669 356.306 268.06 312.407 260.175 285.717" fill="#FFD6D2"/>
<path d="M199.362 179.114C199.362 179.114 188.413 267.718 193.289 355.222L188.093 361.447H216.751L236.978 241.609C236.978 241.609 255.279 201.154 243.73 179.114" fill="#F2C0C0"/>
<path d="M192.859 59.5994L216.748 52.7744C216.748 52.7744 224.236 59.4525 238.101 57.9875C256.598 56.0328 257.508 70.7488 257.508 70.7488C257.508 70.7488 279.134 61.5472 286.548 80.1472C293.962 98.7472 277.324 113.93 255.89 104.09C246.331 99.7009 246.859 94.3842 213.293 92.0924C179.727 89.8008 192.859 59.5994 192.859 59.5994Z" fill="#0D2460"/>
<path d="M238.102 57.9884C256.6 56.0337 257.51 70.7497 257.51 70.7497" stroke="#5A3C2A" stroke-width="0.50551"/>
<path d="M217.824 75.0322H200.758V94.1228C200.758 98.8356 204.578 102.656 209.291 102.656C214.004 102.656 217.824 98.8356 217.824 94.1228V75.0322H217.824Z" fill="#FFD6D2"/>
<path d="M215.467 76.0796C215.467 84.3955 209.82 91.1367 202.854 91.1367C202.15 91.1357 201.447 91.065 200.757 90.9256V73.2363H215.239C215.39 74.1766 215.466 75.1273 215.467 76.0796Z" fill="#5A3C2A"/>
<path d="M194.5 75.9707C195.415 75.9707 196.156 75.2295 196.156 74.3152V72.7378C196.156 71.6399 195.266 70.7498 194.168 70.7498C193.07 70.7498 192.18 71.6399 192.18 72.7378V73.6502C192.18 74.9318 193.219 75.9707 194.5 75.9707Z" fill="#F2C0C0"/>
<path d="M196.39 59.6319C194.666 62.5185 193.921 65.8849 194.265 69.2295C194.418 71.1136 194.445 73.0058 194.347 74.8936C194.199 79.6058 196.776 83.9826 200.969 86.1389C202.965 87.0283 205.199 87.2382 207.326 86.7363C211.333 85.5425 217.301 81.9397 217.438 74.0834C217.476 71.911 218.185 69.9723 218.755 67.8757C219.25 66.0546 219.392 63.4081 217.956 60.1376C214.787 52.9238 202.282 50.0879 196.39 59.6319Z" fill="#FFD6D2"/>
<path d="M193.243 58.7354C196.413 52.3421 204.867 49.128 210.889 50.205C219.179 51.6877 231.908 64.532 217.825 78.2144V75.344L216.749 72.0136C216.749 72.0136 202.458 71.407 198.853 63.5883C198.853 63.5883 194.115 64.7631 194.361 70.6631C194.361 70.6631 190.073 65.129 193.243 58.7354Z" fill="#0D2460"/>
<path d="M241.672 86.2286C241.672 86.2286 237.897 76.2595 218.284 72.6504" stroke="white" stroke-width="0.50551"/>
<path d="M216.75 72.0131C216.75 72.0131 202.459 71.4064 198.854 63.5879" stroke="#0D51FF" stroke-width="0.50551"/>
<path d="M217.438 70.6641C216.34 70.6641 215.45 71.5541 215.45 72.6521V74.2295C215.45 75.1438 216.191 75.885 217.105 75.885C218.387 75.885 219.426 74.846 219.426 73.5644V72.6521C219.426 71.5541 218.536 70.6641 217.438 70.6641V70.6641Z" fill="#FFD6D2"/>
<path d="M211.871 67.8439C210.479 66.4518 208.222 66.4518 206.83 67.8439" stroke="white" stroke-width="0.50551"/>
<path d="M200.758 67.8439C199.366 66.4518 197.109 66.4518 195.716 67.8439" stroke="#0D2460" stroke-width="0.50551"/>
<path d="M209.351 74.8938C209.011 74.8938 208.735 74.5311 208.735 74.0836C208.735 73.6362 209.011 73.2734 209.351 73.2734C209.691 73.2734 209.967 73.6362 209.967 74.0836C209.967 74.5311 209.691 74.8938 209.351 74.8938Z" fill="#0D51FF"/>
<path d="M198.236 74.8938C197.896 74.8938 197.62 74.5311 197.62 74.0836C197.62 73.6362 197.896 73.2734 198.236 73.2734C198.576 73.2734 198.852 73.6362 198.852 74.0836C198.852 74.5311 198.576 74.8938 198.236 74.8938Z" fill="#0D51FF"/>
<path d="M202.855 69.5791V77.416C202.855 77.6697 203.06 77.8753 203.314 77.8753H204.021" stroke="#0D2460" stroke-width="0.50551"/>
<path d="M202.855 69.5791V75.1529" stroke="#0D2460" stroke-width="0.50551"/>
<path d="M201.273 79.626C202.665 81.0181 204.922 81.0181 206.314 79.626" stroke="#0D2460" stroke-width="0.50551"/>
<path d="M197.759 62.3719C197.734 62.3691 197.709 62.3686 197.685 62.3662C197.723 62.3463 197.749 62.3329 197.749 62.3329C197.752 62.3461 197.756 62.3586 197.759 62.3719Z" fill="#5A3C2A"/>
<path d="M219.11 92.5501L219.428 86.6338L197.088 90.9482L198.238 95.7337C198.238 95.7337 169.754 83.327 194.221 136.304L187.386 306.342C187.386 306.342 265.635 319.687 311.129 248.717L226.236 127.947C226.236 127.947 249.692 82.1872 219.11 92.5501Z" fill="#0D2460"/>
<path d="M230.344 118.674C228.26 123.992 226.234 127.945 226.234 127.945L250.857 162.975C245.081 164.355 239.16 165.042 233.22 165.021C215.396 165.021 200.112 159.139 193.637 150.769L194.219 136.303C193.809 135.416 219.335 144.303 218.955 143.452C224.722 135.109 213.195 119.288 230.344 118.674Z" fill="#0D51FF"/>
<path d="M184.397 106.396C184.936 112.699 187.695 122.176 194.219 136.302" stroke="white" stroke-width="0.50551"/>
<path d="M311.129 248.715L226.236 127.945" stroke="#0D2460" stroke-width="0.50551"/>
<path d="M241.67 119.998C241.67 119.998 247.938 147.632 233.784 153.698C219.63 159.765 183.098 147.228 182.492 147.43C181.885 147.632 173.19 149.048 171.168 139.342C171.168 139.342 161.462 135.904 163.687 134.691C165.911 133.478 217.824 132.457 217.824 132.457L215.467 118.865" fill="#FFD6D2"/>
<path d="M182.492 147.429C181.886 147.631 173.191 149.047 171.169 139.341C171.169 139.341 161.463 135.904 163.687 134.69" stroke="white" stroke-width="0.50551"/>
<path d="M241.67 119.997C241.67 119.997 247.938 147.632 233.784 153.698C219.63 159.764 183.098 147.227 182.492 147.429" stroke="#0D2460" stroke-width="0.50551"/>
<path d="M215.805 128.862L247.712 123.284L244.131 102.801C242.591 93.9905 234.199 88.0965 225.388 89.6368L225.388 89.6368C216.578 91.1771 210.684 99.5684 212.224 108.379L215.805 128.862L215.805 128.862Z" fill="#0D51FF"/>
<path d="M247.715 123.285L215.808 128.863L212.227 108.38" stroke="white" stroke-width="0.50551"/>
<path d="M228.589 91.0233L228.589 91.0233" stroke="white" stroke-width="0.50551"/>
<path d="M124.36 242.762H246.316V237.109H122.443L124.36 242.762Z" fill="#E8F1F9"/>
<path d="M246.316 237.109H122.443" stroke="#95B5E8" stroke-width="0.343298"/>
<path d="M124.359 242.762H202.974L183.406 189.551H104.791L124.359 242.762Z" fill="#D7E8F7"/>
<path d="M149.686 219.338H153.173C153.577 219.338 153.955 219.14 154.187 218.809C154.418 218.478 154.472 218.055 154.333 217.676L153.718 216.004C153.539 215.518 153.077 215.195 152.559 215.195H149.071C148.667 215.195 148.289 215.393 148.058 215.724C147.827 216.055 147.773 216.478 147.912 216.857L148.527 218.529C148.705 219.015 149.168 219.338 149.686 219.338Z" fill="white"/>
<path d="M104.791 189.551L124.359 242.762" stroke="#95B5E8" stroke-width="0.343298"/>
<path d="M253.352 242.763H97.7539" stroke="#95B5E8" stroke-width="0.343298"/>
<path d="M326.407 262.675H121.807L130.238 248.061H334.838L326.407 262.675Z" fill="#95B5E8"/>
<path d="M237.6 262.676H33L41.4319 248.062H246.032L237.6 262.676Z" fill="#D7E8F7"/>
<path d="M316.376 361.247H51.4648" stroke="#95B5E8" stroke-width="0.749465"/>
<path d="M326.406 262.676H121.807" stroke="#95B5E8" stroke-width="0.749465"/>
<path d="M246.032 248.062L237.6 262.676H33" stroke="#95B5E8" stroke-width="0.749465"/>
<path d="M92.4839 262.676L73.9355 361.247" stroke="#95B5E8" stroke-width="0.749465"/>
<path d="M133.427 262.676L114.879 361.247" stroke="#95B5E8" stroke-width="0.749465"/>
<path d="M261.355 262.676L279.904 361.247" stroke="#95B5E8" stroke-width="0.749465"/>
<path d="M220.414 262.676L238.962 361.247" stroke="#95B5E8" stroke-width="0.749465"/>
<path d="M130.844 40.2861H78.1562C74.7616 40.2861 72 43.0476 72 46.4422V73.6278C72 75.1384 72.8285 76.5174 74.1623 77.2266C74.764 77.5465 75.4214 77.7051 76.0765 77.7051C76.8735 77.7051 77.6674 77.4705 78.3549 77.0068L89.4689 69.5109C89.5134 69.4809 89.5654 69.465 89.6191 69.465H130.844C134.238 69.465 137 66.7034 137 63.3088V46.4422C137 43.0476 134.238 40.2861 130.844 40.2861ZM124.489 60.0884H106.084C105.033 60.0884 104.181 59.2362 104.181 58.185C104.181 57.1338 105.033 56.2816 106.084 56.2816H124.489C125.54 56.2816 126.392 57.1338 126.392 58.185C126.392 59.2362 125.54 60.0884 124.489 60.0884ZM124.489 53.7435H84.5115C83.4603 53.7435 82.6081 52.8913 82.6081 51.8401C82.6081 50.789 83.4603 49.9367 84.5115 49.9367H124.488C125.54 49.9367 126.392 50.789 126.392 51.8401C126.392 52.8913 125.54 53.7435 124.489 53.7435Z" fill="#95B5E8"/>
<path d="M132.165 72.0361H96.3146C93.6694 72.0361 91.5176 74.1881 91.5176 76.8333V88.31C91.5176 90.9552 93.6696 93.1072 96.3146 93.1072H124.235L131.689 98.1348C132.26 98.5194 132.919 98.7139 133.58 98.7139C134.123 98.7139 134.669 98.5824 135.168 98.3168C136.275 97.7284 136.962 96.5844 136.962 95.3311V76.8332C136.962 74.1882 134.81 72.0361 132.165 72.0361ZM108.806 84.5669H101.908C100.857 84.5669 100.005 83.7147 100.005 82.6635C100.005 81.6123 100.857 80.7601 101.908 80.7601H108.806C109.857 80.7601 110.709 81.6123 110.709 82.6635C110.709 83.7147 109.857 84.5669 108.806 84.5669ZM116.895 82.8504C116.889 82.9126 116.879 82.9747 116.867 83.0356C116.855 83.0953 116.84 83.1562 116.822 83.2158C116.804 83.2754 116.782 83.3338 116.758 83.3908C116.735 83.4479 116.709 83.5051 116.68 83.5595C116.65 83.6141 116.617 83.6687 116.583 83.7194C116.549 83.7714 116.512 83.8223 116.473 83.8704C116.433 83.9187 116.391 83.9657 116.347 84.0087C116.303 84.0531 116.256 84.095 116.207 84.1344C116.16 84.1737 116.11 84.2117 116.058 84.2461C116.006 84.2804 115.952 84.3121 115.898 84.3413C115.843 84.3704 115.786 84.3971 115.729 84.4213C115.672 84.4442 115.612 84.4657 115.554 84.4835C115.494 84.5013 115.433 84.5178 115.372 84.5291C115.312 84.5419 115.249 84.5508 115.189 84.5571C115.126 84.5635 115.063 84.5659 115.001 84.5659C114.939 84.5659 114.877 84.5634 114.814 84.5571C114.752 84.5509 114.69 84.5419 114.629 84.5291C114.568 84.5177 114.509 84.5012 114.449 84.4835C114.389 84.4656 114.331 84.444 114.274 84.4213C114.217 84.3972 114.16 84.3705 114.105 84.3413C114.05 84.3121 113.996 84.2804 113.945 84.2461C113.893 84.2117 113.842 84.1737 113.794 84.1344C113.746 84.0949 113.699 84.053 113.656 84.0087C113.612 83.9655 113.57 83.9186 113.53 83.8704C113.491 83.8222 113.453 83.7714 113.419 83.7194C113.384 83.6687 113.353 83.614 113.324 83.5595C113.294 83.5049 113.268 83.4478 113.244 83.3908C113.219 83.3337 113.199 83.2753 113.181 83.2158C113.162 83.1561 113.147 83.0951 113.136 83.0356C113.123 82.9747 113.114 82.9125 113.108 82.8504C113.101 82.7882 113.098 82.726 113.098 82.6639C113.098 82.6017 113.101 82.5382 113.108 82.4761C113.114 82.4139 113.123 82.353 113.136 82.2922C113.147 82.2314 113.162 82.1703 113.181 82.1108C113.199 82.0511 113.219 81.9927 113.244 81.9357C113.268 81.8786 113.294 81.8214 113.324 81.767C113.353 81.7124 113.384 81.6578 113.419 81.6071C113.453 81.5551 113.491 81.5042 113.53 81.4561C113.57 81.4079 113.612 81.3608 113.656 81.3178C114.053 80.9193 114.626 80.7125 115.189 80.7696C115.25 80.7761 115.312 80.7849 115.373 80.7977C115.434 80.8104 115.495 80.8256 115.555 80.8433C115.613 80.8612 115.673 80.8827 115.73 80.9067C115.787 80.9297 115.844 80.9564 115.898 80.9854C115.953 81.0146 116.006 81.0476 116.058 81.0819C116.11 81.1163 116.16 81.1531 116.208 81.1924C116.256 81.2319 116.303 81.2738 116.348 81.3181C116.392 81.3612 116.434 81.4082 116.473 81.4563C116.513 81.5045 116.549 81.5553 116.584 81.6074C116.618 81.658 116.651 81.7128 116.68 81.7672C116.709 81.8218 116.736 81.8789 116.759 81.9359C116.783 81.9931 116.804 82.0515 116.822 82.111C116.84 82.1707 116.855 82.2316 116.868 82.2924C116.879 82.3522 116.89 82.4143 116.896 82.4764C116.902 82.5386 116.905 82.6021 116.905 82.6641C116.904 82.726 116.902 82.7882 116.895 82.8504Z" fill="#CCDFF0"/>
</svg>
