<svg width="353" height="391" viewBox="0 0 353 391" fill="none" xmlns="http://www.w3.org/2000/svg">
<circle cx="176.5" cy="214.5" r="176.5" fill="#F4F7FF"/>
<path d="M325.407 271.675H120.807L129.239 257.06H333.839L325.407 271.675Z" fill="#95B5E8"/>
<path d="M236.6 271.676H32L40.4319 257.061H245.032L236.6 271.676Z" fill="#D7E8F7"/>
<path d="M315.376 370.247H50.4648" stroke="#95B5E8" stroke-width="0.749465"/>
<path d="M325.407 271.675H120.807" stroke="#95B5E8" stroke-width="0.749465"/>
<path d="M245.032 257.061L236.6 271.676H32" stroke="#95B5E8" stroke-width="0.749465"/>
<path d="M91.4848 271.675L72.9365 370.247" stroke="#95B5E8" stroke-width="0.749465"/>
<path d="M132.428 271.675L113.88 370.247" stroke="#95B5E8" stroke-width="0.749465"/>
<path d="M260.355 271.675L278.904 370.247" stroke="#95B5E8" stroke-width="0.749465"/>
<path d="M219.413 271.675L237.961 370.247" stroke="#95B5E8" stroke-width="0.749465"/>
<path d="M74.1453 177C70.9241 177 67.8349 178.28 65.5573 180.558C63.2796 182.837 62 185.927 62 189.149H86.2905C86.2905 185.927 85.0109 182.837 82.7333 180.558C80.4556 178.28 77.3664 177 74.1453 177V177Z" fill="white"/>
<path d="M50.7032 198C51.9505 198 53.1468 198.496 54.0288 199.378C54.9108 200.26 55.4063 201.457 55.4063 202.705H46C46 201.457 46.4955 200.26 47.3775 199.378C48.2595 198.496 49.4558 198 50.7032 198Z" fill="white"/>
<path d="M258.304 231.943C258.304 231.943 253.965 217.495 258.304 210.64C262.642 203.785 268.991 212.011 267.767 215.807C266.544 219.604 260.216 227.83 260.216 227.83" fill="#E8F1F9"/>
<path d="M258.304 210.64C262.642 203.785 268.991 212.011 267.767 215.807C266.544 219.604 260.216 227.83 260.216 227.83" stroke="#95B5E8" stroke-width="0.632768"/>
<path d="M258.303 236.372C258.303 236.372 260.849 215.385 251.99 211.905C243.131 208.425 246.506 220.026 250.197 225.193C252.396 228.249 254.104 231.629 255.259 235.212" fill="#E8F1F9"/>
<path d="M258.303 236.372C258.303 236.372 260.849 215.385 251.99 211.905" stroke="#95B5E8" stroke-width="0.632768"/>
<path d="M258.845 235.212C258.845 235.212 255.681 224.244 264.646 219.182C273.61 214.12 279.413 222.03 276.09 223.717C272.766 225.404 259.478 228.568 260.744 235.212" fill="#E8F1F9"/>
<path d="M276.09 223.717C272.766 225.404 259.478 228.568 260.744 235.212" stroke="#95B5E8" stroke-width="0.632768"/>
<path d="M255.826 237.954C255.826 237.954 258.99 226.986 250.026 221.924C241.062 216.862 235.259 224.772 238.582 226.459C241.906 228.146 255.194 231.31 253.928 237.954" fill="#E8F1F9"/>
<path d="M255.826 237.954C255.826 237.954 258.99 226.986 250.026 221.924" stroke="#95B5E8" stroke-width="0.632768"/>
<path d="M268.4 251.889H245.602C240.568 247.857 237.28 241.232 237.28 233.736H276.723C276.723 241.232 273.435 247.857 268.4 251.889Z" fill="#D7E8F7"/>
<path d="M246.717 248.711C247.667 246.918 246.48 243.913 249.776 244.809C253.578 245.843 256.209 249.45 257.685 243.813C259.162 238.176 264.857 237.216 268.021 241.751C269.384 243.675 271.412 245.027 273.713 245.546C272.369 247.984 270.565 250.138 268.4 251.889H245.602C244.229 250.784 243.001 249.51 241.946 248.098L241.946 248.098C242.558 248.954 245.768 250.504 246.717 248.711Z" fill="#E8F1F9"/>
<path d="M285 251.889H239" stroke="#95B5E8" stroke-width="0.2793"/>
<path d="M276.723 233.736C276.723 241.232 273.435 247.857 268.4 251.889" stroke="#95B5E8" stroke-width="0.632768"/>
<path d="M245.602 251.889C240.568 247.857 237.28 241.232 237.28 233.736" stroke="#95B5E8" stroke-width="0.632768"/>
<rect x="215.921" y="21.4247" width="86.3778" height="158.151" rx="14.1716" fill="#E8F1F9"/>
<rect x="215.921" y="21.4247" width="86.3778" height="158.151" rx="14.1716" stroke="#95B5E8" stroke-width="4.59012"/>
<path d="M279.168 25.5975H239.052L235.116 21.4247H283.104L279.168 25.5975Z" fill="#95B5E8"/>
<path d="M150.364 73.5405C151.483 73.5405 152.389 74.4472 152.389 75.5657V77.1727C152.389 77.62 152.212 78.049 151.895 78.3652C151.579 78.6815 151.15 78.8592 150.703 78.8592C149.397 78.8592 148.339 77.8008 148.339 76.4952V75.5657C148.339 74.4472 149.246 73.5405 150.364 73.5405V73.5405Z" fill="#FFD6D2"/>
<path d="M150.703 78.8591C149.397 78.8591 148.339 77.8007 148.339 76.4951" stroke="#5A3C2A" stroke-width="0.411976"/>
<path d="M170.41 65.0946C170.435 65.0918 170.461 65.0913 170.486 65.0888C170.447 65.0686 170.42 65.0549 170.42 65.0549C170.417 65.0684 170.413 65.0812 170.41 65.0946Z" fill="#5A3C2A"/>
<path d="M156.987 144.518L178.566 119.554" stroke="white" stroke-width="0.411976"/>
<path d="M140.539 107.957L140.539 107.957" stroke="white" stroke-width="0.411976"/>
<path d="M153.695 105.378L153.695 105.378" stroke="white" stroke-width="0.411976"/>
<path fill-rule="evenodd" clip-rule="evenodd" d="M205.263 1.53186C189.101 1.53186 176 14.6333 176 30.7947C176 46.9561 189.101 60.0576 205.263 60.0576H225.747L232.998 69.5905C233.374 70.0847 234.017 70.2987 234.616 70.1294C235.216 69.9601 235.649 69.4422 235.708 68.8252L236.623 59.1849C249.343 56.0044 258.765 44.4998 258.765 30.7947C258.765 14.6333 245.663 1.53186 229.502 1.53186H205.263Z" fill="white"/>
<path d="M225.747 60.0576L226.344 59.6035L226.119 59.3076H225.747V60.0576ZM232.998 69.5905L232.401 70.0445H232.401L232.998 69.5905ZM234.616 70.1294L234.412 69.4077H234.412L234.616 70.1294ZM235.708 68.8252L236.454 68.8961V68.8961L235.708 68.8252ZM236.623 59.1849L236.441 58.4573L235.927 58.5859L235.877 59.114L236.623 59.1849ZM176.75 30.7947C176.75 15.0475 189.516 2.28186 205.263 2.28186V0.78186C188.687 0.78186 175.25 14.2191 175.25 30.7947H176.75ZM205.263 59.3076C189.516 59.3076 176.75 46.5419 176.75 30.7947H175.25C175.25 47.3703 188.687 60.8076 205.263 60.8076V59.3076ZM225.747 59.3076H205.263V60.8076H225.747V59.3076ZM225.15 60.5116L232.401 70.0445L233.595 69.1364L226.344 59.6035L225.15 60.5116ZM232.401 70.0445C232.965 70.7851 233.925 71.1039 234.82 70.8512L234.412 69.4077C234.108 69.4935 233.784 69.3843 233.595 69.1364L232.401 70.0445ZM234.82 70.8512C235.715 70.5983 236.366 69.8233 236.454 68.8961L234.961 68.7543C234.932 69.061 234.716 69.3219 234.412 69.4077L234.82 70.8512ZM236.454 68.8961L237.37 59.2558L235.877 59.114L234.961 68.7543L236.454 68.8961ZM258.015 30.7947C258.015 44.1475 248.835 55.3583 236.441 58.4573L236.805 59.9125C249.851 56.6505 259.515 44.8521 259.515 30.7947H258.015ZM229.502 2.28186C245.249 2.28186 258.015 15.0475 258.015 30.7947H259.515C259.515 14.2191 246.077 0.78186 229.502 0.78186V2.28186ZM205.263 2.28186H229.502V0.78186H205.263V2.28186Z" fill="#EAF0FF"/>
<path d="M202.135 33.4069C203.586 33.4069 204.762 32.2374 204.762 30.7948C204.762 29.3521 203.586 28.1826 202.135 28.1826C200.685 28.1826 199.509 29.3521 199.509 30.7948C199.509 32.2374 200.685 33.4069 202.135 33.4069Z" fill="#0D51FF"/>
<path d="M217.382 33.4069C218.833 33.4069 220.009 32.2374 220.009 30.7948C220.009 29.3521 218.833 28.1826 217.382 28.1826C215.932 28.1826 214.756 29.3521 214.756 30.7948C214.756 32.2374 215.932 33.4069 217.382 33.4069Z" fill="#0D51FF"/>
<path d="M232.629 33.4069C234.08 33.4069 235.256 32.2374 235.256 30.7948C235.256 29.3521 234.08 28.1826 232.629 28.1826C231.179 28.1826 230.003 29.3521 230.003 30.7948C230.003 32.2374 231.179 33.4069 232.629 33.4069Z" fill="#0D51FF"/>
<path fill-rule="evenodd" clip-rule="evenodd" d="M260 34V31.0916C260 14.2814 246.668 0.58507 230 0V1.94575C245.593 2.52979 258.056 15.3554 258.056 31.0916V34H260Z" fill="#95B5E8"/>
<path fill-rule="evenodd" clip-rule="evenodd" d="M175 28L175 30.1953C175 42.2975 181.91 52.7856 192 57.9296L192 55.7273C183.022 50.7549 176.944 41.1849 176.944 30.1953L176.944 28L175 28Z" fill="#95B5E8"/>
<path d="M151.014 156.199L143.668 138.683L129.797 132.036C129.797 132.036 110.022 182.36 141.539 198.839C173.055 215.318 151.014 156.199 151.014 156.199Z" fill="#FFD6D2"/>
<path d="M154.488 104.238L154.488 104.238C163.16 107.036 167.921 116.334 165.123 125.005L158.618 145.165L127.216 135.032L133.72 114.873C135.064 110.708 138.007 107.248 141.901 105.254C145.796 103.259 150.324 102.894 154.488 104.238Z" fill="#0D2460"/>
<path d="M125.31 252.973L93.0837 252.973V252.973C106.024 286.58 140.517 306.743 176.15 301.529L191.912 299.222L125.31 252.973Z" fill="#0D51FF"/>
<path d="M188.99 258.575C188.99 258.575 167.357 317.076 150.705 361.083L156.149 369.766H118.267L142.024 254.868" fill="#F2C0C0"/>
<path d="M150.705 361.083C154.961 349.835 159.543 337.641 164.005 325.718L126.746 328.758L118.267 369.766H156.149L150.705 361.083Z" fill="#C7DCF9"/>
<path d="M118.267 369.766L142.024 254.868" stroke="#0D2460" stroke-width="0.411976"/>
<path d="M150.705 361.083L156.149 369.766H118.267" fill="#0D2460"/>
<path d="M193.109 291.474C193.109 291.474 189.552 351.45 189.552 361.083L194.997 369.766H163.513L151.356 273.96" fill="#FFD6D2"/>
<path d="M157.986 326.209L163.513 369.766H194.997L189.552 361.083C189.552 356.348 190.412 339.451 191.286 323.491L157.986 326.209Z" fill="#C7DCF9"/>
<path d="M163.513 369.766L151.356 273.96" stroke="#0D2460" stroke-width="0.411976"/>
<path d="M189.552 361.083L194.997 369.766H163.513" fill="#0D51FF"/>
<path d="M149.971 77.9913H167.357V97.4392C167.357 102.24 163.465 106.132 158.664 106.132C153.863 106.132 149.971 102.24 149.971 97.4392V77.9913H149.971Z" fill="#FFD6D2"/>
<path d="M152.372 79.0584C152.372 87.5298 158.125 94.3972 165.221 94.3972C165.938 94.3962 166.654 94.3242 167.357 94.1822V76.1619H152.604C152.45 77.1197 152.373 78.0883 152.372 79.0584V79.0584Z" fill="#5A3C2A"/>
<path d="M171.805 62.303C173.562 65.2436 174.321 68.6731 173.97 72.0803C173.815 73.9997 173.787 75.9273 173.887 77.8504C174.038 82.6508 171.412 87.1095 167.141 89.3062C165.472 90.1844 162.472 90.4533 160.665 89.9147C156.583 88.6986 150.504 85.0283 150.364 77.0251C150.325 74.812 149.603 72.8371 149.022 70.7012C148.518 68.8459 148.373 66.1499 149.836 62.8182C153.064 55.4694 165.803 52.5805 171.805 62.303Z" fill="#FFD6D2"/>
<path d="M156.033 70.668C157.452 69.2498 159.751 69.2498 161.169 70.668" stroke="#0D2460" stroke-width="0.82"/>
<path d="M167.357 70.668C168.775 69.2498 171.075 69.2498 172.493 70.668" stroke="#0D2460" stroke-width="0.82"/>
<path d="M149.971 97.4392V80.0745" stroke="#0D2460" stroke-width="0.411976"/>
<path d="M169.298 62.406L168.681 64.7952C168.052 67.2408 165.898 68.9877 163.376 69.0989C160.461 69.2253 156.408 69.3172 152.372 69.135L152.006 72.0533C151.141 78.9602 151.155 85.949 152.049 92.8523C152.049 92.8523 123.211 85.1334 138.317 64.1912C153.422 43.2491 166.108 52.0692 166.108 52.0692C166.108 52.0692 171.749 50.0124 176.095 57.222C180.441 64.4316 188.364 88.2232 167.357 94.0938V89.1892C167.357 89.1892 171.793 86.8614 173.061 82.7531C174.33 78.6447 173.893 74.8231 173.86 73.8706C173.815 72.5681 173.846 69.6628 173.747 68.8488C171.735 68.8488 170.028 67.3741 169.736 65.3842L169.298 62.406Z" fill="#0D2460"/>
<path d="M158.601 77.8505C158.948 77.8505 159.229 77.481 159.229 77.0252C159.229 76.5693 158.948 76.1998 158.601 76.1998C158.255 76.1998 157.974 76.5693 157.974 77.0252C157.974 77.481 158.255 77.8505 158.601 77.8505Z" fill="#0D51FF"/>
<path d="M169.925 77.8505C170.271 77.8505 170.552 77.481 170.552 77.0252C170.552 76.5693 170.271 76.1998 169.925 76.1998C169.579 76.1998 169.298 76.5693 169.298 77.0252C169.298 77.481 169.579 77.8505 169.925 77.8505Z" fill="#0D51FF"/>
<path d="M166.831 82.671C165.413 84.0892 163.113 84.0892 161.695 82.671" stroke="#0D2460" stroke-width="0.82"/>
<path d="M167.357 94.0938C188.364 88.2231 180.441 64.4315 176.095 57.2219" stroke="#0D2460" stroke-width="0.411976"/>
<path d="M152.006 72.0533C151.141 78.9602 151.155 85.949 152.049 92.8523" stroke="white" stroke-width="0.411976"/>
<path d="M172.923 98.66L171.522 94.0939L167.357 94.8834V99.4152L159.229 99.4496L155.517 94.0939H145.526L144.29 99.9645C144.29 99.9645 132.366 106.921 132.961 122.898C133.387 134.347 138.591 141.299 145.422 178.411L193.11 171.234C193.11 171.234 192.663 102.005 172.923 98.66Z" fill="#0D51FF"/>
<path d="M200.046 146.867C194.315 159.647 177.478 164.542 162.439 157.798C147.401 151.055 139.856 135.227 145.587 122.447C151.318 109.666 161.054 120.606 176.093 127.349C191.132 134.093 205.777 134.086 200.046 146.867Z" fill="#0D2460"/>
<path d="M153.523 138.278C154.796 138.69 179.731 174.528 204.851 149.608C230.805 123.859 235.749 108.234 231.629 104.167C231.629 104.167 239.045 92.2737 234.925 94.3336C230.805 96.3935 188.784 129.421 188.784 129.421L171.522 115.414" fill="#FFD6D2"/>
<path d="M153.523 138.278C154.796 138.69 179.731 174.528 204.851 149.608" stroke="#0D2460" stroke-width="0.411976"/>
<path d="M145.422 178.411L193.109 171.234C193.109 171.234 197.356 238.143 193.109 297.464L93.0837 252.973C93.0837 252.973 109.396 228.881 145.422 178.411Z" fill="#0D2460"/>
<path d="M193.109 297.464L93.0837 252.973" stroke="white" stroke-width="0.411976"/>
<path d="M178.566 119.554L156.987 144.518L140.962 130.665C137.652 127.804 135.613 123.745 135.296 119.38C134.979 115.016 136.408 110.705 139.269 107.394L139.269 107.394C145.228 100.501 155.647 99.7432 162.54 105.702L178.566 119.554L178.566 119.554Z" fill="#0D51FF"/>
<path d="M178.566 119.554L162.54 105.702" stroke="white" stroke-width="0.411976"/>
<path d="M164 80.6308H164.721C164.979 80.6308 165.189 80.4212 165.189 80.1626V73" stroke="#0D2460" stroke-width="0.7"/>
<rect x="11.257" y="56.257" width="83.486" height="83.486" rx="0.233831" fill="#E8F1F9"/>
<path d="M44.9994 123.405H38.4039V128.705H30.3724V118.182L21.0972 108.907H11.257V139.509C11.2574 139.638 11.3619 139.743 11.4909 139.743H57.8866V116.701H44.9994V123.405Z" fill="#D7E8F7"/>
<path d="M88.9081 91.6036L78.7754 101.736V126.366H70.9811V120.287H65.525V109.219H53V139.743H94.5091C94.6381 139.743 94.7426 139.638 94.743 139.509V97.4385L88.9081 91.6036Z" fill="#D7E8F7"/>
<rect x="11.257" y="56.257" width="83.486" height="83.486" rx="0.233831" stroke="#95B5E8" stroke-width="0.467662"/>
<path d="M53 51V145" stroke="#95B5E8" stroke-width="0.467662"/>
<path d="M100 98H6" stroke="#95B5E8" stroke-width="0.467662"/>
<path d="M42.947 69.9398C44.1519 69.9398 45.3075 70.4185 46.1594 71.2705C47.0114 72.1224 47.4901 73.278 47.4901 74.4829H38.4039C38.4039 73.278 38.8826 72.1224 39.7346 71.2705C40.5866 70.4185 41.7421 69.9398 42.947 69.9398V69.9398Z" fill="white"/>
<path d="M28.6436 71.1852C29.5182 71.1852 30.357 71.5326 30.9754 72.1511C31.5939 72.7695 31.9413 73.6083 31.9413 74.4829H25.3459C25.3459 73.6083 25.6934 72.7695 26.3118 72.1511C26.9302 71.5326 27.769 71.1852 28.6436 71.1852V71.1852Z" fill="white"/>
<path d="M36.6555 66.1391C38.8684 66.1391 40.9907 67.0181 42.5555 68.5829C44.1203 70.1477 44.9993 72.27 44.9993 74.4829H28.3116C28.3116 72.27 29.1907 70.1477 30.7555 68.5829C32.3203 67.0181 34.4426 66.1391 36.6555 66.1391Z" fill="white"/>
<path d="M49.634 74.4829H23.5293" stroke="#95B5E8" stroke-width="0.467662"/>
<path d="M70.9176 83.6813C71.4499 83.6813 71.9603 83.8927 72.3367 84.2691C72.713 84.6454 72.9245 85.1559 72.9245 85.6881H68.9108C68.9108 85.1559 69.1223 84.6454 69.4986 84.2691C69.875 83.8927 70.3854 83.6813 70.9176 83.6813Z" fill="white"/>
<path d="M64.5994 84.2314C65.4039 84.2314 66.0561 84.8836 66.0561 85.6881H63.1427C63.1427 85.3018 63.2962 84.9313 63.5694 84.6581C63.8425 84.3849 64.2131 84.2314 64.5994 84.2314Z" fill="white"/>
<path d="M68.1385 82.0023C69.116 82.0023 70.0535 82.3907 70.7447 83.0819C71.4359 83.7731 71.8242 84.7106 71.8242 85.6881H64.4528C64.4528 84.7106 64.8411 83.7731 65.5323 83.0819C66.2235 82.3907 67.161 82.0023 68.1385 82.0023V82.0023Z" fill="white"/>
<path d="M73.8715 85.6881H62.3402" stroke="#95B5E8" stroke-width="0.467662"/>
</svg>
