<svg width="20" height="20" viewBox="0 0 20 20" fill="none" xmlns="http://www.w3.org/2000/svg">
<path d="M0.999947 20C0.738947 20 0.482947 19.897 0.292947 19.707C0.0249474 19.439 -0.0680525 19.043 0.0509475 18.684L1.82295 13.367C1.27995 12.154 0.996947 10.826 0.999947 9.498C1.00095 5.879 3.01495 2.624 6.25295 1.006C7.55295 0.348 9.01595 0 10.4789 0H10.9999C15.8869 0.268 19.7309 4.113 19.9979 8.945L19.9999 9.5C20.0039 10.968 19.6559 12.438 18.9919 13.751C17.3759 16.986 14.1209 18.999 10.4999 19C9.15895 19 7.83695 18.716 6.63395 18.176L1.31595 19.948C1.21295 19.983 1.10595 20 0.999947 20ZM10.4999 2C9.32795 2 8.17695 2.274 7.15095 2.792C4.58995 4.072 3.00095 6.642 2.99995 9.5C2.99695 10.66 3.27095 11.817 3.79195 12.848C3.91195 13.086 3.93295 13.363 3.84795 13.616L2.57995 17.419L6.38295 16.151C6.63595 16.064 6.91295 16.088 7.15095 16.207C8.17695 16.726 9.32595 17 10.4749 17C13.3579 16.999 15.9279 15.41 17.2049 12.853C17.7289 11.817 18.0039 10.66 17.9999 9.503V9C17.7909 5.243 14.7579 2.209 10.9449 1.999L10.4999 2Z" fill="white"/>
</svg>
