<svg width="369" height="397" viewBox="0 0 369 397" fill="none" xmlns="http://www.w3.org/2000/svg">
<circle cx="192.5" cy="220.5" r="176.5" fill="#F4F7FF"/>
<path d="M244.145 150C240.924 150 237.835 151.28 235.557 153.558C233.28 155.837 232 158.927 232 162.149H256.291C256.291 158.927 255.011 155.837 252.733 153.558C250.456 151.28 247.366 150 244.145 150V150Z" fill="white"/>
<path d="M220.703 171C221.951 171 223.147 171.496 224.029 172.378C224.911 173.26 225.406 174.457 225.406 175.705H216C216 174.457 216.496 173.26 217.378 172.378C218.26 171.496 219.456 171 220.703 171Z" fill="white"/>
<rect x="128.261" y="173.838" width="120.663" height="120.663" rx="0.337958" transform="rotate(-180 128.261 173.838)" fill="#E8F1F9"/>
<path d="M79.4929 150.224H89.0253V157.885H100.633V142.677L114.039 129.271H128.261V173.501C128.26 173.687 128.109 173.838 127.923 173.838H60.8669V140.536H79.4929V150.224Z" fill="#D7E8F7"/>
<path d="M16.0302 104.262L30.675 118.907V154.505H41.9403V145.718H49.826V129.722H67.9285V173.839H7.93488C7.74846 173.838 7.59746 173.687 7.59692 173.501V112.695L16.0302 104.262Z" fill="#D7E8F7"/>
<rect x="128.261" y="173.838" width="120.663" height="120.663" rx="0.337958" transform="rotate(-180 128.261 173.838)" stroke="#95B5E8" stroke-width="0.998621"/>
<path d="M67.9298 45.5776V181.437" stroke="#95B5E8" stroke-width="0.998621"/>
<path d="M0 113.507H135.859" stroke="#95B5E8" stroke-width="0.998621"/>
<path d="M82.459 72.9517C80.7175 72.9517 79.0474 73.6434 77.816 74.8748C76.5846 76.1062 75.8928 77.7764 75.8928 79.5178H89.0251C89.0251 77.7764 88.3333 76.1062 87.102 74.8748C85.8706 73.6434 84.2004 72.9517 82.459 72.9517Z" fill="white"/>
<path d="M103.133 74.7515C101.869 74.7515 100.656 75.2536 99.7624 76.1474C98.8686 77.0413 98.3665 78.2536 98.3665 79.5177H107.899C107.899 78.2536 107.397 77.0413 106.503 76.1474C105.609 75.2536 104.397 74.7515 103.133 74.7515Z" fill="white"/>
<path d="M91.5516 67.458C88.3533 67.458 85.2859 68.7286 83.0243 70.9901C80.7627 73.2517 79.4922 76.3191 79.4922 79.5175H103.611C103.611 76.3191 102.341 73.2517 100.079 70.9901C97.8174 68.7285 94.75 67.458 91.5516 67.458Z" fill="white"/>
<path d="M72.7952 79.5177H110.525" stroke="#95B5E8" stroke-width="0.998621"/>
<path d="M42.034 92.812C40.4321 92.812 39.1335 94.1106 39.1335 95.7125H44.9345C44.9345 94.1106 43.6359 92.812 42.034 92.812Z" fill="white"/>
<path d="M51.1642 93.6069C50.0014 93.6069 49.0588 94.5495 49.0588 95.7123H53.2696C53.2696 94.5495 52.327 93.6069 51.1642 93.6069Z" fill="white"/>
<path d="M46.0487 90.3853C43.1067 90.3853 40.7217 92.7703 40.7217 95.7123H51.3757C51.3757 94.2995 50.8145 92.9445 49.8155 91.9455C48.8165 90.9465 47.4615 90.3853 46.0487 90.3853V90.3853Z" fill="white"/>
<path d="M37.7629 95.7125H54.4292" stroke="#95B5E8" stroke-width="0.998621"/>
<path d="M361.843 376.338H171.126" stroke="#95B5E8" stroke-width="0.998621"/>
<path d="M342.705 201.82H191.884C191.735 201.821 191.614 201.941 191.614 202.09V376.067C191.614 376.216 191.735 376.337 191.884 376.337H205.242L210.641 361.938H323.948L329.347 376.337H342.705C342.854 376.337 342.975 376.216 342.975 376.067V202.09C342.975 201.941 342.854 201.821 342.705 201.82Z" fill="#D7E8F7"/>
<path d="M342.705 201.82H191.883" stroke="#95B5E8" stroke-width="0.998621"/>
<path d="M210.641 361.938H323.949" stroke="#95B5E8" stroke-width="0.998621"/>
<rect x="205.85" y="220.104" width="58.9655" height="58.9655" fill="#E8F1F9"/>
<path d="M264.815 220.104V279.07H205.85" stroke="#95B5E8" stroke-width="0.998621"/>
<path d="M235.333 252.465C236.923 252.465 238.211 251.176 238.211 249.587C238.211 247.998 236.923 246.709 235.333 246.709C233.744 246.709 232.456 247.998 232.456 249.587C232.456 251.176 233.744 252.465 235.333 252.465Z" fill="#95B5E8"/>
<rect x="269.773" y="220.104" width="58.9655" height="58.9655" fill="#E8F1F9"/>
<path d="M328.739 220.104V279.07H269.773" stroke="#95B5E8" stroke-width="0.998621"/>
<path d="M299.254 252.465C300.844 252.465 302.132 251.176 302.132 249.587C302.132 247.998 300.844 246.709 299.254 246.709C297.665 246.709 296.377 247.998 296.377 249.587C296.377 251.176 297.665 252.465 299.254 252.465Z" fill="#95B5E8"/>
<rect x="269.773" y="284.026" width="58.9655" height="58.9655" fill="#E8F1F9"/>
<path d="M328.739 284.026V342.992H269.773" stroke="#95B5E8" stroke-width="0.998621"/>
<path d="M299.254 316.387C300.844 316.387 302.132 315.098 302.132 313.509C302.132 311.92 300.844 310.631 299.254 310.631C297.665 310.631 296.377 311.92 296.377 313.509C296.377 315.098 297.665 316.387 299.254 316.387Z" fill="#95B5E8"/>
<rect x="205.85" y="284.026" width="58.9655" height="58.9655" fill="#E8F1F9"/>
<path d="M264.815 284.026V342.992H205.85" stroke="#95B5E8" stroke-width="0.998621"/>
<path d="M235.333 316.387C236.923 316.387 238.211 315.098 238.211 313.509C238.211 311.92 236.923 310.631 235.333 310.631C233.744 310.631 232.456 311.92 232.456 313.509C232.456 315.098 233.744 316.387 235.333 316.387Z" fill="#95B5E8"/>
<path d="M142.973 126.393L151.702 150.802L175.648 124.939C175.648 124.939 178.333 117.083 182.46 121.743C182.46 121.743 195.376 116.95 195.509 119.613C195.6 121.44 189.988 125.837 186.456 128.417C184.669 129.721 183.38 131.595 182.801 133.729C179.828 144.7 169.307 178.896 154.134 177C136.077 174.745 124.917 157.117 124.917 157.117" fill="#F2C0C0"/>
<path d="M125.81 221.538C125.81 221.538 138.548 298.434 43.2842 333.184L36.4165 341.554L22.0486 315.004L81.4831 259.945C81.4831 259.945 80.6055 205.96 96.8619 193.978" fill="#FFD6D2"/>
<path d="M43.2843 333.184L36.4162 341.554L22.0486 315.004" fill="#0D51FF"/>
<path d="M141.378 238.382C142.976 241.578 142.235 368.362 142.235 368.362L146.644 376.337H118.55L101.819 234.787" fill="#FFD6D2"/>
<path d="M125.811 221.538C125.811 221.538 138.548 298.434 43.2844 333.184" stroke="#0D2460" stroke-width="0.49931"/>
<path d="M142.234 368.362L146.644 376.337H118.549" fill="#0D2460"/>
<path d="M114.621 95.4547C114.621 95.4547 101.672 94.581 101.173 106.065C100.937 111.488 99.9219 115.397 98.916 118.012C98.5852 118.851 98.7507 119.805 99.3448 120.484C99.9388 121.162 100.862 121.453 101.738 121.236C110.174 119.122 125.521 113.144 118.39 98.4879" fill="#0D2460"/>
<path d="M114.622 95.4547C114.622 95.4547 101.673 94.581 101.174 106.065" stroke="#0D2460" stroke-width="0.49931"/>
<path d="M117.725 99.7735C120.028 99.7735 121.895 97.9069 121.895 95.6043C121.895 93.3017 120.028 91.4351 117.725 91.4351C115.423 91.4351 113.556 93.3017 113.556 95.6043C113.556 97.9069 115.423 99.7735 117.725 99.7735Z" fill="#0D2460"/>
<path d="M116.488 93.4351H133.345V112.292C133.345 114.527 132.457 116.671 130.877 118.251C129.296 119.832 127.152 120.72 124.917 120.72C122.681 120.72 120.537 119.832 118.957 118.251C117.376 116.671 116.488 114.527 116.488 112.292V93.4351Z" fill="#FFD6D2"/>
<path d="M118.816 94.4696C118.816 102.683 124.394 109.342 131.274 109.342C131.97 109.341 132.664 109.271 133.346 109.134V91.6611H119.041C118.892 92.5898 118.817 93.5289 118.816 94.4696H118.816Z" fill="#5A3C2A"/>
<path d="M139.525 94.3618C138.622 94.3618 137.89 93.6297 137.89 92.7267V91.1685C137.89 90.0841 138.769 89.2049 139.853 89.2049C140.938 89.2049 141.817 90.0841 141.817 91.1685V92.0697C141.817 93.3356 140.791 94.3618 139.525 94.3618L139.525 94.3618Z" fill="#F2C0C0"/>
<path d="M137.658 78.2241C139.361 81.0753 140.097 84.4005 139.757 87.704C139.607 89.5651 139.579 91.4341 139.676 93.2987C139.823 97.9531 137.277 102.276 133.136 104.406C131.164 105.285 128.958 105.492 126.856 104.996C122.899 103.817 117.004 100.258 116.869 92.4985C116.831 90.3527 116.13 88.4378 115.568 86.3669C115.079 84.5681 114.938 81.9541 116.357 78.7236C119.487 71.5983 131.838 68.7972 137.658 78.2241Z" fill="#FFD6D2"/>
<path d="M117.55 90.4531C117.55 90.4531 131.667 89.8539 135.227 82.1312C135.227 82.1312 139.908 83.2915 139.664 89.1192C139.664 89.1192 143.9 83.6529 140.769 77.3379C137.638 71.0228 129.287 67.8481 123.339 68.912C115.15 70.3766 102.577 83.0633 116.488 96.5779" fill="#0D2460"/>
<path d="M117.552 90.4537C117.552 90.4537 131.668 89.8545 135.228 82.1318" stroke="#0D51FF" stroke-width="0.49931"/>
<path d="M116.87 89.1196C117.954 89.1196 118.833 89.9988 118.833 91.0832V92.6414C118.833 93.5444 118.101 94.2765 117.198 94.2765C115.932 94.2765 114.906 93.2503 114.906 91.9844V91.0833C114.906 89.9988 115.785 89.1196 116.87 89.1196Z" fill="#FFD6D2"/>
<path d="M122.366 86.3345C123.741 84.9595 125.971 84.9595 127.346 86.3345" stroke="white" stroke-width="0.68"/>
<path d="M133.347 86.3345C134.722 84.9595 136.951 84.9595 138.326 86.3345" stroke="white" stroke-width="0.68"/>
<path d="M124.857 93.2982C125.193 93.2982 125.465 92.94 125.465 92.498C125.465 92.056 125.193 91.6978 124.857 91.6978C124.521 91.6978 124.249 92.056 124.249 92.498C124.249 92.94 124.521 93.2982 124.857 93.2982Z" fill="#0D51FF"/>
<path d="M135.836 93.2982C136.172 93.2982 136.444 92.94 136.444 92.498C136.444 92.056 136.172 91.6978 135.836 91.6978C135.5 91.6978 135.228 92.056 135.228 92.498C135.228 92.94 135.5 93.2982 135.836 93.2982Z" fill="#0D51FF"/>
<path d="M131.275 88.0488V95.7896C131.275 96.0402 131.072 96.2433 130.821 96.2433H130.123" stroke="#0D2460" stroke-width="0.68"/>
<path d="M131.274 88.0488V93.5542" stroke="#0D2460" stroke-width="0.68"/>
<path d="M132.836 97.9722C131.461 99.3472 129.232 99.3472 127.856 97.9722" stroke="#0D2460" stroke-width="0.68"/>
<path d="M136.307 80.9301C136.331 80.9273 136.356 80.9268 136.38 80.9244C136.343 80.9048 136.317 80.8915 136.317 80.8915C136.314 80.9046 136.31 80.917 136.307 80.9301Z" fill="#5A3C2A"/>
<path d="M113.684 115.52L111.418 107.077L138.349 108.828L137.624 114.816C137.624 114.816 151.458 121.743 142.974 160.09L147.102 258.887L71.8726 238.382L108.356 155.963C108.356 155.963 100.968 122.086 113.684 115.52Z" fill="#0D2460"/>
<path d="M142.553 160.978C125.008 163.262 112.122 170.844 112.122 179.846C112.122 189.118 125.789 196.883 144.138 198.906L142.553 160.978Z" fill="#0D51FF"/>
<path d="M107.365 125.205C107.365 125.205 84.9296 154.631 106.3 171.807C127.671 188.984 160.568 172.214 169.546 164.75C169.546 164.75 180.032 159.916 179.632 158.185C179.233 156.454 167.149 158.093 167.149 158.093C167.149 158.093 164.952 155.535 162.622 157.694C157.163 162.753 125.074 157.96 125.074 157.96L126.938 147.395" fill="#FFD6D2"/>
<path d="M162.622 157.694C157.163 162.754 125.074 157.96 125.074 157.96" stroke="white" stroke-width="0.49931"/>
<path d="M179.631 158.185C179.232 156.454 167.148 158.093 167.148 158.093C167.148 158.093 164.951 155.535 162.621 157.694" stroke="white" stroke-width="0.49931"/>
<path d="M106.299 171.808C127.67 188.984 160.567 172.215 169.545 164.751" stroke="#0D2460" stroke-width="0.49931"/>
<path d="M110.96 107.077L137.891 108.828" stroke="white" stroke-width="0.49931"/>
<path d="M146.644 258.887L71.4143 238.382" stroke="#5A3C2A" stroke-width="0.49931"/>
<path d="M141.377 238.382C142.975 241.577 142.234 368.362 142.234 368.362" stroke="#0D2460" stroke-width="0.49931"/>
<path d="M119.666 115.344L119.666 115.344C128.239 117.479 133.458 126.16 131.323 134.733L126.359 154.663L95.314 146.931L100.277 127.001C102.412 118.428 111.093 113.209 119.666 115.344V115.344Z" fill="#0D2460"/>
<path d="M131.321 134.733L126.358 154.663L95.3123 146.932" stroke="white" stroke-width="0.49931"/>
<path fill-rule="evenodd" clip-rule="evenodd" d="M198.7 29.3867C181.179 55.6095 184.621 90.5577 206.922 112.858C219.292 125.296 236.124 132.269 253.666 132.221C285.204 132.221 312.35 109.942 318.503 79.0106C324.656 48.0786 308.101 17.1079 278.964 5.03887C249.827 -7.03016 216.222 3.16386 198.7 29.3867ZM236.207 108.264C219.159 101.202 208.043 84.5666 208.043 66.1138C208.071 40.9286 228.481 20.5191 253.666 20.4907C272.119 20.4907 288.755 31.6064 295.816 48.6546C302.878 65.7028 298.974 85.3261 285.926 98.3742C272.878 111.422 253.255 115.326 236.207 108.264Z" fill="#D7E8F7"/>
<rect x="162.472" y="142.823" width="60.6827" height="20.4836" transform="rotate(-45 162.472 142.823)" fill="#D7E8F7"/>
<rect x="158.802" y="146.494" width="25.2909" height="20.4836" transform="rotate(-45 158.802 146.494)" fill="#95B5E8"/>
<path d="M176.686 128.611L158.802 146.495L173.286 160.979" stroke="#95B5E8" stroke-width="0.998621"/>
<path d="M253.667 111.737C278.863 111.737 299.29 91.3107 299.29 66.1138C299.29 40.9169 278.863 20.4907 253.667 20.4907C228.47 20.4907 208.043 40.9169 208.043 66.1138C208.043 91.3107 228.47 111.737 253.667 111.737Z" fill="#E8F1F9"/>
<rect x="307.48" y="110.686" width="39.1979" height="55.2241" fill="#E8F1F9"/>
<path d="M346.678 165.91H307.48" stroke="#95B5E8" stroke-width="0.998621"/>
<path d="M332.232 177.38V177.278H321.927V177.38C321.914 179.432 321.062 181.39 319.569 182.797C314.393 188.009 314.182 196.353 319.087 201.82H335.072C339.977 196.353 339.766 188.009 334.59 182.797C333.097 181.39 332.245 179.432 332.232 177.38Z" fill="#D7E8F7"/>
<path d="M327.078 177.278V165.91" stroke="#95B5E8" stroke-width="0.998621"/>
<path d="M346.678 201.82H307.48" stroke="#95B5E8" stroke-width="0.998621"/>
<path d="M340.344 165.91V174.47" stroke="#95B5E8" stroke-width="0.998621"/>
<path d="M340.344 174.335C341.299 174.335 342.073 175.109 342.073 176.063C342.073 177.018 341.299 177.792 340.344 177.792C339.39 177.792 338.616 177.018 338.616 176.063" stroke="#95B5E8" stroke-width="0.998621"/>
<path d="M253.667 81.9841C268.852 81.9841 281.162 74.8787 281.162 66.1136C281.162 57.3486 268.852 50.2432 253.667 50.2432C238.483 50.2432 226.173 57.3486 226.173 66.1136C226.173 74.8787 238.483 81.9841 253.667 81.9841Z" fill="#95B5E8"/>
<path d="M253.667 73.4129C257.698 73.4129 260.966 70.1451 260.966 66.1141C260.966 62.0832 257.698 58.8154 253.667 58.8154C249.636 58.8154 246.368 62.0832 246.368 66.1141C246.368 70.1451 249.636 73.4129 253.667 73.4129Z" fill="white"/>
</svg>
