<svg width="31" height="35" viewBox="0 0 31 35" fill="none" xmlns="http://www.w3.org/2000/svg">
<path fill-rule="evenodd" clip-rule="evenodd" d="M26.2918 14.4166H24.7502V9.79163C24.7502 4.70413 20.5877 0.541626 15.5002 0.541626C10.4127 0.541626 6.25016 4.70413 6.25016 9.79163V14.4166H4.7085C2.08766 14.4166 0.0834961 16.4208 0.0834961 19.0416V29.8333C0.0834961 32.4541 2.08766 34.4583 4.7085 34.4583H26.2918C28.9127 34.4583 30.9168 32.4541 30.9168 29.8333V19.0416C30.9168 16.4208 28.9127 14.4166 26.2918 14.4166ZM9.3335 9.79163C9.3335 6.39996 12.1085 3.62496 15.5002 3.62496C18.8918 3.62496 21.6668 6.39996 21.6668 9.79163V14.4166H9.3335V9.79163ZM26.2918 31.375C27.2168 31.375 27.8335 30.7583 27.8335 29.8333V19.0416C27.8335 18.1166 27.2168 17.5 26.2918 17.5H4.7085C3.7835 17.5 3.16683 18.1166 3.16683 19.0416V29.8333C3.16683 30.7583 3.7835 31.375 4.7085 31.375H26.2918Z" fill="#1C1C1C"/>
</svg>
