<svg width="18" height="22" viewBox="0 0 18 22" fill="none" xmlns="http://www.w3.org/2000/svg">
    <path fill-rule="evenodd" clip-rule="evenodd" d="M17.2 2L9.2 0H8.7L0.7 2C0.3 2.1 0 2.5 0 3V11C0 17.5 8.2 21.7 8.6 21.9C8.7 22 8.8 22 9 22C9.2 22 9.3 22 9.4 21.9C9.8 21.7 18 17.5 18 11V3C18 2.5 17.7 2.1 17.2 2ZM16 11C16 15.5 10.6 18.9 9 19.9C7.4 19 2 15.6 2 11V3.80001L9 2.00001L16 3.80001V11ZM5.2526 10.3356C5.61952 9.92286 6.25159 9.88568 6.66437 10.2526L8.18652 11.6056L11.2705 8.31607C11.6482 7.91316 12.281 7.89274 12.684 8.27047C13.0869 8.6482 13.1073 9.28104 12.7295 9.68395L8.97955 13.684C8.60888 14.0793 7.99071 14.1075 7.58565 13.7474L5.33565 11.7474C4.92286 11.3805 4.88568 10.7484 5.2526 10.3356Z" fill="#1C1C1C"/>
</svg>
