<svg width="353" height="382" viewBox="0 0 353 382" fill="none" xmlns="http://www.w3.org/2000/svg">
<circle cx="176.5" cy="205.5" r="176.5" fill="#F4F7FF"/>
<path d="M53.1453 164C49.9241 164 46.8349 165.28 44.5573 167.558C42.2796 169.837 41 172.927 41 176.149H65.2905C65.2905 172.927 64.0109 169.837 61.7333 167.558C59.4556 165.28 56.3664 164 53.1453 164V164Z" fill="white"/>
<path d="M29.7032 185C30.9505 185 32.1468 185.496 33.0288 186.378C33.9108 187.26 34.4063 188.457 34.4063 189.705H25C25 188.457 25.4955 187.26 26.3775 186.378C27.2595 185.496 28.4558 185 29.7032 185Z" fill="white"/>
<path d="M304.566 142C302.825 142 301.155 142.692 299.923 143.923C298.692 145.155 298 146.825 298 148.566H311.132C311.132 146.825 310.441 145.155 309.209 143.923C307.978 142.692 306.308 142 304.566 142Z" fill="white"/>
<path d="M120.307 65.9301C120.331 65.9273 120.356 65.9268 120.38 65.9244C120.343 65.9048 120.317 65.8915 120.317 65.8915C120.314 65.9046 120.31 65.917 120.307 65.9301Z" fill="#5A3C2A"/>
<path fill-rule="evenodd" clip-rule="evenodd" d="M79.644 361.364V64.0664H267.398V361.364H79.644ZM97.0662 81.4892V324.438H249.975V81.4892H97.0662Z" fill="#D7E8F7"/>
<path d="M309.211 361.364H35.5073" stroke="#95B5E8"/>
<path d="M249.975 324.438H97.0664" stroke="#95B5E8"/>
<path d="M267.397 361.364V64.0664" stroke="#95B5E8"/>
<path d="M97.167 158.635H249.875" stroke="#95B5E8"/>
<path d="M97.167 248.067H172.359" stroke="#95B5E8"/>
<path d="M173.521 158.635V324.438" stroke="#95B5E8"/>
<rect x="116.285" y="107.771" width="7.83268" height="50.8638" fill="#D7E8F7"/>
<path d="M124.118 158.635H116.285V107.771" stroke="#95B5E8"/>
<rect x="126.945" y="107.771" width="7.83268" height="50.8638" fill="#E8F1F9"/>
<path d="M134.777 158.635H126.945V107.771" stroke="#95B5E8"/>
<rect x="137.604" y="107.771" width="7.83268" height="50.8638" fill="#D7E8F7"/>
<path d="M145.437 158.635H137.605V107.771" stroke="#95B5E8"/>
<rect x="148.265" y="107.771" width="7.83268" height="50.8638" fill="#E8F1F9"/>
<path d="M156.097 158.635H148.264V107.771" stroke="#95B5E8"/>
<rect x="158.924" y="107.771" width="7.83268" height="50.8638" fill="#D7E8F7"/>
<path d="M166.757 158.635H158.924V107.771" stroke="#95B5E8"/>
<rect x="167.267" y="110.68" width="7.83268" height="50.8638" transform="rotate(-20.1664 167.267 110.68)" fill="#D7E8F7"/>
<path d="M192.155 155.726L184.802 158.426L167.267 110.68" stroke="#95B5E8"/>
<rect x="239.608" y="324.438" width="7.83268" height="50.8638" transform="rotate(-180 239.608 324.438)" fill="#D7E8F7"/>
<path d="M231.775 324.438H239.608V273.574" stroke="#95B5E8"/>
<rect x="228.949" y="324.438" width="7.83268" height="50.8638" transform="rotate(-180 228.949 324.438)" fill="#E8F1F9"/>
<path d="M221.116 324.438H228.948V273.574" stroke="#95B5E8"/>
<rect x="218.289" y="324.438" width="7.83268" height="50.8638" transform="rotate(-180 218.289 324.438)" fill="#D7E8F7"/>
<path d="M210.457 324.438H218.289V273.574" stroke="#95B5E8"/>
<rect x="192.411" y="324.229" width="7.83268" height="50.8638" transform="rotate(-159.834 192.411 324.229)" fill="#D7E8F7"/>
<path d="M185.059 321.529L192.411 324.229L209.946 276.483" stroke="#95B5E8"/>
<path d="M133.906 225.032C133.906 225.032 130.738 215.8 124.193 212.225C117.648 208.65 123.852 208.361 123.852 208.361C123.852 208.361 118.927 206.439 118.805 202.738C118.683 199.038 123.863 204.375 123.863 204.375C123.863 204.375 116.25 193.57 118.421 191.052C120.593 188.534 126.836 200.987 126.836 200.987C126.836 200.987 125.011 195.094 128.633 195.032C132.256 194.971 131.552 206.118 131.552 206.118C131.552 206.118 130.013 203.702 133.24 204.325C136.468 204.949 134.318 211.596 134.318 211.596C134.318 211.596 136.902 207.361 137.809 210.004C138.716 212.647 136.011 216.53 136.011 216.53C136.011 216.53 140.092 214.933 139.16 216.237C138.229 217.541 137.607 223.762 137.607 223.762" fill="#E8F1F9"/>
<path d="M137.604 189.729C137.604 189.729 135.223 211.327 137.74 222.594" stroke="#95B5E8"/>
<path d="M133.907 225.032C133.907 225.032 130.738 215.8 124.193 212.225" stroke="#95B5E8"/>
<path d="M141.121 225.032C141.121 225.032 144.289 215.8 150.834 212.225C157.379 208.65 151.175 208.361 151.175 208.361C151.175 208.361 156.1 206.439 156.222 202.738C156.344 199.038 151.164 204.375 151.164 204.375C151.164 204.375 158.777 193.57 156.606 191.052C154.434 188.534 148.191 200.987 148.191 200.987C148.191 200.987 150.016 195.094 146.394 195.032C142.771 194.971 143.475 206.118 143.475 206.118C143.475 206.118 145.015 203.702 141.787 204.325C138.559 204.949 140.709 211.596 140.709 211.596C140.709 211.596 138.125 207.361 137.218 210.004C136.311 212.647 139.016 216.53 139.016 216.53C139.016 216.53 134.936 214.933 135.867 216.237C136.798 217.541 137.42 223.762 137.42 223.762" fill="#D7E8F7"/>
<path d="M137.218 210.003C136.311 212.647 139.016 216.529 139.016 216.529C139.016 216.529 134.936 214.932 135.867 216.237" stroke="#95B5E8"/>
<path d="M137.604 248.067C131.328 248.067 126.24 242.979 126.24 236.703V224.008L148.969 221.213V236.703C148.969 242.979 143.881 248.067 137.604 248.067Z" fill="#D7E8F7"/>
<path d="M148.969 236.703C148.969 242.979 143.881 248.067 137.604 248.067" stroke="#95B5E8"/>
<path d="M126.24 229.445V233.615L148.969 230.82V226.651L126.24 229.445Z" fill="#E8F1F9"/>
<path d="M126.24 235.585V237.596L148.969 234.801V232.79L126.24 235.585Z" fill="#E8F1F9"/>
<path d="M112.875 248.067H162.335" stroke="#95B5E8"/>
<path d="M137.345 191.4C137.345 191.4 130.138 188.445 136.591 181.148L136.835 182.777L139.546 180.787L140.269 183.621L141.415 182.174L141.897 183.862L142.621 182.475C142.621 182.475 145.215 192.184 137.345 192.244" fill="#95B5E8"/>
<path d="M104 138C142.108 138 173 107.108 173 68.9999C173 30.8923 142.108 0 104 0C65.8923 0 35 30.8923 35 68.9999C35 107.108 65.8923 138 104 138Z" fill="#E8F1F9"/>
<path d="M173 69C173 107.108 142.108 138 104 138" stroke="#95B5E8" stroke-width="0.636568"/>
<path d="M104 69.112C112.467 69.112 119.331 62.2479 119.331 53.7806C119.331 45.3133 112.467 38.4492 104 38.4492C95.5326 38.4492 88.6685 45.3133 88.6685 53.7806C88.6685 62.2479 95.5326 69.112 104 69.112Z" fill="#95B5E8"/>
<path d="M104 68.6333C88.6169 68.6333 76.1465 81.1038 76.1465 96.4868H131.854C131.854 81.1038 119.383 68.6333 104 68.6333V68.6333Z" fill="#95B5E8"/>
<path d="M76.1465 96.4868H131.854" stroke="#95B5E8" stroke-width="0.636568"/>
<path d="M265.314 114.829C265.314 114.829 295.899 179.401 246.178 207.801C196.457 236.201 248.062 110.75 248.062 110.75" fill="#FFD6D2"/>
<path d="M267.316 115.525L244.872 133.864L233.099 119.456C228.035 113.258 228.953 104.129 235.151 99.0644L235.151 99.0644C241.349 94 250.479 94.9189 255.543 101.117L267.316 115.525L267.316 115.525Z" fill="#0D2460"/>
<path d="M183.977 204.349L110.633 293.244L102.439 294.002L127.033 318.452L202.237 242.807L183.977 204.349Z" fill="#FFD6D2"/>
<path d="M202.237 242.806L191.948 221.136L176.948 212.868L157.728 236.164L196.295 248.783L202.237 242.806Z" fill="#0D51FF"/>
<path d="M129.017 270.962L110.633 293.243L102.439 294.002L127.033 318.452L159.119 286.178C148.997 278.602 138.546 273.407 129.017 270.962Z" fill="#0D2460"/>
<path d="M210.072 240.298L220.732 355.05L215.456 361.364H250.136V254.697L210.072 240.298Z" fill="#FFD6D2"/>
<path d="M250.136 264.953L240.723 251.314L210.072 240.298L211.317 253.7L250.136 266.401V264.953Z" fill="#0D51FF"/>
<path d="M266.958 114.275C273.183 114.275 278.229 109.229 278.229 103.004C278.229 96.7788 273.183 91.7324 266.958 91.7324C260.732 91.7324 255.686 96.7788 255.686 103.004C255.686 109.229 260.732 114.275 266.958 114.275Z" fill="#0D2460"/>
<path d="M258.538 56.8125C258.538 56.8125 270.894 65.2942 265.894 85.1474C260.894 105.001 274.32 110.567 264.061 112.067C253.801 113.567 254.07 93.7912 254.07 93.7912L249.394 90.9006" fill="#0D2460"/>
<path d="M266.159 85C264.433 91.8536 264.903 97.0047 265.837 100.874" stroke="white" stroke-width="0.5"/>
<path d="M237.189 78.0708H254.069V96.9533C254.069 101.615 250.291 105.394 245.629 105.394C240.968 105.394 237.189 101.615 237.189 96.9533V78.0708H237.189Z" fill="#FFD6D2"/>
<path d="M239.521 79.1068C239.521 87.332 245.106 93.9997 251.996 93.9997C252.692 93.9987 253.387 93.9288 254.07 93.7909V76.2944H239.746C239.596 77.2244 239.521 78.1648 239.521 79.1068Z" fill="#5A3C2A"/>
<path d="M260.258 78.999C259.354 78.999 258.621 78.2659 258.621 77.3616V75.8013C258.621 74.7153 259.501 73.835 260.587 73.835C261.673 73.835 262.553 74.7154 262.553 75.8013V76.7038C262.553 77.9714 261.526 78.999 260.258 78.999L260.258 78.999Z" fill="#F2C0C0"/>
<path d="M258.389 62.8389C260.094 65.694 260.831 69.0238 260.49 72.3319C260.34 74.1955 260.313 76.0671 260.409 77.9343C260.556 82.5951 258.007 86.9243 253.86 89.0571C251.885 89.9368 249.676 90.1444 247.572 89.648C243.609 88.4671 237.706 84.9036 237.57 77.133C237.533 74.9843 236.831 73.0667 236.267 70.9929C235.778 69.1916 235.637 66.574 237.058 63.3391C240.192 56.2039 252.561 53.399 258.389 62.8389Z" fill="#FFD6D2"/>
<path d="M260.588 73.8348C260.588 73.8348 240.894 74.2003 240.044 66.1503C240.044 66.1503 240.394 74.031 238.394 75.7157C236.394 77.4003 237.19 82.6144 237.19 82.6144C237.19 82.6144 223.576 67.8137 236.752 56.467C247.828 46.9293 270.992 57.7642 260.588 73.8348Z" fill="#0D2460"/>
<path d="M237.19 82.6142C237.19 82.6142 223.576 67.8135 236.752 56.4668" stroke="#0D51FF" stroke-width="0.5"/>
<path d="M237.571 73.7495C238.092 73.7495 238.592 73.9567 238.961 74.3254C239.33 74.6942 239.537 75.1943 239.537 75.7158V77.2761C239.537 77.7104 239.365 78.1269 239.058 78.434C238.75 78.741 238.334 78.9135 237.9 78.9135C236.632 78.9135 235.604 77.8859 235.604 76.6183V75.7158C235.604 74.6299 236.485 73.7495 237.571 73.7495L237.571 73.7495Z" fill="#FFD6D2"/>
<path d="M237.9 78.9134C236.632 78.9134 235.604 77.8858 235.604 76.6182" stroke="#0D2460" stroke-width="0.5"/>
<path d="M243.075 70.96C244.452 69.583 246.685 69.583 248.062 70.96" stroke="white" stroke-width="0.68"/>
<path d="M254.07 70.96C255.447 69.583 257.679 69.583 259.056 70.96" stroke="white" stroke-width="0.68"/>
<path d="M245.568 77.9342C245.905 77.9342 246.178 77.5755 246.178 77.1329C246.178 76.6903 245.905 76.3315 245.568 76.3315C245.232 76.3315 244.959 76.6903 244.959 77.1329C244.959 77.5755 245.232 77.9342 245.568 77.9342Z" fill="#0D51FF"/>
<path d="M256.563 77.9342C256.899 77.9342 257.172 77.5755 257.172 77.1329C257.172 76.6903 256.899 76.3315 256.563 76.3315C256.227 76.3315 255.954 76.6903 255.954 77.1329C255.954 77.5755 256.227 77.9342 256.563 77.9342Z" fill="#0D51FF"/>
<path d="M251.995 72.6772V80.4287C251.995 80.6797 251.791 80.8831 251.54 80.8831H250.841" stroke="#0D2460" stroke-width="0.68"/>
<path d="M251.995 72.6772V78.1903" stroke="#0D2460" stroke-width="0.68"/>
<path d="M253.559 82.6147C252.182 83.9917 249.949 83.9917 248.572 82.6147" stroke="#0D2460" stroke-width="0.68"/>
<path d="M257.034 65.5491C257.058 65.5464 257.083 65.5459 257.107 65.5435C257.07 65.5238 257.044 65.5105 257.044 65.5105C257.041 65.5236 257.037 65.536 257.034 65.5491Z" fill="#5A3C2A"/>
<path d="M254.07 93.7913L231.994 88.2007L232.767 93.0843C218.367 95.3046 218.947 147.401 218.947 147.401L159.394 224.699L254.07 269.001C254.07 269.001 255.077 93.6058 254.07 93.7913Z" fill="#0D2460"/>
<path d="M223.376 105.995C218.667 122.083 218.948 147.401 218.948 147.401L218.785 147.611C231.539 145.557 241.124 136.782 241.124 126.267C241.124 117.058 233.769 109.189 223.376 105.995Z" fill="#0D51FF"/>
<path d="M237.899 128.319C237.899 128.319 200.049 178.485 158.295 105.395C158.295 105.395 145.283 102.814 154.801 91.8693C154.801 91.8693 144.854 85.0788 148.822 84.5533C152.79 84.0277 205.623 118.735 205.623 118.735L227.325 104.262" fill="#FFD6D2"/>
<path d="M237.9 128.318C237.9 128.318 200.049 178.485 158.295 105.395" stroke="#0D2460" stroke-width="0.5"/>
<path d="M159.394 224.698L254.07 269" stroke="#0D2460" stroke-width="0.5"/>
<path d="M218.061 326.287L220.733 355.05L215.457 361.364H250.136V315.855C237.617 317.618 226.542 321.302 218.061 326.287Z" fill="#0D2460"/>
<path d="M250.136 361.364V254.697" stroke="#0D2460" stroke-width="0.5"/>
<path d="M234.079 133.194L215.739 110.75L230.147 98.9764C236.345 93.9121 245.475 94.8309 250.539 101.029L250.539 101.029C255.603 107.226 254.685 116.356 248.487 121.421L234.079 133.194Z" fill="#0D2460"/>
<path d="M215.74 110.75L234.079 133.194L248.487 121.421" stroke="white" stroke-width="0.5"/>
<path d="M127.033 318.452L202.237 242.807" stroke="#0D2460" stroke-width="0.5"/>
</svg>
