<svg width="256" height="273" viewBox="0 0 256 273" fill="none" xmlns="http://www.w3.org/2000/svg">
    <circle cx="128" cy="144.68" r="128" fill="#F4F7FF"/>
    <path d="M181.33 86.1023L155.78 68.3734C155.78 68.3734 152.653 63.0119 150.562 66.6897C150.562 66.6897 141.716 65.3917 140.754 67.1224C139.793 68.8532 150.177 74.5021 150.177 74.5021C150.177 74.5021 166.205 112.837 190.402 101.939L181.33 86.1023Z" fill="#F2C0C0"/>
    <path d="M208.536 72.7106L208.536 72.7106C212.833 77.4271 212.492 84.7334 207.776 89.0297L196.811 99.0175L181.253 81.9375L192.217 71.9497C196.934 67.6534 204.24 67.9941 208.536 72.7106Z" fill="#0D51FF"/>
    <path d="M215.393 103.343L193.548 110.137C193.548 110.137 182.631 172.801 196.4 249.815L190.252 257.685H217.772L227.043 152.444L215.393 103.343Z" fill="#0D2460"/>
    <path d="M197.677 188.405C197.677 206.904 206.856 222.891 220.17 230.463L227.044 152.444L225.047 144.029C209.149 150.184 197.677 167.724 197.677 188.405Z" fill="#0D51FF"/>
    <path d="M196.401 249.815L190.252 257.685H217.772" fill="#0D2460"/>
    <path d="M197.894 43.5125C197.894 43.5125 191.619 55.3301 204.791 65.8107C217.964 76.2913 229.935 64.7731 229.166 55.6602C228.397 46.5473 216.653 38.4245 216.653 38.4245" fill="#0D2460"/>
    <path d="M197.894 43.5126C197.894 43.5126 191.619 55.3303 204.791 65.8109" stroke="#0D2460" stroke-width="0.497194"/>
    <path d="M201.861 53.3904H214.035V67.0074C214.035 70.369 211.31 73.094 207.948 73.094C204.587 73.094 201.861 70.369 201.861 67.0074V53.3904H201.861Z" fill="#FFD6D2"/>
    <path d="M203.542 54.1375C203.542 60.0691 207.57 64.8775 212.539 64.8775C213.041 64.8767 213.542 64.8263 214.035 64.7269V52.1094H203.705C203.597 52.7801 203.543 53.4583 203.542 54.1375Z" fill="#5A3C2A"/>
    <path d="M218.497 54.0598C217.845 54.0598 217.316 53.5311 217.316 52.879V51.7538C217.316 50.9706 217.951 50.3358 218.734 50.3358C219.518 50.3358 220.152 50.9706 220.152 51.7538V52.4045C220.152 53.3187 219.411 54.0598 218.497 54.0598L218.497 54.0598Z" fill="#F2C0C0"/>
    <path d="M217.149 42.4058C218.379 44.4648 218.91 46.866 218.664 49.2516C218.556 50.5956 218.536 51.9452 218.606 53.2918C218.712 56.6529 216.874 59.7748 213.883 61.3129C212.459 61.9473 210.866 62.0969 209.348 61.739C206.491 60.8874 202.234 58.3176 202.136 52.7139C202.109 51.1644 201.603 49.7815 201.196 48.286C200.843 46.987 200.742 45.0994 201.766 42.7665C204.026 37.6211 212.946 35.5983 217.149 42.4058Z" fill="#FFD6D2"/>
    <path d="M202.628 51.2373C202.628 51.2373 212.822 50.8046 215.393 45.2278C215.393 45.2278 218.773 46.0657 218.597 50.2741C218.597 50.2741 221.656 46.3266 219.395 41.7663C217.134 37.206 211.104 34.9134 206.808 35.6816C200.895 36.7393 191.816 45.9009 201.861 55.6603" fill="#0D2460"/>
    <path d="M202.628 51.2374C202.628 51.2374 212.822 50.8047 215.393 45.2279" stroke="#0D2460" stroke-width="0.497194"/>
    <path d="M202.136 50.274C202.919 50.274 203.554 50.9089 203.554 51.692V52.8172C203.554 53.4693 203.026 53.998 202.373 53.998C201.934 53.998 201.513 53.8236 201.203 53.5132C200.893 53.2028 200.718 52.7818 200.718 52.3428V51.692C200.718 50.9089 201.353 50.274 202.136 50.274L202.136 50.274Z" fill="#FFD6D2"/>
    <path d="M206.106 48.2628C207.099 47.2698 208.709 47.2698 209.702 48.2628" stroke="#0D2460" stroke-width="0.7"/>
    <path d="M214.034 48.2628C215.027 47.2698 216.637 47.2698 217.63 48.2628" stroke="#0D2460" stroke-width="0.7"/>
    <path d="M207.904 53.2918C208.146 53.2918 208.343 53.0331 208.343 52.7139C208.343 52.3948 208.146 52.136 207.904 52.136C207.661 52.136 207.465 52.3948 207.465 52.7139C207.465 53.0331 207.661 53.2918 207.904 53.2918Z" fill="#0D51FF"/>
    <path d="M215.833 53.2918C216.075 53.2918 216.272 53.0331 216.272 52.7139C216.272 52.3948 216.075 52.136 215.833 52.136C215.59 52.136 215.394 52.3948 215.394 52.7139C215.394 53.0331 215.59 53.2918 215.833 53.2918Z" fill="#0D51FF"/>
    <path d="M212.539 49.5009V55.0908C212.539 55.2718 212.392 55.4185 212.211 55.4185H211.706" stroke="#0D2460" stroke-width="0.7"/>
    <path d="M212.538 49.5009V53.4766" stroke="#0D2460" stroke-width="0.7"/>
    <path d="M213.666 56.6669C212.673 57.6599 211.063 57.6599 210.07 56.6669" stroke="#0D2460" stroke-width="0.7"/>
    <path d="M216.172 44.3604C216.19 44.3585 216.208 44.3581 216.225 44.3564C216.198 44.3422 216.179 44.3326 216.179 44.3326C216.177 44.342 216.174 44.351 216.172 44.3604Z" fill="#5A3C2A"/>
    <path d="M216.653 68.5991L217.63 64.8774C217.195 64.8492 198.157 65.8107 198.157 65.8107V69.9763C198.157 69.9763 184.383 65.8107 193.548 110.137H225.855C225.855 110.137 238.899 71.7722 216.653 68.5991Z" fill="#0D51FF"/>
    <path d="M190.773 76.9149C189.743 82.6371 190.035 92.6792 193.548 110.137" stroke="#0D2460" stroke-width="0.497194"/>
    <path d="M213.743 104.891C221.517 100.205 225.874 93.1804 223.475 89.2009C221.076 85.2214 212.83 85.7941 205.056 90.4799C197.283 95.1658 192.925 102.19 195.324 106.17C197.723 110.149 205.969 109.577 213.743 104.891Z" fill="#0D2460"/>
    <path d="M216.172 94.993C216.618 94.993 206.234 111.291 187.051 106.099C167.869 100.906 164.84 67.5896 164.84 67.5896C164.84 67.5896 158.061 64.1281 158.35 62.5416C158.638 60.9551 167.436 61.9331 167.436 61.9331C167.436 61.9331 169.167 60.2956 170.754 61.6349C172.34 62.9742 191.951 88.3291 191.951 88.3291L203.554 79.7047" fill="#FFD6D2"/>
    <path d="M216.172 94.993C216.619 94.993 206.234 111.291 187.052 106.099" stroke="#0D2460" stroke-width="0.497194"/>
    <path d="M217.631 64.8774C217.195 64.8492 198.157 65.8107 198.157 65.8107" stroke="#0D2460" stroke-width="0.497194"/>
    <path d="M201.861 110.137C201.861 110.137 197.868 163.502 217.772 252.346L215.464 257.685H242.868L235.945 160.329C235.945 160.329 239.378 125.785 225.855 110.137" fill="#0D2460"/>
    <path d="M217.772 252.346L215.465 257.685H242.868" fill="#0D51FF"/>
    <path d="M203.097 158.387C205.021 182.096 209.159 213.899 217.772 252.346L215.464 257.685" stroke="#0D51FF" stroke-width="0.497194"/>
    <path d="M226.596 72.7106L226.596 72.7106C230.892 77.4271 230.551 84.7334 225.835 89.0297L214.87 99.0175L199.312 81.9375L210.276 71.9497C214.993 67.6534 222.299 67.9941 226.596 72.7106Z" fill="#0D51FF"/>
    <path d="M225.834 89.0299L214.87 99.0177L199.312 81.9374" stroke="#0D2460" stroke-width="0.497194"/>
    <path d="M29.7224 89.7978C29.7224 89.7978 56.1152 117.202 66.8386 105.089C77.5621 92.9751 86.2007 73.632 86.2007 73.632C86.2007 73.632 89.477 71.7288 88.8813 66.6639C88.8813 66.6639 95.0373 61.2247 93.0515 60.6175C91.0657 60.0104 72.0017 68.9466 63.6613 81.2587C55.3208 93.5708 52.2282 82.7824 52.2282 82.7824" fill="#F2C0C0"/>
    <path d="M46.7276 123.557C46.7276 123.557 67.2356 166.666 60.0866 253.24L63.6611 257.812H40.6256L28.512 172.805L34.0723 120.777" fill="#0D2460"/>
    <path d="M47.406 192.961C47.406 172.144 40.7243 154.334 31.2654 147.042L28.512 172.805L37.0406 232.655C43.3309 223.642 47.406 209.219 47.406 192.961Z" fill="#0D51FF"/>
    <path d="M60.0873 253.24L63.6618 257.812H40.6261" fill="#0D2460"/>
    <path d="M39.2438 122.068C39.2438 122.068 51.1495 200.072 25.1489 253.24L28.5121 257.812H1.45044L12.6201 169.416C12.6201 169.416 6.07019 142.384 6.36511 121.774" fill="#0D2460"/>
    <path d="M25.1489 253.24L28.5123 257.812H1.45044" fill="#0D51FF"/>
    <path d="M36.2112 67.8527C32.6277 67.8527 29.7227 64.9477 29.7227 61.3642V46.8481H42.6997V61.3642C42.6997 63.0851 42.0161 64.7354 40.7993 65.9523C39.5824 67.1691 37.9321 67.8527 36.2112 67.8527Z" fill="#FFD6D2"/>
    <path d="M15.7037 68.9963C15.7037 68.9963 20.3581 61.7248 29.7224 61.3641C39.0867 61.0034 43.5548 58.9182 46.0868 63.8332C48.6187 68.7481 46.7278 123.557 46.7278 123.557L6.3652 121.774C6.3652 121.774 3.77001 87.658 15.7037 68.9963Z" fill="#0D51FF"/>
    <path d="M57.1084 73.632C57.4062 73.8119 70.7531 81.8432 70.7531 81.8432C70.7531 81.8432 100.797 64.1807 108.74 66.9608C116.683 69.741 116.8 70.4719 115.537 70.893C114.273 71.3142 110.623 71.0334 110.623 71.0334C110.623 71.0334 109.36 76.933 103.323 75.6679C103.323 75.6679 79.7773 124.802 42.1707 89.1434" fill="#FFD6D2"/>
    <path d="M103.323 75.6679C103.323 75.6679 79.7773 124.802 42.1707 89.1434" stroke="#0D2460" stroke-width="0.513425"/>
    <path d="M30.0512 50.8755C29.9409 50.8755 29.8318 50.8785 29.7224 50.8806V61.364C29.7226 61.8772 29.7836 62.3886 29.904 62.8875C29.9532 62.8879 30.0019 62.8898 30.0512 62.8898C35.4252 62.8898 39.7817 60.2002 39.7817 56.8826C39.7817 53.565 35.4253 50.8755 30.0512 50.8755Z" fill="#5A3C2A"/>
    <path d="M29.7224 58.8333C35.1758 58.0467 39.2438 54.9875 39.2438 51.3308C39.2438 49.658 38.39 48.111 36.9443 46.8481H29.7224L29.7224 58.8333Z" fill="#5A3C2A"/>
    <path d="M25.2752 43.6935C26.0839 43.6935 26.7395 44.3491 26.7395 45.1578V46.3198C26.7395 46.9932 26.1936 47.5391 25.5202 47.5391C24.5762 47.5391 23.8109 46.7739 23.8109 45.8299V45.1578C23.8109 44.7695 23.9652 44.397 24.2398 44.1224C24.5144 43.8478 24.8869 43.6935 25.2752 43.6935Z" fill="#F2C0C0"/>
    <path d="M24.6025 37.2107C24.6025 37.2107 24.0626 40.2269 24.5839 42.0792C24.8809 43.0597 25.0621 44.0716 25.1238 45.0943L25.9243 45.2719L26.0919 41.7647L26.8179 38.6628" fill="#0D2460"/>
    <path d="M26.9125 35.505C25.6425 37.6311 25.0936 40.1107 25.3473 42.5742C25.4595 43.9621 25.4797 45.3558 25.4078 46.7463C25.2509 50.2756 26.7222 53.5727 29.7224 55.1513C30.9293 55.7863 33.5319 56.1267 35.4852 55.5272C39.0294 54.4394 42.6173 52.0919 42.7183 46.3052C42.744 44.7076 42.9681 43.1194 43.3857 41.5771C43.7503 40.2357 43.8551 38.2864 42.797 35.8774C40.4633 30.564 31.2523 28.4752 26.9125 35.505Z" fill="#FFD6D2"/>
    <path d="M40.3898 44.1736C40.3898 44.1736 40.1746 40.4502 39.2437 39.7055C38.3129 38.9608 32.5328 38.1789 32.5328 38.1789L33.466 41.1763C33.466 41.1763 28.5933 39.6725 28.7255 36.4289C28.7255 36.4289 28.1026 38.8712 29.1079 40.2378C29.1079 40.2378 24.8191 40.6488 23.811 37.0246C22.8029 33.4005 26.4712 28.1381 36.0059 29.131C44.1826 29.9825 45.442 39.5377 43.381 43.9626C43.0387 44.6975 42.1203 44.5955 41.6434 45.03L40.951 47.897" fill="#0D2460"/>
    <path d="M36.0057 29.1309C44.1824 29.9824 45.4418 39.5375 43.3808 43.9625" stroke="#0D51FF" stroke-width="0.513425"/>
    <path d="M28.1796 49.119C28.7902 48.4742 30.2452 47.3776 32.1034 48.9423C32.1034 48.9423 34.3953 47.0534 36.7411 48.9645C39.0869 50.8757 40.2411 51.3274 40.3901 48.3462C40.4945 46.9573 40.4945 45.5625 40.3901 44.1735L40.9688 44.8784C40.9688 44.8784 46.2358 61.1186 32.3659 61.1151C22.4025 61.1126 25.5708 48.2119 25.124 45.0943H25.4472C25.4472 45.0943 25.5708 49.498 26.2969 50.2055C26.902 50.795 27.5888 49.9107 27.801 49.5996C27.9142 49.4296 28.0408 49.2689 28.1796 49.119Z" fill="#0D2460"/>
    <path d="M36.4592 46.7463C36.7097 46.7463 36.9127 46.4791 36.9127 46.1495C36.9127 45.82 36.7097 45.5528 36.4592 45.5528C36.2087 45.5528 36.0057 45.82 36.0057 46.1495C36.0057 46.4791 36.2087 46.7463 36.4592 46.7463Z" fill="#0D51FF"/>
    <path d="M28.2722 46.7463C28.5227 46.7463 28.7258 46.4791 28.7258 46.1495C28.7258 45.82 28.5227 45.5528 28.2722 45.5528C28.0217 45.5528 27.8187 45.82 27.8187 46.1495C27.8187 46.4791 28.0217 46.7463 28.2722 46.7463Z" fill="#0D51FF"/>
    <path d="M32.5328 48.3463H32.0118C31.825 48.3463 31.6735 48.1948 31.6735 48.0079V42.8316" stroke="#0D2460" stroke-width="0.7"/>
    <path d="M30.5092 49.685C31.5346 50.7104 33.1971 50.7104 34.2225 49.685" stroke="white" stroke-width="0.513425"/>
    <path d="M38.316 42.1492C37.2906 41.1238 35.6281 41.1238 34.6027 42.1492" stroke="#0D2460" stroke-width="1.02685"/>
    <path d="M30.129 42.1492C29.1036 41.1238 27.4411 41.1238 26.4157 42.1492" stroke="#0D2460" stroke-width="1.02685"/>
    <path d="M27.9216 37.5232C27.9037 37.5211 27.8852 37.5208 27.8672 37.519C27.8949 37.5043 27.9145 37.4944 27.9145 37.4944C27.9165 37.5042 27.9195 37.5134 27.9216 37.5232Z" fill="#5A3C2A"/>
    <path d="M42.5882 47.4756C41.9148 47.4756 41.3689 46.9297 41.3689 46.2562L41.3689 45.0943C41.3689 44.2856 42.0245 43.63 42.8332 43.63C43.6419 43.63 44.2975 44.2856 44.2975 45.0943L44.2975 45.7663C44.2975 46.7103 43.5322 47.4756 42.5882 47.4756L42.5882 47.4756Z" fill="#FFD6D2"/>
    <path d="M60.0935 73.2845L44.3628 91.5853L32.6145 81.4868C27.5608 77.1429 26.9855 69.5248 31.3294 64.4712L31.3294 64.4711C33.4154 62.0443 36.38 60.5455 39.5711 60.3045C42.7622 60.0636 45.9183 61.1001 48.3451 63.1861L60.0935 73.2845L60.0935 73.2845Z" fill="#0D51FF"/>
    <path d="M32.6147 81.8342L44.3629 91.9329L60.0936 73.6319" stroke="white" stroke-width="0.513425"/>
    <rect x="79.3652" y="107.943" width="87.3372" height="53.8621" rx="6.2303" fill="#E8F1F9"/>
    <rect x="116.049" y="161.805" width="13.9682" height="6.78119" fill="#D7E8F7"/>
    <path d="M79.3652 154.052V157.287C79.3652 158.486 79.8412 159.635 80.6886 160.482C81.5359 161.329 82.6852 161.805 83.8835 161.805H162.184C163.382 161.805 164.532 161.329 165.379 160.482C166.226 159.635 166.702 158.486 166.702 157.287V154.052H79.3652Z" fill="#D7E8F7"/>
    <path d="M83.8831 161.805H162.184" stroke="#95B5E8" stroke-width="0.34706"/>
    <path d="M112.18 168.587H133.887C135.66 168.587 137.096 170.023 137.096 171.796H108.971C108.971 170.023 110.408 168.587 112.18 168.587V168.587Z" fill="#D7E8F7"/>
    <path d="M112.18 168.587H133.887" stroke="#95B5E8" stroke-width="0.34706"/>
    <path d="M180.073 171.796H65.9943" stroke="#95B5E8" stroke-width="0.34706"/>
    <path d="M156.624 49.9951C166.224 49.9951 174.006 42.2126 174.006 32.6123C174.006 23.012 166.224 15.2295 156.624 15.2295C147.023 15.2295 139.241 23.012 139.241 32.6123C139.241 42.2126 147.023 49.9951 156.624 49.9951Z" fill="#E8F1F9"/>
    <path d="M174.006 32.6123C174.006 42.2125 166.224 49.9951 156.624 49.9951" stroke="#95B5E8"/>
    <path d="M156.624 32.6406C158.757 32.6406 160.486 30.9113 160.486 28.7782C160.486 26.6451 158.757 24.9158 156.624 24.9158C154.49 24.9158 152.761 26.6451 152.761 28.7782C152.761 30.9113 154.49 32.6406 156.624 32.6406Z" fill="#95B5E8"/>
    <path d="M156.624 32.5199C152.748 32.5199 149.607 35.6615 149.607 39.5369H163.641C163.641 35.6615 160.499 32.5199 156.624 32.5199V32.5199Z" fill="#95B5E8"/>
    <path d="M149.607 39.5369H163.641" stroke="white"/>
    <path d="M99.3319 49.9951C108.932 49.9951 116.715 42.2126 116.715 32.6123C116.715 23.012 108.932 15.2295 99.3319 15.2295C89.7316 15.2295 81.949 23.012 81.949 32.6123C81.949 42.2126 89.7316 49.9951 99.3319 49.9951Z" fill="#E8F1F9"/>
    <path d="M116.715 32.6123C116.715 42.2125 108.932 49.9951 99.3318 49.9951" stroke="#95B5E8"/>
    <path d="M99.3318 32.6406C101.465 32.6406 103.194 30.9113 103.194 28.7782C103.194 26.6451 101.465 24.9158 99.3318 24.9158C97.1987 24.9158 95.4694 26.6451 95.4694 28.7782C95.4694 30.9113 97.1987 32.6406 99.3318 32.6406Z" fill="#95B5E8"/>
    <path d="M99.3318 32.5199C95.4564 32.5199 92.3148 35.6615 92.3148 39.5369H106.349C106.349 35.6615 103.207 32.5199 99.3318 32.5199V32.5199Z" fill="#95B5E8"/>
    <path d="M92.3148 39.5369H106.349" stroke="white" stroke-width="0.7"/>
    <path d="M127.611 40.5599C138.812 40.5599 147.891 31.4803 147.891 20.28C147.891 9.07965 138.812 0 127.611 0C116.411 0 107.331 9.07965 107.331 20.28C107.331 31.4803 116.411 40.5599 127.611 40.5599Z" fill="#E8F1F9"/>
    <path d="M147.891 20.2799C147.891 31.4803 138.812 40.5599 127.611 40.5599" stroke="#95B5E8"/>
    <path d="M127.611 20.3129C130.1 20.3129 132.117 18.2955 132.117 15.8069C132.117 13.3182 130.1 11.3008 127.611 11.3008C125.123 11.3008 123.105 13.3182 123.105 15.8069C123.105 18.2955 125.123 20.3129 127.611 20.3129Z" fill="#95B5E8"/>
    <path d="M127.611 20.1721C123.09 20.1721 119.425 23.8374 119.425 28.3587H135.798C135.798 23.8374 132.133 20.1721 127.611 20.1721V20.1721Z" fill="#95B5E8"/>
    <path d="M119.425 28.3587H135.798" stroke="white"/>
    <path d="M235.989 186.144H87.611L93.7259 175.545H242.104L235.989 186.144Z" fill="#95B5E8"/>
    <path d="M171.585 186.144H23.2068L29.3217 175.546H177.7L171.585 186.144Z" fill="#D7E8F7"/>
    <path d="M228.714 257.629H36.5977" stroke="#95B5E8" stroke-width="0.749465"/>
    <path d="M235.989 186.144H87.611" stroke="#95B5E8" stroke-width="0.749465"/>
    <path d="M177.7 175.546L171.585 186.144H23.2068" stroke="#95B5E8" stroke-width="0.749465"/>
    <path d="M66.3459 186.144L52.8944 257.629" stroke="#95B5E8" stroke-width="0.749465"/>
    <path d="M96.0384 186.144L82.5869 257.629" stroke="#95B5E8" stroke-width="0.749465"/>
    <path d="M188.813 186.144L202.264 257.629" stroke="#95B5E8" stroke-width="0.749465"/>
    <path d="M159.121 186.144L172.573 257.629" stroke="#95B5E8" stroke-width="0.749465"/>
    <path d="M131.369 77.5977C129.033 77.5977 126.792 78.526 125.141 80.1783C123.489 81.8306 122.561 84.0716 122.561 86.4083H140.177C140.177 84.0716 139.249 81.8306 137.597 80.1783C135.945 78.526 133.705 77.5977 131.369 77.5977V77.5977Z" fill="white"/>
    <path d="M115.093 92.102C115.998 92.102 116.866 92.4614 117.505 93.1013C118.145 93.7411 118.504 94.609 118.504 95.5138H111.683C111.683 94.609 112.042 93.7411 112.682 93.1013C113.321 92.4614 114.189 92.102 115.093 92.102Z" fill="white"/>
</svg>
