<?xml version="1.0" standalone="no"?>
<!DOCTYPE svg PUBLIC "-//W3C//DTD SVG 20010904//EN"
 "http://www.w3.org/TR/2001/REC-SVG-20010904/DTD/svg10.dtd">
<svg version="1.0" xmlns="http://www.w3.org/2000/svg"
 width="256.000000pt" height="256.000000pt" viewBox="0 0 256.000000 256.000000"
 preserveAspectRatio="xMidYMid meet">

<g transform="translate(0.000000,256.000000) scale(0.100000,-0.100000)"
fill="#000000" stroke="none">
<path d="M1010 2547 c-53 -26 -60 -62 -60 -298 l0 -216 -62 -27 c-35 -14 -67
-26 -72 -26 -6 0 -60 50 -121 110 -108 106 -114 110 -155 110 -43 0 -46 -2
-222 -177 -188 -188 -210 -219 -189 -272 7 -15 58 -74 115 -130 l104 -103 -28
-62 c-15 -33 -37 -95 -49 -136 -155 -562 177 -1134 748 -1288 84 -22 115 -25
256 -25 142 0 171 3 260 26 182 49 326 130 463 262 70 66 202 239 202 263 0 4
-40 28 -88 54 l-87 46 -40 -65 c-165 -268 -501 -426 -815 -383 -194 26 -337
98 -481 240 -173 171 -249 350 -249 588 0 232 79 428 239 590 375 380 1008
315 1301 -134 78 -120 111 -219 135 -406 l6 -48 101 0 101 0 -7 78 c-9 103
-39 227 -77 319 l-32 75 106 106 c57 59 110 117 117 130 23 47 5 73 -189 265
-185 185 -188 187 -231 187 -42 0 -47 -4 -156 -112 l-114 -112 -62 26 -63 26
-5 243 c-3 134 -7 245 -8 247 -1 1 -17 11 -34 22 -31 18 -51 20 -283 20 -180
0 -257 -4 -275 -13z m400 -329 l0 -143 -125 3 -125 3 0 140 0 139 125 0 125 0
0 -142z m-859 -436 l-86 -87 -48 45 -47 44 87 88 87 88 47 -46 46 -45 -86 -87z
m1629 3 c0 -6 -19 -30 -42 -53 l-43 -41 -88 86 -88 87 47 47 47 48 84 -81 c46
-45 83 -87 83 -93z"/>
<path d="M1172 1515 c-56 -16 -107 -39 -116 -54 -5 -8 4 -40 33 -113 l10 -27
46 25 c76 43 168 32 181 -21 11 -46 -6 -91 -62 -165 -30 -40 -62 -86 -69 -101
-24 -45 -36 -118 -29 -170 l7 -49 78 0 79 0 0 65 c0 76 12 103 80 190 59 75
86 128 95 186 13 89 -33 177 -115 219 -52 27 -152 33 -218 15z"/>
<path d="M2097 868 c-3 -18 -9 -47 -12 -63 l-7 -31 92 -29 c74 -24 93 -27 100
-16 12 20 34 131 27 138 -7 7 -140 32 -173 32 -16 1 -23 -7 -27 -31z"/>
<path d="M1187 759 c-9 -5 -24 -23 -32 -39 -61 -118 87 -223 174 -123 33 38
26 116 -13 150 -29 25 -96 31 -129 12z"/>
</g>
</svg>
