<svg width="23" height="22" viewBox="0 0 23 22" fill="none" xmlns="http://www.w3.org/2000/svg">
    <path fill-rule="evenodd" clip-rule="evenodd" d="M11.1289 2C6.15834 2 2.12891 6.02944 2.12891 11C2.12891 15.9706 6.15834 20 11.1289 20C16.0995 20 20.1289 15.9706 20.1289 11C20.1289 6.02944 16.0995 2 11.1289 2ZM0.128906 11C0.128906 4.92487 5.05377 0 11.1289 0C17.204 0 22.1289 4.92487 22.1289 11C22.1289 17.0751 17.204 22 11.1289 22C5.05377 22 0.128906 17.0751 0.128906 11ZM7.4218 7.29289C7.81232 6.90237 8.44549 6.90237 8.83601 7.29289L11.1289 9.58579L13.4218 7.29289C13.8123 6.90237 14.4455 6.90237 14.836 7.29289C15.2265 7.68342 15.2265 8.31658 14.836 8.70711L12.5431 11L14.836 13.2929C15.2265 13.6834 15.2265 14.3166 14.836 14.7071C14.4455 15.0976 13.8123 15.0976 13.4218 14.7071L11.1289 12.4142L8.83601 14.7071C8.44549 15.0976 7.81232 15.0976 7.4218 14.7071C7.03128 14.3166 7.03128 13.6834 7.4218 13.2929L9.71469 11L7.4218 8.70711C7.03128 8.31658 7.03128 7.68342 7.4218 7.29289Z" fill="#1C1C1C"/>
</svg>
