<svg width="21" height="21" viewBox="0 0 21 21" fill="none" xmlns="http://www.w3.org/2000/svg">
<path fill-rule="evenodd" clip-rule="evenodd" d="M1.28141 13.5314C2.10188 12.7109 3.21468 12.25 4.375 12.25H10.5C11.6603 12.25 12.7731 12.7109 13.5936 13.5314C14.4141 14.3519 14.875 15.4647 14.875 16.625V18.375C14.875 18.8582 14.4832 19.25 14 19.25C13.5168 19.25 13.125 18.8582 13.125 18.375V16.625C13.125 15.9288 12.8484 15.2611 12.3562 14.7688C11.8639 14.2766 11.1962 14 10.5 14H4.375C3.67881 14 3.01113 14.2766 2.51884 14.7688C2.02656 15.2611 1.75 15.9288 1.75 16.625V18.375C1.75 18.8582 1.35825 19.25 0.875 19.25C0.391751 19.25 0 18.8582 0 18.375V16.625C0 15.4647 0.460936 14.3519 1.28141 13.5314Z" fill="white"/>
<path fill-rule="evenodd" clip-rule="evenodd" d="M7.4375 3.5C5.98775 3.5 4.8125 4.67525 4.8125 6.125C4.8125 7.57475 5.98775 8.75 7.4375 8.75C8.88725 8.75 10.0625 7.57475 10.0625 6.125C10.0625 4.67525 8.88725 3.5 7.4375 3.5ZM3.0625 6.125C3.0625 3.70875 5.02125 1.75 7.4375 1.75C9.85375 1.75 11.8125 3.70875 11.8125 6.125C11.8125 8.54125 9.85375 10.5 7.4375 10.5C5.02125 10.5 3.0625 8.54125 3.0625 6.125Z" fill="white"/>
<path fill-rule="evenodd" clip-rule="evenodd" d="M14 9.625C14 9.14175 14.3918 8.75 14.875 8.75H20.125C20.6082 8.75 21 9.14175 21 9.625C21 10.1082 20.6082 10.5 20.125 10.5H14.875C14.3918 10.5 14 10.1082 14 9.625Z" fill="white"/>
</svg>
