<svg width="8" height="8" viewBox="0 -6 16 28" fill="none" xmlns="http://www.w3.org/2000/svg">
<path d="M12.4663 11.533C12.733 11.7997 12.733 12.1997 12.4663 12.4663C12.333 12.5997 12.1997 12.6663 11.9997 12.6663C11.7997 12.6663 11.6663 12.5997 11.533 12.4663L7.99967 8.93301L4.46634 12.4663C4.33301 12.5997 4.19967 12.6663 3.99967 12.6663C3.79967 12.6663 3.66634 12.5997 3.53301 12.4663C3.26634 12.1997 3.26634 11.7997 3.53301 11.533L7.06634 7.99967L3.53301 4.46634C3.26634 4.19967 3.26634 3.79967 3.53301 3.53301C3.79967 3.26634 4.19967 3.26634 4.46634 3.53301L7.99967 7.06634L11.533 3.53301C11.7997 3.26634 12.1997 3.26634 12.4663 3.53301C12.733 3.79967 12.733 4.19967 12.4663 4.46634L8.93301 7.99967L12.4663 11.533Z" fill="#1C1C1C"/>
</svg>
