<svg width="20" height="20" viewBox="0 0 20 20" fill="none" xmlns="http://www.w3.org/2000/svg">
<path d="M8.05348 6.04415C7.7095 5.73839 7.18277 5.76937 6.87701 6.11336C6.57124 6.45734 6.60222 6.98407 6.94621 7.28984L9.42775 9.49565L13.1078 5.57028C13.4226 5.23452 13.4056 4.70716 13.0698 4.39238C12.734 4.07761 12.2067 4.09462 11.8919 4.43038L9.32194 7.17167L8.05348 6.04415Z" fill="white"/>
<path fill-rule="evenodd" clip-rule="evenodd" d="M10.0002 1.66667C7.23874 1.66667 5.00016 3.90524 5.00016 6.66667C5.00016 9.42809 7.23874 11.6667 10.0002 11.6667C12.7616 11.6667 15.0002 9.42809 15.0002 6.66667C15.0002 3.90524 12.7616 1.66667 10.0002 1.66667ZM3.3335 6.66667C3.3335 2.98477 6.31826 0 10.0002 0C13.6821 0 16.6668 2.98477 16.6668 6.66667C16.6668 10.3486 13.6821 13.3333 10.0002 13.3333C6.31826 13.3333 3.3335 10.3486 3.3335 6.66667Z" fill="white"/>
<path fill-rule="evenodd" clip-rule="evenodd" d="M13.0487 10.7407C13.505 10.6802 13.9239 11.001 13.9844 11.4572L14.9928 19.0572C15.0349 19.3744 14.8916 19.6877 14.6242 19.8634C14.3567 20.039 14.0123 20.046 13.7379 19.8814L10 17.6387L6.2621 19.8814C5.98771 20.046 5.64327 20.039 5.37582 19.8633C5.10837 19.6876 4.96514 19.3743 5.00727 19.0571L6.01561 11.4654C6.07621 11.0092 6.49518 10.6885 6.95141 10.7491C7.40764 10.8097 7.72836 11.2287 7.66777 11.6849L6.88706 17.5628L9.57127 15.9522C9.83518 15.7939 10.1649 15.7939 10.4288 15.9522L13.1133 17.5629L12.3323 11.6764C12.2717 11.2202 12.5925 10.8013 13.0487 10.7407Z" fill="white"/>
</svg>
