<svg width="257" height="101" viewBox="0 0 257 101" fill="none" xmlns="http://www.w3.org/2000/svg">
<path d="M106.592 43.0938C106.867 43.0938 107.143 43.0645 107.418 43C107.688 42.9414 107.951 42.8418 108.209 42.7012C108.467 42.5664 108.689 42.4023 108.883 42.2031C109.076 42.0098 109.234 41.7695 109.352 41.4824C109.469 41.2012 109.527 40.8848 109.527 40.5449C109.527 40.2168 109.475 39.9238 109.381 39.666C109.211 39.2207 108.859 38.8457 108.32 38.5469C108.074 38.4121 107.594 38.207 106.891 37.9258C106.293 37.6973 105.9 37.5215 105.719 37.4043C105.432 37.2168 105.291 36.9824 105.297 36.6895C105.297 36.3848 105.414 36.1387 105.637 35.9629C105.859 35.7871 106.146 35.6934 106.486 35.6934C107.096 35.6934 107.746 35.9863 108.449 36.5664L109.311 35.4297C108.414 34.7266 107.471 34.3809 106.486 34.3809C106 34.3809 105.549 34.4863 105.139 34.6973C104.729 34.9082 104.4 35.1953 104.16 35.5586C103.914 35.9277 103.797 36.332 103.797 36.7656C103.797 36.9824 103.82 37.1875 103.873 37.375C103.926 37.5625 103.996 37.7324 104.078 37.8789C104.16 38.0254 104.266 38.166 104.406 38.2949C104.541 38.4238 104.676 38.541 104.811 38.6348C104.945 38.7285 105.109 38.8223 105.297 38.916C105.484 39.0098 105.66 39.0918 105.818 39.1504C105.971 39.2148 106.158 39.2852 106.369 39.3555C106.545 39.4199 106.691 39.4727 106.803 39.5137C106.908 39.5605 107.031 39.6074 107.16 39.666C107.289 39.7246 107.395 39.7715 107.471 39.8184C107.547 39.8652 107.623 39.9238 107.705 39.9883C107.781 40.0586 107.84 40.123 107.881 40.1934C107.916 40.2637 107.951 40.3398 107.975 40.4277C107.998 40.5156 108.016 40.6094 108.016 40.7148C108.016 41.043 107.893 41.2949 107.652 41.4824C107.406 41.6699 107.055 41.7578 106.598 41.7578C106.217 41.7578 105.83 41.6641 105.443 41.4707C105.057 41.2773 104.711 40.9961 104.412 40.6328L103.498 41.7578C103.932 42.2031 104.418 42.5371 104.951 42.7598C105.479 42.9824 106.029 43.0938 106.592 43.0938ZM115.059 43.0762C115.768 43.0762 116.406 42.9297 116.975 42.6367C117.543 42.3438 118.023 41.9512 118.416 41.459L117.35 40.5508C117.062 40.9082 116.723 41.1895 116.336 41.4004C115.943 41.6113 115.516 41.7109 115.059 41.7109C114.52 41.7109 114.039 41.5879 113.617 41.3418C113.195 41.0957 112.861 40.75 112.627 40.3047C112.387 39.8594 112.27 39.3438 112.27 38.7695C112.27 38.1719 112.387 37.6445 112.621 37.1875C112.855 36.7305 113.184 36.3789 113.605 36.127C114.027 35.8809 114.508 35.752 115.059 35.752C115.498 35.752 115.92 35.8574 116.318 36.0684C116.717 36.2793 117.062 36.5664 117.35 36.918L118.416 36.0156C117.971 35.4648 117.449 35.0547 116.863 34.7852C116.277 34.5156 115.674 34.3809 115.059 34.3809C114.52 34.3809 114.016 34.457 113.553 34.6035C113.09 34.7559 112.691 34.9609 112.352 35.2305C112.012 35.5 111.719 35.8105 111.479 36.1738C111.232 36.5371 111.051 36.9414 110.934 37.3809C110.816 37.8203 110.758 38.2832 110.758 38.7695C110.758 39.3203 110.828 39.8242 110.98 40.293C111.127 40.7617 111.332 41.1602 111.602 41.5C111.865 41.8398 112.176 42.127 112.539 42.3672C112.902 42.6074 113.295 42.7832 113.723 42.9004C114.145 43.0176 114.59 43.0762 115.059 43.0762ZM125.43 43H126.947L123.748 34.4746H122.336L119.154 43H120.666L121.305 41.166H124.785L125.43 43ZM121.744 39.9121L123.039 36.2207H123.051L124.346 39.9121H121.744ZM133.891 34.4746V40.5918H133.861L129.701 34.4746H128.266V43H129.713V36.9707H129.736L133.861 43H135.338V34.4746H133.891ZM142.398 43H143.846V35.7754H146.289V34.4746H139.979V35.7754H142.398V43ZM151.035 43.0938C151.645 43.0938 152.213 42.9883 152.74 42.7773C153.268 42.5664 153.725 42.2676 154.105 41.8926C154.486 41.5176 154.785 41.0605 155.002 40.5156C155.219 39.9707 155.33 39.3789 155.33 38.7344C155.33 38.0957 155.219 37.5039 155.002 36.959C154.785 36.4199 154.486 35.957 154.105 35.582C153.725 35.207 153.268 34.9082 152.74 34.6973C152.213 34.4863 151.645 34.3809 151.035 34.3809C150.402 34.3809 149.822 34.4922 149.283 34.7148C148.744 34.9375 148.287 35.2363 147.912 35.623C147.537 36.0098 147.25 36.4668 147.039 37.0059C146.828 37.5449 146.723 38.1191 146.723 38.7344C146.723 39.3555 146.828 39.9355 147.039 40.4746C147.25 41.0137 147.537 41.4707 147.912 41.8574C148.287 42.2441 148.744 42.543 149.283 42.7656C149.822 42.9883 150.402 43.0938 151.035 43.0938ZM151.035 41.7402C150.625 41.7402 150.25 41.6641 149.898 41.5059C149.547 41.3535 149.248 41.1367 149.008 40.8672C148.762 40.5977 148.574 40.2812 148.434 39.9121C148.293 39.543 148.229 39.1504 148.229 38.7344C148.229 38.3242 148.293 37.9316 148.434 37.5625C148.574 37.1992 148.762 36.877 149.008 36.6074C149.248 36.3379 149.547 36.127 149.898 35.9688C150.25 35.8164 150.625 35.7344 151.035 35.7344C151.422 35.7344 151.791 35.8105 152.137 35.9629C152.477 36.1152 152.775 36.3203 153.021 36.5781C153.268 36.8418 153.461 37.1582 153.607 37.5332C153.748 37.9082 153.824 38.3066 153.824 38.7344C153.824 39.168 153.748 39.5664 153.607 39.9414C153.461 40.3164 153.268 40.6328 153.021 40.8965C152.775 41.1602 152.477 41.3652 152.137 41.5176C151.791 41.6699 151.422 41.7402 151.035 41.7402ZM160.246 43H162.994C163.662 43 164.277 42.9004 164.828 42.6895C165.379 42.4844 165.842 42.1973 166.217 41.8223C166.586 41.4473 166.873 41.002 167.078 40.4746C167.277 39.9531 167.383 39.3789 167.383 38.752C167.383 38.1309 167.277 37.5508 167.066 37.0234C166.855 36.4961 166.562 36.0449 166.188 35.6699C165.807 35.2949 165.338 35.002 164.787 34.791C164.23 34.5801 163.621 34.4746 162.959 34.4746H160.246V43ZM161.693 41.6992V35.7754H162.988C163.545 35.7754 164.043 35.9043 164.488 36.1562C164.934 36.4141 165.273 36.7656 165.52 37.2168C165.766 37.6738 165.889 38.1836 165.889 38.752C165.889 39.1738 165.812 39.5605 165.672 39.9238C165.531 40.2871 165.332 40.6035 165.074 40.8613C164.816 41.125 164.506 41.3301 164.131 41.4766C163.756 41.6289 163.346 41.6992 162.906 41.6992H161.693ZM173.008 43.0938C173.617 43.0938 174.186 42.9883 174.713 42.7773C175.24 42.5664 175.697 42.2676 176.078 41.8926C176.459 41.5176 176.758 41.0605 176.975 40.5156C177.191 39.9707 177.303 39.3789 177.303 38.7344C177.303 38.0957 177.191 37.5039 176.975 36.959C176.758 36.4199 176.459 35.957 176.078 35.582C175.697 35.207 175.24 34.9082 174.713 34.6973C174.186 34.4863 173.617 34.3809 173.008 34.3809C172.375 34.3809 171.795 34.4922 171.256 34.7148C170.717 34.9375 170.26 35.2363 169.885 35.623C169.51 36.0098 169.223 36.4668 169.012 37.0059C168.801 37.5449 168.695 38.1191 168.695 38.7344C168.695 39.3555 168.801 39.9355 169.012 40.4746C169.223 41.0137 169.51 41.4707 169.885 41.8574C170.26 42.2441 170.717 42.543 171.256 42.7656C171.795 42.9883 172.375 43.0938 173.008 43.0938ZM173.008 41.7402C172.598 41.7402 172.223 41.6641 171.871 41.5059C171.52 41.3535 171.221 41.1367 170.98 40.8672C170.734 40.5977 170.547 40.2812 170.406 39.9121C170.266 39.543 170.201 39.1504 170.201 38.7344C170.201 38.3242 170.266 37.9316 170.406 37.5625C170.547 37.1992 170.734 36.877 170.98 36.6074C171.221 36.3379 171.52 36.127 171.871 35.9688C172.223 35.8164 172.598 35.7344 173.008 35.7344C173.395 35.7344 173.764 35.8105 174.109 35.9629C174.449 36.1152 174.748 36.3203 174.994 36.5781C175.24 36.8418 175.434 37.1582 175.58 37.5332C175.721 37.9082 175.797 38.3066 175.797 38.7344C175.797 39.168 175.721 39.5664 175.58 39.9414C175.434 40.3164 175.24 40.6328 174.994 40.8965C174.748 41.1602 174.449 41.3652 174.109 41.5176C173.764 41.6699 173.395 41.7402 173.008 41.7402ZM187.85 34.4746L186.016 40.6445H186.004L184.34 34.4746H182.799L181.123 40.627H181.111L179.283 34.4746H177.736L180.438 43H181.791L183.572 36.5898H183.59L185.336 43H186.689L189.391 34.4746H187.85ZM196.445 34.4746V40.5918H196.416L192.256 34.4746H190.82V43H192.268V36.9707H192.291L196.416 43H197.893V34.4746H196.445ZM199.984 43H205.381V41.6992H201.432V34.4746H199.984V43ZM210.461 43.0938C211.07 43.0938 211.639 42.9883 212.166 42.7773C212.693 42.5664 213.15 42.2676 213.531 41.8926C213.912 41.5176 214.211 41.0605 214.428 40.5156C214.645 39.9707 214.756 39.3789 214.756 38.7344C214.756 38.0957 214.645 37.5039 214.428 36.959C214.211 36.4199 213.912 35.957 213.531 35.582C213.15 35.207 212.693 34.9082 212.166 34.6973C211.639 34.4863 211.07 34.3809 210.461 34.3809C209.828 34.3809 209.248 34.4922 208.709 34.7148C208.17 34.9375 207.713 35.2363 207.338 35.623C206.963 36.0098 206.676 36.4668 206.465 37.0059C206.254 37.5449 206.148 38.1191 206.148 38.7344C206.148 39.3555 206.254 39.9355 206.465 40.4746C206.676 41.0137 206.963 41.4707 207.338 41.8574C207.713 42.2441 208.17 42.543 208.709 42.7656C209.248 42.9883 209.828 43.0938 210.461 43.0938ZM210.461 41.7402C210.051 41.7402 209.676 41.6641 209.324 41.5059C208.973 41.3535 208.674 41.1367 208.434 40.8672C208.188 40.5977 208 40.2812 207.859 39.9121C207.719 39.543 207.654 39.1504 207.654 38.7344C207.654 38.3242 207.719 37.9316 207.859 37.5625C208 37.1992 208.188 36.877 208.434 36.6074C208.674 36.3379 208.973 36.127 209.324 35.9688C209.676 35.8164 210.051 35.7344 210.461 35.7344C210.848 35.7344 211.217 35.8105 211.562 35.9629C211.902 36.1152 212.201 36.3203 212.447 36.5781C212.693 36.8418 212.887 37.1582 213.033 37.5332C213.174 37.9082 213.25 38.3066 213.25 38.7344C213.25 39.168 213.174 39.5664 213.033 39.9414C212.887 40.3164 212.693 40.6328 212.447 40.8965C212.201 41.1602 211.902 41.3652 211.562 41.5176C211.217 41.6699 210.848 41.7402 210.461 41.7402ZM221.547 43H223.064L219.865 34.4746H218.453L215.271 43H216.783L217.422 41.166H220.902L221.547 43ZM217.861 39.9121L219.156 36.2207H219.168L220.463 39.9121H217.861ZM224.383 43H227.131C227.799 43 228.414 42.9004 228.965 42.6895C229.516 42.4844 229.979 42.1973 230.354 41.8223C230.723 41.4473 231.01 41.002 231.215 40.4746C231.414 39.9531 231.52 39.3789 231.52 38.752C231.52 38.1309 231.414 37.5508 231.203 37.0234C230.992 36.4961 230.699 36.0449 230.324 35.6699C229.943 35.2949 229.475 35.002 228.924 34.791C228.367 34.5801 227.758 34.4746 227.096 34.4746H224.383V43ZM225.83 41.6992V35.7754H227.125C227.682 35.7754 228.18 35.9043 228.625 36.1562C229.07 36.4141 229.41 36.7656 229.656 37.2168C229.902 37.6738 230.025 38.1836 230.025 38.752C230.025 39.1738 229.949 39.5605 229.809 39.9238C229.668 40.2871 229.469 40.6035 229.211 40.8613C228.953 41.125 228.643 41.3301 228.268 41.4766C227.893 41.6289 227.482 41.6992 227.043 41.6992H225.83Z" fill="#0D51FF"/>
<path d="M182.937 71.5048C181.774 71.5048 180.993 70.5608 180.993 69.1528V55.1528C180.993 53.7458 181.774 52.8008 182.937 52.8008C183.387 52.8008 183.859 52.9418 184.341 53.2198L196.465 60.2198C197.318 60.7118 197.786 61.3988 197.786 62.1528C197.786 62.9068 197.317 63.5938 196.465 64.0868L184.341 71.0868C183.859 71.3638 183.387 71.5048 182.937 71.5048ZM182.937 53.8008C182.061 53.8008 181.993 54.8358 181.993 55.1528V69.1528C181.993 69.4688 182.061 70.5048 182.937 70.5048C183.206 70.5048 183.518 70.4058 183.841 70.2198L195.965 63.2198C196.487 62.9188 196.786 62.5308 196.786 62.1538C196.786 61.7768 196.487 61.3878 195.965 61.0868L183.841 54.0868C183.518 53.8998 183.205 53.8008 182.937 53.8008Z" fill="#0D51FF" stroke="#0D51FF" stroke-width="0.5"/>
<path d="M193.619 65.6526C193.544 65.6528 193.47 65.6362 193.403 65.604C193.335 65.5718 193.276 65.5248 193.229 65.4666L184.045 54.1666C183.961 54.0635 183.922 53.9315 183.936 53.7994C183.949 53.6674 184.015 53.5462 184.118 53.4626C184.221 53.3789 184.353 53.3396 184.485 53.3533C184.617 53.3669 184.738 53.4325 184.822 53.5356L194.006 64.8366C194.065 64.9101 194.102 64.9987 194.113 65.0922C194.124 65.1858 194.108 65.2806 194.068 65.3657C194.028 65.4508 193.964 65.5229 193.885 65.5736C193.805 65.6243 193.713 65.6517 193.619 65.6526Z" fill="#0D51FF" stroke="#0D51FF" stroke-width="0.5"/>
<path d="M184.433 70.9546C184.339 70.9545 184.246 70.9277 184.167 70.8772C184.087 70.8268 184.023 70.7548 183.982 70.6695C183.942 70.5842 183.926 70.4892 183.937 70.3954C183.948 70.3016 183.986 70.2129 184.045 70.1396L193.229 58.8386C193.315 58.7423 193.435 58.6829 193.563 58.6725C193.692 58.6622 193.819 58.7017 193.919 58.783C194.019 58.8642 194.084 58.9809 194.1 59.1088C194.117 59.2367 194.083 59.3659 194.006 59.4696L184.822 70.7696C184.775 70.8275 184.716 70.8742 184.649 70.9062C184.581 70.9382 184.508 70.9547 184.433 70.9546Z" fill="#0D51FF" stroke="#0D51FF" stroke-width="0.5"/>
<path d="M207.956 57.1523H204.391V67.1217H205.882V63.3493H207.964C209.615 63.3493 211.234 62.153 211.234 60.2548C211.234 58.3566 209.607 57.1523 207.956 57.1523ZM207.996 61.9615H205.882V58.5401H207.996C209.112 58.5401 209.742 59.4652 209.742 60.2468C209.742 61.0204 209.112 61.9615 207.996 61.9615ZM217.191 60.526C216.115 60.526 214.998 61.0045 214.535 62.0493L215.859 62.5996C216.138 62.0493 216.665 61.8658 217.215 61.8658C217.981 61.8658 218.77 62.3284 218.778 63.1499V63.2536C218.507 63.102 217.933 62.8707 217.223 62.8707C215.796 62.8707 214.352 63.6523 214.352 65.1119C214.352 66.4438 215.516 67.3051 216.824 67.3051C217.821 67.3051 218.38 66.8585 218.723 66.3321H218.77V67.1057H220.206V63.2855C220.222 61.5149 218.898 60.526 217.191 60.526ZM217.016 65.9892C216.529 65.9892 215.851 65.7419 215.851 65.1438C215.851 64.3781 216.697 64.083 217.431 64.083C218.084 64.083 218.396 64.2266 218.786 64.418C218.667 65.3352 217.877 65.9892 217.016 65.9892ZM225.454 60.7493L223.747 65.072H223.699L221.929 60.7493H220.326L222.981 66.7947L221.466 70.1523H223.021L227.113 60.7493H225.454ZM212.047 67.1217H213.538V57.1523H212.047V67.1217Z" fill="#0D51FF"/>
<path d="M128.873 64.2947C128.98 65.2544 129.913 65.8845 131.187 65.8845C132.407 65.8845 133.286 65.2544 133.286 64.3891C133.286 63.6379 132.756 63.1881 131.502 62.8799L130.248 62.5778C128.471 62.1486 127.646 61.3175 127.646 59.9689C127.646 58.2992 129.101 57.1523 131.166 57.1523C133.212 57.1523 134.614 58.2992 134.661 59.9689H133.199C133.111 59.0032 132.313 58.4202 131.146 58.4202C129.98 58.4202 129.181 59.01 129.181 59.8685C129.181 60.5527 129.691 60.9553 130.939 61.2634L132.005 61.5252C133.99 61.9948 134.815 62.7924 134.815 64.2079C134.815 66.0184 133.373 67.1523 131.079 67.1523C128.933 67.1523 127.484 66.045 127.391 64.2946L128.873 64.2947Z" fill="#0D51FF"/>
<path d="M137.941 58.2666V59.9363H139.283V61.0832H137.941V64.9729C137.941 65.5771 138.21 65.8587 138.8 65.8587C138.959 65.8559 139.118 65.8447 139.276 65.8252V66.9652C139.011 67.0148 138.742 67.0372 138.472 67.0322C137.043 67.0322 136.486 66.4957 136.486 65.1273V61.0832H135.46V59.9363H136.486V58.2666H137.941Z" fill="#0D51FF"/>
<path d="M140.061 63.4645C140.061 61.2446 141.368 59.8496 143.407 59.8496C145.452 59.8496 146.754 61.2446 146.754 63.4645C146.754 65.6906 145.459 67.0795 143.407 67.0795C141.355 67.0795 140.061 65.6906 140.061 63.4645ZM145.278 63.4645C145.278 61.9417 144.58 61.0429 143.407 61.0429C142.233 61.0429 141.535 61.9485 141.535 63.4645C141.535 64.9935 142.233 65.8854 143.407 65.8854C144.58 65.8854 145.278 64.9935 145.278 63.4645H145.278Z" fill="#0D51FF"/>
<path d="M147.947 59.9354H149.328V61.1363H149.362C149.455 60.7612 149.675 60.4298 149.984 60.1976C150.293 59.9655 150.672 59.8468 151.059 59.8616C151.226 59.861 151.392 59.8791 151.555 59.9156V61.2703C151.344 61.2059 151.124 61.1763 150.904 61.1827C150.694 61.1742 150.484 61.2113 150.289 61.2915C150.095 61.3717 149.92 61.493 149.776 61.6472C149.633 61.8015 149.525 61.9849 149.459 62.1849C149.393 62.3849 149.371 62.5968 149.395 62.806V66.991H147.947L147.947 59.9354Z" fill="#0D51FF"/>
<path d="M158.233 64.9196C158.038 66.2005 156.791 67.0795 155.195 67.0795C153.143 67.0795 151.869 65.7043 151.869 63.498C151.869 61.2849 153.149 59.8496 155.134 59.8496C157.086 59.8496 158.314 61.1906 158.314 63.3298V63.826H153.331V63.9135C153.308 64.1732 153.34 64.4348 153.426 64.6809C153.512 64.9271 153.649 65.1521 153.829 65.3411C154.008 65.5301 154.226 65.6788 154.467 65.7772C154.709 65.8757 154.968 65.9216 155.229 65.912C155.571 65.9441 155.914 65.8648 156.208 65.686C156.501 65.5072 156.729 65.2384 156.858 64.9196L158.233 64.9196ZM153.337 62.8138H156.865C156.878 62.5804 156.842 62.3467 156.761 62.1276C156.679 61.9084 156.553 61.7085 156.391 61.5404C156.228 61.3722 156.033 61.2395 155.817 61.1505C155.6 61.0615 155.368 61.0181 155.134 61.0231C154.898 61.0217 154.665 61.067 154.446 61.1565C154.228 61.2459 154.03 61.3776 153.863 61.5441C153.696 61.7106 153.563 61.9085 153.473 62.1264C153.383 62.3444 153.337 62.578 153.337 62.8139V62.8138Z" fill="#0D51FF"/>
<path d="M118.638 61.0329L118.638 61.0329L118.638 61.0433C118.639 62.1669 118.971 63.2653 119.592 64.2015C120.083 64.9418 120.738 65.5548 121.503 65.9953C121.184 66.8474 120.757 67.656 120.231 68.4009L120.226 68.4085L120.221 68.4163C119.751 69.1191 119.319 69.7358 118.838 70.1851C118.372 70.62 117.911 70.8502 117.379 70.8588L117.374 70.8589C116.801 70.8722 116.432 70.7153 115.902 70.4897L115.901 70.4892C115.35 70.2544 114.677 69.9737 113.657 69.9737C112.64 69.9737 111.962 70.2321 111.395 70.4691C111.361 70.4834 111.327 70.4975 111.294 70.5114C110.794 70.7209 110.435 70.8718 109.906 70.894C109.457 70.9101 108.994 70.6899 108.475 70.2023C107.954 69.714 107.474 69.0493 106.987 68.3536C106.085 67.034 105.27 65.1524 104.925 63.1933C104.578 61.2271 104.718 59.2756 105.604 57.7414L105.605 57.7415L105.61 57.731C106.012 57.0099 106.593 56.4051 107.297 55.9754C108.001 55.5465 108.803 55.3067 109.626 55.2794C110.198 55.2686 110.784 55.4628 111.42 55.714C111.495 55.7437 111.573 55.7748 111.652 55.8066C111.885 55.9002 112.129 55.9983 112.354 56.0754C112.654 56.1785 113.005 56.276 113.359 56.276C113.724 56.276 114.105 56.156 114.42 56.0424C114.591 55.9804 114.805 55.8961 115.016 55.8126C115.173 55.7502 115.33 55.6882 115.467 55.6364C116.203 55.3585 116.922 55.1548 117.61 55.227L117.637 55.2298L117.664 55.2307C118.366 55.2527 119.054 55.438 119.672 55.7721C120.071 55.9882 120.435 56.2628 120.751 56.5856C120.211 57.0368 119.755 57.5826 119.406 58.1984L120.058 58.5686L119.406 58.1984C118.915 59.0633 118.651 60.0384 118.638 61.0329Z" stroke="#0D51FF" stroke-width="1.5"/>
<path d="M116.163 52.3099L116.163 52.3098L116.157 52.3166C115.801 52.7602 115.348 53.1172 114.833 53.3605C114.467 53.5336 114.076 53.6461 113.676 53.6944C113.696 53.2939 113.772 52.8974 113.901 52.5163C114.084 51.9787 114.371 51.4824 114.746 51.0559L114.746 51.0557C115.397 50.3143 116.263 49.8025 117.216 49.5867C117.173 50.5802 116.806 51.5381 116.163 52.3099Z" stroke="#0D51FF"/>
<path d="M45.0904 21.1095C45.4519 21.1095 45.7449 20.8165 45.7449 20.455C45.7449 20.0935 45.4519 19.8005 45.0904 19.8005C44.7289 19.8005 44.4359 20.0935 44.4359 20.455C44.4359 20.8165 44.7289 21.1095 45.0904 21.1095Z" fill="#0D51FF"/>
<path d="M49.4538 21.1095C49.8153 21.1095 50.1083 20.8165 50.1083 20.455C50.1083 20.0935 49.8153 19.8005 49.4538 19.8005C49.0923 19.8005 48.7992 20.0935 48.7992 20.455C48.7992 20.8165 49.0923 21.1095 49.4538 21.1095Z" fill="#0D51FF"/>
<path d="M53.8177 21.1095C54.1792 21.1095 54.4722 20.8165 54.4722 20.455C54.4722 20.0935 54.1792 19.8005 53.8177 19.8005C53.4562 19.8005 53.1631 20.0935 53.1631 20.455C53.1631 20.8165 53.4562 21.1095 53.8177 21.1095Z" fill="#0D51FF"/>
<path d="M55.9998 21.1095C56.3613 21.1095 56.6543 20.8165 56.6543 20.455C56.6543 20.0935 56.3613 19.8005 55.9998 19.8005C55.6383 19.8005 55.3452 20.0935 55.3452 20.455C55.3452 20.8165 55.6383 21.1095 55.9998 21.1095Z" fill="#0D51FF"/>
<path d="M58.1813 21.1095C58.5428 21.1095 58.8358 20.8165 58.8358 20.455C58.8358 20.0935 58.5428 19.8005 58.1813 19.8005C57.8198 19.8005 57.5268 20.0935 57.5268 20.455C57.5268 20.8165 57.8198 21.1095 58.1813 21.1095Z" fill="#0D51FF"/>
<path d="M60.3632 21.1095C60.7247 21.1095 61.0178 20.8165 61.0178 20.455C61.0178 20.0935 60.7247 19.8005 60.3632 19.8005C60.0017 19.8005 59.7087 20.0935 59.7087 20.455C59.7087 20.8165 60.0017 21.1095 60.3632 21.1095Z" fill="#0D51FF"/>
<path d="M62.5448 21.1095C62.9063 21.1095 63.1994 20.8165 63.1994 20.455C63.1994 20.0935 62.9063 19.8005 62.5448 19.8005C62.1833 19.8005 61.8903 20.0935 61.8903 20.455C61.8903 20.8165 62.1833 21.1095 62.5448 21.1095Z" fill="#0D51FF"/>
<path d="M64.7267 21.1095C65.0882 21.1095 65.3813 20.8165 65.3813 20.455C65.3813 20.0935 65.0882 19.8005 64.7267 19.8005C64.3653 19.8005 64.0722 20.0935 64.0722 20.455C64.0722 20.8165 64.3653 21.1095 64.7267 21.1095Z" fill="#0D51FF"/>
<path d="M66.9085 21.1095C67.27 21.1095 67.5631 20.8165 67.5631 20.455C67.5631 20.0935 67.27 19.8005 66.9085 19.8005C66.5471 19.8005 66.254 20.0935 66.254 20.455C66.254 20.8165 66.5471 21.1095 66.9085 21.1095Z" fill="#0D51FF"/>
<path d="M42.9084 23.2911C43.2699 23.2911 43.563 22.998 43.563 22.6366C43.563 22.2751 43.2699 21.982 42.9084 21.982C42.5469 21.982 42.2539 22.2751 42.2539 22.6366C42.2539 22.998 42.5469 23.2911 42.9084 23.2911Z" fill="#0D51FF"/>
<path d="M49.4538 23.2911C49.8153 23.2911 50.1083 22.998 50.1083 22.6366C50.1083 22.2751 49.8153 21.982 49.4538 21.982C49.0923 21.982 48.7992 22.2751 48.7992 22.6366C48.7992 22.998 49.0923 23.2911 49.4538 23.2911Z" fill="#0D51FF"/>
<path d="M55.9998 23.2911C56.3613 23.2911 56.6543 22.998 56.6543 22.6366C56.6543 22.2751 56.3613 21.982 55.9998 21.982C55.6383 21.982 55.3452 22.2751 55.3452 22.6366C55.3452 22.998 55.6383 23.2911 55.9998 23.2911Z" fill="#0D51FF"/>
<path d="M58.1813 23.2911C58.5428 23.2911 58.8358 22.998 58.8358 22.6366C58.8358 22.2751 58.5428 21.982 58.1813 21.982C57.8198 21.982 57.5268 22.2751 57.5268 22.6366C57.5268 22.998 57.8198 23.2911 58.1813 23.2911Z" fill="#0D51FF"/>
<path d="M62.5448 23.2911C62.9063 23.2911 63.1994 22.998 63.1994 22.6366C63.1994 22.2751 62.9063 21.982 62.5448 21.982C62.1833 21.982 61.8903 22.2751 61.8903 22.6366C61.8903 22.998 62.1833 23.2911 62.5448 23.2911Z" fill="#0D51FF"/>
<path d="M69.0905 23.2911C69.452 23.2911 69.745 22.998 69.745 22.6366C69.745 22.2751 69.452 21.982 69.0905 21.982C68.729 21.982 68.4359 22.2751 68.4359 22.6366C68.4359 22.998 68.729 23.2911 69.0905 23.2911Z" fill="#0D51FF"/>
<path d="M45.0904 25.4732C45.4519 25.4732 45.7449 25.1801 45.7449 24.8186C45.7449 24.4571 45.4519 24.1641 45.0904 24.1641C44.7289 24.1641 44.4359 24.4571 44.4359 24.8186C44.4359 25.1801 44.7289 25.4732 45.0904 25.4732Z" fill="#0D51FF"/>
<path d="M47.2723 25.4732C47.6338 25.4732 47.9269 25.1801 47.9269 24.8186C47.9269 24.4571 47.6338 24.1641 47.2723 24.1641C46.9109 24.1641 46.6178 24.4571 46.6178 24.8186C46.6178 25.1801 46.9109 25.4732 47.2723 25.4732Z" fill="#0D51FF"/>
<path d="M49.4538 25.4732C49.8153 25.4732 50.1083 25.1801 50.1083 24.8186C50.1083 24.4571 49.8153 24.1641 49.4538 24.1641C49.0923 24.1641 48.7992 24.4571 48.7992 24.8186C48.7992 25.1801 49.0923 25.4732 49.4538 25.4732Z" fill="#0D51FF"/>
<path d="M53.8177 25.4732C54.1792 25.4732 54.4722 25.1801 54.4722 24.8186C54.4722 24.4571 54.1792 24.1641 53.8177 24.1641C53.4562 24.1641 53.1631 24.4571 53.1631 24.8186C53.1631 25.1801 53.4562 25.4732 53.8177 25.4732Z" fill="#0D51FF"/>
<path d="M55.9998 25.4732C56.3613 25.4732 56.6543 25.1801 56.6543 24.8186C56.6543 24.4571 56.3613 24.1641 55.9998 24.1641C55.6383 24.1641 55.3452 24.4571 55.3452 24.8186C55.3452 25.1801 55.6383 25.4732 55.9998 25.4732Z" fill="#0D51FF"/>
<path d="M60.3632 25.4732C60.7247 25.4732 61.0178 25.1801 61.0178 24.8186C61.0178 24.4571 60.7247 24.1641 60.3632 24.1641C60.0017 24.1641 59.7087 24.4571 59.7087 24.8186C59.7087 25.1801 60.0017 25.4732 60.3632 25.4732Z" fill="#0D51FF"/>
<path d="M62.5448 25.4732C62.9063 25.4732 63.1994 25.1801 63.1994 24.8186C63.1994 24.4571 62.9063 24.1641 62.5448 24.1641C62.1833 24.1641 61.8903 24.4571 61.8903 24.8186C61.8903 25.1801 62.1833 25.4732 62.5448 25.4732Z" fill="#0D51FF"/>
<path d="M66.9085 25.4732C67.27 25.4732 67.5631 25.1801 67.5631 24.8186C67.5631 24.4571 67.27 24.1641 66.9085 24.1641C66.5471 24.1641 66.254 24.4571 66.254 24.8186C66.254 25.1801 66.5471 25.4732 66.9085 25.4732Z" fill="#0D51FF"/>
<path d="M69.0905 25.4732C69.452 25.4732 69.745 25.1801 69.745 24.8186C69.745 24.4571 69.452 24.1641 69.0905 24.1641C68.729 24.1641 68.4359 24.4571 68.4359 24.8186C68.4359 25.1801 68.729 25.4732 69.0905 25.4732Z" fill="#0D51FF"/>
<path d="M47.2723 27.6549C47.6338 27.6549 47.9269 27.3619 47.9269 27.0004C47.9269 26.6389 47.6338 26.3458 47.2723 26.3458C46.9109 26.3458 46.6178 26.6389 46.6178 27.0004C46.6178 27.3619 46.9109 27.6549 47.2723 27.6549Z" fill="#0D51FF"/>
<path d="M49.4538 27.6549C49.8153 27.6549 50.1083 27.3619 50.1083 27.0004C50.1083 26.6389 49.8153 26.3458 49.4538 26.3458C49.0923 26.3458 48.7992 26.6389 48.7992 27.0004C48.7992 27.3619 49.0923 27.6549 49.4538 27.6549Z" fill="#0D51FF"/>
<path d="M51.6358 27.6549C51.9973 27.6549 52.2903 27.3619 52.2903 27.0004C52.2903 26.6389 51.9973 26.3458 51.6358 26.3458C51.2743 26.3458 50.9812 26.6389 50.9812 27.0004C50.9812 27.3619 51.2743 27.6549 51.6358 27.6549Z" fill="#0D51FF"/>
<path d="M53.8177 27.6549C54.1792 27.6549 54.4722 27.3619 54.4722 27.0004C54.4722 26.6389 54.1792 26.3458 53.8177 26.3458C53.4562 26.3458 53.1631 26.6389 53.1631 27.0004C53.1631 27.3619 53.4562 27.6549 53.8177 27.6549Z" fill="#0D51FF"/>
<path d="M55.9998 27.6549C56.3613 27.6549 56.6543 27.3619 56.6543 27.0004C56.6543 26.6389 56.3613 26.3458 55.9998 26.3458C55.6383 26.3458 55.3452 26.6389 55.3452 27.0004C55.3452 27.3619 55.6383 27.6549 55.9998 27.6549Z" fill="#0D51FF"/>
<path d="M64.7267 27.6549C65.0882 27.6549 65.3813 27.3619 65.3813 27.0004C65.3813 26.6389 65.0882 26.3458 64.7267 26.3458C64.3653 26.3458 64.0722 26.6389 64.0722 27.0004C64.0722 27.3619 64.3653 27.6549 64.7267 27.6549Z" fill="#0D51FF"/>
<path d="M66.9085 27.6549C67.27 27.6549 67.5631 27.3619 67.5631 27.0004C67.5631 26.6389 67.27 26.3458 66.9085 26.3458C66.5471 26.3458 66.254 26.6389 66.254 27.0004C66.254 27.3619 66.5471 27.6549 66.9085 27.6549Z" fill="#0D51FF"/>
<path d="M45.0904 29.8367C45.4519 29.8367 45.7449 29.5437 45.7449 29.1822C45.7449 28.8207 45.4519 28.5276 45.0904 28.5276C44.7289 28.5276 44.4359 28.8207 44.4359 29.1822C44.4359 29.5437 44.7289 29.8367 45.0904 29.8367Z" fill="#0D51FF"/>
<path d="M47.2723 29.8367C47.6338 29.8367 47.9269 29.5437 47.9269 29.1822C47.9269 28.8207 47.6338 28.5276 47.2723 28.5276C46.9109 28.5276 46.6178 28.8207 46.6178 29.1822C46.6178 29.5437 46.9109 29.8367 47.2723 29.8367Z" fill="#0D51FF"/>
<path d="M49.4538 29.8367C49.8153 29.8367 50.1083 29.5437 50.1083 29.1822C50.1083 28.8207 49.8153 28.5276 49.4538 28.5276C49.0923 28.5276 48.7992 28.8207 48.7992 29.1822C48.7992 29.5437 49.0923 29.8367 49.4538 29.8367Z" fill="#0D51FF"/>
<path d="M53.8177 29.8367C54.1792 29.8367 54.4722 29.5437 54.4722 29.1822C54.4722 28.8207 54.1792 28.5276 53.8177 28.5276C53.4562 28.5276 53.1631 28.8207 53.1631 29.1822C53.1631 29.5437 53.4562 29.8367 53.8177 29.8367Z" fill="#0D51FF"/>
<path d="M55.9998 29.8367C56.3613 29.8367 56.6543 29.5437 56.6543 29.1822C56.6543 28.8207 56.3613 28.5276 55.9998 28.5276C55.6383 28.5276 55.3452 28.8207 55.3452 29.1822C55.3452 29.5437 55.6383 29.8367 55.9998 29.8367Z" fill="#0D51FF"/>
<path d="M58.1813 29.8367C58.5428 29.8367 58.8358 29.5437 58.8358 29.1822C58.8358 28.8207 58.5428 28.5276 58.1813 28.5276C57.8198 28.5276 57.5268 28.8207 57.5268 29.1822C57.5268 29.5437 57.8198 29.8367 58.1813 29.8367Z" fill="#0D51FF"/>
<path d="M64.7267 29.8367C65.0882 29.8367 65.3813 29.5437 65.3813 29.1822C65.3813 28.8207 65.0882 28.5276 64.7267 28.5276C64.3653 28.5276 64.0722 28.8207 64.0722 29.1822C64.0722 29.5437 64.3653 29.8367 64.7267 29.8367Z" fill="#0D51FF"/>
<path d="M42.9084 32.0185C43.2699 32.0185 43.563 31.7254 43.563 31.3639C43.563 31.0024 43.2699 30.7094 42.9084 30.7094C42.5469 30.7094 42.2539 31.0024 42.2539 31.3639C42.2539 31.7254 42.5469 32.0185 42.9084 32.0185Z" fill="#0D51FF"/>
<path d="M45.0904 32.0185C45.4519 32.0185 45.7449 31.7254 45.7449 31.3639C45.7449 31.0024 45.4519 30.7094 45.0904 30.7094C44.7289 30.7094 44.4359 31.0024 44.4359 31.3639C44.4359 31.7254 44.7289 32.0185 45.0904 32.0185Z" fill="#0D51FF"/>
<path d="M47.2723 32.0185C47.6338 32.0185 47.9269 31.7254 47.9269 31.3639C47.9269 31.0024 47.6338 30.7094 47.2723 30.7094C46.9109 30.7094 46.6178 31.0024 46.6178 31.3639C46.6178 31.7254 46.9109 32.0185 47.2723 32.0185Z" fill="#0D51FF"/>
<path d="M51.6358 32.0185C51.9973 32.0185 52.2903 31.7254 52.2903 31.3639C52.2903 31.0024 51.9973 30.7094 51.6358 30.7094C51.2743 30.7094 50.9812 31.0024 50.9812 31.3639C50.9812 31.7254 51.2743 32.0185 51.6358 32.0185Z" fill="#0D51FF"/>
<path d="M55.9998 32.0185C56.3613 32.0185 56.6543 31.7254 56.6543 31.3639C56.6543 31.0024 56.3613 30.7094 55.9998 30.7094C55.6383 30.7094 55.3452 31.0024 55.3452 31.3639C55.3452 31.7254 55.6383 32.0185 55.9998 32.0185Z" fill="#0D51FF"/>
<path d="M60.3632 32.0185C60.7247 32.0185 61.0178 31.7254 61.0178 31.3639C61.0178 31.0024 60.7247 30.7094 60.3632 30.7094C60.0017 30.7094 59.7087 31.0024 59.7087 31.3639C59.7087 31.7254 60.0017 32.0185 60.3632 32.0185Z" fill="#0D51FF"/>
<path d="M64.7267 32.0185C65.0882 32.0185 65.3813 31.7254 65.3813 31.3639C65.3813 31.0024 65.0882 30.7094 64.7267 30.7094C64.3653 30.7094 64.0722 31.0024 64.0722 31.3639C64.0722 31.7254 64.3653 32.0185 64.7267 32.0185Z" fill="#0D51FF"/>
<path d="M66.9085 32.0185C67.27 32.0185 67.5631 31.7254 67.5631 31.3639C67.5631 31.0024 67.27 30.7094 66.9085 30.7094C66.5471 30.7094 66.254 31.0024 66.254 31.3639C66.254 31.7254 66.5471 32.0185 66.9085 32.0185Z" fill="#0D51FF"/>
<path d="M42.9084 34.2003C43.2699 34.2003 43.563 33.9073 43.563 33.5458C43.563 33.1843 43.2699 32.8912 42.9084 32.8912C42.5469 32.8912 42.2539 33.1843 42.2539 33.5458C42.2539 33.9073 42.5469 34.2003 42.9084 34.2003Z" fill="#0D51FF"/>
<path d="M47.2723 34.2003C47.6338 34.2003 47.9269 33.9073 47.9269 33.5458C47.9269 33.1843 47.6338 32.8912 47.2723 32.8912C46.9109 32.8912 46.6178 33.1843 46.6178 33.5458C46.6178 33.9073 46.9109 34.2003 47.2723 34.2003Z" fill="#0D51FF"/>
<path d="M51.6358 34.2003C51.9973 34.2003 52.2903 33.9073 52.2903 33.5458C52.2903 33.1843 51.9973 32.8912 51.6358 32.8912C51.2743 32.8912 50.9812 33.1843 50.9812 33.5458C50.9812 33.9073 51.2743 34.2003 51.6358 34.2003Z" fill="#0D51FF"/>
<path d="M55.9998 34.2003C56.3613 34.2003 56.6543 33.9073 56.6543 33.5458C56.6543 33.1843 56.3613 32.8912 55.9998 32.8912C55.6383 32.8912 55.3452 33.1843 55.3452 33.5458C55.3452 33.9073 55.6383 34.2003 55.9998 34.2003Z" fill="#0D51FF"/>
<path d="M60.3632 34.2003C60.7247 34.2003 61.0178 33.9073 61.0178 33.5458C61.0178 33.1843 60.7247 32.8912 60.3632 32.8912C60.0017 32.8912 59.7087 33.1843 59.7087 33.5458C59.7087 33.9073 60.0017 34.2003 60.3632 34.2003Z" fill="#0D51FF"/>
<path d="M64.7267 34.2003C65.0882 34.2003 65.3813 33.9073 65.3813 33.5458C65.3813 33.1843 65.0882 32.8912 64.7267 32.8912C64.3653 32.8912 64.0722 33.1843 64.0722 33.5458C64.0722 33.9073 64.3653 34.2003 64.7267 34.2003Z" fill="#0D51FF"/>
<path d="M69.0905 34.2003C69.452 34.2003 69.745 33.9073 69.745 33.5458C69.745 33.1843 69.452 32.8912 69.0905 32.8912C68.729 32.8912 68.4359 33.1843 68.4359 33.5458C68.4359 33.9073 68.729 34.2003 69.0905 34.2003Z" fill="#0D51FF"/>
<path d="M42.9084 36.3821C43.2699 36.3821 43.563 36.0891 43.563 35.7276C43.563 35.3661 43.2699 35.073 42.9084 35.073C42.5469 35.073 42.2539 35.3661 42.2539 35.7276C42.2539 36.0891 42.5469 36.3821 42.9084 36.3821Z" fill="#0D51FF"/>
<path d="M49.4538 36.3821C49.8153 36.3821 50.1083 36.0891 50.1083 35.7276C50.1083 35.3661 49.8153 35.073 49.4538 35.073C49.0923 35.073 48.7992 35.3661 48.7992 35.7276C48.7992 36.0891 49.0923 36.3821 49.4538 36.3821Z" fill="#0D51FF"/>
<path d="M51.6358 36.3821C51.9973 36.3821 52.2903 36.0891 52.2903 35.7276C52.2903 35.3661 51.9973 35.073 51.6358 35.073C51.2743 35.073 50.9812 35.3661 50.9812 35.7276C50.9812 36.0891 51.2743 36.3821 51.6358 36.3821Z" fill="#0D51FF"/>
<path d="M60.3632 36.3821C60.7247 36.3821 61.0178 36.0891 61.0178 35.7276C61.0178 35.3661 60.7247 35.073 60.3632 35.073C60.0017 35.073 59.7087 35.3661 59.7087 35.7276C59.7087 36.0891 60.0017 36.3821 60.3632 36.3821Z" fill="#0D51FF"/>
<path d="M62.5448 36.3821C62.9063 36.3821 63.1994 36.0891 63.1994 35.7276C63.1994 35.3661 62.9063 35.073 62.5448 35.073C62.1833 35.073 61.8903 35.3661 61.8903 35.7276C61.8903 36.0891 62.1833 36.3821 62.5448 36.3821Z" fill="#0D51FF"/>
<path d="M64.7267 36.3821C65.0882 36.3821 65.3813 36.0891 65.3813 35.7276C65.3813 35.3661 65.0882 35.073 64.7267 35.073C64.3653 35.073 64.0722 35.3661 64.0722 35.7276C64.0722 36.0891 64.3653 36.3821 64.7267 36.3821Z" fill="#0D51FF"/>
<path d="M34.1813 38.564C34.5428 38.564 34.8358 38.271 34.8358 37.9095C34.8358 37.548 34.5428 37.2549 34.1813 37.2549C33.8198 37.2549 33.5267 37.548 33.5267 37.9095C33.5267 38.271 33.8198 38.564 34.1813 38.564Z" fill="#0D51FF"/>
<path d="M36.3631 38.564C36.7246 38.564 37.0177 38.271 37.0177 37.9095C37.0177 37.548 36.7246 37.2549 36.3631 37.2549C36.0016 37.2549 35.7086 37.548 35.7086 37.9095C35.7086 38.271 36.0016 38.564 36.3631 38.564Z" fill="#0D51FF"/>
<path d="M38.5449 38.564C38.9064 38.564 39.1994 38.271 39.1994 37.9095C39.1994 37.548 38.9064 37.2549 38.5449 37.2549C38.1834 37.2549 37.8903 37.548 37.8903 37.9095C37.8903 38.271 38.1834 38.564 38.5449 38.564Z" fill="#0D51FF"/>
<path d="M40.7269 38.564C41.0884 38.564 41.3815 38.271 41.3815 37.9095C41.3815 37.548 41.0884 37.2549 40.7269 37.2549C40.3655 37.2549 40.0724 37.548 40.0724 37.9095C40.0724 38.271 40.3655 38.564 40.7269 38.564Z" fill="#0D51FF"/>
<path d="M45.0904 38.564C45.4519 38.564 45.7449 38.271 45.7449 37.9095C45.7449 37.548 45.4519 37.2549 45.0904 37.2549C44.7289 37.2549 44.4359 37.548 44.4359 37.9095C44.4359 38.271 44.7289 38.564 45.0904 38.564Z" fill="#0D51FF"/>
<path d="M47.2723 38.564C47.6338 38.564 47.9269 38.271 47.9269 37.9095C47.9269 37.548 47.6338 37.2549 47.2723 37.2549C46.9109 37.2549 46.6178 37.548 46.6178 37.9095C46.6178 38.271 46.9109 38.564 47.2723 38.564Z" fill="#0D51FF"/>
<path d="M49.4538 38.564C49.8153 38.564 50.1083 38.271 50.1083 37.9095C50.1083 37.548 49.8153 37.2549 49.4538 37.2549C49.0923 37.2549 48.7992 37.548 48.7992 37.9095C48.7992 38.271 49.0923 38.564 49.4538 38.564Z" fill="#0D51FF"/>
<path d="M53.8177 38.564C54.1792 38.564 54.4722 38.271 54.4722 37.9095C54.4722 37.548 54.1792 37.2549 53.8177 37.2549C53.4562 37.2549 53.1631 37.548 53.1631 37.9095C53.1631 38.271 53.4562 38.564 53.8177 38.564Z" fill="#0D51FF"/>
<path d="M64.7267 38.564C65.0882 38.564 65.3813 38.271 65.3813 37.9095C65.3813 37.548 65.0882 37.2549 64.7267 37.2549C64.3653 37.2549 64.0722 37.548 64.0722 37.9095C64.0722 38.271 64.3653 38.564 64.7267 38.564Z" fill="#0D51FF"/>
<path d="M69.0905 38.564C69.452 38.564 69.745 38.271 69.745 37.9095C69.745 37.548 69.452 37.2549 69.0905 37.2549C68.729 37.2549 68.4359 37.548 68.4359 37.9095C68.4359 38.271 68.729 38.564 69.0905 38.564Z" fill="#0D51FF"/>
<path d="M73.4542 38.564C73.8157 38.564 74.1087 38.271 74.1087 37.9095C74.1087 37.548 73.8157 37.2549 73.4542 37.2549C73.0927 37.2549 72.7996 37.548 72.7996 37.9095C72.7996 38.271 73.0927 38.564 73.4542 38.564Z" fill="#0D51FF"/>
<path d="M75.6357 38.564C75.9972 38.564 76.2903 38.271 76.2903 37.9095C76.2903 37.548 75.9972 37.2549 75.6357 37.2549C75.2742 37.2549 74.9812 37.548 74.9812 37.9095C74.9812 38.271 75.2742 38.564 75.6357 38.564Z" fill="#0D51FF"/>
<path d="M84.363 38.564C84.7245 38.564 85.0175 38.271 85.0175 37.9095C85.0175 37.548 84.7245 37.2549 84.363 37.2549C84.0015 37.2549 83.7084 37.548 83.7084 37.9095C83.7084 38.271 84.0015 38.564 84.363 38.564Z" fill="#0D51FF"/>
<path d="M25.4539 40.7458C25.8154 40.7458 26.1085 40.4527 26.1085 40.0912C26.1085 39.7297 25.8154 39.4367 25.4539 39.4367C25.0924 39.4367 24.7994 39.7297 24.7994 40.0912C24.7994 40.4527 25.0924 40.7458 25.4539 40.7458Z" fill="#0D51FF"/>
<path d="M31.9993 40.7458C32.3608 40.7458 32.6539 40.4527 32.6539 40.0912C32.6539 39.7297 32.3608 39.4367 31.9993 39.4367C31.6378 39.4367 31.3448 39.7297 31.3448 40.0912C31.3448 40.4527 31.6378 40.7458 31.9993 40.7458Z" fill="#0D51FF"/>
<path d="M34.1813 40.7458C34.5428 40.7458 34.8358 40.4527 34.8358 40.0912C34.8358 39.7297 34.5428 39.4367 34.1813 39.4367C33.8198 39.4367 33.5267 39.7297 33.5267 40.0912C33.5267 40.4527 33.8198 40.7458 34.1813 40.7458Z" fill="#0D51FF"/>
<path d="M40.7269 40.7458C41.0884 40.7458 41.3815 40.4527 41.3815 40.0912C41.3815 39.7297 41.0884 39.4367 40.7269 39.4367C40.3655 39.4367 40.0724 39.7297 40.0724 40.0912C40.0724 40.4527 40.3655 40.7458 40.7269 40.7458Z" fill="#0D51FF"/>
<path d="M42.9084 40.7458C43.2699 40.7458 43.563 40.4527 43.563 40.0912C43.563 39.7297 43.2699 39.4367 42.9084 39.4367C42.5469 39.4367 42.2539 39.7297 42.2539 40.0912C42.2539 40.4527 42.5469 40.7458 42.9084 40.7458Z" fill="#0D51FF"/>
<path d="M45.0904 40.7458C45.4519 40.7458 45.7449 40.4527 45.7449 40.0912C45.7449 39.7297 45.4519 39.4367 45.0904 39.4367C44.7289 39.4367 44.4359 39.7297 44.4359 40.0912C44.4359 40.4527 44.7289 40.7458 45.0904 40.7458Z" fill="#0D51FF"/>
<path d="M47.2723 40.7458C47.6338 40.7458 47.9269 40.4527 47.9269 40.0912C47.9269 39.7297 47.6338 39.4367 47.2723 39.4367C46.9109 39.4367 46.6178 39.7297 46.6178 40.0912C46.6178 40.4527 46.9109 40.7458 47.2723 40.7458Z" fill="#0D51FF"/>
<path d="M49.4538 40.7458C49.8153 40.7458 50.1083 40.4527 50.1083 40.0912C50.1083 39.7297 49.8153 39.4367 49.4538 39.4367C49.0923 39.4367 48.7992 39.7297 48.7992 40.0912C48.7992 40.4527 49.0923 40.7458 49.4538 40.7458Z" fill="#0D51FF"/>
<path d="M53.8177 40.7458C54.1792 40.7458 54.4722 40.4527 54.4722 40.0912C54.4722 39.7297 54.1792 39.4367 53.8177 39.4367C53.4562 39.4367 53.1631 39.7297 53.1631 40.0912C53.1631 40.4527 53.4562 40.7458 53.8177 40.7458Z" fill="#0D51FF"/>
<path d="M58.1813 40.7458C58.5428 40.7458 58.8358 40.4527 58.8358 40.0912C58.8358 39.7297 58.5428 39.4367 58.1813 39.4367C57.8198 39.4367 57.5268 39.7297 57.5268 40.0912C57.5268 40.4527 57.8198 40.7458 58.1813 40.7458Z" fill="#0D51FF"/>
<path d="M60.3632 40.7458C60.7247 40.7458 61.0178 40.4527 61.0178 40.0912C61.0178 39.7297 60.7247 39.4367 60.3632 39.4367C60.0017 39.4367 59.7087 39.7297 59.7087 40.0912C59.7087 40.4527 60.0017 40.7458 60.3632 40.7458Z" fill="#0D51FF"/>
<path d="M66.9085 40.7458C67.27 40.7458 67.5631 40.4527 67.5631 40.0912C67.5631 39.7297 67.27 39.4367 66.9085 39.4367C66.5471 39.4367 66.254 39.7297 66.254 40.0912C66.254 40.4527 66.5471 40.7458 66.9085 40.7458Z" fill="#0D51FF"/>
<path d="M69.0905 40.7458C69.452 40.7458 69.745 40.4527 69.745 40.0912C69.745 39.7297 69.452 39.4367 69.0905 39.4367C68.729 39.4367 68.4359 39.7297 68.4359 40.0912C68.4359 40.4527 68.729 40.7458 69.0905 40.7458Z" fill="#0D51FF"/>
<path d="M73.4542 40.7458C73.8157 40.7458 74.1087 40.4527 74.1087 40.0912C74.1087 39.7297 73.8157 39.4367 73.4542 39.4367C73.0927 39.4367 72.7996 39.7297 72.7996 40.0912C72.7996 40.4527 73.0927 40.7458 73.4542 40.7458Z" fill="#0D51FF"/>
<path d="M75.6357 40.7458C75.9972 40.7458 76.2903 40.4527 76.2903 40.0912C76.2903 39.7297 75.9972 39.4367 75.6357 39.4367C75.2742 39.4367 74.9812 39.7297 74.9812 40.0912C74.9812 40.4527 75.2742 40.7458 75.6357 40.7458Z" fill="#0D51FF"/>
<path d="M77.8177 40.7458C78.1792 40.7458 78.4722 40.4527 78.4722 40.0912C78.4722 39.7297 78.1792 39.4367 77.8177 39.4367C77.4562 39.4367 77.1631 39.7297 77.1631 40.0912C77.1631 40.4527 77.4562 40.7458 77.8177 40.7458Z" fill="#0D51FF"/>
<path d="M82.1814 40.7458C82.5429 40.7458 82.836 40.4527 82.836 40.0912C82.836 39.7297 82.5429 39.4367 82.1814 39.4367C81.8199 39.4367 81.5269 39.7297 81.5269 40.0912C81.5269 40.4527 81.8199 40.7458 82.1814 40.7458Z" fill="#0D51FF"/>
<path d="M84.363 40.7458C84.7245 40.7458 85.0175 40.4527 85.0175 40.0912C85.0175 39.7297 84.7245 39.4367 84.363 39.4367C84.0015 39.4367 83.7084 39.7297 83.7084 40.0912C83.7084 40.4527 84.0015 40.7458 84.363 40.7458Z" fill="#0D51FF"/>
<path d="M86.5449 40.7458C86.9064 40.7458 87.1995 40.4527 87.1995 40.0912C87.1995 39.7297 86.9064 39.4367 86.5449 39.4367C86.1834 39.4367 85.8904 39.7297 85.8904 40.0912C85.8904 40.4527 86.1834 40.7458 86.5449 40.7458Z" fill="#0D51FF"/>
<path d="M25.4539 42.9278C25.8154 42.9278 26.1085 42.6347 26.1085 42.2732C26.1085 41.9117 25.8154 41.6187 25.4539 41.6187C25.0924 41.6187 24.7994 41.9117 24.7994 42.2732C24.7994 42.6347 25.0924 42.9278 25.4539 42.9278Z" fill="#0D51FF"/>
<path d="M27.6359 42.9278C27.9974 42.9278 28.2904 42.6347 28.2904 42.2732C28.2904 41.9117 27.9974 41.6187 27.6359 41.6187C27.2744 41.6187 26.9813 41.9117 26.9813 42.2732C26.9813 42.6347 27.2744 42.9278 27.6359 42.9278Z" fill="#0D51FF"/>
<path d="M36.3631 42.9278C36.7246 42.9278 37.0177 42.6347 37.0177 42.2732C37.0177 41.9117 36.7246 41.6187 36.3631 41.6187C36.0016 41.6187 35.7086 41.9117 35.7086 42.2732C35.7086 42.6347 36.0016 42.9278 36.3631 42.9278Z" fill="#0D51FF"/>
<path d="M38.5449 42.9278C38.9064 42.9278 39.1994 42.6347 39.1994 42.2732C39.1994 41.9117 38.9064 41.6187 38.5449 41.6187C38.1834 41.6187 37.8903 41.9117 37.8903 42.2732C37.8903 42.6347 38.1834 42.9278 38.5449 42.9278Z" fill="#0D51FF"/>
<path d="M40.7269 42.9278C41.0884 42.9278 41.3815 42.6347 41.3815 42.2732C41.3815 41.9117 41.0884 41.6187 40.7269 41.6187C40.3655 41.6187 40.0724 41.9117 40.0724 42.2732C40.0724 42.6347 40.3655 42.9278 40.7269 42.9278Z" fill="#0D51FF"/>
<path d="M47.2723 42.9278C47.6338 42.9278 47.9269 42.6347 47.9269 42.2732C47.9269 41.9117 47.6338 41.6187 47.2723 41.6187C46.9109 41.6187 46.6178 41.9117 46.6178 42.2732C46.6178 42.6347 46.9109 42.9278 47.2723 42.9278Z" fill="#0D51FF"/>
<path d="M49.4538 42.9278C49.8153 42.9278 50.1083 42.6347 50.1083 42.2732C50.1083 41.9117 49.8153 41.6187 49.4538 41.6187C49.0923 41.6187 48.7992 41.9117 48.7992 42.2732C48.7992 42.6347 49.0923 42.9278 49.4538 42.9278Z" fill="#0D51FF"/>
<path d="M51.6358 42.9278C51.9973 42.9278 52.2903 42.6347 52.2903 42.2732C52.2903 41.9117 51.9973 41.6187 51.6358 41.6187C51.2743 41.6187 50.9812 41.9117 50.9812 42.2732C50.9812 42.6347 51.2743 42.9278 51.6358 42.9278Z" fill="#0D51FF"/>
<path d="M58.1813 42.9278C58.5428 42.9278 58.8358 42.6347 58.8358 42.2732C58.8358 41.9117 58.5428 41.6187 58.1813 41.6187C57.8198 41.6187 57.5268 41.9117 57.5268 42.2732C57.5268 42.6347 57.8198 42.9278 58.1813 42.9278Z" fill="#0D51FF"/>
<path d="M60.3632 42.9278C60.7247 42.9278 61.0178 42.6347 61.0178 42.2732C61.0178 41.9117 60.7247 41.6187 60.3632 41.6187C60.0017 41.6187 59.7087 41.9117 59.7087 42.2732C59.7087 42.6347 60.0017 42.9278 60.3632 42.9278Z" fill="#0D51FF"/>
<path d="M62.5448 42.9278C62.9063 42.9278 63.1994 42.6347 63.1994 42.2732C63.1994 41.9117 62.9063 41.6187 62.5448 41.6187C62.1833 41.6187 61.8903 41.9117 61.8903 42.2732C61.8903 42.6347 62.1833 42.9278 62.5448 42.9278Z" fill="#0D51FF"/>
<path d="M71.2721 42.9278C71.6336 42.9278 71.9266 42.6347 71.9266 42.2732C71.9266 41.9117 71.6336 41.6187 71.2721 41.6187C70.9106 41.6187 70.6175 41.9117 70.6175 42.2732C70.6175 42.6347 70.9106 42.9278 71.2721 42.9278Z" fill="#0D51FF"/>
<path d="M79.9995 42.9278C80.361 42.9278 80.654 42.6347 80.654 42.2732C80.654 41.9117 80.361 41.6187 79.9995 41.6187C79.638 41.6187 79.3449 41.9117 79.3449 42.2732C79.3449 42.6347 79.638 42.9278 79.9995 42.9278Z" fill="#0D51FF"/>
<path d="M82.1814 42.9278C82.5429 42.9278 82.836 42.6347 82.836 42.2732C82.836 41.9117 82.5429 41.6187 82.1814 41.6187C81.8199 41.6187 81.5269 41.9117 81.5269 42.2732C81.5269 42.6347 81.8199 42.9278 82.1814 42.9278Z" fill="#0D51FF"/>
<path d="M86.5449 42.9278C86.9064 42.9278 87.1995 42.6347 87.1995 42.2732C87.1995 41.9117 86.9064 41.6187 86.5449 41.6187C86.1834 41.6187 85.8904 41.9117 85.8904 42.2732C85.8904 42.6347 86.1834 42.9278 86.5449 42.9278Z" fill="#0D51FF"/>
<path d="M36.3631 45.1093C36.7246 45.1093 37.0177 44.8162 37.0177 44.4547C37.0177 44.0932 36.7246 43.8002 36.3631 43.8002C36.0016 43.8002 35.7086 44.0932 35.7086 44.4547C35.7086 44.8162 36.0016 45.1093 36.3631 45.1093Z" fill="#0D51FF"/>
<path d="M45.0904 45.1093C45.4519 45.1093 45.7449 44.8162 45.7449 44.4547C45.7449 44.0932 45.4519 43.8002 45.0904 43.8002C44.7289 43.8002 44.4359 44.0932 44.4359 44.4547C44.4359 44.8162 44.7289 45.1093 45.0904 45.1093Z" fill="#0D51FF"/>
<path d="M47.2723 45.1093C47.6338 45.1093 47.9269 44.8162 47.9269 44.4547C47.9269 44.0932 47.6338 43.8002 47.2723 43.8002C46.9109 43.8002 46.6178 44.0932 46.6178 44.4547C46.6178 44.8162 46.9109 45.1093 47.2723 45.1093Z" fill="#0D51FF"/>
<path d="M53.8177 45.1093C54.1792 45.1093 54.4722 44.8162 54.4722 44.4547C54.4722 44.0932 54.1792 43.8002 53.8177 43.8002C53.4562 43.8002 53.1631 44.0932 53.1631 44.4547C53.1631 44.8162 53.4562 45.1093 53.8177 45.1093Z" fill="#0D51FF"/>
<path d="M55.9998 45.1093C56.3613 45.1093 56.6543 44.8162 56.6543 44.4547C56.6543 44.0932 56.3613 43.8002 55.9998 43.8002C55.6383 43.8002 55.3452 44.0932 55.3452 44.4547C55.3452 44.8162 55.6383 45.1093 55.9998 45.1093Z" fill="#0D51FF"/>
<path d="M64.7267 45.1093C65.0882 45.1093 65.3813 44.8162 65.3813 44.4547C65.3813 44.0932 65.0882 43.8002 64.7267 43.8002C64.3653 43.8002 64.0722 44.0932 64.0722 44.4547C64.0722 44.8162 64.3653 45.1093 64.7267 45.1093Z" fill="#0D51FF"/>
<path d="M69.0905 45.1093C69.452 45.1093 69.745 44.8162 69.745 44.4547C69.745 44.0932 69.452 43.8002 69.0905 43.8002C68.729 43.8002 68.4359 44.0932 68.4359 44.4547C68.4359 44.8162 68.729 45.1093 69.0905 45.1093Z" fill="#0D51FF"/>
<path d="M71.2721 45.1093C71.6336 45.1093 71.9266 44.8162 71.9266 44.4547C71.9266 44.0932 71.6336 43.8002 71.2721 43.8002C70.9106 43.8002 70.6175 44.0932 70.6175 44.4547C70.6175 44.8162 70.9106 45.1093 71.2721 45.1093Z" fill="#0D51FF"/>
<path d="M75.6357 45.1093C75.9972 45.1093 76.2903 44.8162 76.2903 44.4547C76.2903 44.0932 75.9972 43.8002 75.6357 43.8002C75.2742 43.8002 74.9812 44.0932 74.9812 44.4547C74.9812 44.8162 75.2742 45.1093 75.6357 45.1093Z" fill="#0D51FF"/>
<path d="M79.9995 45.1093C80.361 45.1093 80.654 44.8162 80.654 44.4547C80.654 44.0932 80.361 43.8002 79.9995 43.8002C79.638 43.8002 79.3449 44.0932 79.3449 44.4547C79.3449 44.8162 79.638 45.1093 79.9995 45.1093Z" fill="#0D51FF"/>
<path d="M84.363 45.1093C84.7245 45.1093 85.0175 44.8162 85.0175 44.4547C85.0175 44.0932 84.7245 43.8002 84.363 43.8002C84.0015 43.8002 83.7084 44.0932 83.7084 44.4547C83.7084 44.8162 84.0015 45.1093 84.363 45.1093Z" fill="#0D51FF"/>
<path d="M86.5449 45.1093C86.9064 45.1093 87.1995 44.8162 87.1995 44.4547C87.1995 44.0932 86.9064 43.8002 86.5449 43.8002C86.1834 43.8002 85.8904 44.0932 85.8904 44.4547C85.8904 44.8162 86.1834 45.1093 86.5449 45.1093Z" fill="#0D51FF"/>
<path d="M29.8175 47.2912C30.179 47.2912 30.472 46.9981 30.472 46.6366C30.472 46.2751 30.179 45.9821 29.8175 45.9821C29.456 45.9821 29.1629 46.2751 29.1629 46.6366C29.1629 46.9981 29.456 47.2912 29.8175 47.2912Z" fill="#0D51FF"/>
<path d="M31.9993 47.2912C32.3608 47.2912 32.6539 46.9981 32.6539 46.6366C32.6539 46.2751 32.3608 45.9821 31.9993 45.9821C31.6378 45.9821 31.3448 46.2751 31.3448 46.6366C31.3448 46.9981 31.6378 47.2912 31.9993 47.2912Z" fill="#0D51FF"/>
<path d="M36.3631 47.2912C36.7246 47.2912 37.0177 46.9981 37.0177 46.6366C37.0177 46.2751 36.7246 45.9821 36.3631 45.9821C36.0016 45.9821 35.7086 46.2751 35.7086 46.6366C35.7086 46.9981 36.0016 47.2912 36.3631 47.2912Z" fill="#0D51FF"/>
<path d="M38.5449 47.2912C38.9064 47.2912 39.1994 46.9981 39.1994 46.6366C39.1994 46.2751 38.9064 45.9821 38.5449 45.9821C38.1834 45.9821 37.8903 46.2751 37.8903 46.6366C37.8903 46.9981 38.1834 47.2912 38.5449 47.2912Z" fill="#0D51FF"/>
<path d="M40.7269 47.2912C41.0884 47.2912 41.3815 46.9981 41.3815 46.6366C41.3815 46.2751 41.0884 45.9821 40.7269 45.9821C40.3655 45.9821 40.0724 46.2751 40.0724 46.6366C40.0724 46.9981 40.3655 47.2912 40.7269 47.2912Z" fill="#0D51FF"/>
<path d="M42.9084 47.2912C43.2699 47.2912 43.563 46.9981 43.563 46.6366C43.563 46.2751 43.2699 45.9821 42.9084 45.9821C42.5469 45.9821 42.2539 46.2751 42.2539 46.6366C42.2539 46.9981 42.5469 47.2912 42.9084 47.2912Z" fill="#0D51FF"/>
<path d="M45.0904 47.2912C45.4519 47.2912 45.7449 46.9981 45.7449 46.6366C45.7449 46.2751 45.4519 45.9821 45.0904 45.9821C44.7289 45.9821 44.4359 46.2751 44.4359 46.6366C44.4359 46.9981 44.7289 47.2912 45.0904 47.2912Z" fill="#0D51FF"/>
<path d="M47.2723 47.2912C47.6338 47.2912 47.9269 46.9981 47.9269 46.6366C47.9269 46.2751 47.6338 45.9821 47.2723 45.9821C46.9109 45.9821 46.6178 46.2751 46.6178 46.6366C46.6178 46.9981 46.9109 47.2912 47.2723 47.2912Z" fill="#0D51FF"/>
<path d="M49.4538 47.2912C49.8153 47.2912 50.1083 46.9981 50.1083 46.6366C50.1083 46.2751 49.8153 45.9821 49.4538 45.9821C49.0923 45.9821 48.7992 46.2751 48.7992 46.6366C48.7992 46.9981 49.0923 47.2912 49.4538 47.2912Z" fill="#0D51FF"/>
<path d="M51.6358 47.2912C51.9973 47.2912 52.2903 46.9981 52.2903 46.6366C52.2903 46.2751 51.9973 45.9821 51.6358 45.9821C51.2743 45.9821 50.9812 46.2751 50.9812 46.6366C50.9812 46.9981 51.2743 47.2912 51.6358 47.2912Z" fill="#0D51FF"/>
<path d="M53.8177 47.2912C54.1792 47.2912 54.4722 46.9981 54.4722 46.6366C54.4722 46.2751 54.1792 45.9821 53.8177 45.9821C53.4562 45.9821 53.1631 46.2751 53.1631 46.6366C53.1631 46.9981 53.4562 47.2912 53.8177 47.2912Z" fill="#0D51FF"/>
<path d="M58.1813 47.2912C58.5428 47.2912 58.8358 46.9981 58.8358 46.6366C58.8358 46.2751 58.5428 45.9821 58.1813 45.9821C57.8198 45.9821 57.5268 46.2751 57.5268 46.6366C57.5268 46.9981 57.8198 47.2912 58.1813 47.2912Z" fill="#0D51FF"/>
<path d="M64.7267 47.2912C65.0882 47.2912 65.3813 46.9981 65.3813 46.6366C65.3813 46.2751 65.0882 45.9821 64.7267 45.9821C64.3653 45.9821 64.0722 46.2751 64.0722 46.6366C64.0722 46.9981 64.3653 47.2912 64.7267 47.2912Z" fill="#0D51FF"/>
<path d="M66.9085 47.2912C67.27 47.2912 67.5631 46.9981 67.5631 46.6366C67.5631 46.2751 67.27 45.9821 66.9085 45.9821C66.5471 45.9821 66.254 46.2751 66.254 46.6366C66.254 46.9981 66.5471 47.2912 66.9085 47.2912Z" fill="#0D51FF"/>
<path d="M69.0905 47.2912C69.452 47.2912 69.745 46.9981 69.745 46.6366C69.745 46.2751 69.452 45.9821 69.0905 45.9821C68.729 45.9821 68.4359 46.2751 68.4359 46.6366C68.4359 46.9981 68.729 47.2912 69.0905 47.2912Z" fill="#0D51FF"/>
<path d="M75.6357 47.2912C75.9972 47.2912 76.2903 46.9981 76.2903 46.6366C76.2903 46.2751 75.9972 45.9821 75.6357 45.9821C75.2742 45.9821 74.9812 46.2751 74.9812 46.6366C74.9812 46.9981 75.2742 47.2912 75.6357 47.2912Z" fill="#0D51FF"/>
<path d="M79.9995 47.2912C80.361 47.2912 80.654 46.9981 80.654 46.6366C80.654 46.2751 80.361 45.9821 79.9995 45.9821C79.638 45.9821 79.3449 46.2751 79.3449 46.6366C79.3449 46.9981 79.638 47.2912 79.9995 47.2912Z" fill="#0D51FF"/>
<path d="M86.5449 47.2912C86.9064 47.2912 87.1995 46.9981 87.1995 46.6366C87.1995 46.2751 86.9064 45.9821 86.5449 45.9821C86.1834 45.9821 85.8904 46.2751 85.8904 46.6366C85.8904 46.9981 86.1834 47.2912 86.5449 47.2912Z" fill="#0D51FF"/>
<path d="M27.6359 49.4729C27.9974 49.4729 28.2904 49.1798 28.2904 48.8183C28.2904 48.4569 27.9974 48.1638 27.6359 48.1638C27.2744 48.1638 26.9813 48.4569 26.9813 48.8183C26.9813 49.1798 27.2744 49.4729 27.6359 49.4729Z" fill="#0D51FF"/>
<path d="M31.9993 49.4729C32.3608 49.4729 32.6539 49.1798 32.6539 48.8183C32.6539 48.4569 32.3608 48.1638 31.9993 48.1638C31.6378 48.1638 31.3448 48.4569 31.3448 48.8183C31.3448 49.1798 31.6378 49.4729 31.9993 49.4729Z" fill="#0D51FF"/>
<path d="M36.3631 49.4729C36.7246 49.4729 37.0177 49.1798 37.0177 48.8183C37.0177 48.4569 36.7246 48.1638 36.3631 48.1638C36.0016 48.1638 35.7086 48.4569 35.7086 48.8183C35.7086 49.1798 36.0016 49.4729 36.3631 49.4729Z" fill="#0D51FF"/>
<path d="M40.7269 49.4729C41.0884 49.4729 41.3815 49.1798 41.3815 48.8183C41.3815 48.4569 41.0884 48.1638 40.7269 48.1638C40.3655 48.1638 40.0724 48.4569 40.0724 48.8183C40.0724 49.1798 40.3655 49.4729 40.7269 49.4729Z" fill="#0D51FF"/>
<path d="M42.9084 49.4729C43.2699 49.4729 43.563 49.1798 43.563 48.8183C43.563 48.4569 43.2699 48.1638 42.9084 48.1638C42.5469 48.1638 42.2539 48.4569 42.2539 48.8183C42.2539 49.1798 42.5469 49.4729 42.9084 49.4729Z" fill="#0D51FF"/>
<path d="M45.0904 49.4729C45.4519 49.4729 45.7449 49.1798 45.7449 48.8183C45.7449 48.4569 45.4519 48.1638 45.0904 48.1638C44.7289 48.1638 44.4359 48.4569 44.4359 48.8183C44.4359 49.1798 44.7289 49.4729 45.0904 49.4729Z" fill="#0D51FF"/>
<path d="M47.2723 49.4729C47.6338 49.4729 47.9269 49.1798 47.9269 48.8183C47.9269 48.4569 47.6338 48.1638 47.2723 48.1638C46.9109 48.1638 46.6178 48.4569 46.6178 48.8183C46.6178 49.1798 46.9109 49.4729 47.2723 49.4729Z" fill="#0D51FF"/>
<path d="M55.9998 49.4729C56.3613 49.4729 56.6543 49.1798 56.6543 48.8183C56.6543 48.4569 56.3613 48.1638 55.9998 48.1638C55.6383 48.1638 55.3452 48.4569 55.3452 48.8183C55.3452 49.1798 55.6383 49.4729 55.9998 49.4729Z" fill="#0D51FF"/>
<path d="M60.3632 49.4729C60.7247 49.4729 61.0178 49.1798 61.0178 48.8183C61.0178 48.4569 60.7247 48.1638 60.3632 48.1638C60.0017 48.1638 59.7087 48.4569 59.7087 48.8183C59.7087 49.1798 60.0017 49.4729 60.3632 49.4729Z" fill="#0D51FF"/>
<path d="M62.5448 49.4729C62.9063 49.4729 63.1994 49.1798 63.1994 48.8183C63.1994 48.4569 62.9063 48.1638 62.5448 48.1638C62.1833 48.1638 61.8903 48.4569 61.8903 48.8183C61.8903 49.1798 62.1833 49.4729 62.5448 49.4729Z" fill="#0D51FF"/>
<path d="M73.4542 49.4729C73.8157 49.4729 74.1087 49.1798 74.1087 48.8183C74.1087 48.4569 73.8157 48.1638 73.4542 48.1638C73.0927 48.1638 72.7996 48.4569 72.7996 48.8183C72.7996 49.1798 73.0927 49.4729 73.4542 49.4729Z" fill="#0D51FF"/>
<path d="M77.8177 49.4729C78.1792 49.4729 78.4722 49.1798 78.4722 48.8183C78.4722 48.4569 78.1792 48.1638 77.8177 48.1638C77.4562 48.1638 77.1631 48.4569 77.1631 48.8183C77.1631 49.1798 77.4562 49.4729 77.8177 49.4729Z" fill="#0D51FF"/>
<path d="M82.1814 49.4729C82.5429 49.4729 82.836 49.1798 82.836 48.8183C82.836 48.4569 82.5429 48.1638 82.1814 48.1638C81.8199 48.1638 81.5269 48.4569 81.5269 48.8183C81.5269 49.1798 81.8199 49.4729 82.1814 49.4729Z" fill="#0D51FF"/>
<path d="M86.5449 49.4729C86.9064 49.4729 87.1995 49.1798 87.1995 48.8183C87.1995 48.4569 86.9064 48.1638 86.5449 48.1638C86.1834 48.1638 85.8904 48.4569 85.8904 48.8183C85.8904 49.1798 86.1834 49.4729 86.5449 49.4729Z" fill="#0D51FF"/>
<path d="M27.6359 51.6549C27.9974 51.6549 28.2904 51.3619 28.2904 51.0004C28.2904 50.6389 27.9974 50.3458 27.6359 50.3458C27.2744 50.3458 26.9813 50.6389 26.9813 51.0004C26.9813 51.3619 27.2744 51.6549 27.6359 51.6549Z" fill="#0D51FF"/>
<path d="M31.9993 51.6549C32.3608 51.6549 32.6539 51.3619 32.6539 51.0004C32.6539 50.6389 32.3608 50.3458 31.9993 50.3458C31.6378 50.3458 31.3448 50.6389 31.3448 51.0004C31.3448 51.3619 31.6378 51.6549 31.9993 51.6549Z" fill="#0D51FF"/>
<path d="M36.3631 51.6549C36.7246 51.6549 37.0177 51.3619 37.0177 51.0004C37.0177 50.6389 36.7246 50.3458 36.3631 50.3458C36.0016 50.3458 35.7086 50.6389 35.7086 51.0004C35.7086 51.3619 36.0016 51.6549 36.3631 51.6549Z" fill="#0D51FF"/>
<path d="M38.5449 51.6549C38.9064 51.6549 39.1994 51.3619 39.1994 51.0004C39.1994 50.6389 38.9064 50.3458 38.5449 50.3458C38.1834 50.3458 37.8903 50.6389 37.8903 51.0004C37.8903 51.3619 38.1834 51.6549 38.5449 51.6549Z" fill="#0D51FF"/>
<path d="M42.9084 51.6549C43.2699 51.6549 43.563 51.3619 43.563 51.0004C43.563 50.6389 43.2699 50.3458 42.9084 50.3458C42.5469 50.3458 42.2539 50.6389 42.2539 51.0004C42.2539 51.3619 42.5469 51.6549 42.9084 51.6549Z" fill="#0D51FF"/>
<path d="M45.0904 51.6549C45.4519 51.6549 45.7449 51.3619 45.7449 51.0004C45.7449 50.6389 45.4519 50.3458 45.0904 50.3458C44.7289 50.3458 44.4359 50.6389 44.4359 51.0004C44.4359 51.3619 44.7289 51.6549 45.0904 51.6549Z" fill="#0D51FF"/>
<path d="M51.6358 51.6549C51.9973 51.6549 52.2903 51.3619 52.2903 51.0004C52.2903 50.6389 51.9973 50.3458 51.6358 50.3458C51.2743 50.3458 50.9812 50.6389 50.9812 51.0004C50.9812 51.3619 51.2743 51.6549 51.6358 51.6549Z" fill="#0D51FF"/>
<path d="M53.8177 51.6549C54.1792 51.6549 54.4722 51.3619 54.4722 51.0004C54.4722 50.6389 54.1792 50.3458 53.8177 50.3458C53.4562 50.3458 53.1631 50.6389 53.1631 51.0004C53.1631 51.3619 53.4562 51.6549 53.8177 51.6549Z" fill="#0D51FF"/>
<path d="M58.1813 51.6549C58.5428 51.6549 58.8358 51.3619 58.8358 51.0004C58.8358 50.6389 58.5428 50.3458 58.1813 50.3458C57.8198 50.3458 57.5268 50.6389 57.5268 51.0004C57.5268 51.3619 57.8198 51.6549 58.1813 51.6549Z" fill="#0D51FF"/>
<path d="M60.3632 51.6549C60.7247 51.6549 61.0178 51.3619 61.0178 51.0004C61.0178 50.6389 60.7247 50.3458 60.3632 50.3458C60.0017 50.3458 59.7087 50.6389 59.7087 51.0004C59.7087 51.3619 60.0017 51.6549 60.3632 51.6549Z" fill="#0D51FF"/>
<path d="M62.5448 51.6549C62.9063 51.6549 63.1994 51.3619 63.1994 51.0004C63.1994 50.6389 62.9063 50.3458 62.5448 50.3458C62.1833 50.3458 61.8903 50.6389 61.8903 51.0004C61.8903 51.3619 62.1833 51.6549 62.5448 51.6549Z" fill="#0D51FF"/>
<path d="M77.8177 51.6549C78.1792 51.6549 78.4722 51.3619 78.4722 51.0004C78.4722 50.6389 78.1792 50.3458 77.8177 50.3458C77.4562 50.3458 77.1631 50.6389 77.1631 51.0004C77.1631 51.3619 77.4562 51.6549 77.8177 51.6549Z" fill="#0D51FF"/>
<path d="M86.5449 51.6549C86.9064 51.6549 87.1995 51.3619 87.1995 51.0004C87.1995 50.6389 86.9064 50.3458 86.5449 50.3458C86.1834 50.3458 85.8904 50.6389 85.8904 51.0004C85.8904 51.3619 86.1834 51.6549 86.5449 51.6549Z" fill="#0D51FF"/>
<path d="M27.6359 53.8365C27.9974 53.8365 28.2904 53.5435 28.2904 53.182C28.2904 52.8205 27.9974 52.5274 27.6359 52.5274C27.2744 52.5274 26.9813 52.8205 26.9813 53.182C26.9813 53.5435 27.2744 53.8365 27.6359 53.8365Z" fill="#0D51FF"/>
<path d="M31.9993 53.8365C32.3608 53.8365 32.6539 53.5435 32.6539 53.182C32.6539 52.8205 32.3608 52.5274 31.9993 52.5274C31.6378 52.5274 31.3448 52.8205 31.3448 53.182C31.3448 53.5435 31.6378 53.8365 31.9993 53.8365Z" fill="#0D51FF"/>
<path d="M36.3631 53.8365C36.7246 53.8365 37.0177 53.5435 37.0177 53.182C37.0177 52.8205 36.7246 52.5274 36.3631 52.5274C36.0016 52.5274 35.7086 52.8205 35.7086 53.182C35.7086 53.5435 36.0016 53.8365 36.3631 53.8365Z" fill="#0D51FF"/>
<path d="M42.9084 53.8365C43.2699 53.8365 43.563 53.5435 43.563 53.182C43.563 52.8205 43.2699 52.5274 42.9084 52.5274C42.5469 52.5274 42.2539 52.8205 42.2539 53.182C42.2539 53.5435 42.5469 53.8365 42.9084 53.8365Z" fill="#0D51FF"/>
<path d="M45.0904 53.8365C45.4519 53.8365 45.7449 53.5435 45.7449 53.182C45.7449 52.8205 45.4519 52.5274 45.0904 52.5274C44.7289 52.5274 44.4359 52.8205 44.4359 53.182C44.4359 53.5435 44.7289 53.8365 45.0904 53.8365Z" fill="#0D51FF"/>
<path d="M47.2723 53.8365C47.6338 53.8365 47.9269 53.5435 47.9269 53.182C47.9269 52.8205 47.6338 52.5274 47.2723 52.5274C46.9109 52.5274 46.6178 52.8205 46.6178 53.182C46.6178 53.5435 46.9109 53.8365 47.2723 53.8365Z" fill="#0D51FF"/>
<path d="M51.6358 53.8365C51.9973 53.8365 52.2903 53.5435 52.2903 53.182C52.2903 52.8205 51.9973 52.5274 51.6358 52.5274C51.2743 52.5274 50.9812 52.8205 50.9812 53.182C50.9812 53.5435 51.2743 53.8365 51.6358 53.8365Z" fill="#0D51FF"/>
<path d="M53.8177 53.8365C54.1792 53.8365 54.4722 53.5435 54.4722 53.182C54.4722 52.8205 54.1792 52.5274 53.8177 52.5274C53.4562 52.5274 53.1631 52.8205 53.1631 53.182C53.1631 53.5435 53.4562 53.8365 53.8177 53.8365Z" fill="#0D51FF"/>
<path d="M60.3632 53.8365C60.7247 53.8365 61.0178 53.5435 61.0178 53.182C61.0178 52.8205 60.7247 52.5274 60.3632 52.5274C60.0017 52.5274 59.7087 52.8205 59.7087 53.182C59.7087 53.5435 60.0017 53.8365 60.3632 53.8365Z" fill="#0D51FF"/>
<path d="M69.0905 53.8365C69.452 53.8365 69.745 53.5435 69.745 53.182C69.745 52.8205 69.452 52.5274 69.0905 52.5274C68.729 52.5274 68.4359 52.8205 68.4359 53.182C68.4359 53.5435 68.729 53.8365 69.0905 53.8365Z" fill="#0D51FF"/>
<path d="M71.2721 53.8365C71.6336 53.8365 71.9266 53.5435 71.9266 53.182C71.9266 52.8205 71.6336 52.5274 71.2721 52.5274C70.9106 52.5274 70.6175 52.8205 70.6175 53.182C70.6175 53.5435 70.9106 53.8365 71.2721 53.8365Z" fill="#0D51FF"/>
<path d="M73.4542 53.8365C73.8157 53.8365 74.1087 53.5435 74.1087 53.182C74.1087 52.8205 73.8157 52.5274 73.4542 52.5274C73.0927 52.5274 72.7996 52.8205 72.7996 53.182C72.7996 53.5435 73.0927 53.8365 73.4542 53.8365Z" fill="#0D51FF"/>
<path d="M75.6357 53.8365C75.9972 53.8365 76.2903 53.5435 76.2903 53.182C76.2903 52.8205 75.9972 52.5274 75.6357 52.5274C75.2742 52.5274 74.9812 52.8205 74.9812 53.182C74.9812 53.5435 75.2742 53.8365 75.6357 53.8365Z" fill="#0D51FF"/>
<path d="M79.9995 53.8365C80.361 53.8365 80.654 53.5435 80.654 53.182C80.654 52.8205 80.361 52.5274 79.9995 52.5274C79.638 52.5274 79.3449 52.8205 79.3449 53.182C79.3449 53.5435 79.638 53.8365 79.9995 53.8365Z" fill="#0D51FF"/>
<path d="M84.363 53.8365C84.7245 53.8365 85.0175 53.5435 85.0175 53.182C85.0175 52.8205 84.7245 52.5274 84.363 52.5274C84.0015 52.5274 83.7084 52.8205 83.7084 53.182C83.7084 53.5435 84.0015 53.8365 84.363 53.8365Z" fill="#0D51FF"/>
<path d="M29.8175 56.0186C30.179 56.0186 30.472 55.7255 30.472 55.364C30.472 55.0025 30.179 54.7095 29.8175 54.7095C29.456 54.7095 29.1629 55.0025 29.1629 55.364C29.1629 55.7255 29.456 56.0186 29.8175 56.0186Z" fill="#0D51FF"/>
<path d="M38.5449 56.0186C38.9064 56.0186 39.1994 55.7255 39.1994 55.364C39.1994 55.0025 38.9064 54.7095 38.5449 54.7095C38.1834 54.7095 37.8903 55.0025 37.8903 55.364C37.8903 55.7255 38.1834 56.0186 38.5449 56.0186Z" fill="#0D51FF"/>
<path d="M51.6358 56.0186C51.9973 56.0186 52.2903 55.7255 52.2903 55.364C52.2903 55.0025 51.9973 54.7095 51.6358 54.7095C51.2743 54.7095 50.9812 55.0025 50.9812 55.364C50.9812 55.7255 51.2743 56.0186 51.6358 56.0186Z" fill="#0D51FF"/>
<path d="M53.8177 56.0186C54.1792 56.0186 54.4722 55.7255 54.4722 55.364C54.4722 55.0025 54.1792 54.7095 53.8177 54.7095C53.4562 54.7095 53.1631 55.0025 53.1631 55.364C53.1631 55.7255 53.4562 56.0186 53.8177 56.0186Z" fill="#0D51FF"/>
<path d="M55.9998 56.0186C56.3613 56.0186 56.6543 55.7255 56.6543 55.364C56.6543 55.0025 56.3613 54.7095 55.9998 54.7095C55.6383 54.7095 55.3452 55.0025 55.3452 55.364C55.3452 55.7255 55.6383 56.0186 55.9998 56.0186Z" fill="#0D51FF"/>
<path d="M58.1813 56.0186C58.5428 56.0186 58.8358 55.7255 58.8358 55.364C58.8358 55.0025 58.5428 54.7095 58.1813 54.7095C57.8198 54.7095 57.5268 55.0025 57.5268 55.364C57.5268 55.7255 57.8198 56.0186 58.1813 56.0186Z" fill="#0D51FF"/>
<path d="M60.3632 56.0186C60.7247 56.0186 61.0178 55.7255 61.0178 55.364C61.0178 55.0025 60.7247 54.7095 60.3632 54.7095C60.0017 54.7095 59.7087 55.0025 59.7087 55.364C59.7087 55.7255 60.0017 56.0186 60.3632 56.0186Z" fill="#0D51FF"/>
<path d="M62.5448 56.0186C62.9063 56.0186 63.1994 55.7255 63.1994 55.364C63.1994 55.0025 62.9063 54.7095 62.5448 54.7095C62.1833 54.7095 61.8903 55.0025 61.8903 55.364C61.8903 55.7255 62.1833 56.0186 62.5448 56.0186Z" fill="#0D51FF"/>
<path d="M64.7267 56.0186C65.0882 56.0186 65.3813 55.7255 65.3813 55.364C65.3813 55.0025 65.0882 54.7095 64.7267 54.7095C64.3653 54.7095 64.0722 55.0025 64.0722 55.364C64.0722 55.7255 64.3653 56.0186 64.7267 56.0186Z" fill="#0D51FF"/>
<path d="M69.0905 56.0186C69.452 56.0186 69.745 55.7255 69.745 55.364C69.745 55.0025 69.452 54.7095 69.0905 54.7095C68.729 54.7095 68.4359 55.0025 68.4359 55.364C68.4359 55.7255 68.729 56.0186 69.0905 56.0186Z" fill="#0D51FF"/>
<path d="M84.363 56.0186C84.7245 56.0186 85.0175 55.7255 85.0175 55.364C85.0175 55.0025 84.7245 54.7095 84.363 54.7095C84.0015 54.7095 83.7084 55.0025 83.7084 55.364C83.7084 55.7255 84.0015 56.0186 84.363 56.0186Z" fill="#0D51FF"/>
<path d="M86.5449 56.0186C86.9064 56.0186 87.1995 55.7255 87.1995 55.364C87.1995 55.0025 86.9064 54.7095 86.5449 54.7095C86.1834 54.7095 85.8904 55.0025 85.8904 55.364C85.8904 55.7255 86.1834 56.0186 86.5449 56.0186Z" fill="#0D51FF"/>
<path d="M25.4539 58.2003C25.8154 58.2003 26.1085 57.9073 26.1085 57.5458C26.1085 57.1843 25.8154 56.8912 25.4539 56.8912C25.0924 56.8912 24.7994 57.1843 24.7994 57.5458C24.7994 57.9073 25.0924 58.2003 25.4539 58.2003Z" fill="#0D51FF"/>
<path d="M29.8175 58.2003C30.179 58.2003 30.472 57.9073 30.472 57.5458C30.472 57.1843 30.179 56.8912 29.8175 56.8912C29.456 56.8912 29.1629 57.1843 29.1629 57.5458C29.1629 57.9073 29.456 58.2003 29.8175 58.2003Z" fill="#0D51FF"/>
<path d="M31.9993 58.2003C32.3608 58.2003 32.6539 57.9073 32.6539 57.5458C32.6539 57.1843 32.3608 56.8912 31.9993 56.8912C31.6378 56.8912 31.3448 57.1843 31.3448 57.5458C31.3448 57.9073 31.6378 58.2003 31.9993 58.2003Z" fill="#0D51FF"/>
<path d="M42.9084 58.2003C43.2699 58.2003 43.563 57.9073 43.563 57.5458C43.563 57.1843 43.2699 56.8912 42.9084 56.8912C42.5469 56.8912 42.2539 57.1843 42.2539 57.5458C42.2539 57.9073 42.5469 58.2003 42.9084 58.2003Z" fill="#0D51FF"/>
<path d="M49.4538 58.2003C49.8153 58.2003 50.1083 57.9073 50.1083 57.5458C50.1083 57.1843 49.8153 56.8912 49.4538 56.8912C49.0923 56.8912 48.7992 57.1843 48.7992 57.5458C48.7992 57.9073 49.0923 58.2003 49.4538 58.2003Z" fill="#0D51FF"/>
<path d="M51.6358 58.2003C51.9973 58.2003 52.2903 57.9073 52.2903 57.5458C52.2903 57.1843 51.9973 56.8912 51.6358 56.8912C51.2743 56.8912 50.9812 57.1843 50.9812 57.5458C50.9812 57.9073 51.2743 58.2003 51.6358 58.2003Z" fill="#0D51FF"/>
<path d="M53.8177 58.2003C54.1792 58.2003 54.4722 57.9073 54.4722 57.5458C54.4722 57.1843 54.1792 56.8912 53.8177 56.8912C53.4562 56.8912 53.1631 57.1843 53.1631 57.5458C53.1631 57.9073 53.4562 58.2003 53.8177 58.2003Z" fill="#0D51FF"/>
<path d="M58.1813 58.2003C58.5428 58.2003 58.8358 57.9073 58.8358 57.5458C58.8358 57.1843 58.5428 56.8912 58.1813 56.8912C57.8198 56.8912 57.5268 57.1843 57.5268 57.5458C57.5268 57.9073 57.8198 58.2003 58.1813 58.2003Z" fill="#0D51FF"/>
<path d="M60.3632 58.2003C60.7247 58.2003 61.0178 57.9073 61.0178 57.5458C61.0178 57.1843 60.7247 56.8912 60.3632 56.8912C60.0017 56.8912 59.7087 57.1843 59.7087 57.5458C59.7087 57.9073 60.0017 58.2003 60.3632 58.2003Z" fill="#0D51FF"/>
<path d="M62.5448 58.2003C62.9063 58.2003 63.1994 57.9073 63.1994 57.5458C63.1994 57.1843 62.9063 56.8912 62.5448 56.8912C62.1833 56.8912 61.8903 57.1843 61.8903 57.5458C61.8903 57.9073 62.1833 58.2003 62.5448 58.2003Z" fill="#0D51FF"/>
<path d="M73.4542 58.2003C73.8157 58.2003 74.1087 57.9073 74.1087 57.5458C74.1087 57.1843 73.8157 56.8912 73.4542 56.8912C73.0927 56.8912 72.7996 57.1843 72.7996 57.5458C72.7996 57.9073 73.0927 58.2003 73.4542 58.2003Z" fill="#0D51FF"/>
<path d="M75.6357 58.2003C75.9972 58.2003 76.2903 57.9073 76.2903 57.5458C76.2903 57.1843 75.9972 56.8912 75.6357 56.8912C75.2742 56.8912 74.9812 57.1843 74.9812 57.5458C74.9812 57.9073 75.2742 58.2003 75.6357 58.2003Z" fill="#0D51FF"/>
<path d="M77.8177 58.2003C78.1792 58.2003 78.4722 57.9073 78.4722 57.5458C78.4722 57.1843 78.1792 56.8912 77.8177 56.8912C77.4562 56.8912 77.1631 57.1843 77.1631 57.5458C77.1631 57.9073 77.4562 58.2003 77.8177 58.2003Z" fill="#0D51FF"/>
<path d="M86.5449 58.2003C86.9064 58.2003 87.1995 57.9073 87.1995 57.5458C87.1995 57.1843 86.9064 56.8912 86.5449 56.8912C86.1834 56.8912 85.8904 57.1843 85.8904 57.5458C85.8904 57.9073 86.1834 58.2003 86.5449 58.2003Z" fill="#0D51FF"/>
<path d="M29.8175 60.3821C30.179 60.3821 30.472 60.089 30.472 59.7275C30.472 59.366 30.179 59.073 29.8175 59.073C29.456 59.073 29.1629 59.366 29.1629 59.7275C29.1629 60.089 29.456 60.3821 29.8175 60.3821Z" fill="#0D51FF"/>
<path d="M36.3631 60.3821C36.7246 60.3821 37.0177 60.089 37.0177 59.7275C37.0177 59.366 36.7246 59.073 36.3631 59.073C36.0016 59.073 35.7086 59.366 35.7086 59.7275C35.7086 60.089 36.0016 60.3821 36.3631 60.3821Z" fill="#0D51FF"/>
<path d="M38.5449 60.3821C38.9064 60.3821 39.1994 60.089 39.1994 59.7275C39.1994 59.366 38.9064 59.073 38.5449 59.073C38.1834 59.073 37.8903 59.366 37.8903 59.7275C37.8903 60.089 38.1834 60.3821 38.5449 60.3821Z" fill="#0D51FF"/>
<path d="M40.7269 60.3821C41.0884 60.3821 41.3815 60.089 41.3815 59.7275C41.3815 59.366 41.0884 59.073 40.7269 59.073C40.3655 59.073 40.0724 59.366 40.0724 59.7275C40.0724 60.089 40.3655 60.3821 40.7269 60.3821Z" fill="#0D51FF"/>
<path d="M45.0904 60.3821C45.4519 60.3821 45.7449 60.089 45.7449 59.7275C45.7449 59.366 45.4519 59.073 45.0904 59.073C44.7289 59.073 44.4359 59.366 44.4359 59.7275C44.4359 60.089 44.7289 60.3821 45.0904 60.3821Z" fill="#0D51FF"/>
<path d="M47.2723 60.3821C47.6338 60.3821 47.9269 60.089 47.9269 59.7275C47.9269 59.366 47.6338 59.073 47.2723 59.073C46.9109 59.073 46.6178 59.366 46.6178 59.7275C46.6178 60.089 46.9109 60.3821 47.2723 60.3821Z" fill="#0D51FF"/>
<path d="M51.6358 60.3821C51.9973 60.3821 52.2903 60.089 52.2903 59.7275C52.2903 59.366 51.9973 59.073 51.6358 59.073C51.2743 59.073 50.9812 59.366 50.9812 59.7275C50.9812 60.089 51.2743 60.3821 51.6358 60.3821Z" fill="#0D51FF"/>
<path d="M55.9998 60.3821C56.3613 60.3821 56.6543 60.089 56.6543 59.7275C56.6543 59.366 56.3613 59.073 55.9998 59.073C55.6383 59.073 55.3452 59.366 55.3452 59.7275C55.3452 60.089 55.6383 60.3821 55.9998 60.3821Z" fill="#0D51FF"/>
<path d="M58.1813 60.3821C58.5428 60.3821 58.8358 60.089 58.8358 59.7275C58.8358 59.366 58.5428 59.073 58.1813 59.073C57.8198 59.073 57.5268 59.366 57.5268 59.7275C57.5268 60.089 57.8198 60.3821 58.1813 60.3821Z" fill="#0D51FF"/>
<path d="M69.0905 60.3821C69.452 60.3821 69.745 60.089 69.745 59.7275C69.745 59.366 69.452 59.073 69.0905 59.073C68.729 59.073 68.4359 59.366 68.4359 59.7275C68.4359 60.089 68.729 60.3821 69.0905 60.3821Z" fill="#0D51FF"/>
<path d="M75.6357 60.3821C75.9972 60.3821 76.2903 60.089 76.2903 59.7275C76.2903 59.366 75.9972 59.073 75.6357 59.073C75.2742 59.073 74.9812 59.366 74.9812 59.7275C74.9812 60.089 75.2742 60.3821 75.6357 60.3821Z" fill="#0D51FF"/>
<path d="M77.8177 60.3821C78.1792 60.3821 78.4722 60.089 78.4722 59.7275C78.4722 59.366 78.1792 59.073 77.8177 59.073C77.4562 59.073 77.1631 59.366 77.1631 59.7275C77.1631 60.089 77.4562 60.3821 77.8177 60.3821Z" fill="#0D51FF"/>
<path d="M86.5449 60.3821C86.9064 60.3821 87.1995 60.089 87.1995 59.7275C87.1995 59.366 86.9064 59.073 86.5449 59.073C86.1834 59.073 85.8904 59.366 85.8904 59.7275C85.8904 60.089 86.1834 60.3821 86.5449 60.3821Z" fill="#0D51FF"/>
<path d="M29.8175 62.5638C30.179 62.5638 30.472 62.2708 30.472 61.9093C30.472 61.5478 30.179 61.2547 29.8175 61.2547C29.456 61.2547 29.1629 61.5478 29.1629 61.9093C29.1629 62.2708 29.456 62.5638 29.8175 62.5638Z" fill="#0D51FF"/>
<path d="M34.1813 62.5638C34.5428 62.5638 34.8358 62.2708 34.8358 61.9093C34.8358 61.5478 34.5428 61.2547 34.1813 61.2547C33.8198 61.2547 33.5267 61.5478 33.5267 61.9093C33.5267 62.2708 33.8198 62.5638 34.1813 62.5638Z" fill="#0D51FF"/>
<path d="M42.9084 62.5638C43.2699 62.5638 43.563 62.2708 43.563 61.9093C43.563 61.5478 43.2699 61.2547 42.9084 61.2547C42.5469 61.2547 42.2539 61.5478 42.2539 61.9093C42.2539 62.2708 42.5469 62.5638 42.9084 62.5638Z" fill="#0D51FF"/>
<path d="M45.0904 62.5638C45.4519 62.5638 45.7449 62.2708 45.7449 61.9093C45.7449 61.5478 45.4519 61.2547 45.0904 61.2547C44.7289 61.2547 44.4359 61.5478 44.4359 61.9093C44.4359 62.2708 44.7289 62.5638 45.0904 62.5638Z" fill="#0D51FF"/>
<path d="M47.2723 62.5638C47.6338 62.5638 47.9269 62.2708 47.9269 61.9093C47.9269 61.5478 47.6338 61.2547 47.2723 61.2547C46.9109 61.2547 46.6178 61.5478 46.6178 61.9093C46.6178 62.2708 46.9109 62.5638 47.2723 62.5638Z" fill="#0D51FF"/>
<path d="M51.6358 62.5638C51.9973 62.5638 52.2903 62.2708 52.2903 61.9093C52.2903 61.5478 51.9973 61.2547 51.6358 61.2547C51.2743 61.2547 50.9812 61.5478 50.9812 61.9093C50.9812 62.2708 51.2743 62.5638 51.6358 62.5638Z" fill="#0D51FF"/>
<path d="M55.9998 62.5638C56.3613 62.5638 56.6543 62.2708 56.6543 61.9093C56.6543 61.5478 56.3613 61.2547 55.9998 61.2547C55.6383 61.2547 55.3452 61.5478 55.3452 61.9093C55.3452 62.2708 55.6383 62.5638 55.9998 62.5638Z" fill="#0D51FF"/>
<path d="M58.1813 62.5638C58.5428 62.5638 58.8358 62.2708 58.8358 61.9093C58.8358 61.5478 58.5428 61.2547 58.1813 61.2547C57.8198 61.2547 57.5268 61.5478 57.5268 61.9093C57.5268 62.2708 57.8198 62.5638 58.1813 62.5638Z" fill="#0D51FF"/>
<path d="M60.3632 62.5638C60.7247 62.5638 61.0178 62.2708 61.0178 61.9093C61.0178 61.5478 60.7247 61.2547 60.3632 61.2547C60.0017 61.2547 59.7087 61.5478 59.7087 61.9093C59.7087 62.2708 60.0017 62.5638 60.3632 62.5638Z" fill="#0D51FF"/>
<path d="M62.5448 62.5638C62.9063 62.5638 63.1994 62.2708 63.1994 61.9093C63.1994 61.5478 62.9063 61.2547 62.5448 61.2547C62.1833 61.2547 61.8903 61.5478 61.8903 61.9093C61.8903 62.2708 62.1833 62.5638 62.5448 62.5638Z" fill="#0D51FF"/>
<path d="M75.6357 62.5638C75.9972 62.5638 76.2903 62.2708 76.2903 61.9093C76.2903 61.5478 75.9972 61.2547 75.6357 61.2547C75.2742 61.2547 74.9812 61.5478 74.9812 61.9093C74.9812 62.2708 75.2742 62.5638 75.6357 62.5638Z" fill="#0D51FF"/>
<path d="M79.9995 62.5638C80.361 62.5638 80.654 62.2708 80.654 61.9093C80.654 61.5478 80.361 61.2547 79.9995 61.2547C79.638 61.2547 79.3449 61.5478 79.3449 61.9093C79.3449 62.2708 79.638 62.5638 79.9995 62.5638Z" fill="#0D51FF"/>
<path d="M84.363 62.5638C84.7245 62.5638 85.0175 62.2708 85.0175 61.9093C85.0175 61.5478 84.7245 61.2547 84.363 61.2547C84.0015 61.2547 83.7084 61.5478 83.7084 61.9093C83.7084 62.2708 84.0015 62.5638 84.363 62.5638Z" fill="#0D51FF"/>
<path d="M25.4539 64.7457C25.8154 64.7457 26.1085 64.4527 26.1085 64.0912C26.1085 63.7297 25.8154 63.4366 25.4539 63.4366C25.0924 63.4366 24.7994 63.7297 24.7994 64.0912C24.7994 64.4527 25.0924 64.7457 25.4539 64.7457Z" fill="#0D51FF"/>
<path d="M27.6359 64.7457C27.9974 64.7457 28.2904 64.4527 28.2904 64.0912C28.2904 63.7297 27.9974 63.4366 27.6359 63.4366C27.2744 63.4366 26.9813 63.7297 26.9813 64.0912C26.9813 64.4527 27.2744 64.7457 27.6359 64.7457Z" fill="#0D51FF"/>
<path d="M34.1813 64.7457C34.5428 64.7457 34.8358 64.4527 34.8358 64.0912C34.8358 63.7297 34.5428 63.4366 34.1813 63.4366C33.8198 63.4366 33.5267 63.7297 33.5267 64.0912C33.5267 64.4527 33.8198 64.7457 34.1813 64.7457Z" fill="#0D51FF"/>
<path d="M38.5449 64.7457C38.9064 64.7457 39.1994 64.4527 39.1994 64.0912C39.1994 63.7297 38.9064 63.4366 38.5449 63.4366C38.1834 63.4366 37.8903 63.7297 37.8903 64.0912C37.8903 64.4527 38.1834 64.7457 38.5449 64.7457Z" fill="#0D51FF"/>
<path d="M47.2723 64.7457C47.6338 64.7457 47.9269 64.4527 47.9269 64.0912C47.9269 63.7297 47.6338 63.4366 47.2723 63.4366C46.9109 63.4366 46.6178 63.7297 46.6178 64.0912C46.6178 64.4527 46.9109 64.7457 47.2723 64.7457Z" fill="#0D51FF"/>
<path d="M51.6358 64.7457C51.9973 64.7457 52.2903 64.4527 52.2903 64.0912C52.2903 63.7297 51.9973 63.4366 51.6358 63.4366C51.2743 63.4366 50.9812 63.7297 50.9812 64.0912C50.9812 64.4527 51.2743 64.7457 51.6358 64.7457Z" fill="#0D51FF"/>
<path d="M55.9998 64.7457C56.3613 64.7457 56.6543 64.4527 56.6543 64.0912C56.6543 63.7297 56.3613 63.4366 55.9998 63.4366C55.6383 63.4366 55.3452 63.7297 55.3452 64.0912C55.3452 64.4527 55.6383 64.7457 55.9998 64.7457Z" fill="#0D51FF"/>
<path d="M58.1813 64.7457C58.5428 64.7457 58.8358 64.4527 58.8358 64.0912C58.8358 63.7297 58.5428 63.4366 58.1813 63.4366C57.8198 63.4366 57.5268 63.7297 57.5268 64.0912C57.5268 64.4527 57.8198 64.7457 58.1813 64.7457Z" fill="#0D51FF"/>
<path d="M60.3632 64.7457C60.7247 64.7457 61.0178 64.4527 61.0178 64.0912C61.0178 63.7297 60.7247 63.4366 60.3632 63.4366C60.0017 63.4366 59.7087 63.7297 59.7087 64.0912C59.7087 64.4527 60.0017 64.7457 60.3632 64.7457Z" fill="#0D51FF"/>
<path d="M64.7267 64.7457C65.0882 64.7457 65.3813 64.4527 65.3813 64.0912C65.3813 63.7297 65.0882 63.4366 64.7267 63.4366C64.3653 63.4366 64.0722 63.7297 64.0722 64.0912C64.0722 64.4527 64.3653 64.7457 64.7267 64.7457Z" fill="#0D51FF"/>
<path d="M69.0905 64.7457C69.452 64.7457 69.745 64.4527 69.745 64.0912C69.745 63.7297 69.452 63.4366 69.0905 63.4366C68.729 63.4366 68.4359 63.7297 68.4359 64.0912C68.4359 64.4527 68.729 64.7457 69.0905 64.7457Z" fill="#0D51FF"/>
<path d="M71.2721 64.7457C71.6336 64.7457 71.9266 64.4527 71.9266 64.0912C71.9266 63.7297 71.6336 63.4366 71.2721 63.4366C70.9106 63.4366 70.6175 63.7297 70.6175 64.0912C70.6175 64.4527 70.9106 64.7457 71.2721 64.7457Z" fill="#0D51FF"/>
<path d="M73.4542 64.7457C73.8157 64.7457 74.1087 64.4527 74.1087 64.0912C74.1087 63.7297 73.8157 63.4366 73.4542 63.4366C73.0927 63.4366 72.7996 63.7297 72.7996 64.0912C72.7996 64.4527 73.0927 64.7457 73.4542 64.7457Z" fill="#0D51FF"/>
<path d="M75.6357 64.7457C75.9972 64.7457 76.2903 64.4527 76.2903 64.0912C76.2903 63.7297 75.9972 63.4366 75.6357 63.4366C75.2742 63.4366 74.9812 63.7297 74.9812 64.0912C74.9812 64.4527 75.2742 64.7457 75.6357 64.7457Z" fill="#0D51FF"/>
<path d="M77.8177 64.7457C78.1792 64.7457 78.4722 64.4527 78.4722 64.0912C78.4722 63.7297 78.1792 63.4366 77.8177 63.4366C77.4562 63.4366 77.1631 63.7297 77.1631 64.0912C77.1631 64.4527 77.4562 64.7457 77.8177 64.7457Z" fill="#0D51FF"/>
<path d="M79.9995 64.7457C80.361 64.7457 80.654 64.4527 80.654 64.0912C80.654 63.7297 80.361 63.4366 79.9995 63.4366C79.638 63.4366 79.3449 63.7297 79.3449 64.0912C79.3449 64.4527 79.638 64.7457 79.9995 64.7457Z" fill="#0D51FF"/>
<path d="M84.363 64.7457C84.7245 64.7457 85.0175 64.4527 85.0175 64.0912C85.0175 63.7297 84.7245 63.4366 84.363 63.4366C84.0015 63.4366 83.7084 63.7297 83.7084 64.0912C83.7084 64.4527 84.0015 64.7457 84.363 64.7457Z" fill="#0D51FF"/>
<path d="M42.9084 66.9274C43.2699 66.9274 43.563 66.6344 43.563 66.2729C43.563 65.9114 43.2699 65.6184 42.9084 65.6184C42.5469 65.6184 42.2539 65.9114 42.2539 66.2729C42.2539 66.6344 42.5469 66.9274 42.9084 66.9274Z" fill="#0D51FF"/>
<path d="M45.0904 66.9274C45.4519 66.9274 45.7449 66.6344 45.7449 66.2729C45.7449 65.9114 45.4519 65.6184 45.0904 65.6184C44.7289 65.6184 44.4359 65.9114 44.4359 66.2729C44.4359 66.6344 44.7289 66.9274 45.0904 66.9274Z" fill="#0D51FF"/>
<path d="M47.2723 66.9274C47.6338 66.9274 47.9269 66.6344 47.9269 66.2729C47.9269 65.9114 47.6338 65.6184 47.2723 65.6184C46.9109 65.6184 46.6178 65.9114 46.6178 66.2729C46.6178 66.6344 46.9109 66.9274 47.2723 66.9274Z" fill="#0D51FF"/>
<path d="M49.4538 66.9274C49.8153 66.9274 50.1083 66.6344 50.1083 66.2729C50.1083 65.9114 49.8153 65.6184 49.4538 65.6184C49.0923 65.6184 48.7992 65.9114 48.7992 66.2729C48.7992 66.6344 49.0923 66.9274 49.4538 66.9274Z" fill="#0D51FF"/>
<path d="M51.6358 66.9274C51.9973 66.9274 52.2903 66.6344 52.2903 66.2729C52.2903 65.9114 51.9973 65.6184 51.6358 65.6184C51.2743 65.6184 50.9812 65.9114 50.9812 66.2729C50.9812 66.6344 51.2743 66.9274 51.6358 66.9274Z" fill="#0D51FF"/>
<path d="M55.9998 66.9274C56.3613 66.9274 56.6543 66.6344 56.6543 66.2729C56.6543 65.9114 56.3613 65.6184 55.9998 65.6184C55.6383 65.6184 55.3452 65.9114 55.3452 66.2729C55.3452 66.6344 55.6383 66.9274 55.9998 66.9274Z" fill="#0D51FF"/>
<path d="M58.1813 66.9274C58.5428 66.9274 58.8358 66.6344 58.8358 66.2729C58.8358 65.9114 58.5428 65.6184 58.1813 65.6184C57.8198 65.6184 57.5268 65.9114 57.5268 66.2729C57.5268 66.6344 57.8198 66.9274 58.1813 66.9274Z" fill="#0D51FF"/>
<path d="M62.5448 66.9274C62.9063 66.9274 63.1994 66.6344 63.1994 66.2729C63.1994 65.9114 62.9063 65.6184 62.5448 65.6184C62.1833 65.6184 61.8903 65.9114 61.8903 66.2729C61.8903 66.6344 62.1833 66.9274 62.5448 66.9274Z" fill="#0D51FF"/>
<path d="M66.9085 66.9274C67.27 66.9274 67.5631 66.6344 67.5631 66.2729C67.5631 65.9114 67.27 65.6184 66.9085 65.6184C66.5471 65.6184 66.254 65.9114 66.254 66.2729C66.254 66.6344 66.5471 66.9274 66.9085 66.9274Z" fill="#0D51FF"/>
<path d="M69.0905 66.9274C69.452 66.9274 69.745 66.6344 69.745 66.2729C69.745 65.9114 69.452 65.6184 69.0905 65.6184C68.729 65.6184 68.4359 65.9114 68.4359 66.2729C68.4359 66.6344 68.729 66.9274 69.0905 66.9274Z" fill="#0D51FF"/>
<path d="M77.8177 66.9274C78.1792 66.9274 78.4722 66.6344 78.4722 66.2729C78.4722 65.9114 78.1792 65.6184 77.8177 65.6184C77.4562 65.6184 77.1631 65.9114 77.1631 66.2729C77.1631 66.6344 77.4562 66.9274 77.8177 66.9274Z" fill="#0D51FF"/>
<path d="M82.1814 66.9274C82.5429 66.9274 82.836 66.6344 82.836 66.2729C82.836 65.9114 82.5429 65.6184 82.1814 65.6184C81.8199 65.6184 81.5269 65.9114 81.5269 66.2729C81.5269 66.6344 81.8199 66.9274 82.1814 66.9274Z" fill="#0D51FF"/>
<path d="M86.5449 66.9274C86.9064 66.9274 87.1995 66.6344 87.1995 66.2729C87.1995 65.9114 86.9064 65.6184 86.5449 65.6184C86.1834 65.6184 85.8904 65.9114 85.8904 66.2729C85.8904 66.6344 86.1834 66.9274 86.5449 66.9274Z" fill="#0D51FF"/>
<path d="M42.9084 69.1093C43.2699 69.1093 43.563 68.8163 43.563 68.4548C43.563 68.0933 43.2699 67.8002 42.9084 67.8002C42.5469 67.8002 42.2539 68.0933 42.2539 68.4548C42.2539 68.8163 42.5469 69.1093 42.9084 69.1093Z" fill="#0D51FF"/>
<path d="M47.2723 69.1093C47.6338 69.1093 47.9269 68.8163 47.9269 68.4548C47.9269 68.0933 47.6338 67.8002 47.2723 67.8002C46.9109 67.8002 46.6178 68.0933 46.6178 68.4548C46.6178 68.8163 46.9109 69.1093 47.2723 69.1093Z" fill="#0D51FF"/>
<path d="M55.9998 69.1093C56.3613 69.1093 56.6543 68.8163 56.6543 68.4548C56.6543 68.0933 56.3613 67.8002 55.9998 67.8002C55.6383 67.8002 55.3452 68.0933 55.3452 68.4548C55.3452 68.8163 55.6383 69.1093 55.9998 69.1093Z" fill="#0D51FF"/>
<path d="M62.5448 69.1093C62.9063 69.1093 63.1994 68.8163 63.1994 68.4548C63.1994 68.0933 62.9063 67.8002 62.5448 67.8002C62.1833 67.8002 61.8903 68.0933 61.8903 68.4548C61.8903 68.8163 62.1833 69.1093 62.5448 69.1093Z" fill="#0D51FF"/>
<path d="M66.9085 69.1093C67.27 69.1093 67.5631 68.8163 67.5631 68.4548C67.5631 68.0933 67.27 67.8002 66.9085 67.8002C66.5471 67.8002 66.254 68.0933 66.254 68.4548C66.254 68.8163 66.5471 69.1093 66.9085 69.1093Z" fill="#0D51FF"/>
<path d="M69.0905 69.1093C69.452 69.1093 69.745 68.8163 69.745 68.4548C69.745 68.0933 69.452 67.8002 69.0905 67.8002C68.729 67.8002 68.4359 68.0933 68.4359 68.4548C68.4359 68.8163 68.729 69.1093 69.0905 69.1093Z" fill="#0D51FF"/>
<path d="M73.4542 69.1093C73.8157 69.1093 74.1087 68.8163 74.1087 68.4548C74.1087 68.0933 73.8157 67.8002 73.4542 67.8002C73.0927 67.8002 72.7996 68.0933 72.7996 68.4548C72.7996 68.8163 73.0927 69.1093 73.4542 69.1093Z" fill="#0D51FF"/>
<path d="M77.8177 69.1093C78.1792 69.1093 78.4722 68.8163 78.4722 68.4548C78.4722 68.0933 78.1792 67.8002 77.8177 67.8002C77.4562 67.8002 77.1631 68.0933 77.1631 68.4548C77.1631 68.8163 77.4562 69.1093 77.8177 69.1093Z" fill="#0D51FF"/>
<path d="M84.363 69.1093C84.7245 69.1093 85.0175 68.8163 85.0175 68.4548C85.0175 68.0933 84.7245 67.8002 84.363 67.8002C84.0015 67.8002 83.7084 68.0933 83.7084 68.4548C83.7084 68.8163 84.0015 69.1093 84.363 69.1093Z" fill="#0D51FF"/>
<path d="M86.5449 69.1093C86.9064 69.1093 87.1995 68.8163 87.1995 68.4548C87.1995 68.0933 86.9064 67.8002 86.5449 67.8002C86.1834 67.8002 85.8904 68.0933 85.8904 68.4548C85.8904 68.8163 86.1834 69.1093 86.5449 69.1093Z" fill="#0D51FF"/>
<path d="M42.9084 71.2911C43.2699 71.2911 43.563 70.998 43.563 70.6366C43.563 70.2751 43.2699 69.982 42.9084 69.982C42.5469 69.982 42.2539 70.2751 42.2539 70.6366C42.2539 70.998 42.5469 71.2911 42.9084 71.2911Z" fill="#0D51FF"/>
<path d="M58.1813 71.2911C58.5428 71.2911 58.8358 70.998 58.8358 70.6366C58.8358 70.2751 58.5428 69.982 58.1813 69.982C57.8198 69.982 57.5268 70.2751 57.5268 70.6366C57.5268 70.998 57.8198 71.2911 58.1813 71.2911Z" fill="#0D51FF"/>
<path d="M62.5448 71.2911C62.9063 71.2911 63.1994 70.998 63.1994 70.6366C63.1994 70.2751 62.9063 69.982 62.5448 69.982C62.1833 69.982 61.8903 70.2751 61.8903 70.6366C61.8903 70.998 62.1833 71.2911 62.5448 71.2911Z" fill="#0D51FF"/>
<path d="M64.7267 71.2911C65.0882 71.2911 65.3813 70.998 65.3813 70.6366C65.3813 70.2751 65.0882 69.982 64.7267 69.982C64.3653 69.982 64.0722 70.2751 64.0722 70.6366C64.0722 70.998 64.3653 71.2911 64.7267 71.2911Z" fill="#0D51FF"/>
<path d="M66.9085 71.2911C67.27 71.2911 67.5631 70.998 67.5631 70.6366C67.5631 70.2751 67.27 69.982 66.9085 69.982C66.5471 69.982 66.254 70.2751 66.254 70.6366C66.254 70.998 66.5471 71.2911 66.9085 71.2911Z" fill="#0D51FF"/>
<path d="M69.0905 71.2911C69.452 71.2911 69.745 70.998 69.745 70.6366C69.745 70.2751 69.452 69.982 69.0905 69.982C68.729 69.982 68.4359 70.2751 68.4359 70.6366C68.4359 70.998 68.729 71.2911 69.0905 71.2911Z" fill="#0D51FF"/>
<path d="M77.8177 71.2911C78.1792 71.2911 78.4722 70.998 78.4722 70.6366C78.4722 70.2751 78.1792 69.982 77.8177 69.982C77.4562 69.982 77.1631 70.2751 77.1631 70.6366C77.1631 70.998 77.4562 71.2911 77.8177 71.2911Z" fill="#0D51FF"/>
<path d="M79.9995 71.2911C80.361 71.2911 80.654 70.998 80.654 70.6366C80.654 70.2751 80.361 69.982 79.9995 69.982C79.638 69.982 79.3449 70.2751 79.3449 70.6366C79.3449 70.998 79.638 71.2911 79.9995 71.2911Z" fill="#0D51FF"/>
<path d="M42.9084 73.473C43.2699 73.473 43.563 73.18 43.563 72.8185C43.563 72.457 43.2699 72.1639 42.9084 72.1639C42.5469 72.1639 42.2539 72.457 42.2539 72.8185C42.2539 73.18 42.5469 73.473 42.9084 73.473Z" fill="#0D51FF"/>
<path d="M49.4538 73.473C49.8153 73.473 50.1083 73.18 50.1083 72.8185C50.1083 72.457 49.8153 72.1639 49.4538 72.1639C49.0923 72.1639 48.7992 72.457 48.7992 72.8185C48.7992 73.18 49.0923 73.473 49.4538 73.473Z" fill="#0D51FF"/>
<path d="M51.6358 73.473C51.9973 73.473 52.2903 73.18 52.2903 72.8185C52.2903 72.457 51.9973 72.1639 51.6358 72.1639C51.2743 72.1639 50.9812 72.457 50.9812 72.8185C50.9812 73.18 51.2743 73.473 51.6358 73.473Z" fill="#0D51FF"/>
<path d="M53.8177 73.473C54.1792 73.473 54.4722 73.18 54.4722 72.8185C54.4722 72.457 54.1792 72.1639 53.8177 72.1639C53.4562 72.1639 53.1631 72.457 53.1631 72.8185C53.1631 73.18 53.4562 73.473 53.8177 73.473Z" fill="#0D51FF"/>
<path d="M55.9998 73.473C56.3613 73.473 56.6543 73.18 56.6543 72.8185C56.6543 72.457 56.3613 72.1639 55.9998 72.1639C55.6383 72.1639 55.3452 72.457 55.3452 72.8185C55.3452 73.18 55.6383 73.473 55.9998 73.473Z" fill="#0D51FF"/>
<path d="M58.1813 73.473C58.5428 73.473 58.8358 73.18 58.8358 72.8185C58.8358 72.457 58.5428 72.1639 58.1813 72.1639C57.8198 72.1639 57.5268 72.457 57.5268 72.8185C57.5268 73.18 57.8198 73.473 58.1813 73.473Z" fill="#0D51FF"/>
<path d="M60.3632 73.473C60.7247 73.473 61.0178 73.18 61.0178 72.8185C61.0178 72.457 60.7247 72.1639 60.3632 72.1639C60.0017 72.1639 59.7087 72.457 59.7087 72.8185C59.7087 73.18 60.0017 73.473 60.3632 73.473Z" fill="#0D51FF"/>
<path d="M66.9085 73.473C67.27 73.473 67.5631 73.18 67.5631 72.8185C67.5631 72.457 67.27 72.1639 66.9085 72.1639C66.5471 72.1639 66.254 72.457 66.254 72.8185C66.254 73.18 66.5471 73.473 66.9085 73.473Z" fill="#0D51FF"/>
<path d="M69.0905 73.473C69.452 73.473 69.745 73.18 69.745 72.8185C69.745 72.457 69.452 72.1639 69.0905 72.1639C68.729 72.1639 68.4359 72.457 68.4359 72.8185C68.4359 73.18 68.729 73.473 69.0905 73.473Z" fill="#0D51FF"/>
<path d="M71.2721 73.473C71.6336 73.473 71.9266 73.18 71.9266 72.8185C71.9266 72.457 71.6336 72.1639 71.2721 72.1639C70.9106 72.1639 70.6175 72.457 70.6175 72.8185C70.6175 73.18 70.9106 73.473 71.2721 73.473Z" fill="#0D51FF"/>
<path d="M73.4542 73.473C73.8157 73.473 74.1087 73.18 74.1087 72.8185C74.1087 72.457 73.8157 72.1639 73.4542 72.1639C73.0927 72.1639 72.7996 72.457 72.7996 72.8185C72.7996 73.18 73.0927 73.473 73.4542 73.473Z" fill="#0D51FF"/>
<path d="M75.6357 73.473C75.9972 73.473 76.2903 73.18 76.2903 72.8185C76.2903 72.457 75.9972 72.1639 75.6357 72.1639C75.2742 72.1639 74.9812 72.457 74.9812 72.8185C74.9812 73.18 75.2742 73.473 75.6357 73.473Z" fill="#0D51FF"/>
<path d="M77.8177 73.473C78.1792 73.473 78.4722 73.18 78.4722 72.8185C78.4722 72.457 78.1792 72.1639 77.8177 72.1639C77.4562 72.1639 77.1631 72.457 77.1631 72.8185C77.1631 73.18 77.4562 73.473 77.8177 73.473Z" fill="#0D51FF"/>
<path d="M86.5449 73.473C86.9064 73.473 87.1995 73.18 87.1995 72.8185C87.1995 72.457 86.9064 72.1639 86.5449 72.1639C86.1834 72.1639 85.8904 72.457 85.8904 72.8185C85.8904 73.18 86.1834 73.473 86.5449 73.473Z" fill="#0D51FF"/>
<path d="M53.8177 75.6546C54.1792 75.6546 54.4722 75.3616 54.4722 75.0001C54.4722 74.6386 54.1792 74.3455 53.8177 74.3455C53.4562 74.3455 53.1631 74.6386 53.1631 75.0001C53.1631 75.3616 53.4562 75.6546 53.8177 75.6546Z" fill="#0D51FF"/>
<path d="M58.1813 75.6546C58.5428 75.6546 58.8358 75.3616 58.8358 75.0001C58.8358 74.6386 58.5428 74.3455 58.1813 74.3455C57.8198 74.3455 57.5268 74.6386 57.5268 75.0001C57.5268 75.3616 57.8198 75.6546 58.1813 75.6546Z" fill="#0D51FF"/>
<path d="M60.3632 75.6546C60.7247 75.6546 61.0178 75.3616 61.0178 75.0001C61.0178 74.6386 60.7247 74.3455 60.3632 74.3455C60.0017 74.3455 59.7087 74.6386 59.7087 75.0001C59.7087 75.3616 60.0017 75.6546 60.3632 75.6546Z" fill="#0D51FF"/>
<path d="M64.7267 75.6546C65.0882 75.6546 65.3813 75.3616 65.3813 75.0001C65.3813 74.6386 65.0882 74.3455 64.7267 74.3455C64.3653 74.3455 64.0722 74.6386 64.0722 75.0001C64.0722 75.3616 64.3653 75.6546 64.7267 75.6546Z" fill="#0D51FF"/>
<path d="M75.6357 75.6546C75.9972 75.6546 76.2903 75.3616 76.2903 75.0001C76.2903 74.6386 75.9972 74.3455 75.6357 74.3455C75.2742 74.3455 74.9812 74.6386 74.9812 75.0001C74.9812 75.3616 75.2742 75.6546 75.6357 75.6546Z" fill="#0D51FF"/>
<path d="M84.363 75.6546C84.7245 75.6546 85.0175 75.3616 85.0175 75.0001C85.0175 74.6386 84.7245 74.3455 84.363 74.3455C84.0015 74.3455 83.7084 74.6386 83.7084 75.0001C83.7084 75.3616 84.0015 75.6546 84.363 75.6546Z" fill="#0D51FF"/>
<path d="M45.0904 77.8367C45.4519 77.8367 45.7449 77.5436 45.7449 77.1821C45.7449 76.8206 45.4519 76.5276 45.0904 76.5276C44.7289 76.5276 44.4359 76.8206 44.4359 77.1821C44.4359 77.5436 44.7289 77.8367 45.0904 77.8367Z" fill="#0D51FF"/>
<path d="M47.2723 77.8367C47.6338 77.8367 47.9269 77.5436 47.9269 77.1821C47.9269 76.8206 47.6338 76.5276 47.2723 76.5276C46.9109 76.5276 46.6178 76.8206 46.6178 77.1821C46.6178 77.5436 46.9109 77.8367 47.2723 77.8367Z" fill="#0D51FF"/>
<path d="M49.4538 77.8367C49.8153 77.8367 50.1083 77.5436 50.1083 77.1821C50.1083 76.8206 49.8153 76.5276 49.4538 76.5276C49.0923 76.5276 48.7992 76.8206 48.7992 77.1821C48.7992 77.5436 49.0923 77.8367 49.4538 77.8367Z" fill="#0D51FF"/>
<path d="M51.6358 77.8367C51.9973 77.8367 52.2903 77.5436 52.2903 77.1821C52.2903 76.8206 51.9973 76.5276 51.6358 76.5276C51.2743 76.5276 50.9812 76.8206 50.9812 77.1821C50.9812 77.5436 51.2743 77.8367 51.6358 77.8367Z" fill="#0D51FF"/>
<path d="M55.9998 77.8367C56.3613 77.8367 56.6543 77.5436 56.6543 77.1821C56.6543 76.8206 56.3613 76.5276 55.9998 76.5276C55.6383 76.5276 55.3452 76.8206 55.3452 77.1821C55.3452 77.5436 55.6383 77.8367 55.9998 77.8367Z" fill="#0D51FF"/>
<path d="M58.1813 77.8367C58.5428 77.8367 58.8358 77.5436 58.8358 77.1821C58.8358 76.8206 58.5428 76.5276 58.1813 76.5276C57.8198 76.5276 57.5268 76.8206 57.5268 77.1821C57.5268 77.5436 57.8198 77.8367 58.1813 77.8367Z" fill="#0D51FF"/>
<path d="M62.5448 77.8367C62.9063 77.8367 63.1994 77.5436 63.1994 77.1821C63.1994 76.8206 62.9063 76.5276 62.5448 76.5276C62.1833 76.5276 61.8903 76.8206 61.8903 77.1821C61.8903 77.5436 62.1833 77.8367 62.5448 77.8367Z" fill="#0D51FF"/>
<path d="M64.7267 77.8367C65.0882 77.8367 65.3813 77.5436 65.3813 77.1821C65.3813 76.8206 65.0882 76.5276 64.7267 76.5276C64.3653 76.5276 64.0722 76.8206 64.0722 77.1821C64.0722 77.5436 64.3653 77.8367 64.7267 77.8367Z" fill="#0D51FF"/>
<path d="M66.9085 77.8367C67.27 77.8367 67.5631 77.5436 67.5631 77.1821C67.5631 76.8206 67.27 76.5276 66.9085 76.5276C66.5471 76.5276 66.254 76.8206 66.254 77.1821C66.254 77.5436 66.5471 77.8367 66.9085 77.8367Z" fill="#0D51FF"/>
<path d="M69.0905 77.8367C69.452 77.8367 69.745 77.5436 69.745 77.1821C69.745 76.8206 69.452 76.5276 69.0905 76.5276C68.729 76.5276 68.4359 76.8206 68.4359 77.1821C68.4359 77.5436 68.729 77.8367 69.0905 77.8367Z" fill="#0D51FF"/>
<path d="M71.2721 77.8367C71.6336 77.8367 71.9266 77.5436 71.9266 77.1821C71.9266 76.8206 71.6336 76.5276 71.2721 76.5276C70.9106 76.5276 70.6175 76.8206 70.6175 77.1821C70.6175 77.5436 70.9106 77.8367 71.2721 77.8367Z" fill="#0D51FF"/>
<path d="M79.9995 77.8367C80.361 77.8367 80.654 77.5436 80.654 77.1821C80.654 76.8206 80.361 76.5276 79.9995 76.5276C79.638 76.5276 79.3449 76.8206 79.3449 77.1821C79.3449 77.5436 79.638 77.8367 79.9995 77.8367Z" fill="#0D51FF"/>
<path d="M82.1814 77.8367C82.5429 77.8367 82.836 77.5436 82.836 77.1821C82.836 76.8206 82.5429 76.5276 82.1814 76.5276C81.8199 76.5276 81.5269 76.8206 81.5269 77.1821C81.5269 77.5436 81.8199 77.8367 82.1814 77.8367Z" fill="#0D51FF"/>
<path d="M84.363 77.8367C84.7245 77.8367 85.0175 77.5436 85.0175 77.1821C85.0175 76.8206 84.7245 76.5276 84.363 76.5276C84.0015 76.5276 83.7084 76.8206 83.7084 77.1821C83.7084 77.5436 84.0015 77.8367 84.363 77.8367Z" fill="#0D51FF"/>
<path d="M86.5449 77.8367C86.9064 77.8367 87.1995 77.5436 87.1995 77.1821C87.1995 76.8206 86.9064 76.5276 86.5449 76.5276C86.1834 76.5276 85.8904 76.8206 85.8904 77.1821C85.8904 77.5436 86.1834 77.8367 86.5449 77.8367Z" fill="#0D51FF"/>
<path d="M45.0904 80.0183C45.4519 80.0183 45.7449 79.7252 45.7449 79.3637C45.7449 79.0022 45.4519 78.7092 45.0904 78.7092C44.7289 78.7092 44.4359 79.0022 44.4359 79.3637C44.4359 79.7252 44.7289 80.0183 45.0904 80.0183Z" fill="#0D51FF"/>
<path d="M47.2723 80.0183C47.6338 80.0183 47.9269 79.7252 47.9269 79.3637C47.9269 79.0022 47.6338 78.7092 47.2723 78.7092C46.9109 78.7092 46.6178 79.0022 46.6178 79.3637C46.6178 79.7252 46.9109 80.0183 47.2723 80.0183Z" fill="#0D51FF"/>
<path d="M51.6358 80.0183C51.9973 80.0183 52.2903 79.7252 52.2903 79.3637C52.2903 79.0022 51.9973 78.7092 51.6358 78.7092C51.2743 78.7092 50.9812 79.0022 50.9812 79.3637C50.9812 79.7252 51.2743 80.0183 51.6358 80.0183Z" fill="#0D51FF"/>
<path d="M55.9998 80.0183C56.3613 80.0183 56.6543 79.7252 56.6543 79.3637C56.6543 79.0022 56.3613 78.7092 55.9998 78.7092C55.6383 78.7092 55.3452 79.0022 55.3452 79.3637C55.3452 79.7252 55.6383 80.0183 55.9998 80.0183Z" fill="#0D51FF"/>
<path d="M58.1813 80.0183C58.5428 80.0183 58.8358 79.7252 58.8358 79.3637C58.8358 79.0022 58.5428 78.7092 58.1813 78.7092C57.8198 78.7092 57.5268 79.0022 57.5268 79.3637C57.5268 79.7252 57.8198 80.0183 58.1813 80.0183Z" fill="#0D51FF"/>
<path d="M60.3632 80.0183C60.7247 80.0183 61.0178 79.7252 61.0178 79.3637C61.0178 79.0022 60.7247 78.7092 60.3632 78.7092C60.0017 78.7092 59.7087 79.0022 59.7087 79.3637C59.7087 79.7252 60.0017 80.0183 60.3632 80.0183Z" fill="#0D51FF"/>
<path d="M69.0905 80.0183C69.452 80.0183 69.745 79.7252 69.745 79.3637C69.745 79.0022 69.452 78.7092 69.0905 78.7092C68.729 78.7092 68.4359 79.0022 68.4359 79.3637C68.4359 79.7252 68.729 80.0183 69.0905 80.0183Z" fill="#0D51FF"/>
<path d="M75.6357 80.0183C75.9972 80.0183 76.2903 79.7252 76.2903 79.3637C76.2903 79.0022 75.9972 78.7092 75.6357 78.7092C75.2742 78.7092 74.9812 79.0022 74.9812 79.3637C74.9812 79.7252 75.2742 80.0183 75.6357 80.0183Z" fill="#0D51FF"/>
<path d="M79.9995 80.0183C80.361 80.0183 80.654 79.7252 80.654 79.3637C80.654 79.0022 80.361 78.7092 79.9995 78.7092C79.638 78.7092 79.3449 79.0022 79.3449 79.3637C79.3449 79.7252 79.638 80.0183 79.9995 80.0183Z" fill="#0D51FF"/>
<path d="M84.363 80.0183C84.7245 80.0183 85.0175 79.7252 85.0175 79.3637C85.0175 79.0022 84.7245 78.7092 84.363 78.7092C84.0015 78.7092 83.7084 79.0022 83.7084 79.3637C83.7084 79.7252 84.0015 80.0183 84.363 80.0183Z" fill="#0D51FF"/>
<path d="M86.5449 80.0183C86.9064 80.0183 87.1995 79.7252 87.1995 79.3637C87.1995 79.0022 86.9064 78.7092 86.5449 78.7092C86.1834 78.7092 85.8904 79.0022 85.8904 79.3637C85.8904 79.7252 86.1834 80.0183 86.5449 80.0183Z" fill="#0D51FF"/>
<path d="M47.2723 82.2002C47.6338 82.2002 47.9269 81.9071 47.9269 81.5456C47.9269 81.1841 47.6338 80.8911 47.2723 80.8911C46.9109 80.8911 46.6178 81.1841 46.6178 81.5456C46.6178 81.9071 46.9109 82.2002 47.2723 82.2002Z" fill="#0D51FF"/>
<path d="M49.4538 82.2002C49.8153 82.2002 50.1083 81.9071 50.1083 81.5456C50.1083 81.1841 49.8153 80.8911 49.4538 80.8911C49.0923 80.8911 48.7992 81.1841 48.7992 81.5456C48.7992 81.9071 49.0923 82.2002 49.4538 82.2002Z" fill="#0D51FF"/>
<path d="M53.8177 82.2002C54.1792 82.2002 54.4722 81.9071 54.4722 81.5456C54.4722 81.1841 54.1792 80.8911 53.8177 80.8911C53.4562 80.8911 53.1631 81.1841 53.1631 81.5456C53.1631 81.9071 53.4562 82.2002 53.8177 82.2002Z" fill="#0D51FF"/>
<path d="M58.1813 82.2002C58.5428 82.2002 58.8358 81.9071 58.8358 81.5456C58.8358 81.1841 58.5428 80.8911 58.1813 80.8911C57.8198 80.8911 57.5268 81.1841 57.5268 81.5456C57.5268 81.9071 57.8198 82.2002 58.1813 82.2002Z" fill="#0D51FF"/>
<path d="M62.5448 82.2002C62.9063 82.2002 63.1994 81.9071 63.1994 81.5456C63.1994 81.1841 62.9063 80.8911 62.5448 80.8911C62.1833 80.8911 61.8903 81.1841 61.8903 81.5456C61.8903 81.9071 62.1833 82.2002 62.5448 82.2002Z" fill="#0D51FF"/>
<path d="M69.0905 82.2002C69.452 82.2002 69.745 81.9071 69.745 81.5456C69.745 81.1841 69.452 80.8911 69.0905 80.8911C68.729 80.8911 68.4359 81.1841 68.4359 81.5456C68.4359 81.9071 68.729 82.2002 69.0905 82.2002Z" fill="#0D51FF"/>
<path d="M73.4542 82.2002C73.8157 82.2002 74.1087 81.9071 74.1087 81.5456C74.1087 81.1841 73.8157 80.8911 73.4542 80.8911C73.0927 80.8911 72.7996 81.1841 72.7996 81.5456C72.7996 81.9071 73.0927 82.2002 73.4542 82.2002Z" fill="#0D51FF"/>
<path d="M77.8177 82.2002C78.1792 82.2002 78.4722 81.9071 78.4722 81.5456C78.4722 81.1841 78.1792 80.8911 77.8177 80.8911C77.4562 80.8911 77.1631 81.1841 77.1631 81.5456C77.1631 81.9071 77.4562 82.2002 77.8177 82.2002Z" fill="#0D51FF"/>
<path d="M79.9995 82.2002C80.361 82.2002 80.654 81.9071 80.654 81.5456C80.654 81.1841 80.361 80.8911 79.9995 80.8911C79.638 80.8911 79.3449 81.1841 79.3449 81.5456C79.3449 81.9071 79.638 82.2002 79.9995 82.2002Z" fill="#0D51FF"/>
<path d="M84.363 82.2002C84.7245 82.2002 85.0175 81.9071 85.0175 81.5456C85.0175 81.1841 84.7245 80.8911 84.363 80.8911C84.0015 80.8911 83.7084 81.1841 83.7084 81.5456C83.7084 81.9071 84.0015 82.2002 84.363 82.2002Z" fill="#0D51FF"/>
<path d="M31.9993 19.5137C27.8648 19.5137 24.5127 22.8657 24.5127 27.0003C24.5127 31.1349 27.8648 34.4869 31.9993 34.4869C36.1339 34.4869 39.4859 31.1349 39.4859 27.0003C39.4859 22.8657 36.1339 19.5137 31.9993 19.5137ZM31.9993 32.2409C29.1096 32.2409 26.7587 29.89 26.7587 27.0003C26.7587 24.1106 29.1096 21.7597 31.9993 21.7597C34.889 21.7597 37.24 24.1106 37.24 27.0003C37.24 29.89 34.889 32.2409 31.9993 32.2409Z" fill="#0D51FF"/>
<path d="M79.9992 19.5137C75.8646 19.5137 72.5126 22.8657 72.5126 27.0003C72.5126 31.1349 75.8646 34.4869 79.9992 34.4869C84.1338 34.4869 87.4858 31.1349 87.4858 27.0003C87.4858 22.8657 84.1338 19.5137 79.9992 19.5137ZM79.9992 32.2409C77.1095 32.2409 74.7586 29.89 74.7586 27.0003C74.7586 24.1106 77.1095 21.7597 79.9992 21.7597C82.8889 21.7597 85.2399 24.1106 85.2399 27.0003C85.2399 29.89 82.8889 32.2409 79.9992 32.2409Z" fill="#0D51FF"/>
<path d="M31.9993 67.5137C27.8648 67.5137 24.5127 70.8658 24.5127 75.0003C24.5127 79.1349 27.8648 82.487 31.9993 82.487C36.1339 82.487 39.4859 79.1349 39.4859 75.0003C39.4859 70.8658 36.1339 67.5137 31.9993 67.5137ZM31.9993 80.241C29.1096 80.241 26.7587 77.89 26.7587 75.0003C26.7587 72.1106 29.1096 69.7597 31.9993 69.7597C34.889 69.7597 37.24 72.1106 37.24 75.0003C37.24 77.89 34.889 80.241 31.9993 80.241Z" fill="#0D51FF"/>
<path d="M31.9351 30.1449C33.7072 30.1449 35.1437 28.7084 35.1437 26.9363C35.1437 25.1643 33.7072 23.7278 31.9351 23.7278C30.1631 23.7278 28.7266 25.1643 28.7266 26.9363C28.7266 28.7084 30.1631 30.1449 31.9351 30.1449Z" fill="#0D51FF"/>
<path d="M79.9353 30.1449C81.7073 30.1449 83.1438 28.7084 83.1438 26.9363C83.1438 25.1643 81.7073 23.7278 79.9353 23.7278C78.1632 23.7278 76.7267 25.1643 76.7267 26.9363C76.7267 28.7084 78.1632 30.1449 79.9353 30.1449Z" fill="#0D51FF"/>
<path d="M31.9351 78.1446C33.7072 78.1446 35.1437 76.7081 35.1437 74.936C35.1437 73.164 33.7072 71.7275 31.9351 71.7275C30.1631 71.7275 28.7266 73.164 28.7266 74.936C28.7266 76.7081 30.1631 78.1446 31.9351 78.1446Z" fill="#0D51FF"/>
<path d="M7.5 21V7.5H20" stroke="#0D51FF"/>
<path d="M7.5 81V94.5H20" stroke="#0D51FF"/>
<path d="M246.5 21V7.5H234" stroke="#0D51FF"/>
<path d="M246.5 81V94.5H234" stroke="#0D51FF"/>
</svg>
