<svg width="61" height="59" viewBox="0 0 61 59" fill="none" xmlns="http://www.w3.org/2000/svg">
<g opacity="0.5">
<path fill-rule="evenodd" clip-rule="evenodd" d="M17.2834 38.8416L5.84585 49.9041C4.82919 50.8875 4.82919 52.3625 5.84585 53.3458C6.35419 53.8375 7.11668 54.0833 7.62502 54.0833C8.13335 54.0833 8.89585 53.8375 9.40419 53.3458L20.8417 42.2833C24.6542 44.9875 29.2292 46.7083 34.3125 46.7083C46.2584 46.7083 55.9167 37.3666 55.9167 25.8125C55.9167 14.2583 46.2584 4.91663 34.3125 4.91663C22.3667 4.91663 12.7084 14.2583 12.7084 25.8125C12.7084 30.7291 14.4875 35.4 17.2834 38.8416ZM34.3125 9.83329C43.4625 9.83329 50.8334 16.9625 50.8334 25.8125C50.8334 34.6625 43.4625 41.7916 34.3125 41.7916C29.7375 41.7916 25.6709 40.0708 22.6209 37.1208C19.5709 34.1708 17.7917 30.2375 17.7917 25.8125C17.7917 16.9625 25.1625 9.83329 34.3125 9.83329Z" fill="#7E7E80" stroke="#7E7E80" stroke-width="0.5"/>
</g>
</svg>
