<svg width="17" height="17" viewBox="0 0 17 17" fill="none" xmlns="http://www.w3.org/2000/svg">
    <path fill-rule="evenodd" clip-rule="evenodd" d="M12.92 11.73L16.745 15.555C17.085 15.895 17.085 16.405 16.745 16.745C16.575 16.915 16.32 17 16.15 17C15.98 17 15.725 16.915 15.555 16.745L11.73 12.92C10.455 13.855 8.925 14.45 7.225 14.45C3.23 14.45 0 11.22 0 7.225C0 3.23 3.23 0 7.225 0C11.22 0 14.45 3.23 14.45 7.225C14.45 8.925 13.855 10.54 12.92 11.73ZM7.225 1.7C4.165 1.7 1.7 4.165 1.7 7.225C1.7 10.285 4.165 12.75 7.225 12.75C8.755 12.75 10.115 12.155 11.135 11.135C12.155 10.115 12.75 8.755 12.75 7.225C12.75 4.165 10.285 1.7 7.225 1.7Z" fill="#1C1C1C"/>
</svg>
