<svg width="290" height="294" viewBox="0 0 290 294" fill="none" xmlns="http://www.w3.org/2000/svg">
<ellipse cx="148.213" cy="152.992" rx="141.787" ry="141.008" fill="#F4F7FF"/>
<path d="M70.7586 66.2851C71.0834 66.1278 97.9148 73.71 97.9148 73.71C97.9148 73.71 126.318 49.0603 129.341 48.4664C132.675 47.8116 131.968 49.9718 131.968 49.9718C131.968 49.9718 142.366 47.65 142.15 49.8039C141.933 51.9577 131.399 57.0817 131.399 57.0817C131.399 57.0817 119.379 89.9395 103.569 93.4874C87.7595 97.0353 57.7596 87.1398 57.7596 87.1398" fill="#FFD6D2"/>
<path d="M103.569 93.4873C87.7595 97.0352 57.7596 87.1396 57.7596 87.1396" stroke="#0D2460" stroke-width="0.324858"/>
<path d="M85.6641 68.6221L77.0176 93.0281L61.2634 87.5078C54.4867 85.1332 50.9287 77.7448 53.3163 71.0053L53.3163 71.0053C55.704 64.2658 63.1332 60.7273 69.9099 63.1018L85.6641 68.6221L85.6641 68.6221Z" fill="#0D51FF"/>
<path d="M77.0175 93.028L85.6643 68.6219L69.9099 63.1016" stroke="white" stroke-width="0.324858"/>
<path d="M53.9909 73.7094L53.9909 73.7094" stroke="white" stroke-width="0.324858"/>
<path d="M132.589 272.477C126.417 246.06 116.996 217.157 116.996 217.157L82.4775 210.372L109.116 277.155H137.787L132.589 272.477Z" fill="#FFD6D2"/>
<path d="M109.116 277.155H137.787L132.589 272.477" fill="#0D2460"/>
<path d="M75.2897 217.156L41.3037 214.033L23.5446 277.155H51.2037L49.0148 272.477L75.2897 217.156Z" fill="#FFD6D2"/>
<path d="M23.5446 277.155H51.2037L49.0148 272.477" fill="#0D51FF"/>
<path d="M125.248 221.572C125.248 221.572 97.2989 149.634 60.9744 106.665L36.9328 102.465C36.9328 102.465 16.1558 142.634 49.0144 170.741L36.9328 217.156L125.248 221.572Z" fill="#0D2460"/>
<path d="M71.0285 121.526C71.0285 114.667 54.8412 109.057 34.3908 108.63C32.3476 114.461 29.9171 123.874 30.5606 134.441C30.9998 134.445 31.4406 134.448 31.883 134.449C53.5024 134.449 71.0285 128.663 71.0285 121.526Z" fill="#0D51FF"/>
<path d="M36.9328 217.156L125.248 221.572" stroke="#5A3C2A" stroke-width="0.324858"/>
<path d="M49.0144 170.741L36.9328 217.156" stroke="#0D51FF" stroke-width="0.324858"/>
<path d="M61.4195 70.4111C57.6338 70.4111 54.5648 67.359 54.5648 63.594V48.3429H68.2742V63.594C68.2742 67.359 65.2053 70.4111 61.4195 70.4111Z" fill="#FFD6D2"/>
<path d="M49.2719 44.9219C50.1538 44.9219 50.8688 45.6329 50.8688 46.5101V47.7703C50.8688 48.121 50.7287 48.4574 50.4793 48.7054C50.2299 48.9535 49.8917 49.0928 49.539 49.0928C48.5095 49.0928 47.6749 48.2628 47.6749 47.239V46.5101C47.6749 45.6329 48.3899 44.9219 49.2719 44.9219Z" fill="#F2C0C0"/>
<path d="M45.4415 41.7656C18.9114 58.1738 54.5653 61.0397 54.5653 61.0397L67.965 44.8523L45.4415 41.7656Z" fill="#0D2460"/>
<path d="M37.4008 43.9863C37.4008 43.9863 22.5385 46.2494 23.2695 56.5878C24.0004 66.9262 52.5844 65.4724 50.5152 56.5878C48.446 47.7033 42.4361 42.5996 42.4361 42.5996" fill="#0D2460"/>
<path d="M66.3814 49.1797C66.3814 55.8231 61.8454 61.2085 56.2499 61.2085C55.6841 61.2077 55.1197 61.1512 54.5651 61.0399V46.9082H66.1986C66.3199 47.6593 66.3811 48.4189 66.3814 49.1797Z" fill="#5A3C2A"/>
<path d="M51.0576 36.0403C49.6726 38.3464 49.0739 41.0357 49.3506 43.7077C49.473 45.2129 49.495 46.7245 49.4165 48.2327C49.2973 51.9972 51.3675 55.4937 54.7353 57.2164C56.0515 57.9051 58.4171 58.116 59.8425 57.6936C63.0608 56.7399 67.8548 53.8617 67.9649 47.5854C67.9954 45.85 68.5653 44.3012 69.0231 42.6262C69.4207 41.1713 69.535 39.0571 68.3811 36.4443C65.836 30.6813 55.7905 28.4158 51.0576 36.0403Z" fill="#FFD6D2"/>
<path d="M52.0981 37.7421C52.0981 37.7421 54.6456 46.1183 65.4742 44.5417L66.8819 47.3004H68.2745V50.6143C68.2745 50.6143 78.1707 39.9223 66.9631 31.1726C66.9631 31.1726 62.8066 24.1191 52.5402 28.7229C42.2739 33.3267 29.1983 40.5207 32.122 47.5852C35.0458 54.6496 49.4375 45.1184 49.4375 45.1184C49.4375 45.1184 48.6898 38.2291 52.0071 37.5267" fill="#0D2460"/>
<path d="M52.0987 37.7422C52.0987 37.7422 54.6461 46.1185 65.4747 44.5418" stroke="#5A3C2A" stroke-width="0.324858"/>
<path d="M67.6975 49.0234C67.3448 49.0234 67.0066 48.8841 66.7572 48.6361C66.5078 48.3881 66.3677 48.0517 66.3677 47.7009V46.4407C66.3677 45.5636 67.0827 44.8525 67.9646 44.8525C68.8466 44.8525 69.5616 45.5636 69.5616 46.4407V47.1696C69.5616 48.1934 68.727 49.0234 67.6975 49.0234V49.0234Z" fill="#FFD6D2"/>
<path d="M67.6976 49.0238C68.7271 49.0238 69.5617 48.1938 69.5617 47.1699" stroke="#5A3C2A" stroke-width="0.324858"/>
<path d="M63.4936 42.5997C62.3753 41.4876 60.5622 41.4876 59.4439 42.5997" stroke="#0D2460" stroke-width="0.54626"/>
<path d="M54.5653 42.5997C53.447 41.4876 51.6339 41.4876 50.5156 42.5997" stroke="#0D2460" stroke-width="0.54626"/>
<path d="M61.4691 48.232C61.7423 48.232 61.9637 47.9422 61.9637 47.5847C61.9637 47.2273 61.7423 46.9375 61.4691 46.9375C61.1959 46.9375 60.9745 47.2273 60.9745 47.5847C60.9745 47.9422 61.1959 48.232 61.4691 48.232Z" fill="#0D51FF"/>
<path d="M52.54 48.232C52.8131 48.232 53.0346 47.9422 53.0346 47.5847C53.0346 47.2273 52.8131 46.9375 52.54 46.9375C52.2668 46.9375 52.0453 47.2273 52.0453 47.5847C52.0453 47.9422 52.2668 48.232 52.54 48.232Z" fill="#0D51FF"/>
<path d="M56.2495 43.9863V50.2471C56.2495 50.4498 56.4146 50.614 56.6184 50.614H57.1866" stroke="#0D2460" stroke-width="0.54626"/>
<path d="M56.2503 43.9863V48.4391" stroke="#0D2460" stroke-width="0.54626"/>
<path d="M54.9802 52.0127C56.0985 53.1248 57.9116 53.1248 59.0298 52.0127" stroke="#0D2460" stroke-width="0.54626"/>
<path d="M52.1574 38.2289C52.1379 38.2267 52.1177 38.2263 52.0981 38.2243C52.1283 38.2085 52.1497 38.1977 52.1497 38.1977C52.1519 38.2083 52.1552 38.2183 52.1574 38.2289Z" fill="#5A3C2A"/>
<path d="M54.5649 61.0397C55.3192 60.9403 72.3083 61.2083 72.3083 61.2083L70.9965 64.9879C70.9965 64.9879 83.666 90.4031 65.4739 109.572L36.9328 102.465C36.9328 102.465 43.6558 62.4761 54.5649 61.0397Z" fill="#0D51FF"/>
<path d="M70.997 64.9883C70.997 64.9883 83.6664 90.4035 65.4744 109.573" stroke="white" stroke-width="0.324858"/>
<path d="M43.0361 68.0039C43.0361 68.0039 14.1237 79.2038 13.0409 102.465C11.6169 133.054 71.4741 126.176 72.7065 120.988C72.7065 120.988 83.3186 121.85 79.6369 119.265C76.6238 117.15 33.9401 100.958 33.9401 100.958L56.5719 86.7423" fill="#FFD6D2"/>
<path d="M13.0409 102.465C11.6169 133.054 71.4741 126.176 72.7065 120.988" stroke="#0D2460" stroke-width="0.324858"/>
<path d="M65.4739 109.573L36.9328 102.465" stroke="white" stroke-width="0.324858"/>
<path d="M54.5651 61.0394C55.3195 60.9401 72.3086 61.2081 72.3086 61.2081" stroke="#5A3C2A" stroke-width="0.324858"/>
<path d="M82.4775 210.372L109.116 277.155" stroke="#0D2460" stroke-width="0.324858"/>
<path d="M47.2819 92.8984L36.043 69.5603L51.1078 62.385C57.588 59.2985 65.3572 62.0208 68.4607 68.4655L68.4607 68.4655C71.5642 74.9101 68.8269 82.6366 62.3467 85.7231L47.2819 92.8984L47.2819 92.8984Z" fill="#0D51FF"/>
<path d="M36.0424 69.5605L47.2815 92.8988L62.3462 85.7233" stroke="white" stroke-width="0.324858"/>
<path d="M66.0612 67.0278L66.0612 67.0277" stroke="white" stroke-width="0.324858"/>
<path d="M235.701 198.67H71.3411L78.1146 186.994H242.475L235.701 198.67Z" fill="#95B5E8"/>
<path d="M164.36 198.672H0L6.77351 186.996H171.134L164.36 198.672Z" fill="#D7E8F7"/>
<path d="M227.643 277.42H14.8332" stroke="#95B5E8" stroke-width="0.602063"/>
<path d="M235.701 198.67H71.3411" stroke="#95B5E8" stroke-width="0.602063"/>
<path d="M171.134 186.996L164.36 198.672H0" stroke="#95B5E8" stroke-width="0.602063"/>
<path d="M47.7856 198.669L32.8853 277.419" stroke="#95B5E8" stroke-width="0.602063"/>
<path d="M80.6762 198.669L65.7759 277.419" stroke="#95B5E8" stroke-width="0.602063"/>
<path d="M183.443 198.669L198.344 277.419" stroke="#95B5E8" stroke-width="0.602063"/>
<path d="M150.553 198.669L165.454 277.419" stroke="#95B5E8" stroke-width="0.602063"/>
<path d="M198.431 122.988C221.482 122.988 240.168 96.718 240.168 64.3123C240.168 31.9067 221.482 5.63672 198.431 5.63672C175.379 5.63672 156.693 31.9067 156.693 64.3123C156.693 96.718 175.379 122.988 198.431 122.988Z" fill="#D7E8F7"/>
<path d="M186.278 50.7373C154.221 70.5637 197.303 74.0266 197.303 74.0266L213.494 54.4671L186.278 50.7373Z" fill="#95B5E8"/>
<path d="M205.585 85.3496H205.585C201.011 85.3496 197.302 81.6617 197.302 77.1124V58.684H213.868V77.1124C213.868 79.297 212.995 81.3922 211.442 82.937C209.889 84.4818 207.782 85.3496 205.585 85.3496V85.3496Z" fill="white"/>
<path d="M211.58 59.6958C211.58 67.7232 206.099 74.2306 199.338 74.2306C198.654 74.2296 197.973 74.1614 197.302 74.0268V56.9512H211.359C211.506 57.8588 211.58 58.7766 211.58 59.6958Z" fill="#D7E8F7"/>
<path d="M220.999 73.002H193.078L193.505 82.5049C182.618 86.0952 176.282 99.8741 172.892 110.722C179.951 118.41 188.81 122.989 198.43 122.989C208.26 122.989 217.295 118.209 224.426 110.216C222.565 92.0696 217.907 84.3254 217.907 84.3254L220.999 73.002Z" fill="#95B5E8"/>
<path d="M190.907 54.5508C191.419 54.5508 191.91 54.753 192.271 55.1129C192.633 55.4728 192.837 55.9609 192.837 56.4698V57.9926C192.837 58.8751 192.117 59.5906 191.23 59.5906C189.986 59.5906 188.977 58.5877 188.977 57.3505V56.4698C188.977 55.9609 189.181 55.4727 189.542 55.1129C189.904 54.753 190.395 54.5508 190.907 54.5508V54.5508Z" fill="#D7E8F7"/>
<path d="M183.928 51.2449C183.928 51.2449 165.97 53.9795 166.853 66.4716C167.736 78.9638 202.275 77.2071 199.775 66.4716C197.274 55.7362 190.013 49.5693 190.013 49.5693" fill="#95B5E8"/>
<path d="M193.064 43.8189C191.352 46.5775 190.712 49.8546 191.002 53.0836C191.149 54.9024 191.176 56.729 191.081 58.5513C190.875 63.1767 193.554 67.3377 197.508 69.4065C199.098 70.2387 201.957 70.4936 203.679 69.9832C207.568 68.8308 213.361 65.3529 213.494 57.7692C213.53 55.6722 214.219 53.8008 214.772 51.7769C215.253 50.0189 215.391 47.4642 213.997 44.3071C210.921 37.3436 198.783 34.6061 193.064 43.8189Z" fill="white"/>
<path d="M194.322 45.8756C194.322 45.8756 197.4 55.9968 210.484 54.0918L212.185 57.4252H213.868V61.4294C213.868 61.4294 225.826 48.51 212.283 37.9376C212.283 37.9376 207.261 29.4146 194.856 34.9775C182.451 40.5404 166.651 49.2331 170.184 57.7693C173.717 66.3054 191.107 54.7886 191.107 54.7886C191.107 54.7886 190.203 46.4641 194.212 45.6154" fill="#95B5E8"/>
<path d="M194.321 45.875C194.321 45.875 197.399 55.9962 210.484 54.0912" stroke="#D7E8F7" stroke-width="0.25764"/>
<path d="M213.171 59.5068C212.284 59.5068 211.564 58.7914 211.564 57.9088V56.3861C211.564 55.8771 211.768 55.389 212.129 55.0291C212.491 54.6692 212.982 54.467 213.494 54.467C214.006 54.467 214.496 54.6692 214.858 55.0291C215.22 55.389 215.423 55.8771 215.423 56.3861V57.2668C215.423 58.5039 214.415 59.5068 213.171 59.5068V59.5068Z" fill="white"/>
<path d="M208.092 51.7452C207.443 51.0999 206.563 50.7373 205.645 50.7373C204.728 50.7373 203.848 51.0999 203.199 51.7452" stroke="#D7E8F7" stroke-width="0.25764"/>
<path d="M197.303 51.7452C196.654 51.0999 195.774 50.7373 194.856 50.7373C193.938 50.7373 193.058 51.0999 192.409 51.7452" stroke="#95B5E8" stroke-width="0.25764"/>
<path d="M205.645 58.5505C205.975 58.5505 206.243 58.2003 206.243 57.7684C206.243 57.3365 205.975 56.9863 205.645 56.9863C205.315 56.9863 205.048 57.3365 205.048 57.7684C205.048 58.2003 205.315 58.5505 205.645 58.5505Z" fill="#95B5E8"/>
<path d="M194.856 58.5505C195.186 58.5505 195.454 58.2003 195.454 57.7684C195.454 57.3365 195.186 56.9863 194.856 56.9863C194.526 56.9863 194.259 57.3365 194.259 57.7684C194.259 58.2003 194.526 58.5505 194.856 58.5505Z" fill="#95B5E8"/>
<path d="M199.338 53.4209V60.986C199.338 61.2308 199.538 61.4293 199.784 61.4293H200.471" stroke="#95B5E8" stroke-width="0.25764"/>
<path d="M199.338 53.4209V58.8013" stroke="#D7E8F7" stroke-width="0.25764"/>
<path d="M197.804 63.1182C198.452 63.7635 199.333 64.1261 200.25 64.1261C201.168 64.1261 202.048 63.7635 202.697 63.1182" stroke="#95B5E8" stroke-width="0.25764"/>
<path d="M194.393 46.4634C194.37 46.4607 194.345 46.4602 194.322 46.4579C194.358 46.4387 194.384 46.4257 194.384 46.4257C194.387 46.4385 194.391 46.4506 194.393 46.4634Z" fill="#5A3C2A"/>
<path fill-rule="evenodd" clip-rule="evenodd" d="M179.276 123.215C185.313 126.805 191.757 128.625 198.431 128.625C205.104 128.625 211.548 126.805 217.586 123.215C223.237 119.855 228.279 115.092 232.571 109.058C241.125 97.0321 245.836 81.1411 245.836 64.3126C245.836 47.484 241.125 31.593 232.571 19.5672C228.279 13.5337 223.237 8.77047 217.586 5.40976C211.548 1.8201 205.104 0 198.431 0C191.757 0 185.313 1.8201 179.276 5.40976C173.624 8.77047 168.582 13.5337 164.29 19.5672C155.736 31.593 151.025 47.484 151.025 64.3126C151.025 81.1411 155.736 97.0321 164.29 109.058C168.582 115.092 173.624 119.855 179.276 123.215ZM173.545 26.0783C180.336 16.5316 189.174 11.274 198.43 11.274C207.687 11.274 216.525 16.5316 223.316 26.0783C230.528 36.2169 234.5 49.7956 234.5 64.3127C234.5 78.8297 230.528 92.4084 223.316 102.547C216.525 112.094 207.687 117.351 198.43 117.351C189.174 117.351 180.336 112.094 173.545 102.547C166.333 92.4084 162.361 78.8297 162.361 64.3127C162.361 49.7956 166.333 36.2169 173.545 26.0783Z" fill="#E8F1F9"/>
<path d="M173.545 26.0781C166.333 36.2168 162.361 49.7955 162.361 64.3125" stroke="#95B5E8" stroke-width="0.51528"/>
<path d="M245.836 64.3125C245.836 81.1411 241.125 97.032 232.571 109.058" stroke="#95B5E8" stroke-width="0.51528"/>
<path d="M128.649 103.858C126.061 103.858 123.579 104.881 121.75 106.701C119.92 108.521 118.892 110.99 118.892 113.564H138.405C138.405 110.99 137.377 108.521 135.547 106.701C133.718 104.881 131.236 103.858 128.649 103.858V103.858Z" fill="white"/>
<path d="M109.817 120.635C110.819 120.635 111.78 121.031 112.489 121.736C113.197 122.441 113.595 123.397 113.595 124.393H106.039C106.039 123.397 106.437 122.441 107.145 121.736C107.854 121.031 108.815 120.635 109.817 120.635Z" fill="white"/>
<path d="M239.792 154.989C237.768 154.989 235.827 155.789 234.396 157.213C232.965 158.637 232.161 160.568 232.161 162.581H247.424C247.424 160.568 246.62 158.637 245.189 157.213C243.757 155.789 241.816 154.989 239.792 154.989V154.989Z" fill="white"/>
<path d="M219.069 147.8C220.071 147.8 221.032 148.196 221.741 148.901C222.449 149.606 222.847 150.562 222.847 151.558H215.291C215.291 150.562 215.689 149.606 216.397 148.901C217.106 148.196 218.067 147.8 219.069 147.8Z" fill="white"/>
<path d="M169.372 182.762H71.4013V178.246H170.911L169.372 182.762Z" fill="#E8F1F9"/>
<path d="M71.4014 178.247H170.911" stroke="#95B5E8" stroke-width="0.27578"/>
<path d="M169.373 182.762H106.219L121.939 140.251H185.092L169.373 182.762Z" fill="#D7E8F7"/>
<path d="M149.026 164.048H146.224C145.9 164.048 145.596 163.89 145.411 163.625C145.225 163.361 145.181 163.023 145.293 162.72L145.787 161.385C145.93 160.996 146.302 160.738 146.718 160.738H149.52C149.844 160.738 150.148 160.896 150.334 161.16C150.519 161.425 150.563 161.763 150.451 162.066L149.957 163.401C149.814 163.79 149.442 164.048 149.026 164.048Z" fill="white"/>
<path d="M185.092 140.252L169.373 182.763" stroke="#95B5E8" stroke-width="0.27578"/>
<path d="M65.7484 182.762H190.744" stroke="#95B5E8" stroke-width="0.27578"/>
</svg>
