<svg width="20" height="20" viewBox="0 0 20 20" fill="none" xmlns="http://www.w3.org/2000/svg">
<path fill-rule="evenodd" clip-rule="evenodd" d="M18.3309 2.4359C18.3161 2.24459 18.2356 2.05739 18.0893 1.91107C17.8505 1.67235 17.503 1.60874 17.2063 1.72023L0.558046 7.54713C0.235545 7.66001 0.0146251 7.95831 0.000696904 8.29971C-0.0132313 8.64111 0.182655 8.95642 0.494889 9.09519L7.702 12.2984L10.9052 19.5055C11.0439 19.8177 11.3592 20.0136 11.7006 19.9997C12.042 19.9857 12.3403 19.7648 12.4532 19.4423L18.2807 2.79248C18.3234 2.67808 18.3401 2.55618 18.3309 2.4359ZM14.3286 4.49326L3.09257 8.42585L8.14876 10.6731L14.3286 4.49326ZM9.32728 11.8516L15.5071 5.67171L11.5745 16.9078L9.32728 11.8516Z" fill="white"/>
</svg>
