<svg width="20" height="20" viewBox="0 0 20 20" fill="none" xmlns="http://www.w3.org/2000/svg">
<path fill-rule="evenodd" clip-rule="evenodd" d="M12.0832 9.16667H10.8332V5H14.1665C14.6665 5 14.9998 4.66667 14.9998 4.16667C14.9998 3.66667 14.6665 3.33333 14.1665 3.33333H10.8332V0.833333C10.8332 0.333333 10.4998 0 9.99984 0C9.49984 0 9.16651 0.333333 9.16651 0.833333V3.33333H7.9165C5.83317 3.33333 4.1665 5 4.1665 7.08333C4.1665 9.16667 5.83317 10.8333 7.9165 10.8333H9.16651V15H4.99984C4.49984 15 4.1665 15.3333 4.1665 15.8333C4.1665 16.3333 4.49984 16.6667 4.99984 16.6667H9.16651V19.1667C9.16651 19.6667 9.49984 20 9.99984 20C10.4998 20 10.8332 19.6667 10.8332 19.1667V16.6667H12.0832C14.1665 16.6667 15.8332 15 15.8332 12.9167C15.8332 10.8333 14.1665 9.16667 12.0832 9.16667ZM7.91651 9.16667C6.74984 9.16667 5.83317 8.25 5.83317 7.08333C5.83317 5.91667 6.74984 5 7.91651 5H9.16651V9.16667H7.91651ZM12.0832 15H10.8332V10.8333H12.0832C13.2498 10.8333 14.1665 11.75 14.1665 12.9167C14.1665 14.0833 13.2498 15 12.0832 15Z" fill="white"/>
<mask id="mask0" mask-type="alpha" maskUnits="userSpaceOnUse" x="4" y="0" width="12" height="20">
<path fill-rule="evenodd" clip-rule="evenodd" d="M12.0832 9.16667H10.8332V5H14.1665C14.6665 5 14.9998 4.66667 14.9998 4.16667C14.9998 3.66667 14.6665 3.33333 14.1665 3.33333H10.8332V0.833333C10.8332 0.333333 10.4998 0 9.99984 0C9.49984 0 9.16651 0.333333 9.16651 0.833333V3.33333H7.9165C5.83317 3.33333 4.1665 5 4.1665 7.08333C4.1665 9.16667 5.83317 10.8333 7.9165 10.8333H9.16651V15H4.99984C4.49984 15 4.1665 15.3333 4.1665 15.8333C4.1665 16.3333 4.49984 16.6667 4.99984 16.6667H9.16651V19.1667C9.16651 19.6667 9.49984 20 9.99984 20C10.4998 20 10.8332 19.6667 10.8332 19.1667V16.6667H12.0832C14.1665 16.6667 15.8332 15 15.8332 12.9167C15.8332 10.8333 14.1665 9.16667 12.0832 9.16667ZM7.91651 9.16667C6.74984 9.16667 5.83317 8.25 5.83317 7.08333C5.83317 5.91667 6.74984 5 7.91651 5H9.16651V9.16667H7.91651ZM12.0832 15H10.8332V10.8333H12.0832C13.2498 10.8333 14.1665 11.75 14.1665 12.9167C14.1665 14.0833 13.2498 15 12.0832 15Z" fill="white"/>
</mask>
<g mask="url(#mask0)">
<rect width="20" height="20" fill="white"/>
</g>
</svg>
