<svg width="32" height="32" viewBox="0 0 32 32" fill="none" xmlns="http://www.w3.org/2000/svg">
<path fill-rule="evenodd" clip-rule="evenodd" d="M16.2667 1.33398L26.9333 4.00065C27.6 4.13398 28 4.66732 28 5.33398V16.0007C28 24.6673 17.0667 30.2673 16.5333 30.534C16.4 30.6673 16.2667 30.6673 16 30.6673C15.7333 30.6673 15.6 30.6673 15.4667 30.534C14.9333 30.2673 4 24.6673 4 16.0007V5.33398C4 4.66732 4.4 4.13398 4.93333 4.00065L15.6 1.33398H16.2667ZM16 27.8673C18.1333 26.534 25.3333 22.0007 25.3333 16.0007V6.40067L16 4.00067L6.66668 6.40067V16.0007C6.66668 22.134 13.8667 26.6673 16 27.8673Z" fill="#0D51FF"/>
<path d="M12.8857 15.0035C12.3353 14.5142 11.4925 14.5638 11.0033 15.1142C10.5141 15.6646 10.5637 16.5073 11.114 16.9966L14.3567 19.8789C14.7617 20.2389 15.3799 20.2108 15.7506 19.8154L20.9726 14.2453C21.4762 13.708 21.449 12.8643 20.9118 12.3606C20.3746 11.857 19.5308 11.8842 19.0271 12.4214L14.9152 16.8075L12.8857 15.0035Z" fill="#0D51FF"/>
</svg>
