<svg width="32" height="32" viewBox="0 0 32 32" fill="none" xmlns="http://www.w3.org/2000/svg">
<path fill-rule="evenodd" clip-rule="evenodd" d="M16 5.33268C13.7909 5.33268 12 7.12354 12 9.33268C12 11.5418 13.7909 13.3327 16 13.3327C18.2091 13.3327 20 11.5418 20 9.33268C20 7.12354 18.2091 5.33268 16 5.33268ZM9.33333 9.33268C9.33333 5.65078 12.3181 2.66602 16 2.66602C19.6819 2.66602 22.6667 5.65078 22.6667 9.33268C22.6667 13.0146 19.6819 15.9993 16 15.9993C12.3181 15.9993 9.33333 13.0146 9.33333 9.33268ZM5.95262 20.6186C7.20286 19.3684 8.89856 18.666 10.6667 18.666H21.3333C23.1014 18.666 24.7971 19.3684 26.0474 20.6186C27.2976 21.8689 28 23.5646 28 25.3327V27.9993C28 28.7357 27.403 29.3327 26.6667 29.3327C25.9303 29.3327 25.3333 28.7357 25.3333 27.9993V25.3327C25.3333 24.2718 24.9119 23.2544 24.1618 22.5043C23.4116 21.7541 22.3942 21.3327 21.3333 21.3327H10.6667C9.6058 21.3327 8.58839 21.7541 7.83824 22.5043C7.08809 23.2544 6.66667 24.2718 6.66667 25.3327V27.9993C6.66667 28.7357 6.06971 29.3327 5.33333 29.3327C4.59695 29.3327 4 28.7357 4 27.9993V25.3327C4 23.5646 4.70238 21.8689 5.95262 20.6186Z" fill="#0D51FF"/>
</svg>
