<svg width="22" height="22" viewBox="0 0 22 22" fill="none" xmlns="http://www.w3.org/2000/svg">
<path fill-rule="evenodd" clip-rule="evenodd" d="M3 0C1.34315 0 0 1.34315 0 3V7C0 8.65685 1.34315 10 3 10H7C8.65685 10 10 8.65685 10 7V3C10 1.34315 8.65685 0 7 0H3ZM2 3C2 2.44772 2.44772 2 3 2H7C7.55228 2 8 2.44772 8 3V7C8 7.55228 7.55228 8 7 8H3C2.44772 8 2 7.55228 2 7V3ZM3 12C1.34315 12 0 13.3431 0 15V19C0 20.6569 1.34315 22 3 22H7C8.65685 22 10 20.6569 10 19V15C10 13.3431 8.65685 12 7 12H3ZM2 15C2 14.4477 2.44772 14 3 14H7C7.55228 14 8 14.4477 8 15V19C8 19.5523 7.55228 20 7 20H3C2.44772 20 2 19.5523 2 19V15ZM12 3C12 1.34315 13.3431 0 15 0H19C20.6569 0 22 1.34315 22 3V7C22 8.65685 20.6569 10 19 10H15C13.3431 10 12 8.65685 12 7V3ZM15 2C14.4477 2 14 2.44772 14 3V7C14 7.55228 14.4477 8 15 8H19C19.5523 8 20 7.55228 20 7V3C20 2.44772 19.5523 2 19 2H15ZM15 12C13.3431 12 12 13.3431 12 15V19C12 20.6569 13.3431 22 15 22H19C20.6569 22 22 20.6569 22 19V15C22 13.3431 20.6569 12 19 12H15ZM14 15C14 14.4477 14.4477 14 15 14H19C19.5523 14 20 14.4477 20 15V19C20 19.5523 19.5523 20 19 20H15C14.4477 20 14 19.5523 14 19V15Z" fill="#1C1C1C"/>
</svg>
