<svg width="15" height="15" viewBox="0 0 15 15" fill="none" xmlns="http://www.w3.org/2000/svg">
<path d="M7.5 0C3.36462 0 0 3.36438 0 7.5C0 11.6356 3.36462 15 7.5 15C11.6354 15 15 11.6356 15 7.5C15 3.36438 11.6354 0 7.5 0ZM7.5 14.0769C3.87346 14.0769 0.923077 11.1265 0.923077 7.5C0.923077 3.87346 3.87346 0.923077 7.5 0.923077C11.1265 0.923077 14.0769 3.87346 14.0769 7.5C14.0769 11.1265 11.1265 14.0769 7.5 14.0769Z" fill="#0D51FF"/>
<path d="M7.61958 5.28115C8.0459 5.28115 8.3915 4.93555 8.3915 4.50923C8.3915 4.08291 8.0459 3.7373 7.61958 3.7373C7.19326 3.7373 6.84766 4.08291 6.84766 4.50923C6.84766 4.93555 7.19326 5.28115 7.61958 5.28115Z" fill="#0D51FF"/>
<path d="M7.41613 6.54053C7.16136 6.54053 6.95459 6.7473 6.95459 7.00207V10.9251C6.95459 11.1799 7.16136 11.3867 7.41613 11.3867C7.6709 11.3867 7.87767 11.1799 7.87767 10.9251V7.00207C7.87767 6.74707 7.6709 6.54053 7.41613 6.54053Z" fill="#0D51FF"/>
</svg>
