<svg width="56" height="56" viewBox="0 0 56 56" fill="none" xmlns="http://www.w3.org/2000/svg">
<path d="M23.5475 37.5012C32.6042 37.5012 37.5578 29.9979 37.5578 23.491C37.5578 23.2779 37.5578 23.0657 37.5434 22.8545C38.507 22.1574 39.3389 21.2944 40 20.3057C39.1014 20.7039 38.148 20.965 37.1718 21.0804C38.1995 20.4653 38.9692 19.4969 39.3366 18.3569C38.3701 18.9304 37.3126 19.3347 36.2099 19.5521C35.2789 18.5621 33.9786 18 32.6196 18C29.9158 18 27.691 20.2249 27.691 22.9286C27.691 23.3037 27.7338 23.6776 27.8185 24.043C23.8615 23.8447 20.1695 21.9729 17.6704 18.8984C16.3708 21.1355 17.0432 24.0347 19.1949 25.4715C18.4113 25.4483 17.6447 25.2368 16.96 24.8551V24.9175C16.9607 27.2526 18.6216 29.2821 20.9104 29.7444C20.1855 29.9421 19.4248 29.971 18.6871 29.8289C19.3305 31.8298 21.186 33.209 23.2874 33.2484C21.5441 34.6185 19.3894 35.3626 17.1722 35.3604C16.7804 35.3597 16.389 35.336 16 35.2894C18.2516 36.7343 20.8722 37.5009 23.5475 37.4974" fill="#AFB0B3"/>
</svg>
