<svg width="355" height="353" viewBox="0 0 355 353" fill="none" xmlns="http://www.w3.org/2000/svg">
<circle cx="176.5" cy="176.5" r="176.5" fill="#F4F7FF"/>
<path d="M326.407 233.675H121.807L130.239 219.06H334.839L326.407 233.675Z" fill="#D7E8F7"/>
<path d="M237.6 233.676H33L41.4319 219.061H246.032L237.6 233.676Z" fill="#D7E8F7"/>
<path d="M316.376 332.246H51.4647" stroke="#95B5E8" stroke-width="0.749465"/>
<path d="M326.407 233.675H121.807" stroke="#95B5E8" stroke-width="0.749465"/>
<path d="M246.032 219.061L237.6 233.676H33" stroke="#95B5E8" stroke-width="0.749465"/>
<path d="M92.4849 233.675L73.9365 332.246" stroke="#95B5E8" stroke-width="0.749465"/>
<path d="M133.428 233.675L114.88 332.246" stroke="#95B5E8" stroke-width="0.749465"/>
<path d="M261.355 233.675L279.904 332.246" stroke="#95B5E8" stroke-width="0.749465"/>
<path d="M220.413 233.675L238.961 332.246" stroke="#95B5E8" stroke-width="0.749465"/>
<path d="M46.4645 148.069L55.4082 154.628V148.069H46.4645Z" fill="#95B5E8"/>
<path d="M153.591 148.069L162.535 154.628V148.069H153.591Z" fill="#95B5E8"/>
<rect x="24.9998" y="142.637" width="159" height="5.43224" fill="#D7E8F7"/>
<path d="M184 148.069H24.9998" stroke="#95B5E8" stroke-width="0.3975"/>
<path d="M29.4718 106.319V143.684H42.7881V133.051" fill="#95B5E8"/>
<path d="M61.0731 142.988H34.6393L29.4718 105.027H55.9056L61.0731 142.988Z" fill="#E8F1F9"/>
<path d="M34.6393 142.988L29.4718 105.027" stroke="#95B5E8" stroke-width="0.3975"/>
<path d="M72.4019 142.988H45.9682L40.8007 105.027H67.2344L72.4019 142.988Z" fill="#D7E8F7"/>
<path d="M45.9682 142.988L40.8007 105.027" stroke="#95B5E8" stroke-width="0.3975"/>
<path d="M83.7302 142.988H57.2964L52.1289 105.027H78.5627L83.7302 142.988Z" fill="#E8F1F9"/>
<path d="M57.2964 142.988L52.1289 105.027" stroke="#95B5E8" stroke-width="0.3975"/>
<path d="M95.059 142.988H68.6253L63.4578 105.027H89.8915L95.059 142.988Z" fill="#D7E8F7"/>
<path d="M68.6253 142.988L63.4578 105.027" stroke="#95B5E8" stroke-width="0.3975"/>
<path d="M135.849 130.919H126.018V113.106C126.018 111.803 126.623 110.574 127.656 109.779C128.689 108.985 130.032 108.716 131.292 109.051L132.731 109.433C134.569 109.922 135.849 111.586 135.849 113.488V130.919Z" fill="#95B5E8"/>
<path d="M138.684 142.988H123.183L121.195 128.338H140.672L138.684 142.988Z" fill="#D7E8F7"/>
<path d="M140.672 128.338L138.683 142.988L140.672 128.338Z" fill="#D7E8F7"/>
<path d="M113.345 142.988H148.522" stroke="#95B5E8" stroke-width="0.3975"/>
<path d="M122.418 137.348H124.706V133.837H121.941L122.418 137.348Z" fill="#E8F1F9"/>
<rect x="126.705" y="133.837" width="3.51128" height="3.51128" fill="#E8F1F9"/>
<rect x="132.214" y="133.837" width="3.51128" height="3.51128" fill="#E8F1F9"/>
<path d="M139.926 133.837H137.724V137.348H139.449L139.926 133.837Z" fill="#E8F1F9"/>
<path d="M123.183 142.988L121.195 128.338" stroke="#95B5E8" stroke-width="0.3975"/>
<path d="M140.672 128.338L138.683 142.988" stroke="#95B5E8" stroke-width="0.3975"/>
<path d="M123.024 117.067V122.759H129.013" stroke="#95B5E8" stroke-width="4.77" stroke-linecap="round" stroke-linejoin="round"/>
<path d="M138.72 119.198V124.891H132.731" stroke="#95B5E8" stroke-width="4.77" stroke-linecap="round" stroke-linejoin="round"/>
<path d="M252.754 94.3779L246.667 103.243C246.667 103.243 210.188 85.8505 202.249 84.5274C195.682 83.4329 201.592 88.4946 203.831 90.2769C204.353 90.693 204.818 91.1753 205.214 91.7116C207.601 94.9282 216.71 106.697 227.034 113.505C239.075 121.444 250.363 125.668 256.144 117.408C261.925 109.147 262.802 106.955 262.802 106.955" fill="#FFD6D2"/>
<path d="M227.722 94.5097L227.722 94.5095L209.861 86.9607L209.859 86.96L206.93 93.9536C210.653 98.6911 218.418 107.824 227.035 113.505C228.396 114.402 229.745 115.247 231.081 116.039L227.722 94.5097Z" fill="#0D2460"/>
<path d="M287.143 73.0925L287.143 73.0925C294.891 78.4393 296.837 89.0547 291.49 96.8026L279.06 114.815L251.003 95.4518L263.433 77.4399C268.78 69.692 279.395 67.7456 287.143 73.0925V73.0925Z" fill="#0D2460"/>
<path d="M287.143 73.092L287.143 73.092" stroke="#C7DCF9" stroke-width="0.396948"/>
<path d="M184.802 124.667C209.989 124.667 230.407 104.249 230.407 79.0623C230.407 53.8752 209.989 33.457 184.802 33.457C159.615 33.457 139.197 53.8752 139.197 79.0623C139.197 104.249 159.615 124.667 184.802 124.667Z" fill="#FFE4BD"/>
<path d="M227.722 94.5096C217.534 89.9568 206.257 85.1952 202.249 84.5274C195.682 83.4329 201.592 88.4946 203.832 90.2769C204.353 90.6931 204.818 91.1753 205.215 91.7116C207.039 94.1705 212.794 101.626 220.015 108.044C223.342 104.009 225.949 99.4302 227.722 94.5096Z" fill="#FFCF83"/>
<path d="M227.722 94.5096C217.534 89.9568 206.256 85.1952 202.249 84.5273" stroke="white" stroke-width="0.396948"/>
<path d="M184.802 124.668C159.615 124.668 139.197 104.25 139.197 79.0625" stroke="#0D2460" stroke-width="0.396948"/>
<path d="M230.407 79.0625C230.407 104.25 209.989 124.668 184.802 124.668" stroke="#0D2460" stroke-width="0.396948"/>
<path d="M345.424 219.291L354.322 219.556L341.659 196.3L283.663 212.94L289.488 193.357L244.434 202.62C244.434 202.62 237.62 244.877 273.08 249.815C297.123 253.162 345.325 217.604 345.424 219.291Z" fill="#FFD6D2"/>
<path d="M309.008 239.978L309.49 205.53L283.663 212.94L289.488 193.357L244.434 202.62C244.434 202.62 237.62 244.877 273.08 249.815C282.724 251.157 296.254 246.239 309.008 239.978Z" fill="#7CA1D8"/>
<path d="M280.153 167.688L229.417 206.589C229.417 206.589 220.42 240.396 212.481 325.144L207.982 331.941H241.325L258.645 247.871C258.645 247.871 285.637 180.39 280.153 167.688Z" fill="#FFD6D2"/>
<path d="M272.818 173.311L229.416 206.588C229.416 206.588 224.216 226.135 218.234 272.742H253.521L258.644 247.871C258.644 247.871 280.299 193.731 280.875 173.311L272.818 173.311Z" fill="#95B5E8"/>
<path d="M289.487 193.357L258.464 199.735L244.131 205.299C243.87 208.457 243.839 211.63 244.039 214.792C260.897 213.933 279.842 212.956 283.717 212.756L289.487 193.357Z" fill="#0D2460"/>
<path d="M227.372 215.636C239.403 215.033 258.435 214.057 271.171 213.402C273.496 206.368 275.736 199.069 277.479 192.354L228.267 211.457C228.007 212.628 227.709 214.021 227.372 215.636Z" fill="#0D51FF"/>
<path d="M218.234 272.742H253.521" stroke="#5A3C2A" stroke-width="0.396948"/>
<path d="M290.63 16L287.247 31.4808L289.794 33.9766L304.859 35.6818C310.729 16.9544 290.63 16 290.63 16Z" fill="#0D2460"/>
<path d="M287.389 37.0045C289.348 37.0045 290.936 35.4163 290.936 33.4571C290.936 31.4979 289.348 29.9097 287.389 29.9097C285.43 29.9097 283.841 31.4979 283.841 33.4571C283.841 35.4163 285.43 37.0045 287.389 37.0045Z" fill="#0D51FF"/>
<path d="M277.617 75.2607C272.991 75.2607 269.241 71.5107 269.241 66.8849V48.1464H285.993V66.8849C285.993 71.5107 282.243 75.2607 277.617 75.2607Z" fill="#FFD6D2"/>
<path d="M277.618 75.2607C282.244 75.2607 285.994 71.5107 285.994 66.8848V61.7036" stroke="#5A3C2A" stroke-width="0.396948"/>
<path d="M269.242 65.9454V48.8506H279.478C280.01 49.2484 280.458 49.7476 280.796 50.3194C283.038 54.2033 279.53 60.4269 272.96 64.2202C271.775 64.9065 270.531 65.4839 269.242 65.9454Z" fill="#5A3C2A"/>
<path d="M262.774 43.9429C263.852 43.9429 264.725 44.8165 264.725 45.8942V47.4426C264.725 48.34 263.998 49.0675 263.1 49.0675C261.842 49.0675 260.823 48.0477 260.823 46.7897V45.8942C260.823 45.3767 261.028 44.8804 261.394 44.5144C261.76 44.1485 262.256 43.9429 262.774 43.9429V43.9429Z" fill="#F2C0C0"/>
<path d="M263.429 47.5369L261.941 44.1132L264.596 43.4761L265.216 46.0979" fill="#0D2460"/>
<path d="M264.956 33.0302C263.263 35.8636 262.532 39.1679 262.87 42.4508C263.02 44.3002 263.046 46.1575 262.951 48.0104C262.805 52.6357 265.334 56.9318 269.45 59.0483C271.058 59.8945 273.949 60.1537 275.69 59.6347C279.623 58.4629 285.48 54.9265 285.615 47.2152C285.652 45.0829 286.349 43.18 286.908 41.122C287.394 39.3345 287.534 36.7368 286.124 33.5266C283.014 26.4459 270.739 23.6623 264.956 33.0302Z" fill="#FFD6D2"/>
<path d="M259.286 44.6835C259.286 44.6835 273.585 45.4708 279.589 38.3754C279.589 38.3754 280.671 46.3234 285.038 47.2153L285.993 50.1533C285.993 50.1533 298.584 40.5777 285.993 28.8552C276.668 20.174 254.611 24.7355 259.286 44.6835Z" fill="#0D2460"/>
<path d="M277.678 48.0109C278.012 48.0109 278.282 47.6548 278.282 47.2156C278.282 46.7764 278.012 46.4204 277.678 46.4204C277.344 46.4204 277.073 46.7764 277.073 47.2156C277.073 47.6548 277.344 48.0109 277.678 48.0109Z" fill="#0D51FF"/>
<path d="M266.767 48.0109C267.101 48.0109 267.372 47.6548 267.372 47.2156C267.372 46.7764 267.101 46.4204 266.767 46.4204C266.434 46.4204 266.163 46.7764 266.163 47.2156C266.163 47.6548 266.434 48.0109 266.767 48.0109Z" fill="#0D51FF"/>
<path d="M271.3 42.7939V50.4863C271.3 50.7353 271.501 50.9371 271.75 50.9371H272.445" stroke="#0D2460" stroke-width="0.682714"/>
<path d="M269.748 52.6553C271.114 54.0217 273.33 54.0217 274.696 52.6553" stroke="#0D2460" stroke-width="0.682714"/>
<path d="M280.151 41.0903C278.785 39.7238 276.569 39.7238 275.203 41.0903" stroke="white" stroke-width="0.396948"/>
<path d="M269.241 41.0903C267.874 39.7238 265.659 39.7238 264.292 41.0903" stroke="white" stroke-width="0.396948"/>
<path d="M266.3 35.7201C266.276 35.7174 266.251 35.7169 266.227 35.7145C266.264 35.695 266.29 35.6818 266.29 35.6818C266.293 35.6947 266.297 35.7071 266.3 35.7201Z" fill="#5A3C2A"/>
<path d="M285.288 48.9824C284.39 48.9824 283.663 48.2549 283.663 47.3575V45.8091C283.663 44.7314 284.537 43.8578 285.614 43.8578C286.692 43.8578 287.566 44.7314 287.566 45.8091V46.7047C287.566 47.9626 286.546 48.9824 285.288 48.9824Z" fill="#FFD6D2"/>
<path d="M265.722 61.6008L287.872 60.0086C288.735 59.9466 289.522 60.5014 289.754 61.335L291.045 65.9795C295.397 81.6395 295.74 98.1425 292.043 113.97L285.828 140.578C285.688 141.178 285.68 141.802 285.804 142.406L296.591 194.746L222.269 216.18C222.269 216.18 244.095 116.663 264.726 74.0081C266.726 69.8733 263.836 66.8632 263.543 64.1851C263.479 63.5511 263.674 62.918 264.085 62.4308C264.496 61.9436 265.087 61.6441 265.722 61.6008Z" fill="#0D2460"/>
<path d="M287.193 121.735C277.718 140.834 258.023 146.002 246.485 140.278C234.947 134.554 250.903 133 260.378 113.901C269.853 94.8025 271.92 71.0658 283.457 76.7897C294.995 82.5136 296.668 102.636 287.193 121.735Z" fill="#0D51FF"/>
<path d="M288.694 100.648C288.694 100.648 288.058 143.363 243.91 140.1C195.143 136.496 178.692 121.595 178.475 116.274C178.31 112.215 188.312 115.733 188.312 115.733C188.312 115.733 188.114 110.904 191.091 112.69C194.068 114.476 194.068 116.858 194.068 116.858L251.321 115.667L260.358 92.8867" fill="#FFD6D2"/>
<path d="M288.694 100.648C288.694 100.648 288.057 143.363 243.909 140.1" stroke="#0D2460" stroke-width="0.396948"/>
<path d="M296.591 194.746L222.269 216.18" stroke="#0D51FF" stroke-width="0.396948"/>
<path d="M265.722 61.6009L287.872 60.0088" stroke="#5A3C2A" stroke-width="0.396948"/>
<path d="M241.325 331.94L241.4 331.575L212.48 325.144L207.982 331.94H241.325Z" fill="#0D51FF"/>
<path d="M341.659 196.3L341.152 196.445L345.113 219.288C345.312 219.216 345.42 219.214 345.424 219.291L354.322 219.556L341.659 196.3Z" fill="#0D51FF"/>
<path d="M281.229 74.165C290.283 76.7417 295.534 86.1704 292.957 95.2246L286.967 116.273L254.179 106.943L260.169 85.8937C262.746 76.8394 272.174 71.5883 281.229 74.165Z" fill="#0D2460"/>
<path d="M281.228 74.1653L281.228 74.1653" stroke="#C7DCF9" stroke-width="0.396948"/>
<path d="M286.967 116.274L254.178 106.943L255.97 100.648" stroke="white" stroke-width="0.396948"/>
<path d="M243.91 140.1C195.143 136.496 178.692 121.595 178.475 116.274C178.31 112.214 188.312 115.733 188.312 115.733C188.312 115.733 188.114 110.904 191.091 112.69C194.068 114.476 194.068 116.858 194.068 116.858L251.321 115.667" stroke="white" stroke-width="0.396948"/>
<path d="M184.803 79.062C178.544 79.062 173.47 73.9881 173.47 67.729C173.47 61.47 178.544 56.396 184.803 56.396C191.062 56.396 196.136 61.47 196.136 67.729" stroke="#0D2460" stroke-width="0.7"/>
<path d="M184.803 79.0625C189.387 79.0625 193.519 81.8237 195.273 86.0586C197.027 90.2934 196.058 95.1679 192.817 98.4092C189.575 101.65 184.701 102.62 180.466 100.866C176.231 99.1117 173.47 94.9793 173.47 90.3955" stroke="#0D2460" stroke-width="0.7"/>
<path d="M184.802 48.6504V109.473" stroke="#0D2460" stroke-width="0.7"/>
<path d="M87.3585 213.763H209.315V208.11H85.442L87.3585 213.763Z" fill="#E8F1F9"/>
<path d="M209.315 208.11H85.442" stroke="#95B5E8" stroke-width="0.343298"/>
<path d="M87.3575 213.762H165.973L146.405 160.551H67.7896L87.3575 213.762Z" fill="#D7E8F7"/>
<path d="M112.686 190.338H116.173C116.577 190.338 116.955 190.141 117.186 189.81C117.417 189.478 117.472 189.055 117.333 188.676L116.718 187.005C116.539 186.519 116.076 186.196 115.558 186.196H112.071C111.667 186.196 111.289 186.393 111.058 186.724C110.827 187.055 110.772 187.478 110.912 187.857L111.526 189.529C111.705 190.015 112.168 190.338 112.686 190.338Z" fill="white"/>
<path d="M67.7896 160.552L87.3575 213.763" stroke="#95B5E8" stroke-width="0.343298"/>
<path d="M216.352 213.763H60.7534" stroke="#95B5E8" stroke-width="0.343298"/>
<path d="M110.145 45C106.924 45 103.835 46.28 101.557 48.5584C99.2796 50.8367 98 53.9269 98 57.149H122.291C122.291 53.9269 121.011 50.8367 118.733 48.5584C116.456 46.28 113.366 45 110.145 45V45Z" fill="white"/>
<path d="M86.7032 66C87.9505 66 89.1468 66.4957 90.0288 67.378C90.9108 68.2602 91.4063 69.4569 91.4063 70.7046H82C82 69.4569 82.4955 68.2602 83.3775 67.378C84.2595 66.4957 85.4558 66 86.7032 66Z" fill="white"/>
</svg>
